<?xml version="1.0" encoding="iso-8859-1"?>
<!-- Generator: Adobe Illustrator 19.0.0, SVG Export Plug-In . SVG Version: 6.00 Build 0)  -->
<svg version="1.1" id="Capa_1" xmlns="http://www.w3.org/2000/svg" xmlns:xlink="http://www.w3.org/1999/xlink" x="0px" y="0px"
	 viewBox="0 0 483.312 483.312" style="enable-background:new 0 0 483.312 483.312;" xml:space="preserve">
<linearGradient id="SVGID_1_" gradientUnits="userSpaceOnUse" x1="-47.219" y1="559.667" x2="-47.219" y2="619.839" gradientTransform="matrix(8 0 0 -8 443.408 4970.8081)">
	<stop  offset="0" style="stop-color:#006DF0"/>
	<stop  offset="1" style="stop-color:#00E7F0"/>
</linearGradient>
<path style="fill:url(#SVGID_1_);" d="M57.656,443.312h16v16h-16V443.312z"/>
<linearGradient id="SVGID_2_" gradientUnits="userSpaceOnUse" x1="-43.219" y1="559.667" x2="-43.219" y2="619.839" gradientTransform="matrix(8 0 0 -8 443.408 4970.8081)">
	<stop  offset="0" style="stop-color:#006DF0"/>
	<stop  offset="1" style="stop-color:#00E7F0"/>
</linearGradient>
<path style="fill:url(#SVGID_2_);" d="M89.656,443.312h16v16h-16V443.312z"/>
<linearGradient id="SVGCleanerId_0_2_" gradientUnits="userSpaceOnUse" x1="-39.219" y1="559.667" x2="-39.219" y2="619.839" gradientTransform="matrix(8 0 0 -8 443.408 4970.8081)">
	<stop  offset="0" style="stop-color:#006DF0"/>
	<stop  offset="1" style="stop-color:#00E7F0"/>
</linearGradient>
<path id="SVGCleanerId_0" style="fill:url(#SVGCleanerId_0_2_);" d="M121.656,443.312h16v16h-16V443.312z"/>
<g>
	
		<linearGradient id="SVGCleanerId_0_3_" gradientUnits="userSpaceOnUse" x1="-39.219" y1="559.667" x2="-39.219" y2="619.839" gradientTransform="matrix(8 0 0 -8 443.408 4970.8081)">
		<stop  offset="0" style="stop-color:#006DF0"/>
		<stop  offset="1" style="stop-color:#00E7F0"/>
	</linearGradient>
	<path id="SVGCleanerId_0_1_" style="fill:url(#SVGCleanerId_0_3_);" d="M121.656,443.312h16v16h-16V443.312z"/>
</g>
<g>
	
		<linearGradient id="SVGID_3_" gradientUnits="userSpaceOnUse" x1="-35.219" y1="559.667" x2="-35.219" y2="619.839" gradientTransform="matrix(8 0 0 -8 443.408 4970.8081)">
		<stop  offset="0" style="stop-color:#006DF0"/>
		<stop  offset="1" style="stop-color:#00E7F0"/>
	</linearGradient>
	<path style="fill:url(#SVGID_3_);" d="M153.656,443.312h16v16h-16V443.312z"/>
	
		<linearGradient id="SVGID_4_" gradientUnits="userSpaceOnUse" x1="-31.219" y1="559.667" x2="-31.219" y2="619.839" gradientTransform="matrix(8 0 0 -8 443.408 4970.8081)">
		<stop  offset="0" style="stop-color:#006DF0"/>
		<stop  offset="1" style="stop-color:#00E7F0"/>
	</linearGradient>
	<path style="fill:url(#SVGID_4_);" d="M185.656,443.312h16v16h-16V443.312z"/>
	
		<linearGradient id="SVGID_5_" gradientUnits="userSpaceOnUse" x1="-27.219" y1="559.667" x2="-27.219" y2="619.839" gradientTransform="matrix(8 0 0 -8 443.408 4970.8081)">
		<stop  offset="0" style="stop-color:#006DF0"/>
		<stop  offset="1" style="stop-color:#00E7F0"/>
	</linearGradient>
	<path style="fill:url(#SVGID_5_);" d="M217.656,443.312h16v16h-16V443.312z"/>
	
		<linearGradient id="SVGID_6_" gradientUnits="userSpaceOnUse" x1="-23.219" y1="559.667" x2="-23.219" y2="619.839" gradientTransform="matrix(8 0 0 -8 443.408 4970.8081)">
		<stop  offset="0" style="stop-color:#006DF0"/>
		<stop  offset="1" style="stop-color:#00E7F0"/>
	</linearGradient>
	<path style="fill:url(#SVGID_6_);" d="M249.656,443.312h16v16h-16V443.312z"/>
	
		<linearGradient id="SVGID_7_" gradientUnits="userSpaceOnUse" x1="-19.219" y1="559.667" x2="-19.219" y2="619.839" gradientTransform="matrix(8 0 0 -8 443.408 4970.8081)">
		<stop  offset="0" style="stop-color:#006DF0"/>
		<stop  offset="1" style="stop-color:#00E7F0"/>
	</linearGradient>
	<path style="fill:url(#SVGID_7_);" d="M281.656,443.312h16v16h-16V443.312z"/>
	
		<linearGradient id="SVGID_8_" gradientUnits="userSpaceOnUse" x1="-15.219" y1="559.667" x2="-15.219" y2="619.839" gradientTransform="matrix(8 0 0 -8 443.408 4970.8081)">
		<stop  offset="0" style="stop-color:#006DF0"/>
		<stop  offset="1" style="stop-color:#00E7F0"/>
	</linearGradient>
	<path style="fill:url(#SVGID_8_);" d="M313.656,443.312h16v16h-16V443.312z"/>
	
		<linearGradient id="SVGID_9_" gradientUnits="userSpaceOnUse" x1="-11.219" y1="559.667" x2="-11.219" y2="619.839" gradientTransform="matrix(8 0 0 -8 443.408 4970.8081)">
		<stop  offset="0" style="stop-color:#006DF0"/>
		<stop  offset="1" style="stop-color:#00E7F0"/>
	</linearGradient>
	<path style="fill:url(#SVGID_9_);" d="M345.656,443.312h16v16h-16V443.312z"/>
	
		<linearGradient id="SVGID_10_" gradientUnits="userSpaceOnUse" x1="-7.219" y1="559.667" x2="-7.219" y2="619.839" gradientTransform="matrix(8 0 0 -8 443.408 4970.8081)">
		<stop  offset="0" style="stop-color:#006DF0"/>
		<stop  offset="1" style="stop-color:#00E7F0"/>
	</linearGradient>
	<path style="fill:url(#SVGID_10_);" d="M377.656,443.312h16v16h-16V443.312z"/>
	
		<linearGradient id="SVGID_11_" gradientUnits="userSpaceOnUse" x1="-3.219" y1="559.667" x2="-3.219" y2="619.839" gradientTransform="matrix(8 0 0 -8 443.408 4970.8081)">
		<stop  offset="0" style="stop-color:#006DF0"/>
		<stop  offset="1" style="stop-color:#00E7F0"/>
	</linearGradient>
	<path style="fill:url(#SVGID_11_);" d="M409.656,443.312h16v16h-16V443.312z"/>
	
		<linearGradient id="SVGID_12_" gradientUnits="userSpaceOnUse" x1="-25.221" y1="559.667" x2="-25.221" y2="619.839" gradientTransform="matrix(8 0 0 -8 443.408 4970.8081)">
		<stop  offset="0" style="stop-color:#006DF0"/>
		<stop  offset="1" style="stop-color:#00E7F0"/>
	</linearGradient>
	<path style="fill:url(#SVGID_12_);" d="M241.656,403.312c83.885,0.065,151.94-67.885,152.005-151.771
		c0.055-71.643-49.959-133.583-120.005-148.621V83.312h51.312L241.656,0l-83.312,83.312h51.312v19.608
		c-82.017,17.608-134.23,98.37-116.621,180.387C108.073,353.353,170.013,403.367,241.656,403.312z M196.968,67.312l44.688-44.688
		l44.688,44.688h-28.688v32.864c-0.504-0.048-1.008,0-1.512-0.08c-4.288-0.416-8.6-0.656-12.92-0.696c-0.52,0-1.04-0.088-1.6-0.088
		s-0.968,0.072-1.456,0.08c-4.373,0.043-8.725,0.277-13.056,0.704c-0.488,0.048-0.992,0-1.488,0.08V67.312L196.968,67.312z
		 M219.04,117.272c14.965-2.608,30.267-2.608,45.232,0h0.144c74.058,12.53,123.936,82.724,111.406,156.782
		S293.098,397.991,219.04,385.46S95.104,302.736,107.634,228.678C117.287,171.624,161.986,126.925,219.04,117.272z"/>
	
		<linearGradient id="SVGID_13_" gradientUnits="userSpaceOnUse" x1="-25.2325" y1="559.667" x2="-25.2325" y2="619.839" gradientTransform="matrix(8 0 0 -8 443.408 4970.8081)">
		<stop  offset="0" style="stop-color:#006DF0"/>
		<stop  offset="1" style="stop-color:#00E7F0"/>
	</linearGradient>
	<path style="fill:url(#SVGID_13_);" d="M241.656,371.312c66.274-0.213,119.827-54.111,119.614-120.384
		c-0.187-58.318-42.275-108.059-99.758-117.896c-13.205-2.296-26.707-2.296-39.912,0c-65.324,11.18-109.217,73.2-98.036,138.524
		C133.414,329.111,183.264,371.221,241.656,371.312L241.656,371.312z M224.296,148.832c11.422-2.011,23.107-2.011,34.528,0
		c56.641,9.535,94.828,63.18,85.293,119.821c-9.535,56.641-63.18,94.828-119.821,85.293c-56.641-9.535-94.828-63.18-85.293-119.821
		C146.359,190.426,180.597,156.188,224.296,148.832z"/>
	
		<linearGradient id="SVGID_14_" gradientUnits="userSpaceOnUse" x1="-25.219" y1="559.667" x2="-25.219" y2="619.839" gradientTransform="matrix(8 0 0 -8 443.408 4970.8081)">
		<stop  offset="0" style="stop-color:#006DF0"/>
		<stop  offset="1" style="stop-color:#00E7F0"/>
	</linearGradient>
	<path style="fill:url(#SVGID_14_);" d="M241.656,307.312c-13.255,0-24-10.745-24-24c0-4.418-3.582-8-8-8s-8,3.582-8,8
		c0.024,19.001,13.389,35.373,32,39.2v8.8c0,4.418,3.582,8,8,8s8-3.582,8-8v-8.8c21.65-4.396,35.636-25.51,31.24-47.16
		c-3.788-18.657-20.202-32.059-39.24-32.04c-13.255,0-24-10.745-24-24s10.745-24,24-24c13.255,0,24,10.745,24,24
		c0,4.418,3.582,8,8,8s8-3.582,8-8c-0.024-19.001-13.389-35.373-32-39.2v-8.8c0-4.418-3.582-8-8-8s-8,3.582-8,8v8.8
		c-21.65,4.396-35.636,25.51-31.24,47.16c3.789,18.657,20.202,32.059,39.24,32.04c13.255,0,24,10.745,24,24
		S254.911,307.312,241.656,307.312z"/>
	
		<linearGradient id="SVGID_15_" gradientUnits="userSpaceOnUse" x1="-25.219" y1="559.667" x2="-25.219" y2="619.839" gradientTransform="matrix(8 0 0 -8 443.408 4970.8081)">
		<stop  offset="0" style="stop-color:#006DF0"/>
		<stop  offset="1" style="stop-color:#00E7F0"/>
	</linearGradient>
	<path style="fill:url(#SVGID_15_);" d="M473.656,227.312h-40c-13.255,0-24,10.745-24,24v168h-336v-168c0-13.255-10.745-24-24-24
		h-40c-4.418,0-8,3.582-8,8v32c0,4.418,3.582,8,8,8h16v184c0,13.255,10.745,24,24,24h384c13.255,0,24-10.745,24-24v-184h16
		c4.418,0,8-3.582,8-8v-32C481.656,230.894,478.074,227.312,473.656,227.312z M465.656,259.312h-16c-4.418,0-8,3.582-8,8v192
		c0,4.418-3.582,8-8,8h-384c-4.418,0-8-3.582-8-8v-192c0-4.418-3.582-8-8-8h-16v-16h32c4.418,0,8,3.582,8,8v176c0,4.418,3.582,8,8,8
		h352c4.418,0,8-3.582,8-8v-176c0-4.418,3.582-8,8-8h32V259.312z"/>
</g>
<g>
</g>
<g>
</g>
<g>
</g>
<g>
</g>
<g>
</g>
<g>
</g>
<g>
</g>
<g>
</g>
<g>
</g>
<g>
</g>
<g>
</g>
<g>
</g>
<g>
</g>
<g>
</g>
<g>
</g>
</svg>
