<?xml version="1.0" encoding="iso-8859-1"?>
<!-- Generator: Adobe Illustrator 19.0.0, SVG Export Plug-In . SVG Version: 6.00 Build 0)  -->
<svg version="1.1" id="Capa_1" xmlns="http://www.w3.org/2000/svg" xmlns:xlink="http://www.w3.org/1999/xlink" x="0px" y="0px"
	 viewBox="0 0 480 480" style="enable-background:new 0 0 480 480;" xml:space="preserve">
<linearGradient id="SVGID_1_" gradientUnits="userSpaceOnUse" x1="-48.875" y1="557.757" x2="-48.875" y2="616.758" gradientTransform="matrix(8 0 0 -8 454.9998 4940.6577)">
	<stop  offset="0" style="stop-color:#006DF0"/>
	<stop  offset="1" style="stop-color:#00E7F0"/>
</linearGradient>
<path style="fill:url(#SVGID_1_);" d="M56,431.962h16v16H56V431.962z"/>
<g>
	
		<linearGradient id="SVGID_2_" gradientUnits="userSpaceOnUse" x1="-52.875" y1="557.757" x2="-52.875" y2="616.758" gradientTransform="matrix(8 0 0 -8 454.9998 4940.6577)">
		<stop  offset="0" style="stop-color:#006DF0"/>
		<stop  offset="1" style="stop-color:#00E7F0"/>
	</linearGradient>
	<path style="fill:url(#SVGID_2_);" d="M24,431.962h16v16H24V431.962z"/>
	
		<linearGradient id="SVGID_3_" gradientUnits="userSpaceOnUse" x1="-44.875" y1="557.757" x2="-44.875" y2="616.758" gradientTransform="matrix(8 0 0 -8 454.9998 4940.6577)">
		<stop  offset="0" style="stop-color:#006DF0"/>
		<stop  offset="1" style="stop-color:#00E7F0"/>
	</linearGradient>
	<path style="fill:url(#SVGID_3_);" d="M88,431.962h16v16H88V431.962z"/>
	
		<linearGradient id="SVGID_4_" gradientUnits="userSpaceOnUse" x1="-40.875" y1="557.757" x2="-40.875" y2="616.758" gradientTransform="matrix(8 0 0 -8 454.9998 4940.6577)">
		<stop  offset="0" style="stop-color:#006DF0"/>
		<stop  offset="1" style="stop-color:#00E7F0"/>
	</linearGradient>
	<path style="fill:url(#SVGID_4_);" d="M120,431.962h16v16h-16V431.962z"/>
</g>
<linearGradient id="SVGCleanerId_0_2_" gradientUnits="userSpaceOnUse" x1="-36.875" y1="557.757" x2="-36.875" y2="616.758" gradientTransform="matrix(8 0 0 -8 454.9998 4940.6577)">
	<stop  offset="0" style="stop-color:#006DF0"/>
	<stop  offset="1" style="stop-color:#00E7F0"/>
</linearGradient>
<path id="SVGCleanerId_0" style="fill:url(#SVGCleanerId_0_2_);" d="M152,431.962h16v16h-16V431.962z"/>
<g>
	
		<linearGradient id="SVGCleanerId_0_3_" gradientUnits="userSpaceOnUse" x1="-36.875" y1="557.757" x2="-36.875" y2="616.758" gradientTransform="matrix(8 0 0 -8 454.9998 4940.6577)">
		<stop  offset="0" style="stop-color:#006DF0"/>
		<stop  offset="1" style="stop-color:#00E7F0"/>
	</linearGradient>
	<path id="SVGCleanerId_0_1_" style="fill:url(#SVGCleanerId_0_3_);" d="M152,431.962h16v16h-16V431.962z"/>
</g>
<g>
	
		<linearGradient id="SVGID_5_" gradientUnits="userSpaceOnUse" x1="-32.875" y1="557.757" x2="-32.875" y2="616.758" gradientTransform="matrix(8 0 0 -8 454.9998 4940.6577)">
		<stop  offset="0" style="stop-color:#006DF0"/>
		<stop  offset="1" style="stop-color:#00E7F0"/>
	</linearGradient>
	<path style="fill:url(#SVGID_5_);" d="M184,431.962h16v16h-16V431.962z"/>
	
		<linearGradient id="SVGID_6_" gradientUnits="userSpaceOnUse" x1="-28.875" y1="557.757" x2="-28.875" y2="616.758" gradientTransform="matrix(8 0 0 -8 454.9998 4940.6577)">
		<stop  offset="0" style="stop-color:#006DF0"/>
		<stop  offset="1" style="stop-color:#00E7F0"/>
	</linearGradient>
	<path style="fill:url(#SVGID_6_);" d="M216,431.962h16v16h-16V431.962z"/>
	
		<linearGradient id="SVGID_7_" gradientUnits="userSpaceOnUse" x1="-24.875" y1="557.757" x2="-24.875" y2="616.758" gradientTransform="matrix(8 0 0 -8 454.9998 4940.6577)">
		<stop  offset="0" style="stop-color:#006DF0"/>
		<stop  offset="1" style="stop-color:#00E7F0"/>
	</linearGradient>
	<path style="fill:url(#SVGID_7_);" d="M248,431.962h16v16h-16V431.962z"/>
	
		<linearGradient id="SVGID_8_" gradientUnits="userSpaceOnUse" x1="-20.875" y1="557.757" x2="-20.875" y2="616.758" gradientTransform="matrix(8 0 0 -8 454.9998 4940.6577)">
		<stop  offset="0" style="stop-color:#006DF0"/>
		<stop  offset="1" style="stop-color:#00E7F0"/>
	</linearGradient>
	<path style="fill:url(#SVGID_8_);" d="M280,431.962h16v16h-16V431.962z"/>
	
		<linearGradient id="SVGID_9_" gradientUnits="userSpaceOnUse" x1="-16.875" y1="557.757" x2="-16.875" y2="616.758" gradientTransform="matrix(8 0 0 -8 454.9998 4940.6577)">
		<stop  offset="0" style="stop-color:#006DF0"/>
		<stop  offset="1" style="stop-color:#00E7F0"/>
	</linearGradient>
	<path style="fill:url(#SVGID_9_);" d="M312,431.962h16v16h-16V431.962z"/>
	
		<linearGradient id="SVGID_10_" gradientUnits="userSpaceOnUse" x1="-12.875" y1="557.757" x2="-12.875" y2="616.758" gradientTransform="matrix(8 0 0 -8 454.9998 4940.6577)">
		<stop  offset="0" style="stop-color:#006DF0"/>
		<stop  offset="1" style="stop-color:#00E7F0"/>
	</linearGradient>
	<path style="fill:url(#SVGID_10_);" d="M344,431.962h16v16h-16V431.962z"/>
	
		<linearGradient id="SVGID_11_" gradientUnits="userSpaceOnUse" x1="-8.875" y1="557.757" x2="-8.875" y2="616.758" gradientTransform="matrix(8 0 0 -8 454.9998 4940.6577)">
		<stop  offset="0" style="stop-color:#006DF0"/>
		<stop  offset="1" style="stop-color:#00E7F0"/>
	</linearGradient>
	<path style="fill:url(#SVGID_11_);" d="M376,431.962h16v16h-16V431.962z"/>
	
		<linearGradient id="SVGID_12_" gradientUnits="userSpaceOnUse" x1="-4.875" y1="557.757" x2="-4.875" y2="616.758" gradientTransform="matrix(8 0 0 -8 454.9998 4940.6577)">
		<stop  offset="0" style="stop-color:#006DF0"/>
		<stop  offset="1" style="stop-color:#00E7F0"/>
	</linearGradient>
	<path style="fill:url(#SVGID_12_);" d="M408,431.962h16v16h-16V431.962z"/>
	
		<linearGradient id="SVGID_13_" gradientUnits="userSpaceOnUse" x1="-0.875" y1="557.757" x2="-0.875" y2="616.758" gradientTransform="matrix(8 0 0 -8 454.9998 4940.6577)">
		<stop  offset="0" style="stop-color:#006DF0"/>
		<stop  offset="1" style="stop-color:#00E7F0"/>
	</linearGradient>
	<path style="fill:url(#SVGID_13_);" d="M440,431.962h16v16h-16V431.962z"/>
	
		<linearGradient id="SVGID_14_" gradientUnits="userSpaceOnUse" x1="-26.875" y1="557.757" x2="-26.875" y2="616.758" gradientTransform="matrix(8 0 0 -8 454.9998 4940.6577)">
		<stop  offset="0" style="stop-color:#006DF0"/>
		<stop  offset="1" style="stop-color:#00E7F0"/>
	</linearGradient>
	<path style="fill:url(#SVGID_14_);" d="M456,127.962h-40v-40c0-13.255-10.745-24-24-24h-93.6
		C280.728,14.035,225.928-12.112,176.002,5.56c-27.283,9.657-48.745,31.119-58.402,58.402H40C17.931,63.94,0.022,81.813,0,103.882
		c0,0.027,0,0.053,0,0.08v336c0.026,22.08,17.92,39.974,40,40h416c13.255,0,24-10.745,24-24v-304
		C480,138.707,469.255,127.962,456,127.962z M392,79.962c4.418,0,8,3.582,8,8v40H298.528c1.016-2.888,1.856-5.832,2.6-8.8
		c0.184-0.8,0.328-1.552,0.496-2.328c0.576-2.6,1.048-5.232,1.408-7.88c0.128-0.944,0.264-1.888,0.368-2.832
		c0.376-3.374,0.577-6.765,0.6-10.16c0-2.528-0.12-5.024-0.304-7.504c-0.064-0.8-0.168-1.6-0.248-2.352
		c-0.168-1.696-0.368-3.376-0.632-5.04c-0.056-0.368-0.072-0.744-0.136-1.104L392,79.962z M208,15.962
		c35.779,0.074,67.181,23.841,76.968,58.256c2.046,7.066,3.067,14.388,3.032,21.744c-0.008,2.994-0.181,5.985-0.52,8.96
		c-0.104,0.96-0.296,1.896-0.432,2.84c-0.296,1.984-0.608,4-1.048,5.904c-0.248,1.096-0.568,2.176-0.864,3.264
		c-0.472,1.768-0.992,3.52-1.6,5.248c-0.392,1.112-0.8,2.208-1.256,3.304c-0.328,0.84-0.728,1.656-1.088,2.48h-42.336
		c4.659-16.801-5.185-34.197-21.985-38.855c-2.888-0.801-5.875-1.186-8.871-1.145c-8.837,0-16-7.163-16-16s7.163-16,16-16
		s16,7.163,16,16c0,4.418,3.582,8,8,8s8-3.582,8-8c-0.055-14.547-9.915-27.227-24-30.864v-9.136c0-4.418-3.582-8-8-8s-8,3.582-8,8
		v9.136c-17.081,4.396-27.364,21.807-22.968,38.888c3.636,14.126,16.381,23.994,30.968,23.976c8.837,0,16,7.163,16,16
		c-0.007,2.814-0.763,5.576-2.192,8h-27.616c-1.429-2.424-2.185-5.186-2.192-8c0-4.418-3.582-8-8-8s-8,3.582-8,8
		c0.041,2.704,0.425,5.393,1.144,8H134.8c-0.36-0.8-0.8-1.6-1.088-2.48c-0.44-1.096-0.864-2.192-1.256-3.304
		c-0.6-1.728-1.12-3.48-1.6-5.248c-0.296-1.088-0.616-2.168-0.864-3.264c-0.44-1.944-0.752-3.92-1.048-5.904
		c-0.136-0.944-0.328-1.88-0.432-2.84c-0.336-2.975-0.507-5.966-0.512-8.96c-0.033-7.386,0.996-14.739,3.056-21.832
		C140.866,39.754,172.252,16.027,208,15.962L208,15.962z M22.976,87.018c4.519-4.51,10.64-7.047,17.024-7.056h73.32
		c-0.064,0.368-0.08,0.8-0.144,1.128c-0.256,1.64-0.448,3.304-0.616,4.968c-0.088,0.8-0.192,1.6-0.256,2.4
		c-0.184,2.48-0.304,4.976-0.304,7.496c0.024,3.392,0.224,6.781,0.6,10.152c0.104,0.952,0.232,1.88,0.368,2.824
		c0.36,2.656,0.8,5.28,1.408,7.896c0.168,0.8,0.312,1.552,0.496,2.32c0.744,2.976,1.6,5.92,2.6,8.8H40
		c-13.255,0.015-24.012-10.718-24.027-23.973c-0.007-6.362,2.512-12.466,7.003-16.971L22.976,87.018z M456,463.962H40
		c-13.255,0-24-10.745-24-24V135.754c6.883,5.294,15.316,8.179,24,8.208h416c4.418,0,8,3.582,8,8v80H360
		c-22.08,0.026-39.974,17.92-40,40v32c0.026,22.08,17.92,39.974,40,40h104v112C464,460.38,460.418,463.962,456,463.962z
		 M464,327.962H360c-13.255,0-24-10.745-24-24v-32c0-13.255,10.745-24,24-24h104V327.962z"/>
</g>
<linearGradient id="SVGID_15_" gradientUnits="userSpaceOnUse" x1="-48.875" y1="557.757" x2="-48.875" y2="616.758" gradientTransform="matrix(8 0 0 -8 454.9998 4940.6577)">
	<stop  offset="0" style="stop-color:#006DF0"/>
	<stop  offset="1" style="stop-color:#00E7F0"/>
</linearGradient>
<path style="fill:url(#SVGID_15_);" d="M56,159.962h16v16H56V159.962z"/>
<g>
	
		<linearGradient id="SVGID_16_" gradientUnits="userSpaceOnUse" x1="-52.875" y1="557.757" x2="-52.875" y2="616.758" gradientTransform="matrix(8 0 0 -8 454.9998 4940.6577)">
		<stop  offset="0" style="stop-color:#006DF0"/>
		<stop  offset="1" style="stop-color:#00E7F0"/>
	</linearGradient>
	<path style="fill:url(#SVGID_16_);" d="M24,159.962h16v16H24V159.962z"/>
	
		<linearGradient id="SVGID_17_" gradientUnits="userSpaceOnUse" x1="-44.875" y1="557.757" x2="-44.875" y2="616.758" gradientTransform="matrix(8 0 0 -8 454.9998 4940.6577)">
		<stop  offset="0" style="stop-color:#006DF0"/>
		<stop  offset="1" style="stop-color:#00E7F0"/>
	</linearGradient>
	<path style="fill:url(#SVGID_17_);" d="M88,159.962h16v16H88V159.962z"/>
	
		<linearGradient id="SVGID_18_" gradientUnits="userSpaceOnUse" x1="-40.875" y1="557.757" x2="-40.875" y2="616.758" gradientTransform="matrix(8 0 0 -8 454.9998 4940.6577)">
		<stop  offset="0" style="stop-color:#006DF0"/>
		<stop  offset="1" style="stop-color:#00E7F0"/>
	</linearGradient>
	<path style="fill:url(#SVGID_18_);" d="M120,159.962h16v16h-16V159.962z"/>
	
		<linearGradient id="SVGID_19_" gradientUnits="userSpaceOnUse" x1="-36.875" y1="557.757" x2="-36.875" y2="616.758" gradientTransform="matrix(8 0 0 -8 454.9998 4940.6577)">
		<stop  offset="0" style="stop-color:#006DF0"/>
		<stop  offset="1" style="stop-color:#00E7F0"/>
	</linearGradient>
	<path style="fill:url(#SVGID_19_);" d="M152,159.962h16v16h-16V159.962z"/>
	
		<linearGradient id="SVGID_20_" gradientUnits="userSpaceOnUse" x1="-32.875" y1="557.757" x2="-32.875" y2="616.758" gradientTransform="matrix(8 0 0 -8 454.9998 4940.6577)">
		<stop  offset="0" style="stop-color:#006DF0"/>
		<stop  offset="1" style="stop-color:#00E7F0"/>
	</linearGradient>
	<path style="fill:url(#SVGID_20_);" d="M184,159.962h16v16h-16V159.962z"/>
	
		<linearGradient id="SVGID_21_" gradientUnits="userSpaceOnUse" x1="-28.875" y1="557.757" x2="-28.875" y2="616.758" gradientTransform="matrix(8 0 0 -8 454.9998 4940.6577)">
		<stop  offset="0" style="stop-color:#006DF0"/>
		<stop  offset="1" style="stop-color:#00E7F0"/>
	</linearGradient>
	<path style="fill:url(#SVGID_21_);" d="M216,159.962h16v16h-16V159.962z"/>
	
		<linearGradient id="SVGID_22_" gradientUnits="userSpaceOnUse" x1="-24.875" y1="557.757" x2="-24.875" y2="616.758" gradientTransform="matrix(8 0 0 -8 454.9998 4940.6577)">
		<stop  offset="0" style="stop-color:#006DF0"/>
		<stop  offset="1" style="stop-color:#00E7F0"/>
	</linearGradient>
	<path style="fill:url(#SVGID_22_);" d="M248,159.962h16v16h-16V159.962z"/>
	
		<linearGradient id="SVGID_23_" gradientUnits="userSpaceOnUse" x1="-20.875" y1="557.757" x2="-20.875" y2="616.758" gradientTransform="matrix(8 0 0 -8 454.9998 4940.6577)">
		<stop  offset="0" style="stop-color:#006DF0"/>
		<stop  offset="1" style="stop-color:#00E7F0"/>
	</linearGradient>
	<path style="fill:url(#SVGID_23_);" d="M280,159.962h16v16h-16V159.962z"/>
	
		<linearGradient id="SVGID_24_" gradientUnits="userSpaceOnUse" x1="-16.875" y1="557.757" x2="-16.875" y2="616.758" gradientTransform="matrix(8 0 0 -8 454.9998 4940.6577)">
		<stop  offset="0" style="stop-color:#006DF0"/>
		<stop  offset="1" style="stop-color:#00E7F0"/>
	</linearGradient>
	<path style="fill:url(#SVGID_24_);" d="M312,159.962h16v16h-16V159.962z"/>
	
		<linearGradient id="SVGID_25_" gradientUnits="userSpaceOnUse" x1="-12.875" y1="557.757" x2="-12.875" y2="616.758" gradientTransform="matrix(8 0 0 -8 454.9998 4940.6577)">
		<stop  offset="0" style="stop-color:#006DF0"/>
		<stop  offset="1" style="stop-color:#00E7F0"/>
	</linearGradient>
	<path style="fill:url(#SVGID_25_);" d="M344,159.962h16v16h-16V159.962z"/>
	
		<linearGradient id="SVGID_26_" gradientUnits="userSpaceOnUse" x1="-8.875" y1="557.757" x2="-8.875" y2="616.758" gradientTransform="matrix(8 0 0 -8 454.9998 4940.6577)">
		<stop  offset="0" style="stop-color:#006DF0"/>
		<stop  offset="1" style="stop-color:#00E7F0"/>
	</linearGradient>
	<path style="fill:url(#SVGID_26_);" d="M376,159.962h16v16h-16V159.962z"/>
	
		<linearGradient id="SVGID_27_" gradientUnits="userSpaceOnUse" x1="-4.875" y1="557.757" x2="-4.875" y2="616.758" gradientTransform="matrix(8 0 0 -8 454.9998 4940.6577)">
		<stop  offset="0" style="stop-color:#006DF0"/>
		<stop  offset="1" style="stop-color:#00E7F0"/>
	</linearGradient>
	<path style="fill:url(#SVGID_27_);" d="M408,159.962h16v16h-16V159.962z"/>
	
		<linearGradient id="SVGID_28_" gradientUnits="userSpaceOnUse" x1="-0.875" y1="557.757" x2="-0.875" y2="616.758" gradientTransform="matrix(8 0 0 -8 454.9998 4940.6577)">
		<stop  offset="0" style="stop-color:#006DF0"/>
		<stop  offset="1" style="stop-color:#00E7F0"/>
	</linearGradient>
	<path style="fill:url(#SVGID_28_);" d="M440,159.962h16v16h-16V159.962z"/>
	
		<linearGradient id="SVGID_29_" gradientUnits="userSpaceOnUse" x1="-9.875" y1="557.757" x2="-9.875" y2="616.758" gradientTransform="matrix(8 0 0 -8 454.9998 4940.6577)">
		<stop  offset="0" style="stop-color:#006DF0"/>
		<stop  offset="1" style="stop-color:#00E7F0"/>
	</linearGradient>
	<path style="fill:url(#SVGID_29_);" d="M352,287.962c0,13.255,10.745,24,24,24s24-10.745,24-24s-10.745-24-24-24
		S352,274.707,352,287.962z M376,279.962c4.418,0,8,3.582,8,8s-3.582,8-8,8s-8-3.582-8-8S371.582,279.962,376,279.962z"/>
</g>
<g>
</g>
<g>
</g>
<g>
</g>
<g>
</g>
<g>
</g>
<g>
</g>
<g>
</g>
<g>
</g>
<g>
</g>
<g>
</g>
<g>
</g>
<g>
</g>
<g>
</g>
<g>
</g>
<g>
</g>
</svg>
