<?xml version="1.0" encoding="iso-8859-1"?>
<!-- Generator: Adobe Illustrator 19.0.0, SVG Export Plug-In . SVG Version: 6.00 Build 0)  -->
<svg version="1.1" id="Capa_1" xmlns="http://www.w3.org/2000/svg" xmlns:xlink="http://www.w3.org/1999/xlink" x="0px" y="0px"
	 viewBox="0 0 480.112 480.112" style="enable-background:new 0 0 480.112 480.112;" xml:space="preserve">
<linearGradient id="SVGID_1_" gradientUnits="userSpaceOnUse" x1="-26.7696" y1="546.4421" x2="-26.7696" y2="603.2461" gradientTransform="matrix(8 0 0 -8 454.213 4833.0635)">
	<stop  offset="0" style="stop-color:#006DF0"/>
	<stop  offset="1" style="stop-color:#00E7F0"/>
</linearGradient>
<path style="fill:url(#SVGID_1_);" d="M472.112,356.007h-60.688l-97.36-97.36l86.568-86.64h23.48c13.255,0,24-10.745,24-24v-32
	c0-4.418-3.582-8-8-8h-320c-4.418,0-8,3.582-8,8v32c0,13.255,10.745,24,24,24h23.48l86.592,86.616L148.8,356.007H88.112
	c-4.418,0-8,3.582-8,8v24h-8c-4.418,0-8-3.582-8-8v-328c-0.036-10.569-6.997-19.864-17.128-22.872
	c-3.827-12.69-17.216-19.876-29.907-16.049S-2.798,30.302,1.028,42.992s17.216,19.876,29.907,16.049
	c6.507-1.962,11.878-6.592,14.777-12.739c1.533,1.502,2.398,3.558,2.4,5.704v328c0,13.255,10.745,24,24,24h8v8
	c0,13.255,10.745,24,24,24h24.8c4.396,21.65,25.51,35.636,47.16,31.24c15.741-3.196,28.044-15.499,31.24-31.24h145.6
	c4.396,21.65,25.51,35.636,47.16,31.24c15.741-3.196,28.044-15.499,31.24-31.24h24.8c13.255,0,24-10.745,24-24v-48
	C480.112,359.589,476.531,356.007,472.112,356.007L472.112,356.007z M24.112,44.007c-4.418,0-8-3.582-8-8s3.582-8,8-8s8,3.582,8,8
	S28.531,44.007,24.112,44.007z M302.752,247.335l-11.328-11.328l64-64h22.584L302.752,247.335z M227.424,172.007H332.8
	l-52.688,52.688L227.424,172.007z M128.112,148.007v-24h304v24c0,4.418-3.582,8-8,8h-288
	C131.694,156.007,128.112,152.425,128.112,148.007L128.112,148.007z M204.8,172.007l184,184h-22.656l-183.928-184H204.8z
	 M343.52,356.007H216.704l63.408-63.424L343.52,356.007z M257.472,269.959l11.328,11.328l-74.72,74.72h-22.656L257.472,269.959z
	 M168.112,452.007c-13.255,0-24-10.745-24-24s10.745-24,24-24s24,10.745,24,24S181.367,452.007,168.112,452.007z M392.112,452.007
	c-13.255,0-24-10.745-24-24s10.745-24,24-24s24,10.745,24,24S405.367,452.007,392.112,452.007z M464.112,412.007
	c0,4.418-3.582,8-8,8h-24.8c0-0.144-0.096-0.272-0.128-0.416c-0.494-2.278-1.187-4.508-2.072-6.664
	c-0.312-0.8-0.736-1.472-1.096-2.216c-0.686-1.458-1.458-2.873-2.312-4.24c-0.512-0.8-1.096-1.528-1.656-2.28
	c-0.882-1.194-1.827-2.339-2.832-3.432c-0.672-0.712-1.368-1.376-2.088-2.04c-1.07-0.993-2.198-1.922-3.376-2.784
	c-0.8-0.584-1.6-1.144-2.4-1.672c-1.293-0.789-2.629-1.507-4-2.152c-0.848-0.408-1.672-0.8-2.552-1.192
	c-1.567-0.594-3.17-1.089-4.8-1.48c-0.8-0.208-1.552-0.48-2.36-0.64c-5.015-1.024-10.185-1.024-15.2,0
	c-0.8,0.16-1.6,0.432-2.36,0.64c-1.63,0.391-3.233,0.886-4.8,1.48c-0.88,0.352-1.704,0.8-2.552,1.192
	c-1.371,0.645-2.707,1.363-4,2.152c-0.8,0.528-1.6,1.088-2.4,1.672c-1.178,0.862-2.306,1.791-3.376,2.784
	c-0.72,0.664-1.416,1.328-2.088,2.04c-1.005,1.093-1.95,2.238-2.832,3.432c-0.56,0.752-1.144,1.48-1.656,2.28
	c-0.854,1.367-1.626,2.782-2.312,4.24c-0.36,0.744-0.8,1.448-1.096,2.216c-0.885,2.156-1.578,4.386-2.072,6.664
	c0,0.144-0.096,0.272-0.128,0.416H207.312c0-0.144-0.096-0.272-0.128-0.416c-0.494-2.278-1.187-4.508-2.072-6.664
	c-0.312-0.8-0.736-1.472-1.096-2.216c-0.686-1.458-1.458-2.873-2.312-4.24c-0.512-0.8-1.096-1.528-1.656-2.28
	c-0.882-1.194-1.827-2.339-2.832-3.432c-0.672-0.712-1.368-1.376-2.088-2.04c-1.07-0.993-2.198-1.922-3.376-2.784
	c-0.8-0.584-1.6-1.144-2.4-1.672c-1.293-0.789-2.629-1.507-4-2.152c-0.848-0.408-1.672-0.8-2.552-1.192
	c-1.554-0.593-3.144-1.087-4.76-1.48c-0.8-0.208-1.552-0.48-2.4-0.64c-5.015-1.024-10.185-1.024-15.2,0
	c-0.8,0.16-1.6,0.432-2.4,0.64c-1.616,0.393-3.206,0.887-4.76,1.48c-0.88,0.352-1.704,0.8-2.552,1.192
	c-1.371,0.645-2.707,1.363-4,2.152c-0.8,0.528-1.6,1.088-2.4,1.672c-1.178,0.862-2.306,1.791-3.376,2.784
	c-0.72,0.664-1.416,1.328-2.088,2.04c-1.005,1.093-1.95,2.238-2.832,3.432c-0.56,0.752-1.144,1.48-1.656,2.28
	c-0.854,1.367-1.626,2.782-2.312,4.24c-0.36,0.744-0.8,1.448-1.096,2.216c-0.885,2.156-1.578,4.386-2.072,6.664
	c0,0.144-0.096,0.272-0.128,0.416h-24.656c-4.418,0-8-3.582-8-8v-40h368L464.112,412.007z"/>
<g>
</g>
<g>
</g>
<g>
</g>
<g>
</g>
<g>
</g>
<g>
</g>
<g>
</g>
<g>
</g>
<g>
</g>
<g>
</g>
<g>
</g>
<g>
</g>
<g>
</g>
<g>
</g>
<g>
</g>
</svg>
