<?xml version="1.0" encoding="iso-8859-1"?>
<!-- Generator: Adobe Illustrator 19.0.0, SVG Export Plug-In . SVG Version: 6.00 Build 0)  -->
<svg version="1.1" id="Capa_1" xmlns="http://www.w3.org/2000/svg" xmlns:xlink="http://www.w3.org/1999/xlink" x="0px" y="0px"
	 viewBox="0 0 480 480" style="enable-background:new 0 0 480 480;" xml:space="preserve">
<linearGradient id="SVGID_1_" gradientUnits="userSpaceOnUse" x1="-26.875" y1="532.6241" x2="-26.875" y2="592.1761" gradientTransform="matrix(8 0 0 -8 455 4724.9922)">
	<stop  offset="0" style="stop-color:#006DF0"/>
	<stop  offset="1" style="stop-color:#00E7F0"/>
</linearGradient>
<path style="fill:url(#SVGID_1_);" d="M456,455.999H24c-13.255,0-24-10.745-24-24v-48c0-13.255,10.745-24,24-24h432
	c13.255,0,24,10.745,24,24v48C480,445.254,469.255,455.999,456,455.999z M24,375.999c-4.418,0-8,3.582-8,8v48c0,4.418,3.582,8,8,8
	h432c4.418,0,8-3.582,8-8v-48c0-4.418-3.582-8-8-8H24z"/>
<g>
	
		<linearGradient id="SVGID_2_" gradientUnits="userSpaceOnUse" x1="-48.875" y1="532.6241" x2="-48.875" y2="592.1761" gradientTransform="matrix(8 0 0 -8 455 4724.9922)">
		<stop  offset="0" style="stop-color:#006DF0"/>
		<stop  offset="1" style="stop-color:#00E7F0"/>
	</linearGradient>
	<path style="fill:url(#SVGID_2_);" d="M56,399.999h16v16H56V399.999z"/>
	
		<linearGradient id="SVGID_3_" gradientUnits="userSpaceOnUse" x1="-52.875" y1="532.6241" x2="-52.875" y2="592.1761" gradientTransform="matrix(8 0 0 -8 455 4724.9922)">
		<stop  offset="0" style="stop-color:#006DF0"/>
		<stop  offset="1" style="stop-color:#00E7F0"/>
	</linearGradient>
	<path style="fill:url(#SVGID_3_);" d="M24,399.999h16v16H24V399.999z"/>
	
		<linearGradient id="SVGID_4_" gradientUnits="userSpaceOnUse" x1="-44.875" y1="532.6241" x2="-44.875" y2="592.1761" gradientTransform="matrix(8 0 0 -8 455 4724.9922)">
		<stop  offset="0" style="stop-color:#006DF0"/>
		<stop  offset="1" style="stop-color:#00E7F0"/>
	</linearGradient>
	<path style="fill:url(#SVGID_4_);" d="M88,399.999h16v16H88V399.999z"/>
	
		<linearGradient id="SVGID_5_" gradientUnits="userSpaceOnUse" x1="-40.875" y1="532.6241" x2="-40.875" y2="592.1761" gradientTransform="matrix(8 0 0 -8 455 4724.9922)">
		<stop  offset="0" style="stop-color:#006DF0"/>
		<stop  offset="1" style="stop-color:#00E7F0"/>
	</linearGradient>
	<path style="fill:url(#SVGID_5_);" d="M120,399.999h16v16h-16V399.999z"/>
</g>
<linearGradient id="SVGCleanerId_0_2_" gradientUnits="userSpaceOnUse" x1="-36.875" y1="532.6241" x2="-36.875" y2="592.1761" gradientTransform="matrix(8 0 0 -8 455 4724.9922)">
	<stop  offset="0" style="stop-color:#006DF0"/>
	<stop  offset="1" style="stop-color:#00E7F0"/>
</linearGradient>
<path id="SVGCleanerId_0" style="fill:url(#SVGCleanerId_0_2_);" d="M152,399.999h16v16h-16V399.999z"/>
<g>
	
		<linearGradient id="SVGCleanerId_0_3_" gradientUnits="userSpaceOnUse" x1="-36.875" y1="532.6241" x2="-36.875" y2="592.1761" gradientTransform="matrix(8 0 0 -8 455 4724.9922)">
		<stop  offset="0" style="stop-color:#006DF0"/>
		<stop  offset="1" style="stop-color:#00E7F0"/>
	</linearGradient>
	<path id="SVGCleanerId_0_1_" style="fill:url(#SVGCleanerId_0_3_);" d="M152,399.999h16v16h-16V399.999z"/>
</g>
<g>
	
		<linearGradient id="SVGID_6_" gradientUnits="userSpaceOnUse" x1="-32.875" y1="532.6241" x2="-32.875" y2="592.1761" gradientTransform="matrix(8 0 0 -8 455 4724.9922)">
		<stop  offset="0" style="stop-color:#006DF0"/>
		<stop  offset="1" style="stop-color:#00E7F0"/>
	</linearGradient>
	<path style="fill:url(#SVGID_6_);" d="M184,399.999h16v16h-16V399.999z"/>
	
		<linearGradient id="SVGID_7_" gradientUnits="userSpaceOnUse" x1="-28.875" y1="532.6241" x2="-28.875" y2="592.1761" gradientTransform="matrix(8 0 0 -8 455 4724.9922)">
		<stop  offset="0" style="stop-color:#006DF0"/>
		<stop  offset="1" style="stop-color:#00E7F0"/>
	</linearGradient>
	<path style="fill:url(#SVGID_7_);" d="M216,399.999h16v16h-16V399.999z"/>
	
		<linearGradient id="SVGID_8_" gradientUnits="userSpaceOnUse" x1="-24.875" y1="532.6241" x2="-24.875" y2="592.1761" gradientTransform="matrix(8 0 0 -8 455 4724.9922)">
		<stop  offset="0" style="stop-color:#006DF0"/>
		<stop  offset="1" style="stop-color:#00E7F0"/>
	</linearGradient>
	<path style="fill:url(#SVGID_8_);" d="M248,399.999h16v16h-16V399.999z"/>
	
		<linearGradient id="SVGID_9_" gradientUnits="userSpaceOnUse" x1="-20.875" y1="532.6241" x2="-20.875" y2="592.1761" gradientTransform="matrix(8 0 0 -8 455 4724.9922)">
		<stop  offset="0" style="stop-color:#006DF0"/>
		<stop  offset="1" style="stop-color:#00E7F0"/>
	</linearGradient>
	<path style="fill:url(#SVGID_9_);" d="M280,399.999h16v16h-16V399.999z"/>
	
		<linearGradient id="SVGID_10_" gradientUnits="userSpaceOnUse" x1="-16.875" y1="532.6241" x2="-16.875" y2="592.1761" gradientTransform="matrix(8 0 0 -8 455 4724.9922)">
		<stop  offset="0" style="stop-color:#006DF0"/>
		<stop  offset="1" style="stop-color:#00E7F0"/>
	</linearGradient>
	<path style="fill:url(#SVGID_10_);" d="M312,399.999h16v16h-16V399.999z"/>
	
		<linearGradient id="SVGID_11_" gradientUnits="userSpaceOnUse" x1="-12.875" y1="532.6241" x2="-12.875" y2="592.1761" gradientTransform="matrix(8 0 0 -8 455 4724.9922)">
		<stop  offset="0" style="stop-color:#006DF0"/>
		<stop  offset="1" style="stop-color:#00E7F0"/>
	</linearGradient>
	<path style="fill:url(#SVGID_11_);" d="M344,399.999h16v16h-16V399.999z"/>
	
		<linearGradient id="SVGID_12_" gradientUnits="userSpaceOnUse" x1="-8.875" y1="532.6241" x2="-8.875" y2="592.1761" gradientTransform="matrix(8 0 0 -8 455 4724.9922)">
		<stop  offset="0" style="stop-color:#006DF0"/>
		<stop  offset="1" style="stop-color:#00E7F0"/>
	</linearGradient>
	<path style="fill:url(#SVGID_12_);" d="M376,399.999h16v16h-16V399.999z"/>
	
		<linearGradient id="SVGID_13_" gradientUnits="userSpaceOnUse" x1="-4.875" y1="532.6241" x2="-4.875" y2="592.1761" gradientTransform="matrix(8 0 0 -8 455 4724.9922)">
		<stop  offset="0" style="stop-color:#006DF0"/>
		<stop  offset="1" style="stop-color:#00E7F0"/>
	</linearGradient>
	<path style="fill:url(#SVGID_13_);" d="M408,399.999h16v16h-16V399.999z"/>
	
		<linearGradient id="SVGID_14_" gradientUnits="userSpaceOnUse" x1="-0.875" y1="532.6241" x2="-0.875" y2="592.1761" gradientTransform="matrix(8 0 0 -8 455 4724.9922)">
		<stop  offset="0" style="stop-color:#006DF0"/>
		<stop  offset="1" style="stop-color:#00E7F0"/>
	</linearGradient>
	<path style="fill:url(#SVGID_14_);" d="M440,399.999h16v16h-16V399.999z"/>
	
		<linearGradient id="SVGID_15_" gradientUnits="userSpaceOnUse" x1="-13.8725" y1="532.6241" x2="-13.8725" y2="592.1761" gradientTransform="matrix(8 0 0 -8 455 4724.9922)">
		<stop  offset="0" style="stop-color:#006DF0"/>
		<stop  offset="1" style="stop-color:#00E7F0"/>
	</linearGradient>
	<path style="fill:url(#SVGID_15_);" d="M360,343.999h-32c-4.418,0-8-3.582-8-8v-223.44l-31.624,31.576
		c-1.5,1.5-3.534,2.344-5.656,2.344c-2.122,0-4.156-0.844-5.656-2.344l-22.624-22.536c-3.13-3.118-3.14-8.183-0.022-11.314
		c0.007-0.007,0.015-0.015,0.022-0.022l83.92-83.92c3.124-3.123,8.188-3.123,11.312,0l83.928,83.92
		c3.13,3.118,3.14,8.183,0.022,11.314c-0.007,0.007-0.015,0.015-0.022,0.022l-22.624,22.536c-3.174,3.001-8.138,3.001-11.312,0
		L368,112.559v223.44C368,340.417,364.418,343.999,360,343.999z M336,327.999h16V93.279c0.001-4.418,3.583-7.999,8.002-7.998
		c2.117,0,4.147,0.84,5.646,2.334l39.632,39.584l11.312-11.264L344,43.311l-72.592,72.592l11.312,11.296l39.632-39.552
		c3.129-3.119,8.194-3.111,11.314,0.018c1.487,1.491,2.325,3.509,2.334,5.614V327.999z"/>
	
		<linearGradient id="SVGID_16_" gradientUnits="userSpaceOnUse" x1="-39.8725" y1="532.6241" x2="-39.8725" y2="592.1761" gradientTransform="matrix(8 0 0 -8 455 4724.9922)">
		<stop  offset="0" style="stop-color:#006DF0"/>
		<stop  offset="1" style="stop-color:#00E7F0"/>
	</linearGradient>
	<path style="fill:url(#SVGID_16_);" d="M152,343.999h-32c-4.418,0-8-3.582-8-8v-223.44l-31.624,31.576
		c-1.5,1.5-3.534,2.344-5.656,2.344c-2.122,0-4.156-0.844-5.656-2.344L46.44,121.599c-3.13-3.118-3.14-8.183-0.022-11.314
		c0.007-0.007,0.015-0.015,0.022-0.022l83.92-83.92c3.124-3.123,8.188-3.123,11.312,0l83.928,83.92
		c3.13,3.118,3.14,8.183,0.022,11.314c-0.007,0.007-0.015,0.015-0.022,0.022l-22.624,22.536c-3.174,3.001-8.138,3.001-11.312,0
		L160,112.559v223.44C160,340.417,156.418,343.999,152,343.999L152,343.999z M128,327.999h16V93.279
		c0.001-4.418,3.583-7.999,8.002-7.998c2.117,0,4.147,0.84,5.646,2.334l39.632,39.584l11.312-11.264L136,43.311l-72.592,72.592
		l11.312,11.296l39.632-39.552c3.129-3.119,8.194-3.111,11.314,0.018c1.487,1.491,2.325,3.509,2.334,5.614V327.999z"/>
</g>
<g>
</g>
<g>
</g>
<g>
</g>
<g>
</g>
<g>
</g>
<g>
</g>
<g>
</g>
<g>
</g>
<g>
</g>
<g>
</g>
<g>
</g>
<g>
</g>
<g>
</g>
<g>
</g>
<g>
</g>
</svg>
