<?xml version="1.0" encoding="iso-8859-1"?>
<!-- Generator: Adobe Illustrator 19.0.0, SVG Export Plug-In . SVG Version: 6.00 Build 0)  -->
<svg version="1.1" id="Capa_1" xmlns="http://www.w3.org/2000/svg" xmlns:xlink="http://www.w3.org/1999/xlink" x="0px" y="0px"
	 viewBox="0 0 480.027 480.027" style="enable-background:new 0 0 480.027 480.027;" xml:space="preserve">
<linearGradient id="SVGID_1_" gradientUnits="userSpaceOnUse" x1="-26.8614" y1="557.6216" x2="-26.8614" y2="620.2786" gradientTransform="matrix(8 0 0 -8 454.905 4941)">
	<stop  offset="0" style="stop-color:#006DF0"/>
	<stop  offset="1" style="stop-color:#00E7F0"/>
</linearGradient>
<path style="fill:url(#SVGID_1_);" d="M416.014,64h-105.76c-4.176-0.022-8.28,1.084-11.88,3.2l-18.36,10.608V40
	c0-22.091-17.909-40-40-40c-22.091,0-40,17.909-40,40v84l-32.92,19c-1.178,0.681-2.52,1.027-3.88,1h-99.2
	c-13.228,0.066-23.934,10.772-24,24c0,13.255,10.745,24,24,24h107.68c4.257,0.006,8.439-1.117,12.12-3.256l16.2-9.352V280
	c-53.019,22.091-78.091,82.981-56,136s82.981,78.091,136,56s78.091-82.981,56-136c-10.551-25.322-30.678-45.449-56-56V133.216
	l35-20.2c1.176-0.687,2.518-1.038,3.88-1.016h97.12c13.255,0,24-10.745,24-24S429.268,64,416.014,64z M216.014,40
	c0-13.255,10.745-24,24-24c13.255,0,24,10.745,24,24v24h-24c-4.418,0-8,3.582-8,8s3.582,8,8,8h24v6.984l-48,27.712V40z M264.014,160
	h-24c-4.418,0-8,3.582-8,8s3.582,8,8,8h24v16h-24c-4.418,0-8,3.582-8,8s3.582,8,8,8h24v16h-24c-4.418,0-8,3.582-8,8s3.582,8,8,8h24
	v16h-24c-4.418,0-8,3.582-8,8s3.582,8,8,8h24v13.52c0.001,3.394,2.143,6.417,5.344,7.544
	c45.819,16.206,69.826,66.488,53.619,112.307s-66.488,69.826-112.307,53.619s-69.826-66.488-53.619-112.307
	c8.861-25.052,28.567-44.759,53.619-53.619c3.201-1.127,5.343-4.15,5.344-7.544V170.16l48-27.704V160z M416.014,96h-97.12
	c-4.215-0.031-8.36,1.074-12,3.2L175.75,174.928c-1.233,0.71-2.633,1.08-4.056,1.072H64.014c-4.418,0-8-3.582-8-8
	c-0.007-2.156,0.879-4.218,2.448-5.696c1.459-1.493,3.465-2.325,5.552-2.304h99.2c4.215,0.032,8.361-1.073,12-3.2l131.24-75.752
	c1.146-0.692,2.461-1.055,3.8-1.048h105.76c4.418,0,8,3.582,8,8S420.432,96,416.014,96z"/>
<linearGradient id="SVGID_2_" gradientUnits="userSpaceOnUse" x1="-26.8614" y1="557.658" x2="-26.8614" y2="620.315" gradientTransform="matrix(8 0 0 -8 454.905 4941)">
	<stop  offset="0" style="stop-color:#006DF0"/>
	<stop  offset="1" style="stop-color:#00E7F0"/>
</linearGradient>
<path style="fill:url(#SVGID_2_);" d="M240.014,416c-22.091,0-40-17.909-40-40s17.909-40,40-40c22.091,0,40,17.909,40,40
	C279.987,398.08,262.094,415.974,240.014,416z M240.014,352c-13.255,0-24,10.745-24,24s10.745,24,24,24c13.255,0,24-10.745,24-24
	S253.268,352,240.014,352z"/>
<g>
</g>
<g>
</g>
<g>
</g>
<g>
</g>
<g>
</g>
<g>
</g>
<g>
</g>
<g>
</g>
<g>
</g>
<g>
</g>
<g>
</g>
<g>
</g>
<g>
</g>
<g>
</g>
<g>
</g>
</svg>
