<?xml version="1.0" encoding="iso-8859-1"?>
<!-- Generator: Adobe Illustrator 19.0.0, SVG Export Plug-In . SVG Version: 6.00 Build 0)  -->
<svg version="1.1" id="Capa_1" xmlns="http://www.w3.org/2000/svg" xmlns:xlink="http://www.w3.org/1999/xlink" x="0px" y="0px"
	 viewBox="0 0 484.045 484.045" style="enable-background:new 0 0 484.045 484.045;" xml:space="preserve">
<linearGradient id="SVGID_1_" gradientUnits="userSpaceOnUse" x1="-83.6703" y1="555.2926" x2="-43.0233" y2="595.9676" gradientTransform="matrix(5.6588 -5.6549 -5.6549 -5.6588 3648.8894 3138.4939)">
	<stop  offset="0" style="stop-color:#006DF0"/>
	<stop  offset="1" style="stop-color:#00E7F0"/>
</linearGradient>
<path style="fill:url(#SVGID_1_);" d="M23.99,273.291l11.318-11.31l11.31,11.318l-11.318,11.31L23.99,273.291z"/>
<linearGradient id="SVGID_2_" gradientUnits="userSpaceOnUse" x1="-54.7106" y1="550.3311" x2="-14.0496" y2="590.9901" gradientTransform="matrix(5.6569 -5.6569 -5.6569 -5.6569 3593.7305 3273.009)">
	<stop  offset="0" style="stop-color:#006DF0"/>
	<stop  offset="1" style="stop-color:#00E7F0"/>
</linearGradient>
<path style="fill:url(#SVGID_2_);" d="M159.77,409.058l11.314-11.314l11.314,11.314l-11.314,11.314L159.77,409.058z"/>
<linearGradient id="SVGID_3_" gradientUnits="userSpaceOnUse" x1="-49.8876" y1="549.5023" x2="-9.2146" y2="590.1603" gradientTransform="matrix(5.6558 -5.6578 -5.6578 -5.6558 3584.8567 3295.0471)">
	<stop  offset="0" style="stop-color:#006DF0"/>
	<stop  offset="1" style="stop-color:#00E7F0"/>
</linearGradient>
<path style="fill:url(#SVGID_3_);" d="M182.391,431.733l11.312-11.316l11.316,11.312l-11.312,11.316L182.391,431.733z"/>
<g>
	
		<linearGradient id="SVGID_4_" gradientUnits="userSpaceOnUse" x1="-22.7141" y1="538.4504" x2="-11.779" y2="595.9544" gradientTransform="matrix(8 0 0 -8 453.4956 4848.2671)">
		<stop  offset="0" style="stop-color:#006DF0"/>
		<stop  offset="1" style="stop-color:#00E7F0"/>
	</linearGradient>
	<path style="fill:url(#SVGID_4_);" d="M323.927,89.416c-15.619,15.623-15.616,40.95,0.007,56.569s40.95,15.616,56.569-0.007
		c15.616-15.62,15.616-40.941,0-56.561c-15.406-15.623-40.559-15.799-56.182-0.393C324.188,89.153,324.057,89.284,323.927,89.416z
		 M369.191,134.664c-9.37,9.376-24.566,9.38-33.941,0.011c-9.376-9.37-9.38-24.566-0.011-33.941s24.566-9.38,33.941-0.011
		c4.503,4.501,7.034,10.606,7.035,16.973C376.211,124.059,373.685,130.161,369.191,134.664z"/>
	
		<linearGradient id="SVGID_5_" gradientUnits="userSpaceOnUse" x1="-35.5043" y1="540.8826" x2="-24.5693" y2="598.3867" gradientTransform="matrix(8 0 0 -8 453.4956 4848.2671)">
		<stop  offset="0" style="stop-color:#006DF0"/>
		<stop  offset="1" style="stop-color:#00E7F0"/>
	</linearGradient>
	<path style="fill:url(#SVGID_5_);" d="M289.871,165.816l-11.872,11.88c-7.904-5.577-17.058-9.124-26.656-10.328l-1.072-0.144
		l-1.064,0.144c-20.136,1.77-37.438,15.01-44.408,33.984c-5.917,17.293-1.437,36.446,11.536,49.32
		c8.645,8.588,11.63,21.357,7.688,32.888c-4.827,12.884-16.609,21.861-30.312,23.096c-13.696-1.247-25.469-10.226-30.296-23.104
		c-3.938-11.532-0.95-24.301,7.696-32.888l-11.312-11.312c-12.981,12.869-17.479,32.018-11.584,49.32
		c1.505,4.434,3.662,8.618,6.4,12.416l-11.824,11.808l11.312,11.312l11.88-11.864c7.903,5.573,17.053,9.12,26.648,10.328l1.08,0.144
		l1.072-0.144c20.133-1.778,37.43-15.02,44.4-33.992c5.909-17.293,1.43-36.442-11.536-49.32
		c-8.646-8.587-11.634-21.356-7.696-32.888c4.835-12.879,16.619-21.852,30.32-23.088c13.701,1.236,25.485,10.209,30.32,23.088
		c3.946,11.53,0.96,24.302-7.688,32.888l11.312,11.304c16.601-16.54,18.788-42.666,5.168-61.736l11.8-11.8L289.871,165.816z"/>
</g>
<linearGradient id="SVGID_6_" gradientUnits="userSpaceOnUse" x1="-78.8532" y1="554.4726" x2="-38.1912" y2="595.1336" gradientTransform="matrix(5.6569 -5.6569 -5.6569 -5.6569 3640.5864 3159.873)">
	<stop  offset="0" style="stop-color:#006DF0"/>
	<stop  offset="1" style="stop-color:#00E7F0"/>
</linearGradient>
<path style="fill:url(#SVGID_6_);" d="M46.627,295.922l11.314-11.314l11.314,11.314l-11.314,11.314L46.627,295.922z"/>
<linearGradient id="SVGID_7_" gradientUnits="userSpaceOnUse" x1="-74.0232" y1="553.6486" x2="-33.3591" y2="594.3056" gradientTransform="matrix(5.6569 -5.6569 -5.6569 -5.6569 3631.2185 3182.481)">
	<stop  offset="0" style="stop-color:#006DF0"/>
	<stop  offset="1" style="stop-color:#00E7F0"/>
</linearGradient>
<path style="fill:url(#SVGID_7_);" d="M69.254,318.53l11.314-11.314l11.314,11.314l-11.314,11.314L69.254,318.53z"/>
<linearGradient id="SVGID_8_" gradientUnits="userSpaceOnUse" x1="-69.1882" y1="552.8084" x2="-28.5362" y2="593.4865" gradientTransform="matrix(5.6588 -5.6549 -5.6549 -5.6588 3620.7534 3206.3418)">
	<stop  offset="0" style="stop-color:#006DF0"/>
	<stop  offset="1" style="stop-color:#00E7F0"/>
</linearGradient>
<path style="fill:url(#SVGID_8_);" d="M91.856,341.178l11.318-11.31l11.31,11.318l-11.318,11.31L91.856,341.178z"/>
<linearGradient id="SVGID_9_" gradientUnits="userSpaceOnUse" x1="-64.3658" y1="551.9882" x2="-23.7088" y2="592.6472" gradientTransform="matrix(5.6569 -5.6569 -5.6569 -5.6569 3612.4424 3227.7529)">
	<stop  offset="0" style="stop-color:#006DF0"/>
	<stop  offset="1" style="stop-color:#00E7F0"/>
</linearGradient>
<path style="fill:url(#SVGID_9_);" d="M114.486,363.808l11.314-11.314l11.314,11.314l-11.314,11.314L114.486,363.808z"/>
<linearGradient id="SVGID_10_" gradientUnits="userSpaceOnUse" x1="-59.5389" y1="551.1594" x2="-18.8779" y2="591.8214" gradientTransform="matrix(5.6569 -5.6569 -5.6569 -5.6569 3603.0984 3250.377)">
	<stop  offset="0" style="stop-color:#006DF0"/>
	<stop  offset="1" style="stop-color:#00E7F0"/>
</linearGradient>
<path style="fill:url(#SVGID_10_);" d="M137.137,386.432l11.314-11.314l11.314,11.314l-11.314,11.314L137.137,386.432z"/>
<linearGradient id="SVGID_11_" gradientUnits="userSpaceOnUse" x1="-33.0273" y1="540.4116" x2="-22.0923" y2="597.9156" gradientTransform="matrix(8 0 0 -8 453.4956 4848.2671)">
	<stop  offset="0" style="stop-color:#006DF0"/>
	<stop  offset="1" style="stop-color:#00E7F0"/>
</linearGradient>
<path style="fill:url(#SVGID_11_);" d="M474.239,93.744c-0.896-11.615-10.005-20.91-21.6-22.04l-16.176-1.6l-1.592-16.408
	c-1.097-11.444-10.156-20.503-21.6-21.6L258.559,17.16c-7.139-0.7-14.215,1.84-19.28,6.92L7.031,256.32
	c-9.373,9.372-9.375,24.568-0.003,33.941c0.001,0.001,0.002,0.002,0.003,0.003l169.704,169.704
	c9.372,9.373,24.568,9.375,33.941,0.003c0.001-0.001,0.002-0.002,0.003-0.003l5.656-5.656l5.656,5.656
	c9.372,9.369,24.564,9.369,33.936,0l221.088-221.072c4.954-4.953,7.496-11.823,6.96-18.808L474.239,93.744z M188.047,448.656
	L18.343,278.952c-3.126-3.122-3.129-8.188-0.006-11.314c0.002-0.002,0.004-0.004,0.006-0.006l232.272-232.24
	c1.481-1.495,3.495-2.341,5.6-2.352h0.8l154.736,15.056c3.815,0.366,6.834,3.385,7.2,7.2l14.976,154.736
	c0.22,2.371-0.627,4.717-2.312,6.4L199.367,448.656c-3.122,3.126-8.188,3.129-11.314,0.006
	C188.051,448.66,188.049,448.658,188.047,448.656L188.047,448.656z M465.687,227.584L244.615,448.656
	c-3.124,3.123-8.188,3.123-11.312,0L227.647,443l215.272-215.28c5.083-5.063,7.623-12.141,6.92-19.28L438.023,86.352l13.064,1.272
	c3.867,0.377,6.904,3.478,7.2,7.352l9.72,126.336C468.186,223.641,467.339,225.933,465.687,227.584L465.687,227.584z"/>
<g>
</g>
<g>
</g>
<g>
</g>
<g>
</g>
<g>
</g>
<g>
</g>
<g>
</g>
<g>
</g>
<g>
</g>
<g>
</g>
<g>
</g>
<g>
</g>
<g>
</g>
<g>
</g>
<g>
</g>
</svg>
