<?xml version="1.0" encoding="iso-8859-1"?>
<!-- Generator: Adobe Illustrator 19.0.0, SVG Export Plug-In . SVG Version: 6.00 Build 0)  -->
<svg version="1.1" id="Capa_1" xmlns="http://www.w3.org/2000/svg" xmlns:xlink="http://www.w3.org/1999/xlink" x="0px" y="0px"
	 viewBox="0 0 480.059 480.059" style="enable-background:new 0 0 480.059 480.059;" xml:space="preserve">
<linearGradient id="SVGID_1_" gradientUnits="userSpaceOnUse" x1="-26.8648" y1="557.2728" x2="-26.8648" y2="619.4068" gradientTransform="matrix(8 0 0 -8 454.9482 4941.1602)">
	<stop  offset="0" style="stop-color:#006DF0"/>
	<stop  offset="1" style="stop-color:#00E7F0"/>
</linearGradient>
<path style="fill:url(#SVGID_1_);" d="M398.863,155.866c24.433-56.59-1.635-122.272-58.224-146.706
	c-14.09-6.084-29.284-9.196-44.632-9.142c-39.915-0.142-76.85,21.1-96.8,55.672c-15.223-5.062-31.158-7.652-47.2-7.672
	C68.118,47.956,0.062,115.913,0,199.802c-0.057,77.2,57.803,142.164,134.495,151.007c25.809,93.667,122.664,148.677,216.332,122.867
	s148.677-122.664,122.867-216.332C462.146,215.435,435.489,179.285,398.863,155.866L398.863,155.866z M296.007,16.018
	c52.851-0.168,95.831,42.541,95.999,95.392c0.04,12.516-2.376,24.918-7.111,36.504c-24.873-13.296-52.685-20.137-80.888-19.896
	c-5.933,0.021-11.862,0.355-17.76,1c-11.853-22.445-29.122-41.575-50.24-55.656c-3.088-2.056-6.24-3.944-9.432-5.744
	c-0.848-0.488-1.704-0.952-2.56-1.416c-2.856-1.544-5.736-3-8.648-4.336c-0.304-0.136-0.608-0.32-0.912-0.456
	C231.873,33.103,262.771,15.905,296.007,16.018z M16.007,200.018c0.084-75.076,60.924-135.916,136-136
	c16.487-0.042,32.841,2.957,48.24,8.848c9.454,3.556,18.466,8.192,26.856,13.816c3.889,2.616,7.641,5.43,11.24,8.432
	c0.632,0.52,1.272,1.016,1.888,1.544c3.392,2.904,6.632,5.976,9.712,9.184c0.624,0.648,1.232,1.312,1.84,1.976
	c3.107,3.316,6.044,6.787,8.8,10.4c0.272,0.36,0.52,0.744,0.8,1.104c2.667,3.568,5.123,7.264,7.368,11.088
	c0.208,0.344,0.424,0.68,0.624,1.024c-0.192,0.04-0.384,0.096-0.576,0.128c-0.736,0.152-1.464,0.344-2.192,0.504
	c-3.008,0.651-6.005,1.381-8.992,2.192c-1.168,0.32-2.336,0.664-3.496,1.008c-2.664,0.8-5.304,1.648-7.936,2.56
	c-1.096,0.384-2.184,0.744-3.272,1.152c-3.616,1.344-7.2,2.768-10.76,4.36c-10.272,4.57-20.059,10.157-29.216,16.68
	c-55.86,39.115-84.045,107.017-72.304,174.192C64.75,323.526,16.262,266.759,16.007,200.018L16.007,200.018z M304.007,464.018
	c-73.937,0.215-138.317-50.44-155.504-122.352v-0.048c-3.011-12.306-4.521-24.931-4.496-37.6
	c0.033-52.145,25.473-101.002,68.176-130.928c8.286-5.917,17.147-10.985,26.448-15.128c14.036-6.323,28.931-10.534,44.2-12.496
	c7.015-0.985,14.092-1.469,21.176-1.448c88.366,0,160,71.634,160,160S392.373,464.018,304.007,464.018z"/>
<g>
	
		<linearGradient id="SVGID_2_" gradientUnits="userSpaceOnUse" x1="-17.0916" y1="557.2728" x2="-17.0916" y2="619.4068" gradientTransform="matrix(8 0 0 -8 454.9482 4941.1602)">
		<stop  offset="0" style="stop-color:#006DF0"/>
		<stop  offset="1" style="stop-color:#00E7F0"/>
	</linearGradient>
	<path style="fill:url(#SVGID_2_);" d="M296.007,48.018c35.33,0.04,63.96,28.67,64,64h16c-0.048-44.163-35.837-79.951-80-80
		c-12.351-0.036-24.539,2.824-35.584,8.352l7.136,14.312C276.391,50.269,286.134,47.987,296.007,48.018z"/>
	
		<linearGradient id="SVGID_3_" gradientUnits="userSpaceOnUse" x1="-37.8676" y1="557.2728" x2="-37.8676" y2="619.4068" gradientTransform="matrix(8 0 0 -8 454.9482 4941.1602)">
		<stop  offset="0" style="stop-color:#006DF0"/>
		<stop  offset="1" style="stop-color:#00E7F0"/>
	</linearGradient>
	<path style="fill:url(#SVGID_3_);" d="M144.007,80.018h16v32h-16V80.018z"/>
</g>
<linearGradient id="SVGID_4_" gradientUnits="userSpaceOnUse" x1="-89.8652" y1="583.9763" x2="-36.0481" y2="615.0363" gradientTransform="matrix(3.9994 -6.9286 -6.9286 -3.9994 4609.5044 2195.8884)">
	<stop  offset="0" style="stop-color:#006DF0"/>
	<stop  offset="1" style="stop-color:#00E7F0"/>
</linearGradient>
<path style="fill:url(#SVGID_4_);" d="M189.084,119.81l15.997-27.714l13.857,7.999l-15.997,27.714L189.084,119.81z"/>
<linearGradient id="SVGID_5_" gradientUnits="userSpaceOnUse" x1="-77.1945" y1="562.7784" x2="-46.1235" y2="616.5944" gradientTransform="matrix(6.9281 -4.0002 -4.0002 -6.9281 2886.0813 4073.2224)">
	<stop  offset="0" style="stop-color:#006DF0"/>
	<stop  offset="1" style="stop-color:#00E7F0"/>
</linearGradient>
<path style="fill:url(#SVGID_5_);" d="M85.084,100.1l13.856-8l16.001,27.712l-13.856,8L85.084,100.1z"/>
<linearGradient id="SVGID_6_" gradientUnits="userSpaceOnUse" x1="-103.499" y1="581.5859" x2="-49.687" y2="612.658" gradientTransform="matrix(4.0002 -6.9281 -6.9281 -4.0002 4505.2397 2092.4561)">
	<stop  offset="0" style="stop-color:#006DF0"/>
	<stop  offset="1" style="stop-color:#00E7F0"/>
</linearGradient>
<path style="fill:url(#SVGID_6_);" d="M44.083,146.945l8-13.856l27.712,16.001l-8,13.856L44.083,146.945z"/>
<linearGradient id="SVGID_7_" gradientUnits="userSpaceOnUse" x1="-50.8676" y1="557.2728" x2="-50.8676" y2="619.4068" gradientTransform="matrix(8 0 0 -8 454.9482 4941.1602)">
	<stop  offset="0" style="stop-color:#006DF0"/>
	<stop  offset="1" style="stop-color:#00E7F0"/>
</linearGradient>
<path style="fill:url(#SVGID_7_);" d="M32.007,192.018h32v16h-32V192.018z"/>
<linearGradient id="SVGID_8_" gradientUnits="userSpaceOnUse" x1="-73.0683" y1="560.3979" x2="-42.0033" y2="614.2159" gradientTransform="matrix(6.9286 -3.9994 -3.9994 -6.9286 2809.4321 4073.561)">
	<stop  offset="0" style="stop-color:#006DF0"/>
	<stop  offset="1" style="stop-color:#00E7F0"/>
</linearGradient>
<path style="fill:url(#SVGID_8_);" d="M44.084,253.089l27.714-15.997l7.999,13.857l-27.714,15.997L44.084,253.089z"/>
<linearGradient id="SVGID_9_" gradientUnits="userSpaceOnUse" x1="-83.3635" y1="572.7152" x2="-29.5475" y2="603.7752" gradientTransform="matrix(3.9994 -6.9286 -6.9286 -3.9994 4401.4883 2195.8965)">
	<stop  offset="0" style="stop-color:#006DF0"/>
	<stop  offset="1" style="stop-color:#00E7F0"/>
</linearGradient>
<path style="fill:url(#SVGID_9_);" d="M85.08,299.939l15.997-27.714l13.857,7.999l-15.997,27.714L85.08,299.939z"/>
<g>
	
		<linearGradient id="SVGID_10_" gradientUnits="userSpaceOnUse" x1="-18.8643" y1="557.2728" x2="-18.8643" y2="619.4068" gradientTransform="matrix(8 0 0 -8 454.9482 4941.1602)">
		<stop  offset="0" style="stop-color:#006DF0"/>
		<stop  offset="1" style="stop-color:#00E7F0"/>
	</linearGradient>
	<path style="fill:url(#SVGID_10_);" d="M373.831,178.154c-11.269-6.313-23.357-11.038-35.92-14.04h-0.048h-0.056
		c-26.189-6.337-53.63-5.192-79.2,3.304c-12.285,4.052-23.95,9.783-34.664,17.032c-66.093,44.233-83.815,133.67-39.582,199.763
		s133.67,83.815,199.763,39.582s83.815-133.67,39.582-199.763c-12.737-19.032-29.83-34.752-49.859-45.854L373.831,178.154z
		 M304.007,432.018c-70.662,0.028-127.966-57.233-127.994-127.894c-0.017-42.74,21.309-82.666,56.842-106.418
		c9.503-6.43,19.849-11.516,30.744-15.112h0.056c22.7-7.527,47.055-8.544,70.304-2.936h0.096
		c11.172,2.661,21.922,6.855,31.944,12.464c61.825,34.225,84.199,112.089,49.974,173.914
		C393.431,406.758,350.553,432.026,304.007,432.018L304.007,432.018z"/>
	
		<linearGradient id="SVGID_11_" gradientUnits="userSpaceOnUse" x1="-18.8676" y1="557.2728" x2="-18.8676" y2="619.4068" gradientTransform="matrix(8 0 0 -8 454.9482 4941.1602)">
		<stop  offset="0" style="stop-color:#006DF0"/>
		<stop  offset="1" style="stop-color:#00E7F0"/>
	</linearGradient>
	<path style="fill:url(#SVGID_11_);" d="M304.007,232.018c17.673,0,32,14.327,32,32c0,4.418,3.582,8,8,8s8-3.582,8-8
		c-0.043-23.397-16.934-43.361-40-47.28v-16.72c0-4.418-3.582-8-8-8s-8,3.582-8,8v16.72c-26.112,4.572-43.575,29.446-39.003,55.559
		c4.003,22.863,23.792,39.587,47.003,39.721c17.673,0,32,14.327,32,32s-14.327,32-32,32s-32-14.327-32-32c0-4.418-3.582-8-8-8
		s-8,3.582-8,8c0.043,23.397,16.934,43.361,40,47.28v16.72c0,4.418,3.582,8,8,8s8-3.582,8-8v-16.72
		c26.112-4.572,43.575-29.446,39.003-55.559c-4.003-22.863-23.792-39.587-47.003-39.721c-17.673,0-32-14.327-32-32
		S286.334,232.018,304.007,232.018z"/>
</g>
<g>
</g>
<g>
</g>
<g>
</g>
<g>
</g>
<g>
</g>
<g>
</g>
<g>
</g>
<g>
</g>
<g>
</g>
<g>
</g>
<g>
</g>
<g>
</g>
<g>
</g>
<g>
</g>
<g>
</g>
</svg>
