<?xml version="1.0" encoding="iso-8859-1"?>
<!-- Generator: Adobe Illustrator 19.0.0, SVG Export Plug-In . SVG Version: 6.00 Build 0)  -->
<svg version="1.1" id="Capa_1" xmlns="http://www.w3.org/2000/svg" xmlns:xlink="http://www.w3.org/1999/xlink" x="0px" y="0px"
	 viewBox="0 0 480.008 480.008" style="enable-background:new 0 0 480.008 480.008;" xml:space="preserve">
<linearGradient id="SVGID_1_" gradientUnits="userSpaceOnUse" x1="-26.8711" y1="559.8301" x2="-26.8711" y2="621.1521" gradientTransform="matrix(8 0 0 -8 454.9728 4941.001)">
	<stop  offset="0" style="stop-color:#006DF0"/>
	<stop  offset="1" style="stop-color:#00E7F0"/>
</linearGradient>
<path style="fill:url(#SVGID_1_);" d="M480.004,120c0-13.255-10.745-24-24-24H74.012l-8.456-74.624
	C64.242,9.192,53.939-0.034,41.684,0H8.004c-4.418,0-8,3.582-8,8s3.582,8,8,8h33.68c4.104-0.024,7.561,3.063,8,7.144l44.8,395.48
	c1.313,12.172,11.597,21.393,23.84,21.376h10.4c4.392,26.112,29.12,43.72,55.232,39.328c20.151-3.389,35.939-19.177,39.328-39.328
	h49.44c4.418,26.139,29.19,43.747,55.329,39.329s43.747-29.19,39.329-55.329s-29.19-43.747-55.329-39.329
	c-20.143,3.405-35.924,19.186-39.329,39.329h-49.44c-4.392-26.112-29.12-43.72-55.232-39.328
	c-20.151,3.389-35.939,19.177-39.328,39.328h-10.4c-4.104,0.024-7.561-3.063-8-7.144L104.804,368h275.128
	c10.705-0.036,20.104-7.125,23.08-17.408l59.296-207.536C472.718,140.222,479.958,130.789,480.004,120L480.004,120z M320.004,400
	c17.673,0,32,14.327,32,32s-14.327,32-32,32s-32-14.327-32-32S302.331,400,320.004,400z M176.004,400c17.673,0,32,14.327,32,32
	s-14.327,32-32,32s-32-14.327-32-32S158.331,400,176.004,400z M387.628,346.192c-0.98,3.438-4.121,5.809-7.696,5.808H103.004
	l-23.56-208h365.952L387.628,346.192z M456.004,128h-378.4l-1.8-16h380.2c4.418,0,8,3.582,8,8S460.422,128,456.004,128z"/>
<g>
	
		<linearGradient id="SVGID_2_" gradientUnits="userSpaceOnUse" x1="-29.3711" y1="559.8301" x2="-29.3711" y2="621.1521" gradientTransform="matrix(8 0 0 -8 454.9728 4941.001)">
		<stop  offset="0" style="stop-color:#006DF0"/>
		<stop  offset="1" style="stop-color:#00E7F0"/>
	</linearGradient>
	<path style="fill:url(#SVGID_2_);" d="M120.004,336h200c4.418,0,8-3.582,8-8s-3.582-8-8-8h-200c-4.418,0-8,3.582-8,8
		S115.586,336,120.004,336z"/>
	
		<linearGradient id="SVGID_3_" gradientUnits="userSpaceOnUse" x1="-11.8711" y1="559.8301" x2="-11.8711" y2="621.1521" gradientTransform="matrix(8 0 0 -8 454.9728 4941.001)">
		<stop  offset="0" style="stop-color:#006DF0"/>
		<stop  offset="1" style="stop-color:#00E7F0"/>
	</linearGradient>
	<path style="fill:url(#SVGID_3_);" d="M352.004,336h16c4.418,0,8-3.582,8-8s-3.582-8-8-8h-16c-4.418,0-8,3.582-8,8
		S347.586,336,352.004,336z"/>
</g>
<g>
</g>
<g>
</g>
<g>
</g>
<g>
</g>
<g>
</g>
<g>
</g>
<g>
</g>
<g>
</g>
<g>
</g>
<g>
</g>
<g>
</g>
<g>
</g>
<g>
</g>
<g>
</g>
<g>
</g>
</svg>
