<?xml version="1.0" encoding="iso-8859-1"?>
<!-- Generator: Adobe Illustrator 19.0.0, SVG Export Plug-In . SVG Version: 6.00 Build 0)  -->
<svg version="1.1" id="Capa_1" xmlns="http://www.w3.org/2000/svg" xmlns:xlink="http://www.w3.org/1999/xlink" x="0px" y="0px"
	 viewBox="0 0 480.064 480.064" style="enable-background:new 0 0 480.064 480.064;" xml:space="preserve">
<linearGradient id="SVGID_1_" gradientUnits="userSpaceOnUse" x1="-26.8426" y1="556.5988" x2="-26.8426" y2="618.4248" gradientTransform="matrix(8 0 0 -8 454.7729 4941.5742)">
	<stop  offset="0" style="stop-color:#006DF0"/>
	<stop  offset="1" style="stop-color:#00E7F0"/>
</linearGradient>
<path style="fill:url(#SVGID_1_);" d="M423.936,102.864c-0.593-3.908-3.951-6.797-7.904-6.8h-72.408
	c-4.328-57.217-54.22-100.091-111.437-95.763c-51.198,3.873-91.89,44.564-95.763,95.763H64.032c-3.953,0.003-7.311,2.892-7.904,6.8
	l-56,368c-0.663,4.368,2.341,8.447,6.709,9.109c0.395,0.06,0.795,0.09,1.195,0.091h464c4.418-0.003,7.998-3.587,7.995-8.005
	c0-0.4-0.031-0.799-0.091-1.195L423.936,102.864z M240.032,16.064c45.47,0.06,83.421,34.722,87.592,80h-175.2
	C156.596,50.78,194.556,16.116,240.032,16.064z M17.344,464.064l53.6-352H409.16l53.6,352H17.344z"/>
<g>
	
		<linearGradient id="SVGID_2_" gradientUnits="userSpaceOnUse" x1="-29.8426" y1="556.5988" x2="-29.8426" y2="618.4248" gradientTransform="matrix(8 0 0 -8 454.7729 4941.5742)">
		<stop  offset="0" style="stop-color:#006DF0"/>
		<stop  offset="1" style="stop-color:#00E7F0"/>
	</linearGradient>
	<path style="fill:url(#SVGID_2_);" d="M352.032,136.064c0-4.418-3.582-8-8-8h-256c-4.418,0-8,3.582-8,8s3.582,8,8,8h256
		C348.451,144.064,352.032,140.482,352.032,136.064z"/>
	
		<linearGradient id="SVGID_3_" gradientUnits="userSpaceOnUse" x1="-8.8425" y1="556.5988" x2="-8.8425" y2="618.4248" gradientTransform="matrix(8 0 0 -8 454.7729 4941.5742)">
		<stop  offset="0" style="stop-color:#006DF0"/>
		<stop  offset="1" style="stop-color:#00E7F0"/>
	</linearGradient>
	<path style="fill:url(#SVGID_3_);" d="M392.032,128.064h-16c-4.418,0-8,3.582-8,8s3.582,8,8,8h16c4.418,0,8-3.582,8-8
		S396.451,128.064,392.032,128.064z"/>
</g>
<linearGradient id="SVGID_4_" gradientUnits="userSpaceOnUse" x1="-26.8573" y1="556.5988" x2="-26.8573" y2="618.4248" gradientTransform="matrix(8 0 0 -8 454.7729 4941.5742)">
	<stop  offset="0" style="stop-color:#006DF0"/>
	<stop  offset="1" style="stop-color:#00E7F0"/>
</linearGradient>
<path style="fill:url(#SVGID_4_);" d="M344.032,160.064c-13.219-0.037-23.966,10.65-24.003,23.869
	c-0.026,9.207,5.232,17.613,13.522,21.619c-11.836,51.65-63.301,83.925-114.95,72.09c-35.865-8.219-63.871-36.224-72.09-72.09
	c11.875-5.819,16.784-20.163,10.965-32.037c-5.819-11.875-20.163-16.784-32.037-10.965s-16.784,20.163-10.965,32.037
	c3.169,6.466,9.079,11.163,16.093,12.789c12.814,60.455,72.211,99.076,132.666,86.262c43.278-9.173,77.088-42.984,86.262-86.262
	c12.876-3.148,20.761-16.138,17.613-29.014C364.503,167.705,355.003,160.172,344.032,160.064L344.032,160.064z M136.032,176.064
	c4.418,0,8,3.582,8,8s-3.582,8-8,8s-8-3.582-8-8S131.614,176.064,136.032,176.064z M344.032,192.064c-4.418,0-8-3.582-8-8
	s3.582-8,8-8s8,3.582,8,8S348.451,192.064,344.032,192.064z"/>
<g>
</g>
<g>
</g>
<g>
</g>
<g>
</g>
<g>
</g>
<g>
</g>
<g>
</g>
<g>
</g>
<g>
</g>
<g>
</g>
<g>
</g>
<g>
</g>
<g>
</g>
<g>
</g>
<g>
</g>
</svg>
