<?xml version="1.0" encoding="iso-8859-1"?>
<!-- Generator: Adobe Illustrator 19.0.0, SVG Export Plug-In . SVG Version: 6.00 Build 0)  -->
<svg version="1.1" id="Capa_1" xmlns="http://www.w3.org/2000/svg" xmlns:xlink="http://www.w3.org/1999/xlink" x="0px" y="0px"
	 viewBox="0 0 479.998 479.998" style="enable-background:new 0 0 479.998 479.998;" xml:space="preserve">
<linearGradient id="SVGID_1_" gradientUnits="userSpaceOnUse" x1="-26.8754" y1="557.5333" x2="-26.8754" y2="618.7773" gradientTransform="matrix(8 0 0 -8 455.0021 4940.9849)">
	<stop  offset="0" style="stop-color:#006DF0"/>
	<stop  offset="1" style="stop-color:#00E7F0"/>
</linearGradient>
<path style="fill:url(#SVGID_1_);" d="M423.904,102.798c-0.593-3.908-3.951-6.797-7.904-6.8h-44.688L277.656,2.342
	c-3.124-3.123-8.188-3.123-11.312,0L208,60.686l-26.344-26.344c-3.124-3.123-8.188-3.123-11.312,0l-61.656,61.656H64
	c-3.953,0.003-7.311,2.892-7.904,6.8l-56,368c-0.663,4.368,2.341,8.447,6.709,9.109c0.395,0.06,0.795,0.09,1.195,0.091h464
	c4.418-0.003,7.998-3.587,7.995-8.005c0-0.4-0.031-0.799-0.091-1.195L423.904,102.798z M272,19.31l76.688,76.688H243.312l-24-24
	L272,19.31z M176,51.31l44.688,44.688h-89.376L176,51.31z M17.312,463.998l53.6-352h338.216l53.6,352H17.312z"/>
<g>
	
		<linearGradient id="SVGID_2_" gradientUnits="userSpaceOnUse" x1="-29.8753" y1="557.5333" x2="-29.8753" y2="618.7773" gradientTransform="matrix(8 0 0 -8 455.0021 4940.9849)">
		<stop  offset="0" style="stop-color:#006DF0"/>
		<stop  offset="1" style="stop-color:#00E7F0"/>
	</linearGradient>
	<path style="fill:url(#SVGID_2_);" d="M352,135.998c0-4.418-3.582-8-8-8H88c-4.418,0-8,3.582-8,8s3.582,8,8,8h256
		C348.418,143.998,352,140.417,352,135.998z"/>
	
		<linearGradient id="SVGID_3_" gradientUnits="userSpaceOnUse" x1="-8.8753" y1="557.5333" x2="-8.8753" y2="618.7773" gradientTransform="matrix(8 0 0 -8 455.0021 4940.9849)">
		<stop  offset="0" style="stop-color:#006DF0"/>
		<stop  offset="1" style="stop-color:#00E7F0"/>
	</linearGradient>
	<path style="fill:url(#SVGID_3_);" d="M392,127.998h-16c-4.418,0-8,3.582-8,8s3.582,8,8,8h16c4.418,0,8-3.582,8-8
		S396.418,127.998,392,127.998z"/>
</g>
<linearGradient id="SVGID_4_" gradientUnits="userSpaceOnUse" x1="-26.8901" y1="557.5333" x2="-26.8901" y2="618.7773" gradientTransform="matrix(8 0 0 -8 455.0021 4940.9849)">
	<stop  offset="0" style="stop-color:#006DF0"/>
	<stop  offset="1" style="stop-color:#00E7F0"/>
</linearGradient>
<path style="fill:url(#SVGID_4_);" d="M344,159.998c-13.219-0.037-23.966,10.65-24.003,23.869
	c-0.026,9.207,5.232,17.613,13.522,21.619c-11.836,51.65-63.301,83.925-114.95,72.09c-35.865-8.219-63.871-36.224-72.09-72.09
	c11.875-5.819,16.784-20.163,10.965-32.037c-5.819-11.875-20.163-16.784-32.037-10.965c-11.875,5.819-16.784,20.163-10.965,32.037
	c3.169,6.466,9.079,11.163,16.093,12.789c12.814,60.455,72.211,99.076,132.666,86.262c43.278-9.173,77.088-42.984,86.262-86.262
	c12.876-3.148,20.761-16.138,17.613-29.014C364.47,167.64,354.97,160.106,344,159.998L344,159.998z M136,175.998
	c4.418,0,8,3.582,8,8s-3.582,8-8,8s-8-3.582-8-8S131.581,175.998,136,175.998z M344,191.998c-4.418,0-8-3.582-8-8s3.582-8,8-8
	s8,3.582,8,8S348.418,191.998,344,191.998z"/>
<g>
</g>
<g>
</g>
<g>
</g>
<g>
</g>
<g>
</g>
<g>
</g>
<g>
</g>
<g>
</g>
<g>
</g>
<g>
</g>
<g>
</g>
<g>
</g>
<g>
</g>
<g>
</g>
<g>
</g>
</svg>
