<?xml version="1.0" encoding="iso-8859-1"?>
<!-- Generator: Adobe Illustrator 19.0.0, SVG Export Plug-In . SVG Version: 6.00 Build 0)  -->
<svg version="1.1" id="Capa_1" xmlns="http://www.w3.org/2000/svg" xmlns:xlink="http://www.w3.org/1999/xlink" x="0px" y="0px"
	 viewBox="0 0 480 480" style="enable-background:new 0 0 480 480;" xml:space="preserve">
<linearGradient id="SVGID_1_" gradientUnits="userSpaceOnUse" x1="-26.875" y1="565.928" x2="-26.875" y2="635.14" gradientTransform="matrix(8 0 0 -8 455 5013)">
	<stop  offset="0" style="stop-color:#006DF0"/>
	<stop  offset="1" style="stop-color:#00E7F0"/>
</linearGradient>
<path style="fill:url(#SVGID_1_);" d="M480,88c-0.023-0.935-0.21-1.858-0.552-2.728c-0.088-0.24-0.184-0.456-0.288-0.68
	s-0.168-0.456-0.296-0.672l-48-80C429.426,1.495,426.819,0.006,424,0H56c-2.808,0.001-5.41,1.473-6.856,3.88l-48,80
	c-0.128,0.216-0.184,0.456-0.296,0.68s-0.2,0.432-0.288,0.672C0.211,86.114,0.021,87.051,0,88v384c0,4.418,3.582,8,8,8h464
	c4.418,0,8-3.582,8-8V88z M272,16h147.472l38.4,64H272V16z M223.936,88.992c0.041-0.329,0.063-0.66,0.064-0.992V16h32v72
	c0.001,0.332,0.023,0.663,0.064,0.992L262.936,144h-45.872L223.936,88.992z M60.528,16H208v64H22.136L60.528,16z M464,464H16V96
	h190.936l-6.872,55.008c-0.548,4.384,2.562,8.382,6.946,8.93c0.328,0.041,0.659,0.062,0.99,0.062h64
	c4.418-0.001,7.999-3.584,7.998-8.002c0-0.331-0.021-0.661-0.062-0.99L273.064,96H464V464z"/>
<g>
	
		<linearGradient id="SVGID_2_" gradientUnits="userSpaceOnUse" x1="-34.875" y1="565.928" x2="-34.875" y2="635.14" gradientTransform="matrix(8 0 0 -8 455 5013)">
		<stop  offset="0" style="stop-color:#006DF0"/>
		<stop  offset="1" style="stop-color:#00E7F0"/>
	</linearGradient>
	<path style="fill:url(#SVGID_2_);" d="M144,264h64v-64h-64V264z M160,216h32v32h-32V216z"/>
	
		<linearGradient id="SVGID_3_" gradientUnits="userSpaceOnUse" x1="-28.875" y1="565.928" x2="-28.875" y2="635.14" gradientTransform="matrix(8 0 0 -8 455 5013)">
		<stop  offset="0" style="stop-color:#006DF0"/>
		<stop  offset="1" style="stop-color:#00E7F0"/>
	</linearGradient>
	<path style="fill:url(#SVGID_3_);" d="M216,200h16v16h-16V200z"/>
	
		<linearGradient id="SVGID_4_" gradientUnits="userSpaceOnUse" x1="-34.875" y1="565.928" x2="-34.875" y2="635.14" gradientTransform="matrix(8 0 0 -8 455 5013)">
		<stop  offset="0" style="stop-color:#006DF0"/>
		<stop  offset="1" style="stop-color:#00E7F0"/>
	</linearGradient>
	<path style="fill:url(#SVGID_4_);" d="M168,224h16v16h-16V224z"/>
	
		<linearGradient id="SVGID_5_" gradientUnits="userSpaceOnUse" x1="-34.875" y1="565.928" x2="-34.875" y2="635.14" gradientTransform="matrix(8 0 0 -8 455 5013)">
		<stop  offset="0" style="stop-color:#006DF0"/>
		<stop  offset="1" style="stop-color:#00E7F0"/>
	</linearGradient>
	<path style="fill:url(#SVGID_5_);" d="M144,392h64v-64h-64V392z M160,344h32v32h-32V344z"/>
	
		<linearGradient id="SVGID_6_" gradientUnits="userSpaceOnUse" x1="-34.875" y1="565.928" x2="-34.875" y2="635.14" gradientTransform="matrix(8 0 0 -8 455 5013)">
		<stop  offset="0" style="stop-color:#006DF0"/>
		<stop  offset="1" style="stop-color:#00E7F0"/>
	</linearGradient>
	<path style="fill:url(#SVGID_6_);" d="M168,352h16v16h-16V352z"/>
	
		<linearGradient id="SVGID_7_" gradientUnits="userSpaceOnUse" x1="-17.875" y1="565.928" x2="-17.875" y2="635.14" gradientTransform="matrix(8 0 0 -8 455 5013)">
		<stop  offset="0" style="stop-color:#006DF0"/>
		<stop  offset="1" style="stop-color:#00E7F0"/>
	</linearGradient>
	<path style="fill:url(#SVGID_7_);" d="M344,200h-64v64h64V200z M328,248h-32v-32h32V248z"/>
	
		<linearGradient id="SVGID_8_" gradientUnits="userSpaceOnUse" x1="-17.875" y1="565.928" x2="-17.875" y2="635.14" gradientTransform="matrix(8 0 0 -8 455 5013)">
		<stop  offset="0" style="stop-color:#006DF0"/>
		<stop  offset="1" style="stop-color:#00E7F0"/>
	</linearGradient>
	<path style="fill:url(#SVGID_8_);" d="M304,224h16v16h-16V224z"/>
</g>
<linearGradient id="SVGID_9_" gradientUnits="userSpaceOnUse" x1="-26.875" y1="565.928" x2="-26.875" y2="635.14" gradientTransform="matrix(8 0 0 -8 455 5013)">
	<stop  offset="0" style="stop-color:#006DF0"/>
	<stop  offset="1" style="stop-color:#00E7F0"/>
</linearGradient>
<path style="fill:url(#SVGID_9_);" d="M264,200h-16v24h-32v16h48V200z"/>
<g>
	
		<linearGradient id="SVGID_10_" gradientUnits="userSpaceOnUse" x1="-26.375" y1="565.928" x2="-26.375" y2="635.14" gradientTransform="matrix(8 0 0 -8 455 5013)">
		<stop  offset="0" style="stop-color:#006DF0"/>
		<stop  offset="1" style="stop-color:#00E7F0"/>
	</linearGradient>
	<path style="fill:url(#SVGID_10_);" d="M216,248h56v16h-56V248z"/>
	
		<linearGradient id="SVGID_11_" gradientUnits="userSpaceOnUse" x1="-37.875" y1="565.928" x2="-37.875" y2="635.14" gradientTransform="matrix(8 0 0 -8 455 5013)">
		<stop  offset="0" style="stop-color:#006DF0"/>
		<stop  offset="1" style="stop-color:#00E7F0"/>
	</linearGradient>
	<path style="fill:url(#SVGID_11_);" d="M144,272h16v16h-16V272z"/>
	
		<linearGradient id="SVGID_12_" gradientUnits="userSpaceOnUse" x1="-32.375" y1="565.928" x2="-32.375" y2="635.14" gradientTransform="matrix(8 0 0 -8 455 5013)">
		<stop  offset="0" style="stop-color:#006DF0"/>
		<stop  offset="1" style="stop-color:#00E7F0"/>
	</linearGradient>
	<path style="fill:url(#SVGID_12_);" d="M176,272h40v16h-40V272z"/>
	
		<linearGradient id="SVGID_13_" gradientUnits="userSpaceOnUse" x1="-35.875" y1="565.928" x2="-35.875" y2="635.14" gradientTransform="matrix(8 0 0 -8 455 5013)">
		<stop  offset="0" style="stop-color:#006DF0"/>
		<stop  offset="1" style="stop-color:#00E7F0"/>
	</linearGradient>
	<path style="fill:url(#SVGID_13_);" d="M144,304h48v16h-48V304z"/>
	
		<linearGradient id="SVGID_14_" gradientUnits="userSpaceOnUse" x1="-29.375" y1="565.928" x2="-29.375" y2="635.14" gradientTransform="matrix(8 0 0 -8 455 5013)">
		<stop  offset="0" style="stop-color:#006DF0"/>
		<stop  offset="1" style="stop-color:#00E7F0"/>
	</linearGradient>
	<path style="fill:url(#SVGID_14_);" d="M208,304v16h8v24h16v-40H208z"/>
	
		<linearGradient id="SVGID_15_" gradientUnits="userSpaceOnUse" x1="-28.875" y1="565.928" x2="-28.875" y2="635.14" gradientTransform="matrix(8 0 0 -8 455 5013)">
		<stop  offset="0" style="stop-color:#006DF0"/>
		<stop  offset="1" style="stop-color:#00E7F0"/>
	</linearGradient>
	<path style="fill:url(#SVGID_15_);" d="M216,360h16v32h-16V360z"/>
	
		<linearGradient id="SVGID_16_" gradientUnits="userSpaceOnUse" x1="-25.875" y1="565.928" x2="-25.875" y2="635.14" gradientTransform="matrix(8 0 0 -8 455 5013)">
		<stop  offset="0" style="stop-color:#006DF0"/>
		<stop  offset="1" style="stop-color:#00E7F0"/>
	</linearGradient>
	<path style="fill:url(#SVGID_16_);" d="M264,320h-16v24h-16v16h32V320z"/>
</g>
<linearGradient id="SVGID_17_" gradientUnits="userSpaceOnUse" x1="-26.875" y1="565.928" x2="-26.875" y2="635.14" gradientTransform="matrix(8 0 0 -8 455 5013)">
	<stop  offset="0" style="stop-color:#006DF0"/>
	<stop  offset="1" style="stop-color:#00E7F0"/>
</linearGradient>
<path style="fill:url(#SVGID_17_);" d="M232,272h16v24h-16V272z"/>
<g>
	
		<linearGradient id="SVGID_18_" gradientUnits="userSpaceOnUse" x1="-21.875" y1="565.928" x2="-21.875" y2="635.14" gradientTransform="matrix(8 0 0 -8 455 5013)">
		<stop  offset="0" style="stop-color:#006DF0"/>
		<stop  offset="1" style="stop-color:#00E7F0"/>
	</linearGradient>
	<path style="fill:url(#SVGID_18_);" d="M264,280h32v16h-32V280z"/>
	
		<linearGradient id="SVGID_19_" gradientUnits="userSpaceOnUse" x1="-17.875" y1="565.928" x2="-17.875" y2="635.14" gradientTransform="matrix(8 0 0 -8 455 5013)">
		<stop  offset="0" style="stop-color:#006DF0"/>
		<stop  offset="1" style="stop-color:#00E7F0"/>
	</linearGradient>
	<path style="fill:url(#SVGID_19_);" d="M304,272h16v24h-16V272z"/>
	
		<linearGradient id="SVGID_20_" gradientUnits="userSpaceOnUse" x1="-14.875" y1="565.928" x2="-14.875" y2="635.14" gradientTransform="matrix(8 0 0 -8 455 5013)">
		<stop  offset="0" style="stop-color:#006DF0"/>
		<stop  offset="1" style="stop-color:#00E7F0"/>
	</linearGradient>
	<path style="fill:url(#SVGID_20_);" d="M328,272h16v24h-16V272z"/>
	
		<linearGradient id="SVGID_21_" gradientUnits="userSpaceOnUse" x1="-18.375" y1="565.928" x2="-18.375" y2="635.14" gradientTransform="matrix(8 0 0 -8 455 5013)">
		<stop  offset="0" style="stop-color:#006DF0"/>
		<stop  offset="1" style="stop-color:#00E7F0"/>
	</linearGradient>
	<path style="fill:url(#SVGID_21_);" d="M272,304h72v16h-72V304z"/>
	
		<linearGradient id="SVGID_22_" gradientUnits="userSpaceOnUse" x1="-20.875" y1="565.928" x2="-20.875" y2="635.14" gradientTransform="matrix(8 0 0 -8 455 5013)">
		<stop  offset="0" style="stop-color:#006DF0"/>
		<stop  offset="1" style="stop-color:#00E7F0"/>
	</linearGradient>
	<path style="fill:url(#SVGID_22_);" d="M272,336h32v16h-32V336z"/>
	
		<linearGradient id="SVGID_23_" gradientUnits="userSpaceOnUse" x1="-16.875" y1="565.928" x2="-16.875" y2="635.14" gradientTransform="matrix(8 0 0 -8 455 5013)">
		<stop  offset="0" style="stop-color:#006DF0"/>
		<stop  offset="1" style="stop-color:#00E7F0"/>
	</linearGradient>
	<path style="fill:url(#SVGID_23_);" d="M344,360h-16v16h-32v16h48V360z"/>
	
		<linearGradient id="SVGID_24_" gradientUnits="userSpaceOnUse" x1="-23.375" y1="565.928" x2="-23.375" y2="635.14" gradientTransform="matrix(8 0 0 -8 455 5013)">
		<stop  offset="0" style="stop-color:#006DF0"/>
		<stop  offset="1" style="stop-color:#00E7F0"/>
	</linearGradient>
	<path style="fill:url(#SVGID_24_);" d="M256,376h24v16h-24V376z"/>
	
		<linearGradient id="SVGID_25_" gradientUnits="userSpaceOnUse" x1="-15.875" y1="565.928" x2="-15.875" y2="635.14" gradientTransform="matrix(8 0 0 -8 455 5013)">
		<stop  offset="0" style="stop-color:#006DF0"/>
		<stop  offset="1" style="stop-color:#00E7F0"/>
	</linearGradient>
	<path style="fill:url(#SVGID_25_);" d="M320,328h16v16h-16V328z"/>
	
		<linearGradient id="SVGID_26_" gradientUnits="userSpaceOnUse" x1="-13.375" y1="565.928" x2="-13.375" y2="635.14" gradientTransform="matrix(8 0 0 -8 455 5013)">
		<stop  offset="0" style="stop-color:#006DF0"/>
		<stop  offset="1" style="stop-color:#00E7F0"/>
	</linearGradient>
	<path style="fill:url(#SVGID_26_);" d="M360,224h16v-56h-56v16h40V224z"/>
	
		<linearGradient id="SVGID_27_" gradientUnits="userSpaceOnUse" x1="-39.375" y1="565.928" x2="-39.375" y2="635.14" gradientTransform="matrix(8 0 0 -8 455 5013)">
		<stop  offset="0" style="stop-color:#006DF0"/>
		<stop  offset="1" style="stop-color:#00E7F0"/>
	</linearGradient>
	<path style="fill:url(#SVGID_27_);" d="M128,184h40v-16h-56v56h16V184z"/>
	
		<linearGradient id="SVGID_28_" gradientUnits="userSpaceOnUse" x1="-13.375" y1="565.928" x2="-13.375" y2="635.14" gradientTransform="matrix(8 0 0 -8 455 5013)">
		<stop  offset="0" style="stop-color:#006DF0"/>
		<stop  offset="1" style="stop-color:#00E7F0"/>
	</linearGradient>
	<path style="fill:url(#SVGID_28_);" d="M360,408h-40v16h56v-56h-16V408z"/>
	
		<linearGradient id="SVGID_29_" gradientUnits="userSpaceOnUse" x1="-39.375" y1="565.928" x2="-39.375" y2="635.14" gradientTransform="matrix(8 0 0 -8 455 5013)">
		<stop  offset="0" style="stop-color:#006DF0"/>
		<stop  offset="1" style="stop-color:#00E7F0"/>
	</linearGradient>
	<path style="fill:url(#SVGID_29_);" d="M128,368h-16v56h56v-16h-40V368z"/>
</g>
<g>
</g>
<g>
</g>
<g>
</g>
<g>
</g>
<g>
</g>
<g>
</g>
<g>
</g>
<g>
</g>
<g>
</g>
<g>
</g>
<g>
</g>
<g>
</g>
<g>
</g>
<g>
</g>
<g>
</g>
</svg>
