<?xml version="1.0" encoding="iso-8859-1"?>
<!-- Generator: Adobe Illustrator 19.0.0, SVG Export Plug-In . SVG Version: 6.00 Build 0)  -->
<svg version="1.1" id="Capa_1" xmlns="http://www.w3.org/2000/svg" xmlns:xlink="http://www.w3.org/1999/xlink" x="0px" y="0px"
	 viewBox="0 0 480.064 480.064" style="enable-background:new 0 0 480.064 480.064;" xml:space="preserve">
<linearGradient id="SVGID_1_" gradientUnits="userSpaceOnUse" x1="-29.8426" y1="556.1788" x2="-29.8426" y2="623.2308" gradientTransform="matrix(8 0 0 -8 454.7729 4941.5742)">
	<stop  offset="0" style="stop-color:#006DF0"/>
	<stop  offset="1" style="stop-color:#00E7F0"/>
</linearGradient>
<path style="fill:url(#SVGID_1_);" d="M344.032,144.064h-256c-4.418,0-8-3.582-8-8s3.582-8,8-8h256c4.418,0,8,3.582,8,8
	S348.451,144.064,344.032,144.064z"/>
<g>
	
		<linearGradient id="SVGID_2_" gradientUnits="userSpaceOnUse" x1="-8.8425" y1="556.1788" x2="-8.8425" y2="623.2308" gradientTransform="matrix(8 0 0 -8 454.7729 4941.5742)">
		<stop  offset="0" style="stop-color:#006DF0"/>
		<stop  offset="1" style="stop-color:#00E7F0"/>
	</linearGradient>
	<path style="fill:url(#SVGID_2_);" d="M392.032,144.064h-16c-4.418,0-8-3.582-8-8s3.582-8,8-8h16c4.418,0,8,3.582,8,8
		S396.451,144.064,392.032,144.064z"/>
	
		<linearGradient id="SVGID_3_" gradientUnits="userSpaceOnUse" x1="-26.8426" y1="556.1788" x2="-26.8426" y2="623.2308" gradientTransform="matrix(8 0 0 -8 454.7729 4941.5742)">
		<stop  offset="0" style="stop-color:#006DF0"/>
		<stop  offset="1" style="stop-color:#00E7F0"/>
	</linearGradient>
	<path style="fill:url(#SVGID_3_);" d="M423.936,102.864c-0.593-3.908-3.951-6.797-7.904-6.8h-72.408
		c-4.328-57.217-54.22-100.091-111.437-95.763c-51.198,3.873-91.89,44.564-95.763,95.763H64.032c-3.953,0.003-7.311,2.892-7.904,6.8
		l-56,368c-0.663,4.368,2.341,8.447,6.709,9.109c0.395,0.06,0.795,0.09,1.195,0.091h464c4.418-0.003,7.998-3.587,7.995-8.005
		c0-0.4-0.031-0.799-0.091-1.195L423.936,102.864z M240.032,16.064c45.47,0.06,83.421,34.722,87.592,80h-175.2
		C156.596,50.78,194.556,16.116,240.032,16.064z M17.344,464.064l53.6-352H409.16l53.6,352H17.344z"/>
	
		<linearGradient id="SVGID_4_" gradientUnits="userSpaceOnUse" x1="-26.8431" y1="556.1788" x2="-26.8431" y2="623.2308" gradientTransform="matrix(8 0 0 -8 454.7729 4941.5742)">
		<stop  offset="0" style="stop-color:#006DF0"/>
		<stop  offset="1" style="stop-color:#00E7F0"/>
	</linearGradient>
	<path style="fill:url(#SVGID_4_);" d="M180.032,415.984c-4.418-0.005-7.996-3.59-7.992-8.008c0.001-1.401,0.371-2.778,1.072-3.992
		l120-207.84c2.235-3.811,7.136-5.089,10.948-2.854c3.775,2.214,5.071,7.05,2.908,10.854l-120,207.84
		C185.538,414.461,182.893,415.987,180.032,415.984z"/>
	
		<linearGradient id="SVGID_5_" gradientUnits="userSpaceOnUse" x1="-31.8509" y1="556.1788" x2="-31.8509" y2="623.2308" gradientTransform="matrix(8 0 0 -8 454.7729 4941.5742)">
		<stop  offset="0" style="stop-color:#006DF0"/>
		<stop  offset="1" style="stop-color:#00E7F0"/>
	</linearGradient>
	<path style="fill:url(#SVGID_5_);" d="M199.976,272.064c-17.731,0.006-32.109-14.363-32.115-32.093s14.363-32.109,32.093-32.115
		s32.109,14.363,32.115,32.093c0.005,14.52-9.737,27.236-23.757,31.011C205.594,271.689,202.791,272.061,199.976,272.064z
		 M200.032,224.064c-8.837,0-16,7.163-16.001,15.999s7.163,16,15.999,16.001c8.837,0,16-7.163,16.001-15.999
		c0-5.716-3.049-10.998-7.999-13.857C205.6,224.803,202.841,224.064,200.032,224.064z"/>
	
		<linearGradient id="SVGID_6_" gradientUnits="userSpaceOnUse" x1="-21.8509" y1="556.1788" x2="-21.8509" y2="623.2308" gradientTransform="matrix(8 0 0 -8 454.7729 4941.5742)">
		<stop  offset="0" style="stop-color:#006DF0"/>
		<stop  offset="1" style="stop-color:#00E7F0"/>
	</linearGradient>
	<path style="fill:url(#SVGID_6_);" d="M279.976,400.064c-17.731,0.006-32.109-14.363-32.115-32.093
		c-0.006-17.731,14.363-32.109,32.093-32.115c17.731-0.006,32.109,14.363,32.115,32.093c0.005,14.52-9.737,27.236-23.757,31.011
		C285.594,399.689,282.791,400.061,279.976,400.064z M280.032,352.064c-8.837,0-16,7.163-16.001,15.999s7.163,16,15.999,16.001
		c8.837,0,16-7.163,16.001-15.999c0-5.716-3.049-10.998-7.999-13.857C285.6,352.803,282.841,352.064,280.032,352.064z"/>
</g>
<g>
</g>
<g>
</g>
<g>
</g>
<g>
</g>
<g>
</g>
<g>
</g>
<g>
</g>
<g>
</g>
<g>
</g>
<g>
</g>
<g>
</g>
<g>
</g>
<g>
</g>
<g>
</g>
<g>
</g>
</svg>
