<?xml version="1.0" encoding="iso-8859-1"?>
<!-- Generator: Adobe Illustrator 19.0.0, SVG Export Plug-In . SVG Version: 6.00 Build 0)  -->
<svg version="1.1" id="Capa_1" xmlns="http://www.w3.org/2000/svg" xmlns:xlink="http://www.w3.org/1999/xlink" x="0px" y="0px"
	 viewBox="0 0 480.04 480.04" style="enable-background:new 0 0 480.04 480.04;" xml:space="preserve">
<linearGradient id="SVGCleanerId_0_2_" gradientUnits="userSpaceOnUse" x1="-51.875" y1="556.905" x2="-51.875" y2="624.507" gradientTransform="matrix(8 0 0 -8 455 4941.1802)">
	<stop  offset="0" style="stop-color:#006DF0"/>
	<stop  offset="1" style="stop-color:#00E7F0"/>
</linearGradient>
<path id="SVGCleanerId_0" style="fill:url(#SVGCleanerId_0_2_);" d="M32,408.02h16v16H32V408.02z"/>
<g>
	
		<linearGradient id="SVGCleanerId_0_3_" gradientUnits="userSpaceOnUse" x1="-51.875" y1="556.905" x2="-51.875" y2="624.507" gradientTransform="matrix(8 0 0 -8 455 4941.1802)">
		<stop  offset="0" style="stop-color:#006DF0"/>
		<stop  offset="1" style="stop-color:#00E7F0"/>
	</linearGradient>
	<path id="SVGCleanerId_0_1_" style="fill:url(#SVGCleanerId_0_3_);" d="M32,408.02h16v16H32V408.02z"/>
</g>
<g>
	
		<linearGradient id="SVGID_1_" gradientUnits="userSpaceOnUse" x1="-47.875" y1="556.905" x2="-47.875" y2="624.507" gradientTransform="matrix(8 0 0 -8 455 4941.1802)">
		<stop  offset="0" style="stop-color:#006DF0"/>
		<stop  offset="1" style="stop-color:#00E7F0"/>
	</linearGradient>
	<path style="fill:url(#SVGID_1_);" d="M64,408.02h16v16H64V408.02z"/>
	
		<linearGradient id="SVGID_2_" gradientUnits="userSpaceOnUse" x1="-43.875" y1="556.905" x2="-43.875" y2="624.507" gradientTransform="matrix(8 0 0 -8 455 4941.1802)">
		<stop  offset="0" style="stop-color:#006DF0"/>
		<stop  offset="1" style="stop-color:#00E7F0"/>
	</linearGradient>
	<path style="fill:url(#SVGID_2_);" d="M96,408.02h16v16H96V408.02z"/>
	
		<linearGradient id="SVGID_3_" gradientUnits="userSpaceOnUse" x1="-39.875" y1="556.905" x2="-39.875" y2="624.507" gradientTransform="matrix(8 0 0 -8 455 4941.1802)">
		<stop  offset="0" style="stop-color:#006DF0"/>
		<stop  offset="1" style="stop-color:#00E7F0"/>
	</linearGradient>
	<path style="fill:url(#SVGID_3_);" d="M128,408.02h16v16h-16V408.02z"/>
	
		<linearGradient id="SVGID_4_" gradientUnits="userSpaceOnUse" x1="-35.875" y1="556.905" x2="-35.875" y2="624.507" gradientTransform="matrix(8 0 0 -8 455 4941.1802)">
		<stop  offset="0" style="stop-color:#006DF0"/>
		<stop  offset="1" style="stop-color:#00E7F0"/>
	</linearGradient>
	<path style="fill:url(#SVGID_4_);" d="M160,408.02h16v16h-16V408.02z"/>
	
		<linearGradient id="SVGID_5_" gradientUnits="userSpaceOnUse" x1="-31.875" y1="556.905" x2="-31.875" y2="624.507" gradientTransform="matrix(8 0 0 -8 455 4941.1802)">
		<stop  offset="0" style="stop-color:#006DF0"/>
		<stop  offset="1" style="stop-color:#00E7F0"/>
	</linearGradient>
	<path style="fill:url(#SVGID_5_);" d="M192,408.02h16v16h-16V408.02z"/>
	
		<linearGradient id="SVGID_6_" gradientUnits="userSpaceOnUse" x1="-27.875" y1="556.905" x2="-27.875" y2="624.507" gradientTransform="matrix(8 0 0 -8 455 4941.1802)">
		<stop  offset="0" style="stop-color:#006DF0"/>
		<stop  offset="1" style="stop-color:#00E7F0"/>
	</linearGradient>
	<path style="fill:url(#SVGID_6_);" d="M224,408.02h16v16h-16V408.02z"/>
	
		<linearGradient id="SVGID_7_" gradientUnits="userSpaceOnUse" x1="-23.875" y1="556.905" x2="-23.875" y2="624.507" gradientTransform="matrix(8 0 0 -8 455 4941.1802)">
		<stop  offset="0" style="stop-color:#006DF0"/>
		<stop  offset="1" style="stop-color:#00E7F0"/>
	</linearGradient>
	<path style="fill:url(#SVGID_7_);" d="M256,408.02h16v16h-16V408.02z"/>
	
		<linearGradient id="SVGID_8_" gradientUnits="userSpaceOnUse" x1="-26.8725" y1="556.905" x2="-26.8725" y2="624.507" gradientTransform="matrix(8 0 0 -8 455 4941.1802)">
		<stop  offset="0" style="stop-color:#006DF0"/>
		<stop  offset="1" style="stop-color:#00E7F0"/>
	</linearGradient>
	<path style="fill:url(#SVGID_8_);" d="M464,311.22c-0.412-4.103-3.876-7.221-8-7.2h-8v-296c0-4.418-3.582-8-8-8H8
		c-4.418,0-8,3.582-8,8v432c0,4.418,3.582,8,8,8h282.4l-2.32,23.2c-0.442,4.396,2.764,8.318,7.16,8.76
		c0.253,0.025,0.506,0.039,0.76,0.04h176c4.418,0.022,8.018-3.542,8.04-7.96c0.001-0.281-0.012-0.561-0.04-0.84L464,311.22z
		 M16,16.02h416v32H16V16.02z M16,432.02v-368h416v240h-8c0-22.091-17.909-40-40-40s-40,17.909-40,40h-32
		c-4.109,0-7.549,3.112-7.96,7.2l-12.08,120.8H16z M408,304.02h-48c0-13.255,10.745-24,24-24S408,290.765,408,304.02z M304.8,464.02
		l14.4-144H344v16c0,4.418,3.582,8,8,8s8-3.582,8-8v-16h48v16c0,4.418,3.582,8,8,8s8-3.582,8-8v-16h24.8l14.4,144H304.8z"/>
	
		<linearGradient id="SVGID_9_" gradientUnits="userSpaceOnUse" x1="-45.6675" y1="556.905" x2="-45.6675" y2="624.507" gradientTransform="matrix(8 0 0 -8 455 4941.1802)">
		<stop  offset="0" style="stop-color:#006DF0"/>
		<stop  offset="1" style="stop-color:#00E7F0"/>
	</linearGradient>
	<path style="fill:url(#SVGID_9_);" d="M78.344,152.708L61.376,135.74l-11.312,11.312l28.28,28.28l50.912-50.912l-11.312-11.312
		L78.344,152.708z"/>
	
		<linearGradient id="SVGID_10_" gradientUnits="userSpaceOnUse" x1="-45.6675" y1="556.905" x2="-45.6675" y2="624.507" gradientTransform="matrix(8 0 0 -8 455 4941.1802)">
		<stop  offset="0" style="stop-color:#006DF0"/>
		<stop  offset="1" style="stop-color:#00E7F0"/>
	</linearGradient>
	<path style="fill:url(#SVGID_10_);" d="M78.344,216.708L61.376,199.74l-11.312,11.312l28.28,28.28l50.912-50.912l-11.312-11.312
		L78.344,216.708z"/>
	
		<linearGradient id="SVGID_11_" gradientUnits="userSpaceOnUse" x1="-45.6675" y1="556.905" x2="-45.6675" y2="624.507" gradientTransform="matrix(8 0 0 -8 455 4941.1802)">
		<stop  offset="0" style="stop-color:#006DF0"/>
		<stop  offset="1" style="stop-color:#00E7F0"/>
	</linearGradient>
	<path style="fill:url(#SVGID_11_);" d="M78.344,280.708L61.376,263.74l-11.312,11.312l28.28,28.28l50.912-50.912l-11.312-11.312
		L78.344,280.708z"/>
	
		<linearGradient id="SVGID_12_" gradientUnits="userSpaceOnUse" x1="-27.875" y1="556.905" x2="-27.875" y2="624.507" gradientTransform="matrix(8 0 0 -8 455 4941.1802)">
		<stop  offset="0" style="stop-color:#006DF0"/>
		<stop  offset="1" style="stop-color:#00E7F0"/>
	</linearGradient>
	<path style="fill:url(#SVGID_12_);" d="M136,144.02h192v16H136V144.02z"/>
	
		<linearGradient id="SVGID_13_" gradientUnits="userSpaceOnUse" x1="-27.875" y1="556.905" x2="-27.875" y2="624.507" gradientTransform="matrix(8 0 0 -8 455 4941.1802)">
		<stop  offset="0" style="stop-color:#006DF0"/>
		<stop  offset="1" style="stop-color:#00E7F0"/>
	</linearGradient>
	<path style="fill:url(#SVGID_13_);" d="M136,208.02h192v16H136V208.02z"/>
	
		<linearGradient id="SVGID_14_" gradientUnits="userSpaceOnUse" x1="-27.875" y1="556.905" x2="-27.875" y2="624.507" gradientTransform="matrix(8 0 0 -8 455 4941.1802)">
		<stop  offset="0" style="stop-color:#006DF0"/>
		<stop  offset="1" style="stop-color:#00E7F0"/>
	</linearGradient>
	<path style="fill:url(#SVGID_14_);" d="M136,272.02h192v16H136V272.02z"/>
</g>
<g>
</g>
<g>
</g>
<g>
</g>
<g>
</g>
<g>
</g>
<g>
</g>
<g>
</g>
<g>
</g>
<g>
</g>
<g>
</g>
<g>
</g>
<g>
</g>
<g>
</g>
<g>
</g>
<g>
</g>
</svg>
