<?xml version="1.0" encoding="iso-8859-1"?>
<!-- Generator: Adobe Illustrator 19.0.0, SVG Export Plug-In . SVG Version: 6.00 Build 0)  -->
<svg version="1.1" id="Capa_1" xmlns="http://www.w3.org/2000/svg" xmlns:xlink="http://www.w3.org/1999/xlink" x="0px" y="0px"
	 viewBox="0 0 480 480" style="enable-background:new 0 0 480 480;" xml:space="preserve">
<g>
	
		<linearGradient id="SVGID_1_" gradientUnits="userSpaceOnUse" x1="-26.875" y1="556.866" x2="-26.875" y2="621.079" gradientTransform="matrix(8 0 0 -8 455.0002 4941)">
		<stop  offset="0" style="stop-color:#006DF0"/>
		<stop  offset="1" style="stop-color:#00E7F0"/>
	</linearGradient>
	<path style="fill:url(#SVGID_1_);" d="M479.44,85.224c-0.088-0.232-0.184-0.44-0.288-0.664c-0.084-0.233-0.183-0.46-0.296-0.68
		l-48-80C429.41,1.473,426.808,0.001,424,0H56c-2.808,0.001-5.41,1.473-6.856,3.88l-48,80c-0.113,0.22-0.212,0.447-0.296,0.68
		c-0.104,0.224-0.2,0.44-0.288,0.672C0.208,86.113,0.018,87.051,0,88v384c0,4.418,3.582,8,8,8h464c4.418,0,8-3.582,8-8V88
		C479.981,87.049,479.791,86.108,479.44,85.224L479.44,85.224z M457.872,80H248V16h171.472L457.872,80z M60.528,16H232v64H22.128
		L60.528,16z M464,464H16V96h448V464z"/>
	
		<linearGradient id="SVGID_2_" gradientUnits="userSpaceOnUse" x1="-26.875" y1="556.866" x2="-26.875" y2="621.079" gradientTransform="matrix(8 0 0 -8 455.0002 4941)">
		<stop  offset="0" style="stop-color:#006DF0"/>
		<stop  offset="1" style="stop-color:#00E7F0"/>
	</linearGradient>
	<path style="fill:url(#SVGID_2_);" d="M168,128c0,4.418,3.582,8,8,8h128c4.418,0,8-3.582,8-8s-3.582-8-8-8H176
		C171.582,120,168,123.582,168,128z"/>
	
		<linearGradient id="SVGID_3_" gradientUnits="userSpaceOnUse" x1="-26.875" y1="556.866" x2="-26.875" y2="621.079" gradientTransform="matrix(8 0 0 -8 455.0002 4941)">
		<stop  offset="0" style="stop-color:#006DF0"/>
		<stop  offset="1" style="stop-color:#00E7F0"/>
	</linearGradient>
	<path style="fill:url(#SVGID_3_);" d="M299.056,232.616c-2.986-1.237-6.424-0.555-8.712,1.728L256.4,268.288
		c-3.07,3.178-2.982,8.242,0.196,11.312c3.1,2.995,8.016,2.995,11.116,0L288,259.312V360h-96V259.312l20.288,20.288
		c3.07,3.178,8.134,3.266,11.312,0.196c3.178-3.07,3.266-8.134,0.196-11.312c-0.064-0.067-0.13-0.132-0.196-0.196l-33.944-33.944
		c-3.124-3.123-8.188-3.123-11.312,0L144.4,268.288c-3.178,3.069-3.266,8.134-0.196,11.312c3.069,3.178,8.134,3.266,11.312,0.196
		c0.067-0.064,0.132-0.13,0.196-0.196L176,259.312V360h-56c-4.418,0-8,3.582-8,8s3.582,8,8,8h240c4.418,0,8-3.582,8-8s-3.582-8-8-8
		h-56V259.312l20.288,20.288c3.178,3.07,8.242,2.982,11.312-0.196c2.995-3.1,2.995-8.016,0-11.116l-33.944-33.944
		C300.911,233.603,300.028,233.016,299.056,232.616z"/>
</g>
<g>
</g>
<g>
</g>
<g>
</g>
<g>
</g>
<g>
</g>
<g>
</g>
<g>
</g>
<g>
</g>
<g>
</g>
<g>
</g>
<g>
</g>
<g>
</g>
<g>
</g>
<g>
</g>
<g>
</g>
</svg>
