<?xml version="1.0" encoding="iso-8859-1"?>
<!-- Generator: Adobe Illustrator 19.0.0, SVG Export Plug-In . SVG Version: 6.00 Build 0)  -->
<svg version="1.1" id="Capa_1" xmlns="http://www.w3.org/2000/svg" xmlns:xlink="http://www.w3.org/1999/xlink" x="0px" y="0px"
	 viewBox="0 0 485.136 485.136" style="enable-background:new 0 0 485.136 485.136;" xml:space="preserve">
<linearGradient id="SVGID_1_" gradientUnits="userSpaceOnUse" x1="-83.0639" y1="571.2568" x2="-40.7669" y2="613.5568" gradientTransform="matrix(5.6569 -5.6569 -5.6569 -5.6569 3736.8325 3240.4563)">
	<stop  offset="0" style="stop-color:#006DF0"/>
	<stop  offset="1" style="stop-color:#00E7F0"/>
</linearGradient>
<path style="fill:url(#SVGID_1_);" d="M24.098,291.441l11.314-11.314l11.314,11.314l-11.314,11.314L24.098,291.441z"/>
<g>
	
		<linearGradient id="SVGID_2_" gradientUnits="userSpaceOnUse" x1="-33.2268" y1="557.5794" x2="-23.0898" y2="617.4034" gradientTransform="matrix(8 0 0 -8 454.8013 4987.9199)">
		<stop  offset="0" style="stop-color:#006DF0"/>
		<stop  offset="1" style="stop-color:#00E7F0"/>
	</linearGradient>
	<path style="fill:url(#SVGID_2_);" d="M482.7,126.413c-3.124-3.123-8.188-3.123-11.312,0c-9.898,9.851-22.228,16.906-35.736,20.448
		L424.22,80.589c-1.727-10.005-9.563-17.841-19.568-19.568l-66.968-11.544c3.501-13.684,10.603-26.181,20.568-36.192
		c2.919-3.317,2.597-8.372-0.72-11.291c-3.03-2.667-7.571-2.658-10.592,0.019c-12.353,12.321-21.077,27.803-25.216,44.752
		L259.9,36.061c-7.684-1.317-15.53,1.173-21.048,6.68L7.124,274.469c-9.369,9.372-9.369,24.564,0,33.936l169.704,169.704
		c9.372,9.369,24.564,9.369,33.936,0l231.728-231.728c5.514-5.511,8.008-13.357,6.688-21.04l-10.752-62.528
		c16.775-4.189,32.09-12.874,44.296-25.12C485.819,134.566,485.809,129.527,482.7,126.413L482.7,126.413z M431.228,235.069
		L199.46,466.813c-3.124,3.123-8.188,3.123-11.312,0l-169.72-169.72c-3.123-3.124-3.123-8.188,0-11.312L250.172,54.053
		c1.498-1.498,3.529-2.341,5.648-2.344c0.456,0,0.911,0.04,1.36,0.12l144.752,24.952c3.339,0.574,5.954,3.189,6.528,6.528
		l11.432,66.344c-10.143,0.693-20.324-0.606-29.968-3.824c7.174-20.73-3.815-43.352-24.546-50.526
		c-10.517-3.64-22.079-2.7-31.87,2.59c-2.417,0.109-4.588,1.513-5.68,3.672c-17.422,13.496-20.605,38.561-7.109,55.983
		s38.561,20.605,55.983,7.109c1.326-1.028,2.587-2.138,3.774-3.324c0.464-0.472,0.8-1.016,1.224-1.504
		c10.501,3.973,21.629,6.029,32.856,6.072c2.688,0,5.376-0.176,8.072-0.408l10.784,62.568
		C433.862,230.613,433.048,233.225,431.228,235.069L431.228,235.069z M332.62,119.261c8.141,13.754,19.67,25.193,33.488,33.224
		c-9.591,6.553-22.454,5.523-30.88-2.472C327.01,141.755,325.91,128.786,332.62,119.261z M358.22,126.413
		c-4.871-4.885-9.082-10.384-12.528-16.36c12.604-3.666,25.794,3.58,29.46,16.184c1.243,4.274,1.261,8.812,0.052,13.096
		c-6.209-3.521-11.911-7.867-16.952-12.92H358.22z"/>
	
		<linearGradient id="SVGID_3_" gradientUnits="userSpaceOnUse" x1="-34.6153" y1="557.8147" x2="-24.4783" y2="617.6387" gradientTransform="matrix(8 0 0 -8 454.8013 4987.9199)">
		<stop  offset="0" style="stop-color:#006DF0"/>
		<stop  offset="1" style="stop-color:#00E7F0"/>
	</linearGradient>
	<path style="fill:url(#SVGID_3_);" d="M289.972,183.957l-11.128,11.128c-7.98-5.713-17.261-9.34-27-10.552H249.7
		c-20.133,1.773-37.431,15.013-44.4,33.984c-5.919,17.291-1.442,36.444,11.528,49.32c8.645,8.588,11.63,21.357,7.688,32.888
		c-4.83,12.885-16.615,21.862-30.32,23.096c-13.705-1.234-25.49-10.211-30.32-23.096c-3.942-11.531-0.957-24.3,7.688-32.888
		l-11.312-11.312c-12.968,12.877-17.447,32.027-11.536,49.32c1.536,4.564,3.765,8.865,6.608,12.752l-12.44,12.44l11.312,11.312
		l12.616-12.616c7.827,5.442,16.854,8.909,26.312,10.104h2.144c20.135-1.779,37.434-15.02,44.408-33.992
		c5.911-17.293,1.432-36.443-11.536-49.32c-8.646-8.587-11.634-21.356-7.696-32.888c4.835-12.879,16.619-21.852,30.32-23.088
		c13.701,1.236,25.485,10.209,30.32,23.088c3.946,11.53,0.96,24.302-7.688,32.888l11.312,11.312
		c12.969-12.876,17.449-32.027,11.536-49.32c-1.461-4.293-3.533-8.354-6.152-12.056l11.2-11.2L289.972,183.957z"/>
</g>
<linearGradient id="SVGID_4_" gradientUnits="userSpaceOnUse" x1="-78.2436" y1="570.4297" x2="-35.9356" y2="612.7287" gradientTransform="matrix(5.6558 -5.6578 -5.6578 -5.6558 3727.9575 3262.3979)">
	<stop  offset="0" style="stop-color:#006DF0"/>
	<stop  offset="1" style="stop-color:#00E7F0"/>
</linearGradient>
<path style="fill:url(#SVGID_4_);" d="M46.699,314.064l11.312-11.316l11.316,11.312l-11.312,11.316L46.699,314.064z"/>
<linearGradient id="SVGID_5_" gradientUnits="userSpaceOnUse" x1="-73.3975" y1="569.5942" x2="-31.1115" y2="611.9092" gradientTransform="matrix(5.6588 -5.6549 -5.6549 -5.6588 3716.969 3286.9634)">
	<stop  offset="0" style="stop-color:#006DF0"/>
	<stop  offset="1" style="stop-color:#00E7F0"/>
</linearGradient>
<path style="fill:url(#SVGID_5_);" d="M69.327,336.694l11.318-11.31l11.31,11.318l-11.318,11.31L69.327,336.694z"/>
<linearGradient id="SVGCleanerId_0_2_" gradientUnits="userSpaceOnUse" x1="-68.5797" y1="568.7715" x2="-26.2777" y2="611.0725" gradientTransform="matrix(5.6569 -5.6569 -5.6569 -5.6569 3708.7126 3308.3203)">
	<stop  offset="0" style="stop-color:#006DF0"/>
	<stop  offset="1" style="stop-color:#00E7F0"/>
</linearGradient>
<path id="SVGCleanerId_0" style="fill:url(#SVGCleanerId_0_2_);" d="M91.981,359.31l11.314-11.314l11.314,11.314l-11.314,11.314
	L91.981,359.31z"/>
<g>
	
		<linearGradient id="SVGCleanerId_0_3_" gradientUnits="userSpaceOnUse" x1="-68.5797" y1="568.7715" x2="-26.2777" y2="611.0725" gradientTransform="matrix(5.6569 -5.6569 -5.6569 -5.6569 3708.7126 3308.3203)">
		<stop  offset="0" style="stop-color:#006DF0"/>
		<stop  offset="1" style="stop-color:#00E7F0"/>
	</linearGradient>
	<path id="SVGCleanerId_0_1_" style="fill:url(#SVGCleanerId_0_3_);" d="M91.981,359.31l11.314-11.314l11.314,11.314l-11.314,11.314
		L91.981,359.31z"/>
</g>
<linearGradient id="SVGID_6_" gradientUnits="userSpaceOnUse" x1="-63.7552" y1="567.9454" x2="-21.4492" y2="610.2394" gradientTransform="matrix(5.6558 -5.6578 -5.6578 -5.6558 3699.8616 3330.2939)">
	<stop  offset="0" style="stop-color:#006DF0"/>
	<stop  offset="1" style="stop-color:#00E7F0"/>
</linearGradient>
<path style="fill:url(#SVGID_6_);" d="M114.611,381.943l11.312-11.316l11.316,11.312l-11.312,11.316L114.611,381.943z"/>
<linearGradient id="SVGID_7_" gradientUnits="userSpaceOnUse" x1="-58.924" y1="567.1139" x2="-16.624" y2="609.4139" gradientTransform="matrix(5.6569 -5.6569 -5.6569 -5.6569 3689.9685 3353.5923)">
	<stop  offset="0" style="stop-color:#006DF0"/>
	<stop  offset="1" style="stop-color:#00E7F0"/>
</linearGradient>
<path style="fill:url(#SVGID_7_);" d="M137.234,404.577l11.314-11.314l11.314,11.314l-11.314,11.314L137.234,404.577z"/>
<linearGradient id="SVGID_8_" gradientUnits="userSpaceOnUse" x1="-54.0934" y1="566.2862" x2="-11.7964" y2="608.5862" gradientTransform="matrix(5.6569 -5.6569 -5.6569 -5.6569 3680.5925 3376.2163)">
	<stop  offset="0" style="stop-color:#006DF0"/>
	<stop  offset="1" style="stop-color:#00E7F0"/>
</linearGradient>
<path style="fill:url(#SVGID_8_);" d="M159.864,427.201l11.314-11.314l11.314,11.314l-11.314,11.314L159.864,427.201z"/>
<linearGradient id="SVGID_9_" gradientUnits="userSpaceOnUse" x1="-49.2665" y1="565.4573" x2="-6.9655" y2="607.7603" gradientTransform="matrix(5.6569 -5.6569 -5.6569 -5.6569 3671.2485 3398.8403)">
	<stop  offset="0" style="stop-color:#006DF0"/>
	<stop  offset="1" style="stop-color:#00E7F0"/>
</linearGradient>
<path style="fill:url(#SVGID_9_);" d="M182.516,449.825l11.314-11.314l11.314,11.314l-11.314,11.314L182.516,449.825z"/>
<g>
</g>
<g>
</g>
<g>
</g>
<g>
</g>
<g>
</g>
<g>
</g>
<g>
</g>
<g>
</g>
<g>
</g>
<g>
</g>
<g>
</g>
<g>
</g>
<g>
</g>
<g>
</g>
<g>
</g>
</svg>
