<?xml version="1.0" encoding="iso-8859-1"?>
<!-- Generator: Adobe Illustrator 19.0.0, SVG Export Plug-In . SVG Version: 6.00 Build 0)  -->
<svg version="1.1" id="Capa_1" xmlns="http://www.w3.org/2000/svg" xmlns:xlink="http://www.w3.org/1999/xlink" x="0px" y="0px"
	 viewBox="0 0 485.521 485.521" style="enable-background:new 0 0 485.521 485.521;" xml:space="preserve">
<linearGradient id="SVGID_1_" gradientUnits="userSpaceOnUse" x1="-78.6764" y1="561.1767" x2="-36.2374" y2="603.6157" gradientTransform="matrix(5.6569 -5.6569 -5.6569 -5.6569 3677.7981 3215.7385)">
	<stop  offset="0" style="stop-color:#006DF0"/>
	<stop  offset="1" style="stop-color:#00E7F0"/>
</linearGradient>
<path style="fill:url(#SVGID_1_);" d="M46.912,314.448l11.314-11.314l11.314,11.314l-11.314,11.314L46.912,314.448z"/>
<linearGradient id="SVGID_2_" gradientUnits="userSpaceOnUse" x1="-73.8455" y1="560.3518" x2="-31.4075" y2="602.7858" gradientTransform="matrix(5.6569 -5.6569 -5.6569 -5.6569 3668.4302 3238.3706)">
	<stop  offset="0" style="stop-color:#006DF0"/>
	<stop  offset="1" style="stop-color:#00E7F0"/>
</linearGradient>
<path style="fill:url(#SVGID_2_);" d="M69.545,337.074l11.314-11.314l11.314,11.314l-11.314,11.314L69.545,337.074z"/>
<linearGradient id="SVGCleanerId_0_2_" gradientUnits="userSpaceOnUse" x1="-69.0131" y1="559.5197" x2="-26.5841" y2="601.9597" gradientTransform="matrix(5.6578 -5.6558 -5.6558 -5.6578 3658.4883 3261.6072)">
	<stop  offset="0" style="stop-color:#006DF0"/>
	<stop  offset="1" style="stop-color:#00E7F0"/>
</linearGradient>
<path id="SVGCleanerId_0" style="fill:url(#SVGCleanerId_0_2_);" d="M92.162,359.693l11.316-11.312l11.312,11.316l-11.316,11.312
	L92.162,359.693z"/>
<g>
	
		<linearGradient id="SVGCleanerId_0_3_" gradientUnits="userSpaceOnUse" x1="-69.0131" y1="559.5197" x2="-26.5841" y2="601.9597" gradientTransform="matrix(5.6578 -5.6558 -5.6558 -5.6578 3658.4883 3261.6072)">
		<stop  offset="0" style="stop-color:#006DF0"/>
		<stop  offset="1" style="stop-color:#00E7F0"/>
	</linearGradient>
	<path id="SVGCleanerId_0_1_" style="fill:url(#SVGCleanerId_0_3_);" d="M92.162,359.693l11.316-11.312l11.312,11.316
		l-11.316,11.312L92.162,359.693z"/>
</g>
<linearGradient id="SVGID_3_" gradientUnits="userSpaceOnUse" x1="-64.1909" y1="558.6922" x2="-21.7529" y2="601.1302" gradientTransform="matrix(5.6569 -5.6569 -5.6569 -5.6569 3649.6462 3283.5945)">
	<stop  offset="0" style="stop-color:#006DF0"/>
	<stop  offset="1" style="stop-color:#00E7F0"/>
</linearGradient>
<path style="fill:url(#SVGID_3_);" d="M114.758,382.304l11.314-11.314l11.314,11.314l-11.314,11.314L114.758,382.304z"/>
<linearGradient id="SVGID_4_" gradientUnits="userSpaceOnUse" x1="-59.3719" y1="557.8671" x2="-16.9189" y2="600.2941" gradientTransform="matrix(5.6549 -5.6588 -5.6588 -5.6549 3641.3352 3305.0012)">
	<stop  offset="0" style="stop-color:#006DF0"/>
	<stop  offset="1" style="stop-color:#00E7F0"/>
</linearGradient>
<path style="fill:url(#SVGID_4_);" d="M137.419,404.957l11.31-11.318l11.318,11.31l-11.31,11.318L137.419,404.957z"/>
<linearGradient id="SVGID_5_" gradientUnits="userSpaceOnUse" x1="-54.5303" y1="557.032" x2="-12.0953" y2="599.478" gradientTransform="matrix(5.6578 -5.6558 -5.6558 -5.6578 3630.3684 3329.479)">
	<stop  offset="0" style="stop-color:#006DF0"/>
	<stop  offset="1" style="stop-color:#00E7F0"/>
</linearGradient>
<path style="fill:url(#SVGID_5_);" d="M160.05,427.582l11.316-11.312l11.312,11.316l-11.316,11.312L160.05,427.582z"/>
<linearGradient id="SVGID_6_" gradientUnits="userSpaceOnUse" x1="-49.707" y1="556.2053" x2="-7.267" y2="598.6432" gradientTransform="matrix(5.6569 -5.6569 -5.6569 -5.6569 3621.5662 3351.4985)">
	<stop  offset="0" style="stop-color:#006DF0"/>
	<stop  offset="1" style="stop-color:#00E7F0"/>
</linearGradient>
<path style="fill:url(#SVGID_6_);" d="M182.681,450.202l11.314-11.314l11.314,11.314l-11.314,11.314L182.681,450.202z"/>
<linearGradient id="SVGID_7_" gradientUnits="userSpaceOnUse" x1="-30.4519" y1="550.7466" x2="-24.5139" y2="610.7666" gradientTransform="matrix(8 0 0 -8 453.4843 4919.3066)">
	<stop  offset="0" style="stop-color:#006DF0"/>
	<stop  offset="1" style="stop-color:#00E7F0"/>
</linearGradient>
<path style="fill:url(#SVGID_7_);" d="M240.217,236.934V165.59h-16v76.688l-2.344,2.344l-22.624-22.632l-11.312,11.312
	l22.624,22.632l-5.656,5.656l-22.632-22.624l-11.312,11.312l22.632,22.624l-39.6,39.6l11.312,11.312l39.6-39.6l22.624,22.632
	l11.312-11.312l-22.624-22.632l5.656-5.656l22.624,22.632l11.312-11.312l-22.624-22.632l3.144-3.144
	c11.68-0.12,49.256-0.168,75.08-0.168v-16C311.409,236.622,247.225,236.694,240.217,236.934L240.217,236.934z"/>
<linearGradient id="SVGID_8_" gradientUnits="userSpaceOnUse" x1="-83.5039" y1="562.0062" x2="-41.0659" y2="604.4442" gradientTransform="matrix(5.6569 -5.6569 -5.6569 -5.6569 3687.1741 3193.1145)">
	<stop  offset="0" style="stop-color:#006DF0"/>
	<stop  offset="1" style="stop-color:#00E7F0"/>
</linearGradient>
<path style="fill:url(#SVGID_8_);" d="M24.287,291.818l11.314-11.314l11.314,11.314l-11.314,11.314L24.287,291.818z"/>
<linearGradient id="SVGID_9_" gradientUnits="userSpaceOnUse" x1="-30.074" y1="550.7092" x2="-24.136" y2="610.7292" gradientTransform="matrix(8 0 0 -8 453.4843 4919.3066)">
	<stop  offset="0" style="stop-color:#006DF0"/>
	<stop  offset="1" style="stop-color:#00E7F0"/>
</linearGradient>
<path style="fill:url(#SVGID_9_);" d="M482.889,126.798c-3.124-3.123-8.188-3.123-11.312,0c-9.9,9.851-22.233,16.903-35.744,20.44
	l-11.424-66.264c-1.724-10.008-9.56-17.848-19.568-19.576l-66.968-11.552c3.499-13.683,10.602-26.177,20.568-36.184
	c3.126-3.124,3.128-8.19,0.004-11.316s-8.19-3.128-11.316-0.004l0,0c-12.35,12.324-21.076,27.805-25.224,44.752l-61.808-10.656
	c-7.685-1.325-15.534,1.166-21.048,6.68L7.321,274.846c-9.369,9.372-9.369,24.564,0,33.936l169.696,169.712
	c9.372,9.369,24.564,9.369,33.936,0l231.736-231.728c5.514-5.514,8.005-13.363,6.68-21.048l-10.752-62.528
	c16.773-4.19,32.087-12.872,44.296-25.112C486.008,134.951,485.997,129.911,482.889,126.798L482.889,126.798z M431.417,235.446
	L199.649,467.19c-3.165,3.021-8.147,3.021-11.312,0L18.617,297.47c-3.123-3.124-3.123-8.188,0-11.312L250.361,54.43
	c1.5-1.5,3.534-2.344,5.656-2.344c0.456,0.001,0.911,0.041,1.36,0.12l144.744,24.952c3.339,0.574,5.954,3.189,6.528,6.528
	l11.44,66.352c-10.146,0.692-20.329-0.607-29.976-3.824c7.174-20.73-3.815-43.352-24.546-50.526c-10.517-3.64-22.079-2.7-31.87,2.59
	c-2.409,0.114-4.573,1.509-5.672,3.656c-17.453,13.464-20.687,38.527-7.223,55.98s38.527,20.687,55.98,7.223
	c1.37-1.057,2.67-2.202,3.891-3.427c0.464-0.472,0.8-1.016,1.224-1.504c10.498,3.973,21.624,6.029,32.848,6.072
	c2.688,0,5.376-0.176,8.072-0.408l10.784,62.568C434.05,230.989,433.236,233.601,431.417,235.446L431.417,235.446z M332.809,119.622
	c8.131,13.776,19.672,25.227,33.512,33.248c-10.702,7.745-25.656,5.348-33.402-5.354
	C326.903,139.204,326.859,127.981,332.809,119.622z M358.409,126.822c-4.874-4.881-9.086-10.382-12.528-16.36
	c2.102-0.623,4.28-0.956,6.472-0.992c13.171-0.05,23.889,10.586,23.939,23.757c0.008,2.194-0.286,4.378-0.875,6.491
	c-6.217-3.522-11.928-7.871-16.976-12.928L358.409,126.822z"/>
<g>
</g>
<g>
</g>
<g>
</g>
<g>
</g>
<g>
</g>
<g>
</g>
<g>
</g>
<g>
</g>
<g>
</g>
<g>
</g>
<g>
</g>
<g>
</g>
<g>
</g>
<g>
</g>
<g>
</g>
</svg>
