<?xml version="1.0" encoding="iso-8859-1"?>
<!-- Generator: Adobe Illustrator 19.0.0, SVG Export Plug-In . SVG Version: 6.00 Build 0)  -->
<svg version="1.1" id="Capa_1" xmlns="http://www.w3.org/2000/svg" xmlns:xlink="http://www.w3.org/1999/xlink" x="0px" y="0px"
	 viewBox="0 0 485.136 485.136" style="enable-background:new 0 0 485.136 485.136;" xml:space="preserve">
<linearGradient id="SVGID_1_" gradientUnits="userSpaceOnUse" x1="-83.2977" y1="571.0246" x2="-40.8947" y2="613.4266" gradientTransform="matrix(5.6569 -5.6569 -5.6569 -5.6569 3736.8325 3240.4563)">
	<stop  offset="0" style="stop-color:#006DF0"/>
	<stop  offset="1" style="stop-color:#00E7F0"/>
</linearGradient>
<path style="fill:url(#SVGID_1_);" d="M24.098,291.441l11.314-11.314l11.314,11.314l-11.314,11.314L24.098,291.441z"/>
<linearGradient id="SVGID_2_" gradientUnits="userSpaceOnUse" x1="-78.4775" y1="570.1976" x2="-36.0635" y2="612.5976" gradientTransform="matrix(5.6558 -5.6578 -5.6578 -5.6558 3727.9575 3262.3979)">
	<stop  offset="0" style="stop-color:#006DF0"/>
	<stop  offset="1" style="stop-color:#00E7F0"/>
</linearGradient>
<path style="fill:url(#SVGID_2_);" d="M46.699,314.064l11.312-11.316l11.316,11.312l-11.312,11.316L46.699,314.064z"/>
<linearGradient id="SVGID_3_" gradientUnits="userSpaceOnUse" x1="-73.6348" y1="569.3555" x2="-31.2428" y2="611.7805" gradientTransform="matrix(5.6588 -5.6549 -5.6549 -5.6588 3716.969 3286.9634)">
	<stop  offset="0" style="stop-color:#006DF0"/>
	<stop  offset="1" style="stop-color:#00E7F0"/>
</linearGradient>
<path style="fill:url(#SVGID_3_);" d="M69.327,336.694l11.318-11.31l11.31,11.318l-11.318,11.31L69.327,336.694z"/>
<linearGradient id="SVGCleanerId_0_2_" gradientUnits="userSpaceOnUse" x1="-68.8145" y1="568.5364" x2="-26.4085" y2="610.9424" gradientTransform="matrix(5.6569 -5.6569 -5.6569 -5.6569 3708.7126 3308.3203)">
	<stop  offset="0" style="stop-color:#006DF0"/>
	<stop  offset="1" style="stop-color:#00E7F0"/>
</linearGradient>
<path id="SVGCleanerId_0" style="fill:url(#SVGCleanerId_0_2_);" d="M91.981,359.31l11.314-11.314l11.314,11.314l-11.314,11.314
	L91.981,359.31z"/>
<g>
	
		<linearGradient id="SVGCleanerId_0_3_" gradientUnits="userSpaceOnUse" x1="-68.8145" y1="568.5364" x2="-26.4085" y2="610.9424" gradientTransform="matrix(5.6569 -5.6569 -5.6569 -5.6569 3708.7126 3308.3203)">
		<stop  offset="0" style="stop-color:#006DF0"/>
		<stop  offset="1" style="stop-color:#00E7F0"/>
	</linearGradient>
	<path id="SVGCleanerId_0_1_" style="fill:url(#SVGCleanerId_0_3_);" d="M91.981,359.31l11.314-11.314l11.314,11.314l-11.314,11.314
		L91.981,359.31z"/>
</g>
<linearGradient id="SVGID_4_" gradientUnits="userSpaceOnUse" x1="-63.9909" y1="567.71" x2="-21.5789" y2="610.109" gradientTransform="matrix(5.6558 -5.6578 -5.6578 -5.6558 3699.8616 3330.2939)">
	<stop  offset="0" style="stop-color:#006DF0"/>
	<stop  offset="1" style="stop-color:#00E7F0"/>
</linearGradient>
<path style="fill:url(#SVGID_4_);" d="M114.611,381.943l11.312-11.316l11.316,11.312l-11.312,11.316L114.611,381.943z"/>
<linearGradient id="SVGID_5_" gradientUnits="userSpaceOnUse" x1="-59.1577" y1="566.8796" x2="-16.7557" y2="609.2856" gradientTransform="matrix(5.6569 -5.6569 -5.6569 -5.6569 3689.9685 3353.5923)">
	<stop  offset="0" style="stop-color:#006DF0"/>
	<stop  offset="1" style="stop-color:#00E7F0"/>
</linearGradient>
<path style="fill:url(#SVGID_5_);" d="M137.234,404.577l11.314-11.314l11.314,11.314l-11.314,11.314L137.234,404.577z"/>
<linearGradient id="SVGID_6_" gradientUnits="userSpaceOnUse" x1="-54.3311" y1="566.048" x2="-11.9281" y2="608.458" gradientTransform="matrix(5.6569 -5.6569 -5.6569 -5.6569 3680.5925 3376.2163)">
	<stop  offset="0" style="stop-color:#006DF0"/>
	<stop  offset="1" style="stop-color:#00E7F0"/>
</linearGradient>
<path style="fill:url(#SVGID_6_);" d="M159.864,427.201l11.314-11.314l11.314,11.314l-11.314,11.314L159.864,427.201z"/>
<linearGradient id="SVGID_7_" gradientUnits="userSpaceOnUse" x1="-49.4997" y1="565.2245" x2="-7.0927" y2="607.6275" gradientTransform="matrix(5.6569 -5.6569 -5.6569 -5.6569 3671.2485 3398.8403)">
	<stop  offset="0" style="stop-color:#006DF0"/>
	<stop  offset="1" style="stop-color:#00E7F0"/>
</linearGradient>
<path style="fill:url(#SVGID_7_);" d="M182.516,449.825l11.314-11.314l11.314,11.314l-11.314,11.314L182.516,449.825z"/>
<g>
	
		<linearGradient id="SVGID_8_" gradientUnits="userSpaceOnUse" x1="-34.2716" y1="557.2634" x2="-23.8986" y2="617.2333" gradientTransform="matrix(8 0 0 -8 454.8013 4987.9199)">
		<stop  offset="0" style="stop-color:#006DF0"/>
		<stop  offset="1" style="stop-color:#00E7F0"/>
	</linearGradient>
	<path style="fill:url(#SVGID_8_);" d="M250.372,183.557c-10.616-0.029-20.803,4.191-28.288,11.72l-11.312,11.312l-11.312-11.312
		l-11.312,11.312l11.312,11.312l-11.312,11.312l-16.968-16.968l-11.32,11.312l16.968,16.968l-22.632,22.632
		c-15.615,15.62-15.615,40.94,0,56.56l33.944,33.952l11.312-11.312l-33.936-33.944c-9.369-9.372-9.369-24.564,0-33.936
		l22.632-22.632l33.936,33.944l11.312-11.312l-33.936-33.944l11.312-11.32l39.6,39.592l11.312-11.312l-39.6-39.592l11.312-11.312
		c9.499-9.065,24.445-9.065,33.944,0l33.944,33.936l11.312-11.312l-33.944-33.936C271.171,187.748,260.987,183.528,250.372,183.557
		L250.372,183.557z"/>
	
		<linearGradient id="SVGID_9_" gradientUnits="userSpaceOnUse" x1="-33.4457" y1="557.1205" x2="-23.0727" y2="617.0905" gradientTransform="matrix(8 0 0 -8 454.8013 4987.9199)">
		<stop  offset="0" style="stop-color:#006DF0"/>
		<stop  offset="1" style="stop-color:#00E7F0"/>
	</linearGradient>
	<path style="fill:url(#SVGID_9_);" d="M482.7,126.413c-3.124-3.123-8.188-3.123-11.312,0c-9.898,9.851-22.228,16.906-35.736,20.448
		L424.22,80.589c-1.727-10.005-9.563-17.841-19.568-19.568l-66.968-11.544c3.501-13.684,10.603-26.181,20.568-36.192
		c2.919-3.317,2.597-8.372-0.72-11.291c-3.03-2.667-7.571-2.658-10.592,0.019c-12.353,12.321-21.077,27.803-25.216,44.752
		L259.9,36.061c-7.684-1.317-15.53,1.173-21.048,6.68L7.124,274.469c-9.369,9.372-9.369,24.564,0,33.936l169.704,169.704
		c9.372,9.369,24.564,9.369,33.936,0l231.728-231.728c5.514-5.511,8.008-13.357,6.688-21.04l-10.752-62.528
		c16.775-4.189,32.09-12.874,44.296-25.12C485.819,134.566,485.809,129.527,482.7,126.413L482.7,126.413z M431.228,235.069
		L199.46,466.813c-3.124,3.123-8.188,3.123-11.312,0l-169.72-169.72c-3.123-3.124-3.123-8.188,0-11.312L250.172,54.053
		c1.498-1.498,3.529-2.341,5.648-2.344c0.456,0,0.911,0.04,1.36,0.12l144.752,24.952c3.339,0.574,5.954,3.189,6.528,6.528
		l11.432,66.344c-10.143,0.693-20.324-0.606-29.968-3.824c7.174-20.73-3.815-43.352-24.546-50.526
		c-10.517-3.64-22.079-2.7-31.87,2.59c-2.417,0.109-4.588,1.513-5.68,3.672c-17.422,13.496-20.605,38.561-7.109,55.983
		s38.561,20.605,55.983,7.109c1.326-1.028,2.587-2.138,3.774-3.324c0.464-0.472,0.8-1.016,1.224-1.504
		c10.501,3.973,21.629,6.029,32.856,6.072c2.688,0,5.376-0.176,8.072-0.408l10.784,62.568
		C433.862,230.613,433.048,233.225,431.228,235.069L431.228,235.069z M332.62,119.261c8.141,13.754,19.67,25.193,33.488,33.224
		c-9.591,6.553-22.454,5.523-30.88-2.472C327.01,141.755,325.91,128.786,332.62,119.261z M358.22,126.413
		c-4.871-4.885-9.082-10.384-12.528-16.36c12.604-3.666,25.794,3.58,29.46,16.184c1.243,4.274,1.261,8.812,0.052,13.096
		c-6.209-3.521-11.911-7.867-16.952-12.92H358.22z"/>
</g>
<g>
</g>
<g>
</g>
<g>
</g>
<g>
</g>
<g>
</g>
<g>
</g>
<g>
</g>
<g>
</g>
<g>
</g>
<g>
</g>
<g>
</g>
<g>
</g>
<g>
</g>
<g>
</g>
<g>
</g>
</svg>
