<?xml version="1.0" encoding="iso-8859-1"?>
<!-- Generator: Adobe Illustrator 19.0.0, SVG Export Plug-In . SVG Version: 6.00 Build 0)  -->
<svg version="1.1" id="Capa_1" xmlns="http://www.w3.org/2000/svg" xmlns:xlink="http://www.w3.org/1999/xlink" x="0px" y="0px"
	 viewBox="0 0 480.001 480.001" style="enable-background:new 0 0 480.001 480.001;" xml:space="preserve">
<linearGradient id="SVGID_1_" gradientUnits="userSpaceOnUse" x1="-26.8738" y1="556.455" x2="-26.8738" y2="621.019" gradientTransform="matrix(8 0 0 -8 454.991 4941)">
	<stop  offset="0" style="stop-color:#006DF0"/>
	<stop  offset="1" style="stop-color:#00E7F0"/>
</linearGradient>
<path style="fill:url(#SVGID_1_);" d="M314.649,303.336c4.44,0.392,8.888,0.664,13.352,0.664c83.947,0,152-68.053,152-152
	s-68.053-152-152-152s-152,68.053-152,152c0,4.464,0.272,8.912,0.664,13.352l-2.688-2.688L13.657,2.344
	C10.479-0.725,5.415-0.637,2.345,2.541c-2.994,3.1-2.994,8.015,0,11.115l146.888,146.888
	C61.118,166.441-5.534,242.653,0.363,330.768s82.109,154.767,170.224,148.87c79.899-5.347,143.523-68.971,148.87-148.87
	l146.888,146.888c3.178,3.07,8.242,2.982,11.312-0.196c2.995-3.1,2.995-8.016,0-11.116L314.649,303.336z M192.001,152
	c-0.172-75.283,60.717-136.451,136-136.623c75.283-0.172,136.451,60.717,136.623,136c0.172,75.283-60.717,136.451-136,136.623
	c-11.253,0.026-22.466-1.342-33.383-4.072l-99.2-99.2C193.366,174.024,192.009,163.033,192.001,152L192.001,152z M304.001,320
	c0,79.529-64.471,144-144,144s-144-64.471-144-144s64.471-144,144-144c1.6,0,3.2,0.056,4.8,0.096L303.905,315.2
	C303.945,316.8,304.001,318.4,304.001,320z"/>
<g>
	
		<linearGradient id="SVGID_2_" gradientUnits="userSpaceOnUse" x1="-36.8737" y1="556.455" x2="-36.8737" y2="621.019" gradientTransform="matrix(8 0 0 -8 454.991 4941)">
		<stop  offset="0" style="stop-color:#006DF0"/>
		<stop  offset="1" style="stop-color:#00E7F0"/>
	</linearGradient>
	<path style="fill:url(#SVGID_2_);" d="M160.001,192c-70.692,0-128,57.308-128,128s57.308,128,128,128s128-57.308,128-128
		c0-4.418-3.582-8-8-8s-8,3.582-8,8c0,61.856-50.144,112-112,112s-112-50.144-112-112s50.144-112,112-112c4.418,0,8-3.582,8-8
		S164.42,192,160.001,192z"/>
	
		<linearGradient id="SVGID_3_" gradientUnits="userSpaceOnUse" x1="-15.8581" y1="556.455" x2="-15.8581" y2="621.019" gradientTransform="matrix(8 0 0 -8 454.991 4941)">
		<stop  offset="0" style="stop-color:#006DF0"/>
		<stop  offset="1" style="stop-color:#00E7F0"/>
	</linearGradient>
	<path style="fill:url(#SVGID_3_);" d="M297.353,268c64.124,16.987,129.878-21.225,146.865-85.349
		c16.987-64.124-21.225-129.878-85.349-146.865s-129.878,21.225-146.865,85.349c-5.339,20.154-5.34,41.351-0.003,61.505
		c1.135,4.27,5.518,6.811,9.788,5.676c4.27-1.135,6.812-5.518,5.676-9.788c-14.687-55.565,18.452-112.515,74.017-127.201
		s112.515,18.452,127.201,74.017s-18.452,112.515-74.017,127.201c-17.44,4.61-35.779,4.607-53.217-0.009
		c-4.272-1.131-8.653,1.416-9.784,5.688c-1.131,4.272,1.416,8.653,5.688,9.784V268z"/>
	
		<linearGradient id="SVGID_4_" gradientUnits="userSpaceOnUse" x1="-16.124" y1="556.455" x2="-16.124" y2="621.019" gradientTransform="matrix(8 0 0 -8 454.991 4941)">
		<stop  offset="0" style="stop-color:#006DF0"/>
		<stop  offset="1" style="stop-color:#00E7F0"/>
	</linearGradient>
	<path style="fill:url(#SVGID_4_);" d="M330.601,80.432c-3.235-1.113-6.821-0.046-8.92,2.656l-28,36
		c-2.713,3.49-2.082,8.519,1.408,11.232c3.49,2.713,8.519,2.082,11.232-1.408l0,0l13.68-17.6V208h-16c-4.418,0-8,3.582-8,8
		s3.582,8,8,8h48c4.418,0,8-3.582,8-8s-3.582-8-8-8h-16V88C336.002,84.583,333.833,81.543,330.601,80.432z"/>
	
		<linearGradient id="SVGID_5_" gradientUnits="userSpaceOnUse" x1="-36.8737" y1="556.455" x2="-36.8737" y2="621.019" gradientTransform="matrix(8 0 0 -8 454.991 4941)">
		<stop  offset="0" style="stop-color:#006DF0"/>
		<stop  offset="1" style="stop-color:#00E7F0"/>
	</linearGradient>
	<path style="fill:url(#SVGID_5_);" d="M168.001,232h-16v16.8c-21.65,4.396-35.636,25.51-31.24,47.16
		c3.788,18.658,20.202,32.059,39.24,32.04c13.255,0,24,10.745,24,24s-10.745,24-24,24s-24-10.745-24-24h-16
		c0.024,19.001,13.389,35.373,32,39.2V408h16v-16.8c21.65-4.396,35.636-25.51,31.24-47.16c-3.788-18.658-20.202-32.059-39.24-32.04
		c-13.255,0-24-10.745-24-24s10.745-24,24-24s24,10.745,24,24h16c-0.024-19.001-13.389-35.373-32-39.2V232z"/>
</g>
<g>
</g>
<g>
</g>
<g>
</g>
<g>
</g>
<g>
</g>
<g>
</g>
<g>
</g>
<g>
</g>
<g>
</g>
<g>
</g>
<g>
</g>
<g>
</g>
<g>
</g>
<g>
</g>
<g>
</g>
</svg>
