<?xml version="1.0" encoding="iso-8859-1"?>
<!-- Generator: Adobe Illustrator 19.0.0, SVG Export Plug-In . SVG Version: 6.00 Build 0)  -->
<svg version="1.1" id="Capa_1" xmlns="http://www.w3.org/2000/svg" xmlns:xlink="http://www.w3.org/1999/xlink" x="0px" y="0px"
	 viewBox="0 0 480 480" style="enable-background:new 0 0 480 480;" xml:space="preserve">
<linearGradient id="SVGID_1_" gradientUnits="userSpaceOnUse" x1="-48.7243" y1="559.405" x2="-48.7243" y2="616.625" gradientTransform="matrix(8 0 0 -8 629.7944 4941)">
	<stop  offset="0" style="stop-color:#006DF0"/>
	<stop  offset="1" style="stop-color:#00E7F0"/>
</linearGradient>
<path style="fill:url(#SVGID_1_);" d="M358.773,114.96C356.051,50.772,303.275,0.105,239.029,0H93.293
	C81.095-0.011,70.828,9.13,69.429,21.248l-44.304,384c-1.52,13.167,7.922,25.074,21.09,26.594c0.918,0.106,1.842,0.159,2.766,0.158
	h76.608l-3.36,20.056c-2.178,13.075,6.655,25.44,19.73,27.618c1.308,0.218,2.632,0.327,3.958,0.326h78.984
	c12.105,0.001,22.315-9.013,23.816-21.024L262.093,352h72.936c66.274,0.003,120.003-53.72,120.006-119.994
	c0-1.947-0.047-3.893-0.142-5.838C451.803,171.581,412.338,125.921,358.773,114.96L358.773,114.96z M43.029,413.328
	c-1.53-1.7-2.253-3.977-1.984-6.248l44.32-384c0.466-4.028,3.873-7.07,7.928-7.08h145.736c54.479,0.087,99.67,42.176,103.624,96.512
	c-3.568-0.304-7.2-0.512-10.8-0.512H189.285c-12.189,0.001-22.442,9.139-23.84,21.248l-7.656,66.352
	c-0.506,4.39,2.642,8.358,7.032,8.864s8.358-2.642,8.864-7.032l7.656-66.352c0.467-4.034,3.883-7.079,7.944-7.08h142.544
	c3.621,0,7.203,0.173,10.744,0.52c-4.468,53.894-49.466,95.386-103.544,95.48h-65.872c-12.105-0.001-22.315,9.013-23.816,21.024
	L127.965,416H48.981C46.705,416.008,44.536,415.034,43.029,413.328L43.029,413.328z M410.317,303.728
	C390.754,324.42,363.505,336.1,335.029,336h-80c-4.034,0.001-7.436,3.005-7.936,7.008l-14.248,113.984
	c-0.501,4.006-3.907,7.011-7.944,7.008h-78.984c-4.418-0.002-7.998-3.585-7.996-8.004c0-0.438,0.036-0.876,0.108-1.308l4.888-29.368
	c0-0.056,0-0.112,0-0.16s0-0.112,0.048-0.168l22.248-177.984c0.501-4.006,3.907-7.011,7.944-7.008h65.872
	c61.847-0.081,113.526-47.107,119.424-108.672c45.045,10.51,77.793,49.422,80.456,95.6c1.483,28.462-8.872,56.27-28.608,76.832
	L410.317,303.728z"/>
<g>
</g>
<g>
</g>
<g>
</g>
<g>
</g>
<g>
</g>
<g>
</g>
<g>
</g>
<g>
</g>
<g>
</g>
<g>
</g>
<g>
</g>
<g>
</g>
<g>
</g>
<g>
</g>
<g>
</g>
</svg>
