<?xml version="1.0" encoding="iso-8859-1"?>
<!-- Generator: Adobe Illustrator 19.0.0, SVG Export Plug-In . SVG Version: 6.00 Build 0)  -->
<svg version="1.1" id="Capa_1" xmlns="http://www.w3.org/2000/svg" xmlns:xlink="http://www.w3.org/1999/xlink" x="0px" y="0px"
	 viewBox="0 0 480 480" style="enable-background:new 0 0 480 480;" xml:space="preserve">
<linearGradient id="SVGID_1_" gradientUnits="userSpaceOnUse" x1="-26.875" y1="559.1533" x2="-26.875" y2="617.0293" gradientTransform="matrix(8 0 0 -8 454.9999 4940.8945)">
	<stop  offset="0" style="stop-color:#006DF0"/>
	<stop  offset="1" style="stop-color:#00E7F0"/>
</linearGradient>
<path style="fill:url(#SVGID_1_);" d="M480,279.988c0-4.418-3.582-8-8-8H346.016c31.004-58.375,8.816-130.831-49.559-161.835
	c-0.877-0.466-1.761-0.921-2.649-1.365c20.385-34.049,9.307-78.177-24.742-98.562s-78.177-9.307-98.562,24.742
	c-1.059,1.769-2.041,3.582-2.944,5.435c-2.511-0.272-5.034-0.411-7.56-0.416c-39.694-0.067-71.926,32.056-71.994,71.75
	c-0.046,27.002,15.047,51.752,39.074,64.074c-11.44,31.587-8.93,66.547,6.904,96.176H8c-4.418,0-8,3.582-8,8v192
	c0,4.418,3.582,8,8,8h464c4.418,0,8-3.582,8-8V279.988z M248,399.988v-48h176v48H248z M56,399.988v-48h176v48H56z M16,399.988v-48
	h24v48H16z M152,297.524c5.866,6.308,12.397,11.962,19.48,16.864c1.168,0.8,2.4,1.52,3.592,2.296c2.568,1.656,5.16,3.256,7.84,4.704
	c1.48,0.8,2.992,1.528,4.504,2.264c2.528,1.232,5.08,2.4,7.688,3.448c1.6,0.656,3.235,1.277,4.904,1.864
	c2.648,0.936,5.328,1.76,8.048,2.512c1.648,0.456,3.28,0.928,4.944,1.312c2.968,0.688,5.976,1.2,9.008,1.656
	c1.448,0.224,2.88,0.52,4.344,0.688c9.065,1.109,18.231,1.109,27.296,0c1.464-0.168,2.896-0.464,4.344-0.688
	c3.032-0.456,6.04-0.968,9.008-1.656c1.672-0.384,3.304-0.864,4.952-1.32c2.704-0.744,5.384-1.6,8-2.504
	c1.664-0.584,3.304-1.208,4.936-1.872c2.592-1.04,5.12-2.192,7.624-3.416c1.536-0.752,3.08-1.48,4.584-2.296
	c2.632-1.432,5.176-3.008,7.696-4.632c1.24-0.8,2.52-1.528,3.736-2.4c3.568-2.476,6.997-5.147,10.272-8
	c0.096-0.088,0.208-0.16,0.312-0.248c3.108-2.705,6.074-5.567,8.888-8.576v38.464H152V297.524z M440,351.988h24v40h-24V351.988z
	 M464,327.988H344v-40h120V327.988z M344,215.988c-0.079,57.405-46.595,103.921-104,104c-4.223-0.013-8.441-0.28-12.632-0.8
	c-57.012-6.98-97.571-58.855-90.592-115.867c5.691-46.484,41.748-83.431,88.08-90.253c2.352-0.352,4.744-0.608,7.144-0.8
	c0.904-0.072,1.816-0.08,2.72-0.128c1.488-0.072,2.968-0.152,4.456-0.16c0.8,0,1.664,0,2.496,0.048c2.152,0,4.288,0.144,6.4,0.304
	c1.072,0.08,2.144,0.16,3.2,0.272c2.632,0.288,5.256,0.656,7.848,1.136c0.976,0.184,1.936,0.432,2.904,0.64
	c1.96,0.432,3.904,0.896,5.832,1.44c0.944,0.264,1.888,0.536,2.824,0.8c2.744,0.864,5.464,1.792,8.136,2.888
	C318.292,135.234,344.142,173.495,344,215.988L344,215.988z M232,15.988c30.928,0.003,55.997,25.078,55.994,56.006
	c-0.001,10.829-3.142,21.426-9.042,30.506c-0.912-0.312-1.864-0.536-2.784-0.8c-1.36-0.44-2.72-0.856-4.096-1.24
	c-2.144-0.6-4.312-1.12-6.496-1.6c-1.336-0.288-2.664-0.6-4-0.848c-2.4-0.432-4.8-0.752-7.2-1.04
	c-1.168-0.144-2.312-0.328-3.48-0.432c-3.6-0.328-7.2-0.52-10.872-0.52c-3.104,0-6.208,0.136-9.28,0.376c-0.128,0-0.264,0-0.392,0
	c-0.072-0.336-0.208-0.648-0.288-0.976c-0.618-2.672-1.389-5.306-2.312-7.888c-0.974-2.576-2.093-5.095-3.352-7.544
	c-0.248-0.488-0.488-0.976-0.744-1.456c-1.253-2.367-2.634-4.663-4.136-6.88c-0.224-0.328-0.472-0.64-0.704-0.96
	c-1.465-2.079-3.037-4.079-4.712-5.992l-0.616-0.728c-1.827-2.019-3.766-3.934-5.808-5.736c-0.352-0.312-0.712-0.624-1.08-0.928
	c-4.25-3.64-8.911-6.771-13.888-9.328c-0.376-0.192-0.744-0.392-1.12-0.576c-2.483-1.218-5.037-2.287-7.648-3.2
	c-0.136-0.048-0.264-0.12-0.4-0.168C193.566,26.743,212.012,16.065,232,15.988L232,15.988z M104,111.988
	c0.035-30.913,25.087-55.965,56-56c3.603-0.013,7.197,0.341,10.728,1.056c2.819,0.557,5.59,1.333,8.288,2.32
	c0.888,0.32,1.704,0.76,2.568,1.12c1.76,0.712,3.482,1.513,5.16,2.4c0.96,0.52,1.856,1.144,2.784,1.72
	c1.456,0.912,2.896,1.848,4.256,2.88c0.92,0.704,1.784,1.464,2.664,2.216c1.24,1.08,2.456,2.184,3.608,3.368
	c0.8,0.84,1.6,1.72,2.4,2.616c1.067,1.232,2.069,2.509,3.008,3.832c0.688,0.96,1.368,1.928,1.992,2.936
	c0.88,1.392,1.664,2.84,2.4,4.312c0.528,1.032,1.072,2.056,1.536,3.128c0.688,1.6,1.24,3.2,1.784,4.872
	c0.344,1.048,0.736,2.064,1.016,3.136c0.072,0.28,0.096,0.576,0.16,0.856c-0.384,0.088-0.8,0.208-1.152,0.296
	c-0.96,0.224-1.912,0.488-2.872,0.736c-2.152,0.552-4.288,1.152-6.4,1.816c-1.064,0.344-2.12,0.688-3.2,1.056
	c-2.096,0.728-4.16,1.528-6.216,2.4c-0.936,0.384-1.872,0.736-2.792,1.144c-2.92,1.296-5.808,2.664-8.64,4.192s-5.6,3.2-8.264,4.912
	c-0.896,0.576-1.744,1.216-2.624,1.824c-1.752,1.2-3.504,2.4-5.192,3.712c-1,0.8-1.952,1.6-2.928,2.4
	c-1.496,1.224-2.984,2.464-4.424,3.752c-0.984,0.888-1.928,1.816-2.88,2.736c-1.352,1.304-2.68,2.616-4,4
	c-0.92,0.976-1.816,1.968-2.704,2.968c-1.237,1.408-2.445,2.84-3.624,4.296c-0.8,1.04-1.656,2.08-2.448,3.136
	c-1.152,1.528-2.24,3.096-3.32,4.68c-0.72,1.056-1.448,2.112-2.128,3.2c-1.08,1.712-2.088,3.464-3.08,5.224
	c-0.584,1.024-1.184,2.024-1.728,3.064c-0.168,0.32-0.36,0.616-0.528,0.928C115.234,151.356,104.045,132.495,104,111.988
	L104,111.988z M16,287.988h120v40H16V287.988z M16,415.988h120v48H16V415.988z M152,415.988h176v48H152V415.988z M464,463.988H344
	v-48h120V463.988z"/>
<g>
	
		<linearGradient id="SVGID_2_" gradientUnits="userSpaceOnUse" x1="-34.2471" y1="559.1533" x2="-34.2471" y2="617.0293" gradientTransform="matrix(8 0 0 -8 454.9999 4940.8945)">
		<stop  offset="0" style="stop-color:#006DF0"/>
		<stop  offset="1" style="stop-color:#00E7F0"/>
	</linearGradient>
	<path style="fill:url(#SVGID_2_);" d="M209.088,141.82c-2.092-3.892-6.942-5.351-10.834-3.259
		c-0.002,0.001-0.004,0.002-0.006,0.003c-17.448,9.431-31.205,24.471-39.048,42.688c-4.757,10.962-7.208,22.786-7.2,34.736
		c0,4.418,3.582,8,8,8s8-3.582,8-8c0-26.462,14.531-50.786,37.832-63.328c3.892-2.092,5.351-6.942,3.259-10.834
		C209.09,141.824,209.089,141.822,209.088,141.82z"/>
	
		<linearGradient id="SVGID_3_" gradientUnits="userSpaceOnUse" x1="-35.9542" y1="559.1533" x2="-35.9542" y2="617.0293" gradientTransform="matrix(8 0 0 -8 454.9999 4940.8945)">
		<stop  offset="0" style="stop-color:#006DF0"/>
		<stop  offset="1" style="stop-color:#00E7F0"/>
	</linearGradient>
	<path style="fill:url(#SVGID_3_);" d="M171.312,237.588c-1.265-4.233-5.723-6.639-9.956-5.374
		c-4.233,1.265-6.639,5.723-5.374,9.956c0.026,0.086,0.053,0.172,0.082,0.257c2.017,6.347,4.746,12.444,8.136,18.176
		c2.253,3.802,7.162,5.057,10.964,2.804c3.802-2.253,5.057-7.162,2.804-10.964C175.19,247.763,172.956,242.778,171.312,237.588
		L171.312,237.588z"/>
</g>
<linearGradient id="SVGID_4_" gradientUnits="userSpaceOnUse" x1="-26.8752" y1="559.1533" x2="-26.8752" y2="617.0293" gradientTransform="matrix(8 0 0 -8 454.9999 4940.8945)">
	<stop  offset="0" style="stop-color:#006DF0"/>
	<stop  offset="1" style="stop-color:#00E7F0"/>
</linearGradient>
<path style="fill:url(#SVGID_4_);" d="M240,175.988c8.837,0,16,7.163,16,16c0,4.418,3.582,8,8,8s8-3.582,8-8
	c-0.055-14.547-9.915-27.227-24-30.864v-9.136c0-4.418-3.582-8-8-8s-8,3.582-8,8v9.136c-17.081,4.396-27.364,21.807-22.968,38.888
	c3.636,14.126,16.381,23.994,30.968,23.976c0.216,0,0.392-0.104,0.6-0.12s0.376,0.144,0.584,0.16
	c8.813,0.652,15.428,8.324,14.777,17.136c0,0.003,0,0.005-0.001,0.008c-0.707,8.788-8.348,15.374-17.144,14.776
	c-8.813-0.651-15.428-8.323-14.777-17.136c0-0.005,0.001-0.011,0.001-0.016c0.326-4.405-2.98-8.24-7.384-8.568
	c-4.344-0.379-8.174,2.835-8.553,7.179c-0.006,0.068-0.011,0.136-0.015,0.205c-1.169,15.435,8.914,29.481,23.912,33.312v9.064
	c0,4.418,3.582,8,8,8s8-3.582,8-8v-9.144c17.077-4.411,27.346-21.83,22.935-38.908c-3.421-13.243-14.895-22.838-28.535-23.86
	c-0.411,0.015-0.82,0.064-1.224,0.144c-0.386-0.107-0.779-0.184-1.176-0.232c-8.837,0-16-7.163-16-16S231.163,175.988,240,175.988
	L240,175.988z"/>
<g>
	
		<linearGradient id="SVGID_5_" gradientUnits="userSpaceOnUse" x1="-38.875" y1="559.1533" x2="-38.875" y2="617.0293" gradientTransform="matrix(8 0 0 -8 454.9999 4940.8945)">
		<stop  offset="0" style="stop-color:#006DF0"/>
		<stop  offset="1" style="stop-color:#00E7F0"/>
	</linearGradient>
	<path style="fill:url(#SVGID_5_);" d="M136,111.988c0-13.255,10.745-24,24-24c4.418,0,8-3.582,8-8s-3.582-8-8-8
		c-22.08,0.026-39.974,17.92-40,40c0,4.418,3.582,8,8,8C132.418,119.988,136,116.407,136,111.988z"/>
	
		<linearGradient id="SVGID_6_" gradientUnits="userSpaceOnUse" x1="-25.875" y1="559.1533" x2="-25.875" y2="617.0293" gradientTransform="matrix(8 0 0 -8 454.9999 4940.8945)">
		<stop  offset="0" style="stop-color:#006DF0"/>
		<stop  offset="1" style="stop-color:#00E7F0"/>
	</linearGradient>
	<path style="fill:url(#SVGID_6_);" d="M232,47.988c13.255,0,24,10.745,24,24c0,4.418,3.582,8,8,8s8-3.582,8-8
		c-0.026-22.08-17.92-39.974-40-40c-4.418,0-8,3.582-8,8S227.582,47.988,232,47.988z"/>
</g>
<g>
</g>
<g>
</g>
<g>
</g>
<g>
</g>
<g>
</g>
<g>
</g>
<g>
</g>
<g>
</g>
<g>
</g>
<g>
</g>
<g>
</g>
<g>
</g>
<g>
</g>
<g>
</g>
<g>
</g>
</svg>
