<?xml version="1.0" encoding="iso-8859-1"?>
<!-- Generator: Adobe Illustrator 19.0.0, SVG Export Plug-In . SVG Version: 6.00 Build 0)  -->
<svg version="1.1" id="Capa_1" xmlns="http://www.w3.org/2000/svg" xmlns:xlink="http://www.w3.org/1999/xlink" x="0px" y="0px"
	 viewBox="0 0 480 480" style="enable-background:new 0 0 480 480;" xml:space="preserve">
<linearGradient id="SVGID_1_" gradientUnits="userSpaceOnUse" x1="-52.875" y1="557.909" x2="-52.875" y2="617.549" gradientTransform="matrix(8 0 0 -8 455.0002 4941)">
	<stop  offset="0" style="stop-color:#006DF0"/>
	<stop  offset="1" style="stop-color:#00E7F0"/>
</linearGradient>
<path style="fill:url(#SVGID_1_);" d="M24,440h16v16H24V440z"/>
<g>
	
		<linearGradient id="SVGID_2_" gradientUnits="userSpaceOnUse" x1="-48.875" y1="557.909" x2="-48.875" y2="617.549" gradientTransform="matrix(8 0 0 -8 455.0002 4941)">
		<stop  offset="0" style="stop-color:#006DF0"/>
		<stop  offset="1" style="stop-color:#00E7F0"/>
	</linearGradient>
	<path style="fill:url(#SVGID_2_);" d="M56,440h16v16H56V440z"/>
	
		<linearGradient id="SVGID_3_" gradientUnits="userSpaceOnUse" x1="-44.875" y1="557.909" x2="-44.875" y2="617.549" gradientTransform="matrix(8 0 0 -8 455.0002 4941)">
		<stop  offset="0" style="stop-color:#006DF0"/>
		<stop  offset="1" style="stop-color:#00E7F0"/>
	</linearGradient>
	<path style="fill:url(#SVGID_3_);" d="M88,440h16v16H88V440z"/>
</g>
<linearGradient id="SVGCleanerId_0_2_" gradientUnits="userSpaceOnUse" x1="-40.875" y1="557.909" x2="-40.875" y2="617.549" gradientTransform="matrix(8 0 0 -8 455.0002 4941)">
	<stop  offset="0" style="stop-color:#006DF0"/>
	<stop  offset="1" style="stop-color:#00E7F0"/>
</linearGradient>
<path id="SVGCleanerId_0" style="fill:url(#SVGCleanerId_0_2_);" d="M120,440h16v16h-16V440z"/>
<g>
	
		<linearGradient id="SVGCleanerId_0_3_" gradientUnits="userSpaceOnUse" x1="-40.875" y1="557.909" x2="-40.875" y2="617.549" gradientTransform="matrix(8 0 0 -8 455.0002 4941)">
		<stop  offset="0" style="stop-color:#006DF0"/>
		<stop  offset="1" style="stop-color:#00E7F0"/>
	</linearGradient>
	<path id="SVGCleanerId_0_1_" style="fill:url(#SVGCleanerId_0_3_);" d="M120,440h16v16h-16V440z"/>
</g>
<g>
	
		<linearGradient id="SVGID_4_" gradientUnits="userSpaceOnUse" x1="-36.875" y1="557.909" x2="-36.875" y2="617.549" gradientTransform="matrix(8 0 0 -8 455.0002 4941)">
		<stop  offset="0" style="stop-color:#006DF0"/>
		<stop  offset="1" style="stop-color:#00E7F0"/>
	</linearGradient>
	<path style="fill:url(#SVGID_4_);" d="M152,440h16v16h-16V440z"/>
	
		<linearGradient id="SVGID_5_" gradientUnits="userSpaceOnUse" x1="-32.875" y1="557.909" x2="-32.875" y2="617.549" gradientTransform="matrix(8 0 0 -8 455.0002 4941)">
		<stop  offset="0" style="stop-color:#006DF0"/>
		<stop  offset="1" style="stop-color:#00E7F0"/>
	</linearGradient>
	<path style="fill:url(#SVGID_5_);" d="M184,440h16v16h-16V440z"/>
	
		<linearGradient id="SVGID_6_" gradientUnits="userSpaceOnUse" x1="-28.875" y1="557.909" x2="-28.875" y2="617.549" gradientTransform="matrix(8 0 0 -8 455.0002 4941)">
		<stop  offset="0" style="stop-color:#006DF0"/>
		<stop  offset="1" style="stop-color:#00E7F0"/>
	</linearGradient>
	<path style="fill:url(#SVGID_6_);" d="M216,440h16v16h-16V440z"/>
	
		<linearGradient id="SVGID_7_" gradientUnits="userSpaceOnUse" x1="-24.875" y1="557.909" x2="-24.875" y2="617.549" gradientTransform="matrix(8 0 0 -8 455.0002 4941)">
		<stop  offset="0" style="stop-color:#006DF0"/>
		<stop  offset="1" style="stop-color:#00E7F0"/>
	</linearGradient>
	<path style="fill:url(#SVGID_7_);" d="M248,440h16v16h-16V440z"/>
	
		<linearGradient id="SVGID_8_" gradientUnits="userSpaceOnUse" x1="-20.875" y1="557.909" x2="-20.875" y2="617.549" gradientTransform="matrix(8 0 0 -8 455.0002 4941)">
		<stop  offset="0" style="stop-color:#006DF0"/>
		<stop  offset="1" style="stop-color:#00E7F0"/>
	</linearGradient>
	<path style="fill:url(#SVGID_8_);" d="M280,440h16v16h-16V440z"/>
	
		<linearGradient id="SVGID_9_" gradientUnits="userSpaceOnUse" x1="-16.875" y1="557.909" x2="-16.875" y2="617.549" gradientTransform="matrix(8 0 0 -8 455.0002 4941)">
		<stop  offset="0" style="stop-color:#006DF0"/>
		<stop  offset="1" style="stop-color:#00E7F0"/>
	</linearGradient>
	<path style="fill:url(#SVGID_9_);" d="M312,440h16v16h-16V440z"/>
	
		<linearGradient id="SVGID_10_" gradientUnits="userSpaceOnUse" x1="-12.875" y1="557.909" x2="-12.875" y2="617.549" gradientTransform="matrix(8 0 0 -8 455.0002 4941)">
		<stop  offset="0" style="stop-color:#006DF0"/>
		<stop  offset="1" style="stop-color:#00E7F0"/>
	</linearGradient>
	<path style="fill:url(#SVGID_10_);" d="M344,440h16v16h-16V440z"/>
	
		<linearGradient id="SVGID_11_" gradientUnits="userSpaceOnUse" x1="-8.875" y1="557.909" x2="-8.875" y2="617.549" gradientTransform="matrix(8 0 0 -8 455.0002 4941)">
		<stop  offset="0" style="stop-color:#006DF0"/>
		<stop  offset="1" style="stop-color:#00E7F0"/>
	</linearGradient>
	<path style="fill:url(#SVGID_11_);" d="M376,440h16v16h-16V440z"/>
	
		<linearGradient id="SVGID_12_" gradientUnits="userSpaceOnUse" x1="-4.875" y1="557.909" x2="-4.875" y2="617.549" gradientTransform="matrix(8 0 0 -8 455.0002 4941)">
		<stop  offset="0" style="stop-color:#006DF0"/>
		<stop  offset="1" style="stop-color:#00E7F0"/>
	</linearGradient>
	<path style="fill:url(#SVGID_12_);" d="M408,440h16v16h-16V440z"/>
	
		<linearGradient id="SVGID_13_" gradientUnits="userSpaceOnUse" x1="-0.875" y1="557.909" x2="-0.875" y2="617.549" gradientTransform="matrix(8 0 0 -8 455.0002 4941)">
		<stop  offset="0" style="stop-color:#006DF0"/>
		<stop  offset="1" style="stop-color:#00E7F0"/>
	</linearGradient>
	<path style="fill:url(#SVGID_13_);" d="M440,440h16v16h-16V440z"/>
	
		<linearGradient id="SVGID_14_" gradientUnits="userSpaceOnUse" x1="-26.875" y1="557.909" x2="-26.875" y2="617.549" gradientTransform="matrix(8 0 0 -8 455.0002 4941)">
		<stop  offset="0" style="stop-color:#006DF0"/>
		<stop  offset="1" style="stop-color:#00E7F0"/>
	</linearGradient>
	<path style="fill:url(#SVGID_14_);" d="M479.44,85.224c-0.088-0.232-0.184-0.44-0.288-0.664c-0.084-0.233-0.183-0.46-0.296-0.68
		l-48-80C429.41,1.473,426.808,0.001,424,0H56c-2.808,0.001-5.41,1.473-6.856,3.88l-48,80c-0.113,0.22-0.212,0.447-0.296,0.68
		c-0.104,0.224-0.2,0.44-0.288,0.672C0.208,86.113,0.018,87.051,0,88v384c0,4.418,3.582,8,8,8h464c4.418,0,8-3.582,8-8V88
		C479.981,87.049,479.791,86.108,479.44,85.224L479.44,85.224z M457.872,80H272V16h147.472L457.872,80z M224,88.528V88V16h32v72
		v0.136v0.528L263.304,176h-46.608L224,88.664C224,88.616,223.952,88.576,224,88.528L224,88.528z M60.528,16H208v64H22.128
		L60.528,16z M464,464H16V96h191.304L200,183.336c-0.367,4.403,2.905,8.27,7.308,8.636c0.23,0.019,0.461,0.028,0.692,0.028h64
		c4.418,0.015,8.012-3.554,8.028-7.972c0.001-0.231-0.008-0.462-0.028-0.692L272.696,96H464V464z"/>
	
		<linearGradient id="SVGID_15_" gradientUnits="userSpaceOnUse" x1="-45.875" y1="557.909" x2="-45.875" y2="617.549" gradientTransform="matrix(8 0 0 -8 455.0002 4941)">
		<stop  offset="0" style="stop-color:#006DF0"/>
		<stop  offset="1" style="stop-color:#00E7F0"/>
	</linearGradient>
	<path style="fill:url(#SVGID_15_);" d="M48,336c0.024,19.001,13.389,35.373,32,39.2V408H56v16h64v-16H96v-32.8
		c18.611-3.827,31.976-20.199,32-39.2v-56H48V336z M64,296h48v40c0,13.255-10.745,24-24,24s-24-10.745-24-24V296z"/>
	
		<linearGradient id="SVGID_16_" gradientUnits="userSpaceOnUse" x1="-31.875" y1="557.909" x2="-31.875" y2="617.549" gradientTransform="matrix(8 0 0 -8 455.0002 4941)">
		<stop  offset="0" style="stop-color:#006DF0"/>
		<stop  offset="1" style="stop-color:#00E7F0"/>
	</linearGradient>
	<path style="fill:url(#SVGID_16_);" d="M200,280c-30.913,0.035-55.965,25.087-56,56v8h48v56c0,4.418-3.582,8-8,8h-8
		c-4.418,0-8-3.582-8-8v-8h-16v8c0,13.255,10.745,24,24,24h8c13.255,0,24-10.745,24-24v-56h48v-8
		C255.965,305.087,230.913,280.035,200,280z M160.8,328c4.396-21.65,25.51-35.636,47.16-31.24
		c15.741,3.196,28.044,15.499,31.24,31.24H160.8z"/>
</g>
<g>
</g>
<g>
</g>
<g>
</g>
<g>
</g>
<g>
</g>
<g>
</g>
<g>
</g>
<g>
</g>
<g>
</g>
<g>
</g>
<g>
</g>
<g>
</g>
<g>
</g>
<g>
</g>
<g>
</g>
</svg>
