<?xml version="1.0" encoding="iso-8859-1"?>
<!-- Generator: Adobe Illustrator 19.0.0, SVG Export Plug-In . SVG Version: 6.00 Build 0)  -->
<svg version="1.1" id="Capa_1" xmlns="http://www.w3.org/2000/svg" xmlns:xlink="http://www.w3.org/1999/xlink" x="0px" y="0px"
	 viewBox="0 0 480.003 480.003" style="enable-background:new 0 0 480.003 480.003;" xml:space="preserve">
<g>
	
		<linearGradient id="SVGID_1_" gradientUnits="userSpaceOnUse" x1="-26.8748" y1="558.3277" x2="-26.8748" y2="618.1537" gradientTransform="matrix(8 0 0 -8 454.9996 4941.0239)">
		<stop  offset="0" style="stop-color:#006DF0"/>
		<stop  offset="1" style="stop-color:#00E7F0"/>
	</linearGradient>
	<path style="fill:url(#SVGID_1_);" d="M410.184,267.923l-61.776-95.48c11.135-6.577,14.899-20.892,8.44-32.096l68.584-12.472
		c4.348-0.791,7.231-4.956,6.44-9.304c-0.791-4.348-4.956-7.231-9.304-6.44l-62.8,11.416l49.888-49.888
		c3.069-3.178,2.982-8.243-0.196-11.312c-3.1-2.994-8.015-2.994-11.116,0l-58.248,58.248L367.76,9.947
		c0.04-0.361,0.056-0.725,0.048-1.088c0.101-0.605,0.131-1.22,0.088-1.832c-0.101-0.564-0.267-1.115-0.496-1.64
		c-0.08-0.39-0.193-0.773-0.336-1.144c0-0.064-0.096-0.096-0.136-0.16c-0.329-0.509-0.716-0.979-1.152-1.4
		c-0.263-0.342-0.551-0.663-0.864-0.96c-0.38-0.249-0.781-0.464-1.2-0.64c-0.504-0.309-1.041-0.561-1.6-0.752
		c-0.072,0-0.12-0.072-0.192-0.088c-0.411-0.057-0.826-0.078-1.24-0.064c-0.542-0.083-1.092-0.11-1.64-0.08
		c-0.654,0.107-1.291,0.298-1.896,0.568c-0.311,0.075-0.618,0.166-0.92,0.272l-0.352,0.192L329.96,14.939l-26.28-14
		c-2.35-1.252-5.17-1.252-7.52,0l-26.232,14L243.712,0.947c-2.355-1.257-5.181-1.257-7.536,0L209.96,14.939L183.744,0.947
		c-2.355-1.257-5.181-1.257-7.536,0l-26.224,13.992L123.768,0.947h-0.048c-1.87-0.984-4.052-1.188-6.072-0.568
		c-0.247,0.121-0.487,0.254-0.72,0.4c-0.71,0.265-1.379,0.631-1.984,1.088c-0.598,0.535-1.111,1.158-1.52,1.848
		c-0.136,0.2-0.336,0.32-0.448,0.536c-0.492,0.929-0.797,1.945-0.896,2.992c-0.101,1.049,0.011,2.107,0.328,3.112l36.712,117.648
		H144c-13.219-0.032-23.962,10.658-23.994,23.878c-0.02,8.414,4.378,16.221,11.586,20.562l-61.776,95.48
		C55.561,289.926,47.984,315.586,48,341.803v2.2c0.084,75.076,60.924,135.916,136,136h112c75.076-0.084,135.916-60.924,136-136v-2.2
		C432.016,315.586,424.439,289.926,410.184,267.923L410.184,267.923z M133.456,24.251l12.8,6.808c2.355,1.257,5.181,1.257,7.536,0
		L180,17.067l26.216,13.992c2.355,1.257,5.181,1.257,7.536,0l26.216-13.992l26.224,13.992c2.35,1.264,5.178,1.264,7.528,0
		l26.2-13.992l26.28,14c2.35,1.252,5.17,1.252,7.52,0l14.152-7.544l-26.12,104.48H165.88L133.456,24.251z M144,144.003h192
		c4.418,0,8,3.582,8,8s-3.582,8-8,8H144c-4.418,0-8-3.582-8-8S139.582,144.003,144,144.003z M416,344.003
		c-0.075,66.243-53.757,119.925-120,120H184c-66.243-0.075-119.925-53.757-120-120v-2.2c-0.014-23.131,6.672-45.771,19.248-65.184
		l65.104-100.616h183.296l65.104,100.608c12.576,19.417,19.261,42.059,19.248,65.192V344.003z"/>
	
		<linearGradient id="SVGID_2_" gradientUnits="userSpaceOnUse" x1="-26.8749" y1="558.3277" x2="-26.8749" y2="618.1537" gradientTransform="matrix(8 0 0 -8 454.9996 4941.0239)">
		<stop  offset="0" style="stop-color:#006DF0"/>
		<stop  offset="1" style="stop-color:#00E7F0"/>
	</linearGradient>
	<path style="fill:url(#SVGID_2_);" d="M240.208,284.899l-50.552-50.552l-11.312,11.312c0,0,48.416,48.4,53.656,53.064v5.28h-32v16
		h32v8h-32v16h32v56h16v-56h32v-16h-32v-8h32v-16h-32v-4.28c0,0,37.136-37.544,53.656-54.064l-11.312-11.312
		C262.24,262.443,247.72,276.971,240.208,284.899z"/>
</g>
<g>
</g>
<g>
</g>
<g>
</g>
<g>
</g>
<g>
</g>
<g>
</g>
<g>
</g>
<g>
</g>
<g>
</g>
<g>
</g>
<g>
</g>
<g>
</g>
<g>
</g>
<g>
</g>
<g>
</g>
</svg>
