<?xml version="1.0" encoding="iso-8859-1"?>
<!-- Generator: Adobe Illustrator 19.0.0, SVG Export Plug-In . SVG Version: 6.00 Build 0)  -->
<svg version="1.1" id="Capa_1" xmlns="http://www.w3.org/2000/svg" xmlns:xlink="http://www.w3.org/1999/xlink" x="0px" y="0px"
	 viewBox="0 0 480.003 480.003" style="enable-background:new 0 0 480.003 480.003;" xml:space="preserve">
<linearGradient id="SVGID_1_" gradientUnits="userSpaceOnUse" x1="-26.8748" y1="557.2577" x2="-26.8748" y2="617.9227" gradientTransform="matrix(8 0 0 -8 454.9996 4941.0239)">
	<stop  offset="0" style="stop-color:#006DF0"/>
	<stop  offset="1" style="stop-color:#00E7F0"/>
</linearGradient>
<path style="fill:url(#SVGID_1_);" d="M410.176,267.923l-61.776-95.48c11.138-6.574,14.906-20.89,8.448-32.096l68.584-12.472
	c4.348-0.791,7.231-4.956,6.44-9.304c-0.791-4.348-4.956-7.231-9.304-6.44l-62.8,11.416l49.888-49.888
	c3.069-3.178,2.982-8.243-0.196-11.312c-3.1-2.994-8.015-2.994-11.116,0l-58.24,58.24L367.76,9.947
	c0.051-0.39,0.069-0.783,0.056-1.176c0.091-0.574,0.117-1.156,0.08-1.736c-0.099-0.57-0.266-1.126-0.496-1.656
	c-0.08-0.387-0.193-0.767-0.336-1.136c0-0.064-0.096-0.096-0.136-0.16c-0.324-0.503-0.706-0.968-1.136-1.384
	c-0.264-0.351-0.558-0.678-0.88-0.976c-0.392-0.252-0.804-0.471-1.232-0.656c-0.484-0.297-0.999-0.541-1.536-0.728
	c-0.08,0-0.128-0.08-0.2-0.096c-0.414-0.054-0.831-0.073-1.248-0.056c-0.548-0.084-1.103-0.108-1.656-0.072
	c-0.55,0.097-1.087,0.258-1.6,0.48c-0.402,0.079-0.795,0.194-1.176,0.344l-26.28,14l-26.304-14c-2.35-1.252-5.17-1.252-7.52,0
	l-26.232,14L243.712,0.947c-2.355-1.257-5.181-1.257-7.536,0l-26.208,13.992L183.744,0.947c-2.355-1.257-5.181-1.257-7.536,0
	l-26.216,13.992L123.768,0.947h-0.056c-0.614-0.272-1.259-0.469-1.92-0.584c-1.362-0.372-2.798-0.372-4.16,0
	c-0.136,0.048-0.232,0.152-0.36,0.2c-0.869,0.29-1.681,0.728-2.4,1.296c-0.534,0.491-0.997,1.054-1.376,1.672
	c-0.207,0.222-0.4,0.457-0.576,0.704c-0.494,0.928-0.799,1.945-0.896,2.992c-0.095,1.043,0.014,2.095,0.32,3.096l36.776,117.68H144
	c-13.215-0.044-23.963,10.634-24.007,23.849c-0.028,8.429,4.381,16.251,11.607,20.591l-61.776,95.48
	c-14.26,22.001-21.841,47.662-21.824,73.88v2.2c0.084,75.076,60.924,135.916,136,136h112c75.076-0.084,135.916-60.924,136-136v-2.2
	C432.017,315.585,424.436,289.923,410.176,267.923L410.176,267.923z M133.464,24.251l12.76,6.808c2.35,1.264,5.178,1.264,7.528,0
	L180,17.067l26.224,13.992c2.353,1.254,5.175,1.254,7.528,0l26.216-13.992l26.224,13.992c2.35,1.264,5.178,1.264,7.528,0
	l26.232-13.992l26.272,14c2.35,1.252,5.17,1.252,7.52,0l14.152-7.536l-26.144,104.472H165.88L133.464,24.251z M144,144.003h192
	c4.418,0,8,3.582,8,8s-3.582,8-8,8H144c-4.418,0-8-3.582-8-8S139.582,144.003,144,144.003L144,144.003z M416,344.003
	c-0.075,66.243-53.757,119.925-120,120H184c-66.243-0.075-119.925-53.757-120-120v-2.2c-0.014-23.131,6.672-45.771,19.248-65.184
	l65.104-100.616h183.296l65.104,100.616c12.576,19.413,19.262,42.053,19.248,65.184V344.003z"/>
<linearGradient id="SVGID_2_" gradientUnits="userSpaceOnUse" x1="-27.8749" y1="557.2577" x2="-27.8749" y2="617.9227" gradientTransform="matrix(8 0 0 -8 454.9996 4941.0239)">
	<stop  offset="0" style="stop-color:#006DF0"/>
	<stop  offset="1" style="stop-color:#00E7F0"/>
</linearGradient>
<path style="fill:url(#SVGID_2_);" d="M200,272.003v16h-16v16h16v16h-24v16h24v32c0.026,22.08,17.92,39.974,40,40h48v-16h-48
	c-13.255,0-24-10.745-24-24v-32h48v-16h-48v-16h56v-16h-56v-16c0-13.255,10.745-24,24-24h48v-16h-48
	C217.92,232.029,200.026,249.922,200,272.003z"/>
<g>
</g>
<g>
</g>
<g>
</g>
<g>
</g>
<g>
</g>
<g>
</g>
<g>
</g>
<g>
</g>
<g>
</g>
<g>
</g>
<g>
</g>
<g>
</g>
<g>
</g>
<g>
</g>
<g>
</g>
</svg>
