<?xml version="1.0" encoding="iso-8859-1"?>
<!-- Generator: Adobe Illustrator 19.0.0, SVG Export Plug-In . SVG Version: 6.00 Build 0)  -->
<svg version="1.1" id="Capa_1" xmlns="http://www.w3.org/2000/svg" xmlns:xlink="http://www.w3.org/1999/xlink" x="0px" y="0px"
	 viewBox="0 0 480.003 480.003" style="enable-background:new 0 0 480.003 480.003;" xml:space="preserve">
<linearGradient id="SVGID_1_" gradientUnits="userSpaceOnUse" x1="-26.8748" y1="556.8987" x2="-26.8748" y2="619.9607" gradientTransform="matrix(8 0 0 -8 454.9997 4941.0239)">
	<stop  offset="0" style="stop-color:#006DF0"/>
	<stop  offset="1" style="stop-color:#00E7F0"/>
</linearGradient>
<path style="fill:url(#SVGID_1_);" d="M410.176,267.923l-61.776-95.48c11.138-6.574,14.906-20.89,8.448-32.096l68.584-12.472
	c4.348-0.791,7.231-4.956,6.44-9.304c-0.791-4.348-4.956-7.231-9.304-6.44l-62.8,11.416l49.888-49.888
	c3.069-3.178,2.982-8.243-0.196-11.312c-3.1-2.994-8.015-2.994-11.116,0l-58.24,58.24L367.76,9.947
	c0.051-0.39,0.069-0.783,0.056-1.176c0.091-0.574,0.117-1.156,0.08-1.736c-0.099-0.57-0.266-1.126-0.496-1.656
	c-0.08-0.387-0.193-0.767-0.336-1.136c0-0.064-0.096-0.096-0.136-0.16c-0.324-0.503-0.706-0.968-1.136-1.384
	c-0.266-0.349-0.56-0.676-0.88-0.976c-0.386-0.251-0.793-0.467-1.216-0.648c-0.489-0.301-1.009-0.548-1.552-0.736
	c-0.08,0-0.128-0.08-0.2-0.096c-0.411-0.054-0.826-0.073-1.24-0.056c-0.55-0.084-1.108-0.108-1.664-0.072
	c-0.566,0.098-1.12,0.262-1.648,0.488c-0.393,0.08-0.778,0.193-1.152,0.336l-26.28,14l-26.28-14c-2.35-1.252-5.17-1.252-7.52,0
	l-26.232,14L243.712,0.947c-2.355-1.257-5.181-1.257-7.536,0l-26.208,13.992L183.744,0.947c-2.355-1.257-5.181-1.257-7.536,0
	l-26.216,13.992L123.768,0.947h-0.048c-1.919-0.835-4.055-1.035-6.096-0.568c-0.12,0-0.208,0.136-0.32,0.176
	c-0.871,0.297-1.683,0.744-2.4,1.32c-0.529,0.49-0.989,1.05-1.368,1.664c-0.21,0.224-0.405,0.462-0.584,0.712
	c-0.494,0.928-0.799,1.945-0.896,2.992c-0.095,1.043,0.014,2.095,0.32,3.096l36.744,117.664H144
	c-13.215-0.044-23.963,10.634-24.007,23.849c-0.028,8.429,4.381,16.251,11.607,20.591l-61.776,95.48
	c-14.26,22.001-21.841,47.662-21.824,73.88v2.2c0.084,75.076,60.924,135.916,136,136h112c75.076-0.084,135.916-60.924,136-136v-2.2
	C432.017,315.585,424.436,289.923,410.176,267.923L410.176,267.923z M133.464,24.251l12.76,6.808c2.35,1.264,5.178,1.264,7.528,0
	L180,17.067l26.224,13.992c2.353,1.254,5.175,1.254,7.528,0l26.216-13.992l26.224,13.992c2.35,1.264,5.178,1.264,7.528,0
	l26.232-13.992l26.272,14c2.35,1.252,5.17,1.252,7.52,0l14.152-7.536l-26.144,104.472H165.88L133.464,24.251z M144,144.003h192
	c4.418,0,8,3.582,8,8s-3.582,8-8,8H144c-4.418,0-8-3.582-8-8S139.582,144.003,144,144.003L144,144.003z M416,344.003
	c-0.075,66.243-53.757,119.925-120,120H184c-66.243-0.075-119.925-53.757-120-120v-2.2c-0.014-23.131,6.672-45.771,19.248-65.184
	l65.104-100.616h183.296l65.104,100.616c12.576,19.413,19.262,42.053,19.248,65.184V344.003z"/>
<g>
	
		<linearGradient id="SVGID_2_" gradientUnits="userSpaceOnUse" x1="-26.875" y1="556.8987" x2="-26.875" y2="619.9607" gradientTransform="matrix(8 0 0 -8 454.9997 4941.0239)">
		<stop  offset="0" style="stop-color:#006DF0"/>
		<stop  offset="1" style="stop-color:#00E7F0"/>
	</linearGradient>
	<path style="fill:url(#SVGID_2_);" d="M280,272.003h16c-0.026-22.08-17.92-39.974-40-40h-16c-22.08,0.026-39.974,17.92-40,40v24
		h-16v16h16v5.88c0.037,14.039,7.397,27.04,19.416,34.296l8.928,5.36c7.214,4.354,11.633,12.158,11.656,20.584v13.88h-32v16h88v-16
		h-40v-13.88c-0.037-14.039-7.397-27.04-19.416-34.296l-8.928-5.36c-7.214-4.354-11.633-12.158-11.656-20.584v-45.88
		c0-13.255,10.745-24,24-24h16C269.255,248.003,280,258.748,280,272.003z"/>
	
		<linearGradient id="SVGID_3_" gradientUnits="userSpaceOnUse" x1="-25.875" y1="556.8987" x2="-25.875" y2="619.9607" gradientTransform="matrix(8 0 0 -8 454.9997 4941.0239)">
		<stop  offset="0" style="stop-color:#006DF0"/>
		<stop  offset="1" style="stop-color:#00E7F0"/>
	</linearGradient>
	<path style="fill:url(#SVGID_3_);" d="M224,296.003h48v16h-48V296.003z"/>
</g>
<g>
</g>
<g>
</g>
<g>
</g>
<g>
</g>
<g>
</g>
<g>
</g>
<g>
</g>
<g>
</g>
<g>
</g>
<g>
</g>
<g>
</g>
<g>
</g>
<g>
</g>
<g>
</g>
<g>
</g>
</svg>
