<?xml version="1.0" encoding="iso-8859-1"?>
<!-- Generator: Adobe Illustrator 19.0.0, SVG Export Plug-In . SVG Version: 6.00 Build 0)  -->
<svg version="1.1" id="Capa_1" xmlns="http://www.w3.org/2000/svg" xmlns:xlink="http://www.w3.org/1999/xlink" x="0px" y="0px"
	 viewBox="0 0 480.94 480.94" style="enable-background:new 0 0 480.94 480.94;" xml:space="preserve">
<linearGradient id="SVGID_1_" gradientUnits="userSpaceOnUse" x1="-23.9052" y1="558.4349" x2="-23.9052" y2="621.6179" gradientTransform="matrix(8 0 0 -8 451.7109 4945.229)">
	<stop  offset="0" style="stop-color:#006DF0"/>
	<stop  offset="1" style="stop-color:#00E7F0"/>
</linearGradient>
<path style="fill:url(#SVGID_1_);" d="M478.126,42.814L437.558,2.246c-3.178-3.07-8.242-2.982-11.312,0.196
	c-2.994,3.1-2.994,8.016,0,11.116l26.912,26.912H240.47c-110.406,0.123-199.877,89.594-200,200c0,4.418,3.582,8,8,8s8-3.582,8-8
	c0.115-101.573,82.427-183.885,184-184h212.688l-26.912,26.912c-3.178,3.069-3.266,8.134-0.196,11.312
	c3.07,3.178,8.134,3.266,11.312,0.196c0.067-0.064,0.132-0.13,0.196-0.196l40.568-40.568
	C481.249,51.002,481.249,45.938,478.126,42.814z"/>
<g>
	
		<linearGradient id="SVGID_2_" gradientUnits="userSpaceOnUse" x1="-26.4051" y1="558.4349" x2="-26.4051" y2="621.6179" gradientTransform="matrix(8 0 0 -8 451.7109 4945.229)">
		<stop  offset="0" style="stop-color:#006DF0"/>
		<stop  offset="1" style="stop-color:#00E7F0"/>
	</linearGradient>
	<path style="fill:url(#SVGID_2_);" d="M408.47,240.47c0-92.784-75.216-168-168-168s-168,75.216-168,168s75.216,168,168,168
		C333.21,408.364,408.364,333.21,408.47,240.47z M88.47,240.47c0-83.947,68.053-152,152-152s152,68.053,152,152s-68.053,152-152,152
		C156.561,392.377,88.562,324.379,88.47,240.47z"/>
	
		<linearGradient id="SVGID_3_" gradientUnits="userSpaceOnUse" x1="-26.4051" y1="558.4349" x2="-26.4051" y2="621.6179" gradientTransform="matrix(8 0 0 -8 451.7109 4945.229)">
		<stop  offset="0" style="stop-color:#006DF0"/>
		<stop  offset="1" style="stop-color:#00E7F0"/>
	</linearGradient>
	<path style="fill:url(#SVGID_3_);" d="M248.47,368.47c0-4.418-3.582-8-8-8c-66.274,0-120-53.726-120-120s53.726-120,120-120
		s120,53.726,120,120c0,4.418,3.582,8,8,8s8-3.582,8-8c0-75.111-60.889-136-136-136s-136,60.889-136,136s60.889,136,136,136
		C244.888,376.47,248.47,372.888,248.47,368.47z"/>
	
		<linearGradient id="SVGID_4_" gradientUnits="userSpaceOnUse" x1="-28.905" y1="558.4349" x2="-28.905" y2="621.6179" gradientTransform="matrix(8 0 0 -8 451.7109 4945.229)">
		<stop  offset="0" style="stop-color:#006DF0"/>
		<stop  offset="1" style="stop-color:#00E7F0"/>
	</linearGradient>
	<path style="fill:url(#SVGID_4_);" d="M432.47,232.47c-4.418,0-8,3.582-8,8c-0.115,101.573-82.427,183.885-184,184H27.782
		l26.912-26.912c3.07-3.178,2.982-8.242-0.196-11.312c-3.1-2.994-8.016-2.994-11.116,0L2.814,426.814
		c-3.123,3.124-3.123,8.188,0,11.312l40.568,40.568c3.178,3.07,8.242,2.982,11.312-0.196c2.994-3.1,2.994-8.016,0-11.116
		L27.782,440.47H240.47c110.406-0.123,199.877-89.594,200-200C440.47,236.052,436.888,232.47,432.47,232.47z"/>
	
		<linearGradient id="SVGID_5_" gradientUnits="userSpaceOnUse" x1="-26.4051" y1="558.4349" x2="-26.4051" y2="621.6179" gradientTransform="matrix(8 0 0 -8 451.7109 4945.229)">
		<stop  offset="0" style="stop-color:#006DF0"/>
		<stop  offset="1" style="stop-color:#00E7F0"/>
	</linearGradient>
	<path style="fill:url(#SVGID_5_);" d="M240.47,328.47c4.418,0,8-3.582,8-8v-8.8c21.65-4.396,35.636-25.51,31.24-47.16
		c-3.789-18.657-20.202-32.059-39.24-32.04c-13.255,0-24-10.745-24-24s10.745-24,24-24c13.255,0,24,10.745,24,24
		c0,4.418,3.582,8,8,8s8-3.582,8-8c-0.024-19.001-13.389-35.373-32-39.2v-8.8c0-4.418-3.582-8-8-8s-8,3.582-8,8v8.8
		c-21.65,4.396-35.636,25.51-31.24,47.16c3.789,18.657,20.202,32.059,39.24,32.04c13.255,0,24,10.745,24,24s-10.745,24-24,24
		c-13.255,0-24-10.745-24-24c0-4.418-3.582-8-8-8s-8,3.582-8,8c0.024,19.001,13.389,35.373,32,39.2v8.8
		C232.47,324.888,236.052,328.47,240.47,328.47z"/>
	
		<linearGradient id="SVGID_6_" gradientUnits="userSpaceOnUse" x1="-22.5269" y1="558.4349" x2="-22.5269" y2="621.6179" gradientTransform="matrix(8 0 0 -8 451.7109 4945.229)">
		<stop  offset="0" style="stop-color:#006DF0"/>
		<stop  offset="1" style="stop-color:#00E7F0"/>
	</linearGradient>
	<path style="fill:url(#SVGID_6_);" d="M277.182,346.59c-1.008-4.302-5.312-6.972-9.614-5.964c-4.302,1.008-6.972,5.312-5.964,9.614
		c0.038,0.163,0.082,0.325,0.13,0.486l4.136,15.456c0.938,3.497,4.107,5.928,7.728,5.928c0.699-0.001,1.396-0.092,2.072-0.272
		c4.268-1.144,6.8-5.53,5.656-9.798c0-0.001,0-0.001,0-0.002L277.182,346.59z"/>
	
		<linearGradient id="SVGID_7_" gradientUnits="userSpaceOnUse" x1="-18.9051" y1="558.4349" x2="-18.9051" y2="621.6179" gradientTransform="matrix(8 0 0 -8 451.7109 4945.229)">
		<stop  offset="0" style="stop-color:#006DF0"/>
		<stop  offset="1" style="stop-color:#00E7F0"/>
	</linearGradient>
	<path style="fill:url(#SVGID_7_);" d="M303.398,333.462c-2.183-3.841-7.067-5.185-10.908-3.002
		c-3.841,2.183-5.185,7.067-3.002,10.908c0.018,0.031,0.036,0.062,0.054,0.093l8,13.856c2.183,3.841,7.067,5.185,10.908,3.002
		c3.841-2.183,5.185-7.067,3.002-10.908c-0.018-0.031-0.036-0.062-0.054-0.093L303.398,333.462z"/>
	
		<linearGradient id="SVGID_8_" gradientUnits="userSpaceOnUse" x1="-15.7925" y1="558.4349" x2="-15.7925" y2="621.6179" gradientTransform="matrix(8 0 0 -8 451.7109 4945.229)">
		<stop  offset="0" style="stop-color:#006DF0"/>
		<stop  offset="1" style="stop-color:#00E7F0"/>
	</linearGradient>
	<path style="fill:url(#SVGID_8_);" d="M325.318,314.006c-3.178-3.07-8.242-2.982-11.312,0.196c-2.995,3.1-2.995,8.016,0,11.116
		l11.312,11.32c3.126,3.126,8.194,3.126,11.32,0s3.126-8.194,0-11.32L325.318,314.006z"/>
	
		<linearGradient id="SVGID_9_" gradientUnits="userSpaceOnUse" x1="-13.4088" y1="558.4349" x2="-13.4088" y2="621.6179" gradientTransform="matrix(8 0 0 -8 451.7109 4945.229)">
		<stop  offset="0" style="stop-color:#006DF0"/>
		<stop  offset="1" style="stop-color:#00E7F0"/>
	</linearGradient>
	<path style="fill:url(#SVGID_9_);" d="M355.318,297.542l-13.848-8c-3.841-2.183-8.725-0.84-10.908,3.002
		c-2.163,3.805-0.867,8.641,2.908,10.854l13.848,8c3.811,2.235,8.713,0.957,10.948-2.854c2.235-3.811,0.957-8.713-2.854-10.948
		C355.38,297.578,355.349,297.56,355.318,297.542z"/>
	
		<linearGradient id="SVGID_10_" gradientUnits="userSpaceOnUse" x1="-11.9166" y1="558.4349" x2="-11.9166" y2="621.6179" gradientTransform="matrix(8 0 0 -8 451.7109 4945.229)">
		<stop  offset="0" style="stop-color:#006DF0"/>
		<stop  offset="1" style="stop-color:#00E7F0"/>
	</linearGradient>
	<path style="fill:url(#SVGID_10_);" d="M366.174,265.87l-15.448-4.144c-4.268-1.144-8.656,1.388-9.8,5.656
		c-1.144,4.268,1.388,8.656,5.656,9.8l0,0l15.456,4.136c0.675,0.186,1.372,0.28,2.072,0.28c4.418-0.002,7.998-3.586,7.996-8.004
		C372.104,269.973,369.671,266.806,366.174,265.87L366.174,265.87z"/>
</g>
<g>
</g>
<g>
</g>
<g>
</g>
<g>
</g>
<g>
</g>
<g>
</g>
<g>
</g>
<g>
</g>
<g>
</g>
<g>
</g>
<g>
</g>
<g>
</g>
<g>
</g>
<g>
</g>
<g>
</g>
</svg>
