<?xml version="1.0" encoding="iso-8859-1"?>
<!-- Generator: Adobe Illustrator 19.0.0, SVG Export Plug-In . SVG Version: 6.00 Build 0)  -->
<svg version="1.1" id="Capa_1" xmlns="http://www.w3.org/2000/svg" xmlns:xlink="http://www.w3.org/1999/xlink" x="0px" y="0px"
	 viewBox="0 0 480 480" style="enable-background:new 0 0 480 480;" xml:space="preserve">
<g>
	
		<linearGradient id="SVGID_1_" gradientUnits="userSpaceOnUse" x1="-26.8732" y1="557.605" x2="-26.8732" y2="618.198" gradientTransform="matrix(8 0 0 -8 454.9873 4941)">
		<stop  offset="0" style="stop-color:#006DF0"/>
		<stop  offset="1" style="stop-color:#00E7F0"/>
	</linearGradient>
	<path style="fill:url(#SVGID_1_);" d="M256.002,448h-32c-4.418,0-8-3.582-8-8s3.582-8,8-8h32c4.418,0,8,3.582,8,8
		S260.42,448,256.002,448z"/>
	
		<linearGradient id="SVGID_2_" gradientUnits="userSpaceOnUse" x1="-26.8732" y1="557.605" x2="-26.8732" y2="618.198" gradientTransform="matrix(8 0 0 -8 454.9873 4941)">
		<stop  offset="0" style="stop-color:#006DF0"/>
		<stop  offset="1" style="stop-color:#00E7F0"/>
	</linearGradient>
	<path style="fill:url(#SVGID_2_);" d="M104.002,120c4.418,0,8-3.582,8-8V64h256v64c0,4.418,3.582,8,8,8s8-3.582,8-8V32
		c0-14.4-18.464-32-40-32h-208c-22.08,0.026-39.974,17.92-40,40v72C96.002,116.418,99.584,120,104.002,120z M136.002,16h208
		c13.864,0,24,11.2,24,16v16h-256v-8C112.002,26.745,122.747,16,136.002,16z"/>
	
		<linearGradient id="SVGID_3_" gradientUnits="userSpaceOnUse" x1="-26.8732" y1="557.605" x2="-26.8732" y2="618.198" gradientTransform="matrix(8 0 0 -8 454.9873 4941)">
		<stop  offset="0" style="stop-color:#006DF0"/>
		<stop  offset="1" style="stop-color:#00E7F0"/>
	</linearGradient>
	<path style="fill:url(#SVGID_3_);" d="M376.002,352c-4.418,0-8,3.582-8,8v40h-256v-32c0-4.418-3.582-8-8-8s-8,3.582-8,8v72
		c0.026,22.08,17.92,39.974,40,40h208c22.08-0.026,39.974-17.92,40-40v-80C384.002,355.582,380.42,352,376.002,352z M344.002,464
		h-208c-13.255,0-24-10.745-24-24v-24h256v24C368.002,453.255,357.257,464,344.002,464z"/>
</g>
<g>
	
		<linearGradient id="SVGID_4_" gradientUnits="userSpaceOnUse" x1="-29.8732" y1="557.605" x2="-29.8732" y2="618.198" gradientTransform="matrix(8 0 0 -8 454.9873 4941)">
		<stop  offset="0" style="stop-color:#006DF0"/>
		<stop  offset="1" style="stop-color:#00E7F0"/>
	</linearGradient>
	<path style="fill:url(#SVGID_4_);" d="M208.002,40h16c4.418,0,8-3.582,8-8s-3.582-8-8-8h-16c-4.418,0-8,3.582-8,8
		S203.584,40,208.002,40z"/>
	
		<linearGradient id="SVGID_5_" gradientUnits="userSpaceOnUse" x1="-23.8732" y1="557.605" x2="-23.8732" y2="618.198" gradientTransform="matrix(8 0 0 -8 454.9873 4941)">
		<stop  offset="0" style="stop-color:#006DF0"/>
		<stop  offset="1" style="stop-color:#00E7F0"/>
	</linearGradient>
	<path style="fill:url(#SVGID_5_);" d="M256.002,40h16c4.418,0,8-3.582,8-8s-3.582-8-8-8h-16c-4.418,0-8,3.582-8,8
		S251.584,40,256.002,40z"/>
	
		<linearGradient id="SVGID_6_" gradientUnits="userSpaceOnUse" x1="-14.3734" y1="557.605" x2="-14.3734" y2="618.198" gradientTransform="matrix(8 0 0 -8 454.9873 4941)">
		<stop  offset="0" style="stop-color:#006DF0"/>
		<stop  offset="1" style="stop-color:#00E7F0"/>
	</linearGradient>
	<path style="fill:url(#SVGID_6_);" d="M478.162,154.888c-1.521-1.831-3.779-2.89-6.16-2.888H262.018l-4.08-27.512
		c-1.801-11.738-11.869-20.425-23.744-20.488h-34.192v16h34.192c3.969-0.003,7.34,2.905,7.92,6.832l27.952,188.68
		c1.801,11.738,11.869,20.425,23.744,20.488h19.664c4.335,12.442,17.935,19.014,30.376,14.68c6.877-2.396,12.284-7.802,14.68-14.68
		h34.944c4.418,12.497,18.131,19.046,30.627,14.627c12.497-4.418,19.046-18.131,14.627-30.627
		c-4.418-12.497-18.131-19.046-30.627-14.627c-6.835,2.416-12.211,7.793-14.627,14.627H358.53
		c-4.335-12.442-17.935-19.014-30.376-14.68c-6.877,2.396-12.284,7.802-14.68,14.68H293.81c-3.96-0.021-7.318-2.917-7.92-6.832
		L283.346,296h164.656c3.845-0.003,7.145-2.741,7.856-6.52l24-128C480.302,159.14,479.68,156.723,478.162,154.888L478.162,154.888z
		 M416.002,320c4.418,0,8,3.582,8,8s-3.582,8-8,8s-8-3.582-8-8S411.584,320,416.002,320z M336.002,320c4.418,0,8,3.582,8,8
		s-3.582,8-8,8s-8-3.582-8-8S331.584,320,336.002,320z M441.362,280H280.978l-16.584-112h198.008L441.362,280z"/>
	
		<linearGradient id="SVGID_7_" gradientUnits="userSpaceOnUse" x1="-43.8732" y1="557.605" x2="-43.8732" y2="618.198" gradientTransform="matrix(8 0 0 -8 454.9873 4941)">
		<stop  offset="0" style="stop-color:#006DF0"/>
		<stop  offset="1" style="stop-color:#00E7F0"/>
	</linearGradient>
	<path style="fill:url(#SVGID_7_);" d="M208.002,240c0-57.438-46.562-104-104-104s-104,46.562-104,104s46.562,104,104,104
		C161.412,343.934,207.936,297.41,208.002,240z M16.002,240c0-48.601,39.399-88,88-88s88,39.399,88,88s-39.399,88-88,88
		C55.425,327.943,16.059,288.577,16.002,240z"/>
	
		<linearGradient id="SVGID_8_" gradientUnits="userSpaceOnUse" x1="-43.8732" y1="557.605" x2="-43.8732" y2="618.198" gradientTransform="matrix(8 0 0 -8 454.9873 4941)">
		<stop  offset="0" style="stop-color:#006DF0"/>
		<stop  offset="1" style="stop-color:#00E7F0"/>
	</linearGradient>
	<path style="fill:url(#SVGID_8_);" d="M112.002,304v-9.136c17.081-4.396,27.364-21.807,22.968-38.888
		c-3.636-14.126-16.381-23.994-30.968-23.976c-8.837,0-16-7.163-16-16s7.163-16,16-16s16,7.163,16,16c0,4.418,3.582,8,8,8
		c4.418,0,8-3.582,8-8c-0.055-14.547-9.915-27.227-24-30.864V176c0-4.418-3.582-8-8-8s-8,3.582-8,8v9.136
		c-17.081,4.396-27.364,21.807-22.968,38.888c3.636,14.126,16.381,23.994,30.968,23.976c8.837,0,16,7.163,16,16s-7.163,16-16,16
		s-16-7.163-16-16c0-4.418-3.582-8-8-8s-8,3.582-8,8c0.055,14.547,9.915,27.227,24,30.864V304c0,4.418,3.582,8,8,8
		S112.002,308.418,112.002,304z"/>
	
		<linearGradient id="SVGID_9_" gradientUnits="userSpaceOnUse" x1="-13.8732" y1="557.605" x2="-13.8732" y2="618.198" gradientTransform="matrix(8 0 0 -8 454.9873 4941)">
		<stop  offset="0" style="stop-color:#006DF0"/>
		<stop  offset="1" style="stop-color:#00E7F0"/>
	</linearGradient>
	<path style="fill:url(#SVGID_9_);" d="M288.002,192h112c4.418,0,8-3.582,8-8s-3.582-8-8-8h-112c-4.418,0-8,3.582-8,8
		S283.584,192,288.002,192z"/>
	
		<linearGradient id="SVGID_10_" gradientUnits="userSpaceOnUse" x1="-2.8732" y1="557.605" x2="-2.8732" y2="618.198" gradientTransform="matrix(8 0 0 -8 454.9873 4941)">
		<stop  offset="0" style="stop-color:#006DF0"/>
		<stop  offset="1" style="stop-color:#00E7F0"/>
	</linearGradient>
	<path style="fill:url(#SVGID_10_);" d="M424.002,192h16c4.418,0,8-3.582,8-8s-3.582-8-8-8h-16c-4.418,0-8,3.582-8,8
		S419.584,192,424.002,192z"/>
</g>
<g>
</g>
<g>
</g>
<g>
</g>
<g>
</g>
<g>
</g>
<g>
</g>
<g>
</g>
<g>
</g>
<g>
</g>
<g>
</g>
<g>
</g>
<g>
</g>
<g>
</g>
<g>
</g>
<g>
</g>
</svg>
