<?xml version="1.0" encoding="iso-8859-1"?>
<!-- Generator: Adobe Illustrator 19.0.0, SVG Export Plug-In . SVG Version: 6.00 Build 0)  -->
<svg version="1.1" id="Capa_1" xmlns="http://www.w3.org/2000/svg" xmlns:xlink="http://www.w3.org/1999/xlink" x="0px" y="0px"
	 viewBox="0 0 480.157 480.157" style="enable-background:new 0 0 480.157 480.157;" xml:space="preserve">
<linearGradient id="SVGID_1_" gradientUnits="userSpaceOnUse" x1="-14.8557" y1="557.9716" x2="-14.8557" y2="620.6476" gradientTransform="matrix(8 0 0 -8 454.1021 4941.5273)">
	<stop  offset="0" style="stop-color:#006DF0"/>
	<stop  offset="1" style="stop-color:#00E7F0"/>
</linearGradient>
<path style="fill:url(#SVGID_1_);" d="M339.264,100.515c2.397,3.712,7.349,4.778,11.06,2.381c3.712-2.397,4.778-7.349,2.381-11.06
	c-0.077-0.12-0.158-0.237-0.241-0.353c-6.415-9.385-13.974-17.933-22.504-25.448c-3.243-3-8.305-2.803-11.305,0.44
	c-3,3.243-2.803,8.305,0.44,11.305c0.094,0.087,0.191,0.172,0.289,0.255C326.92,84.672,333.598,92.224,339.264,100.515
	L339.264,100.515z"/>
<g>
	
		<linearGradient id="SVGID_2_" gradientUnits="userSpaceOnUse" x1="-26.7648" y1="557.9716" x2="-26.7648" y2="620.6476" gradientTransform="matrix(8 0 0 -8 454.1021 4941.5273)">
		<stop  offset="0" style="stop-color:#006DF0"/>
		<stop  offset="1" style="stop-color:#00E7F0"/>
	</linearGradient>
	<path style="fill:url(#SVGID_2_);" d="M178.776,63.747c1.345,0.001,2.668-0.338,3.848-0.984
		c35.796-19.161,78.783-19.239,114.648-0.208c3.853,2.162,8.729,0.791,10.892-3.062c2.162-3.853,0.791-8.729-3.062-10.892
		c-0.058-0.032-0.115-0.064-0.174-0.095c-40.659-21.598-89.407-21.514-129.992,0.224c-3.875,2.123-5.295,6.985-3.172,10.86
		c1.406,2.567,4.102,4.161,7.028,4.156L178.776,63.747z"/>
	
		<linearGradient id="SVGID_3_" gradientUnits="userSpaceOnUse" x1="-38.6327" y1="557.9716" x2="-38.6327" y2="620.6476" gradientTransform="matrix(8 0 0 -8 454.1021 4941.5273)">
		<stop  offset="0" style="stop-color:#006DF0"/>
		<stop  offset="1" style="stop-color:#00E7F0"/>
	</linearGradient>
	<path style="fill:url(#SVGID_3_);" d="M141.112,100.331c5.644-8.212,12.278-15.698,19.752-22.288
		c3.384-2.841,3.824-7.887,0.984-11.271c-2.841-3.384-7.887-3.824-11.271-0.984c-0.098,0.083-0.195,0.167-0.289,0.254
		c-8.464,7.452-15.974,15.921-22.36,25.216c-2.626,3.553-1.875,8.562,1.677,11.189c3.553,2.626,8.562,1.875,11.189-1.677
		c0.111-0.151,0.217-0.305,0.318-0.463V100.331z"/>
	
		<linearGradient id="SVGID_4_" gradientUnits="userSpaceOnUse" x1="-26.753" y1="557.9716" x2="-26.753" y2="620.6476" gradientTransform="matrix(8 0 0 -8 454.1021 4941.5273)">
		<stop  offset="0" style="stop-color:#006DF0"/>
		<stop  offset="1" style="stop-color:#00E7F0"/>
	</linearGradient>
	<path style="fill:url(#SVGID_4_);" d="M477.784,2.403c-3.124-3.123-8.188-3.123-11.312,0l-81.296,81.296
		C338.691,3.502,235.995-23.827,155.798,22.658c-52.012,30.148-83.927,85.811-83.669,145.928L86.4,382.459L2.472,466.403
		c-3.178,3.07-3.266,8.134-0.196,11.312s8.134,3.266,11.312,0.196c0.067-0.064,0.132-0.13,0.196-0.196l74.032-74.032l0.312,4.672
		v63.704c0,4.418,3.582,8,8,8h64c4.418,0,8-3.582,8-8v-64c0-0.096-0.048-0.168-0.056-0.264s0.048-0.176,0.04-0.264l-5.264-78.88
		l165.088-165.088c0.064,1.32,0.208,2.624,0.208,4l-16,240v0.264c0,0-0.016,0.136-0.016,0.232v64c0,4.418,3.582,8,8,8h64
		c4.418,0,8-3.582,8-8v-63.704l16-240.296c-0.014-23.981-5.199-47.676-15.2-69.472l84.856-84.872
		C480.907,10.591,480.907,5.527,477.784,2.403L477.784,2.403z M88.128,168.059c-0.057-83.947,67.95-152.046,151.898-152.102
		c55.696-0.038,106.952,30.389,133.59,79.302l-36.248,36.248c-20.125-53.749-80.012-81.008-133.761-60.883
		c-40.806,15.279-67.748,54.391-67.479,97.963L146.4,322.459l-44.968,44.968L88.128,168.059z M152.128,464.059h-48v-48h48V464.059z
		 M151.576,400.059h-48l-0.8-11.408l44.968-44.968L151.576,400.059z M161.432,307.443l-9.304-139.384
		c-0.031-48.601,39.343-88.025,87.944-88.056c39.401-0.025,74.016,26.142,84.736,64.056L161.432,307.443z M376.128,464.059h-48v-48
		h48V464.059z M392.128,167.531L376.64,400.059h-48l15.488-232c-0.025-6.338-0.627-12.66-1.8-18.888l38.544-38.544
		C388.296,128.68,392.12,148.01,392.128,167.531L392.128,167.531z"/>
</g>
<g>
</g>
<g>
</g>
<g>
</g>
<g>
</g>
<g>
</g>
<g>
</g>
<g>
</g>
<g>
</g>
<g>
</g>
<g>
</g>
<g>
</g>
<g>
</g>
<g>
</g>
<g>
</g>
<g>
</g>
</svg>
