<?xml version="1.0" encoding="iso-8859-1"?>
<!-- Generator: Adobe Illustrator 19.0.0, SVG Export Plug-In . SVG Version: 6.00 Build 0)  -->
<svg version="1.1" id="Capa_1" xmlns="http://www.w3.org/2000/svg" xmlns:xlink="http://www.w3.org/1999/xlink" x="0px" y="0px"
	 viewBox="0 0 480 480" style="enable-background:new 0 0 480 480;" xml:space="preserve">
<linearGradient id="SVGID_1_" gradientUnits="userSpaceOnUse" x1="-26.875" y1="559.045" x2="-26.875" y2="621.039" gradientTransform="matrix(8 0 0 -8 455 4941)">
	<stop  offset="0" style="stop-color:#006DF0"/>
	<stop  offset="1" style="stop-color:#00E7F0"/>
</linearGradient>
<path style="fill:url(#SVGID_1_);" d="M240,480c-2.063,0-4.046-0.797-5.536-2.224l-192-184c-3.19-3.057-3.298-8.121-0.241-11.311
	C43.732,280.89,45.819,280,48,280h56V8c0-4.418,3.582-8,8-8h256c4.418,0,8,3.582,8,8v272h56c4.418,0,8,3.581,8.001,7.999
	c0,2.181-0.89,4.268-2.465,5.777l-192,184C244.046,479.203,242.063,480,240,480z M67.904,296L240,460.92L412.096,296H368
	c-4.418,0-8-3.582-8-8V16H120v272c0,4.418-3.582,8-8,8H67.904z"/>
<g>
	
		<linearGradient id="SVGID_2_" gradientUnits="userSpaceOnUse" x1="-38.875" y1="559.045" x2="-38.875" y2="621.039" gradientTransform="matrix(8 0 0 -8 455 4941)">
		<stop  offset="0" style="stop-color:#006DF0"/>
		<stop  offset="1" style="stop-color:#00E7F0"/>
	</linearGradient>
	<path style="fill:url(#SVGID_2_);" d="M136,32h16v16h-16V32z"/>
	
		<linearGradient id="SVGID_3_" gradientUnits="userSpaceOnUse" x1="-34.875" y1="559.045" x2="-34.875" y2="621.039" gradientTransform="matrix(8 0 0 -8 455 4941)">
		<stop  offset="0" style="stop-color:#006DF0"/>
		<stop  offset="1" style="stop-color:#00E7F0"/>
	</linearGradient>
	<path style="fill:url(#SVGID_3_);" d="M168,32h16v16h-16V32z"/>
	
		<linearGradient id="SVGID_4_" gradientUnits="userSpaceOnUse" x1="-30.875" y1="559.045" x2="-30.875" y2="621.039" gradientTransform="matrix(8 0 0 -8 455 4941)">
		<stop  offset="0" style="stop-color:#006DF0"/>
		<stop  offset="1" style="stop-color:#00E7F0"/>
	</linearGradient>
	<path style="fill:url(#SVGID_4_);" d="M200,32h16v16h-16V32z"/>
</g>
<linearGradient id="SVGCleanerId_0_2_" gradientUnits="userSpaceOnUse" x1="-26.875" y1="559.045" x2="-26.875" y2="621.039" gradientTransform="matrix(8 0 0 -8 455 4941)">
	<stop  offset="0" style="stop-color:#006DF0"/>
	<stop  offset="1" style="stop-color:#00E7F0"/>
</linearGradient>
<path id="SVGCleanerId_0" style="fill:url(#SVGCleanerId_0_2_);" d="M232,32h16v16h-16V32z"/>
<g>
	
		<linearGradient id="SVGCleanerId_0_3_" gradientUnits="userSpaceOnUse" x1="-26.875" y1="559.045" x2="-26.875" y2="621.039" gradientTransform="matrix(8 0 0 -8 455 4941)">
		<stop  offset="0" style="stop-color:#006DF0"/>
		<stop  offset="1" style="stop-color:#00E7F0"/>
	</linearGradient>
	<path id="SVGCleanerId_0_1_" style="fill:url(#SVGCleanerId_0_3_);" d="M232,32h16v16h-16V32z"/>
</g>
<g>
	
		<linearGradient id="SVGID_5_" gradientUnits="userSpaceOnUse" x1="-22.875" y1="559.045" x2="-22.875" y2="621.039" gradientTransform="matrix(8 0 0 -8 455 4941)">
		<stop  offset="0" style="stop-color:#006DF0"/>
		<stop  offset="1" style="stop-color:#00E7F0"/>
	</linearGradient>
	<path style="fill:url(#SVGID_5_);" d="M264,32h16v16h-16V32z"/>
	
		<linearGradient id="SVGID_6_" gradientUnits="userSpaceOnUse" x1="-18.875" y1="559.045" x2="-18.875" y2="621.039" gradientTransform="matrix(8 0 0 -8 455 4941)">
		<stop  offset="0" style="stop-color:#006DF0"/>
		<stop  offset="1" style="stop-color:#00E7F0"/>
	</linearGradient>
	<path style="fill:url(#SVGID_6_);" d="M296,32h16v16h-16V32z"/>
	
		<linearGradient id="SVGID_7_" gradientUnits="userSpaceOnUse" x1="-14.875" y1="559.045" x2="-14.875" y2="621.039" gradientTransform="matrix(8 0 0 -8 455 4941)">
		<stop  offset="0" style="stop-color:#006DF0"/>
		<stop  offset="1" style="stop-color:#00E7F0"/>
	</linearGradient>
	<path style="fill:url(#SVGID_7_);" d="M328,32h16v16h-16V32z"/>
</g>
<linearGradient id="SVGID_8_" gradientUnits="userSpaceOnUse" x1="-26.875" y1="559.045" x2="-26.875" y2="621.039" gradientTransform="matrix(8 0 0 -8 455 4941)">
	<stop  offset="0" style="stop-color:#006DF0"/>
	<stop  offset="1" style="stop-color:#00E7F0"/>
</linearGradient>
<path style="fill:url(#SVGID_8_);" d="M248,179.72c0,0,37.136-37.544,53.656-54.064l-11.312-11.312
	c-28.104,28.096-42.624,42.624-50.136,50.552l-50.552-50.552l-11.312,11.312c0,0,48.416,48.4,53.656,53.064V184h-32v16h32v8h-32v16
	h32v56h16v-56h32v-16h-32v-8h32v-16h-32V179.72z"/>
<g>
</g>
<g>
</g>
<g>
</g>
<g>
</g>
<g>
</g>
<g>
</g>
<g>
</g>
<g>
</g>
<g>
</g>
<g>
</g>
<g>
</g>
<g>
</g>
<g>
</g>
<g>
</g>
<g>
</g>
</svg>
