<?xml version="1.0" encoding="iso-8859-1"?>
<!-- Generator: Adobe Illustrator 19.0.0, SVG Export Plug-In . SVG Version: 6.00 Build 0)  -->
<svg version="1.1" id="Capa_1" xmlns="http://www.w3.org/2000/svg" xmlns:xlink="http://www.w3.org/1999/xlink" x="0px" y="0px"
	 viewBox="0 0 480 480" style="enable-background:new 0 0 480 480;" xml:space="preserve">
<linearGradient id="SVGID_1_" gradientUnits="userSpaceOnUse" x1="-26.875" y1="558.693" x2="-26.875" y2="620.615" gradientTransform="matrix(8 0 0 -8 455 4941)">
	<stop  offset="0" style="stop-color:#006DF0"/>
	<stop  offset="1" style="stop-color:#00E7F0"/>
</linearGradient>
<path style="fill:url(#SVGID_1_);" d="M248,64.2V40c0-4.418-3.582-8-8-8s-8,3.582-8,8v24.2C120.389,68.612,32.14,160.302,32,272
	c0,4.418,3.582,8,8,8s8-3.582,8-8c0-7.552,13.68-16,32-16s32,8.448,32,16c0,4.418,3.582,8,8,8s8-3.582,8-8c0-7.552,13.68-16,32-16
	s32,8.448,32,16c0,4.418,3.582,8,8,8s8-3.582,8-8c0-6.4,9.864-13.384,24-15.384V440c0,22.091,17.909,40,40,40s40-17.909,40-40v-16
	c0-4.418-3.582-8-8-8s-8,3.582-8,8v16c0,13.255-10.745,24-24,24s-24-10.745-24-24V256.616c14.136,2,24,8.984,24,15.384
	c0,4.418,3.582,8,8,8s8-3.582,8-8c0-7.552,13.68-16,32-16s32,8.448,32,16c0,4.418,3.582,8,8,8s8-3.582,8-8c0-7.552,13.68-16,32-16
	s32,8.448,32,16c0,4.418,3.582,8,8,8s8-3.582,8-8C447.86,160.302,359.611,68.612,248,64.2z M112.752,248.464
	C102.815,242.7,91.486,239.772,80,240c-10.529-0.163-20.938,2.251-30.32,7.032c11.323-85.352,77.984-152.784,163.2-165.088
	L200.264,91.2C149.685,128.465,117.759,185.839,112.752,248.464L112.752,248.464z M160,240c-10.867-0.19-21.603,2.387-31.2,7.488
	c5.245-57.16,34.701-109.342,80.928-143.368l13.96-10.24l-7.92,22.176C200.605,158.421,192.574,203.007,192,248
	C182.224,242.561,171.185,239.802,160,240L160,240z M240,240c-11.142-0.199-22.139,2.538-31.888,7.936
	c0.544-43.131,8.224-85.874,22.728-126.496L240,95.784l9.16,25.656c14.504,40.622,22.184,83.365,22.728,126.496
	C262.139,242.538,251.142,239.801,240,240L240,240z M311.488,240.512l-0.8,0.08c-2.536,0.326-5.052,0.793-7.536,1.4
	c-0.368,0.088-0.728,0.168-1.08,0.264c-2.273,0.593-4.509,1.319-6.696,2.176l-1.096,0.44c-2.023,0.834-3.99,1.798-5.888,2.888
	c-0.136,0.08-0.296,0.136-0.432,0.216c-0.566-44.983-8.587-89.561-23.736-131.92l-7.92-22.176l13.96,10.24
	c46.23,34.024,75.689,86.207,80.936,143.368l-0.184-0.088c-1.91-1.049-3.885-1.977-5.912-2.776c-0.36-0.144-0.712-0.296-1.072-0.432
	c-2.123-0.798-4.289-1.476-6.488-2.032l-1.24-0.296c-2.376-0.558-4.779-0.991-7.2-1.296c-0.336,0-0.68-0.064-1.024-0.096
	c-5.515-0.642-11.088-0.629-16.6,0.04L311.488,240.512z M400,240c-11.486-0.228-22.815,2.7-32.752,8.464
	c-5.007-62.625-36.933-119.998-87.512-157.264l-12.64-9.264c85.216,12.298,151.879,79.729,163.2,165.08
	C420.92,242.244,410.519,239.836,400,240L400,240z"/>
<g>
	
		<linearGradient id="SVGID_2_" gradientUnits="userSpaceOnUse" x1="-18.875" y1="558.693" x2="-18.875" y2="620.615" gradientTransform="matrix(8 0 0 -8 455 4941)">
		<stop  offset="0" style="stop-color:#006DF0"/>
		<stop  offset="1" style="stop-color:#00E7F0"/>
	</linearGradient>
	<path style="fill:url(#SVGID_2_);" d="M304,64c4.418,0,8-3.582,8-8V8c0-4.418-3.582-8-8-8s-8,3.582-8,8v48
		C296,60.418,299.582,64,304,64z"/>
	
		<linearGradient id="SVGID_3_" gradientUnits="userSpaceOnUse" x1="-12.875" y1="558.693" x2="-12.875" y2="620.615" gradientTransform="matrix(8 0 0 -8 455 4941)">
		<stop  offset="0" style="stop-color:#006DF0"/>
		<stop  offset="1" style="stop-color:#00E7F0"/>
	</linearGradient>
	<path style="fill:url(#SVGID_3_);" d="M352,80c4.418,0,8-3.582,8-8V24c0-4.418-3.582-8-8-8s-8,3.582-8,8v48
		C344,76.418,347.582,80,352,80z"/>
	
		<linearGradient id="SVGID_4_" gradientUnits="userSpaceOnUse" x1="-6.875" y1="558.693" x2="-6.875" y2="620.615" gradientTransform="matrix(8 0 0 -8 455 4941)">
		<stop  offset="0" style="stop-color:#006DF0"/>
		<stop  offset="1" style="stop-color:#00E7F0"/>
	</linearGradient>
	<path style="fill:url(#SVGID_4_);" d="M400,112c4.418,0,8-3.582,8-8V56c0-4.418-3.582-8-8-8s-8,3.582-8,8v48
		C392,108.418,395.582,112,400,112z"/>
	
		<linearGradient id="SVGID_5_" gradientUnits="userSpaceOnUse" x1="-1.875" y1="558.693" x2="-1.875" y2="620.615" gradientTransform="matrix(8 0 0 -8 455 4941)">
		<stop  offset="0" style="stop-color:#006DF0"/>
		<stop  offset="1" style="stop-color:#00E7F0"/>
	</linearGradient>
	<path style="fill:url(#SVGID_5_);" d="M440,96c-4.418,0-8,3.582-8,8v48c0,4.418,3.582,8,8,8s8-3.582,8-8v-48
		C448,99.582,444.418,96,440,96z"/>
	
		<linearGradient id="SVGID_6_" gradientUnits="userSpaceOnUse" x1="-34.875" y1="558.693" x2="-34.875" y2="620.615" gradientTransform="matrix(8 0 0 -8 455 4941)">
		<stop  offset="0" style="stop-color:#006DF0"/>
		<stop  offset="1" style="stop-color:#00E7F0"/>
	</linearGradient>
	<path style="fill:url(#SVGID_6_);" d="M176,64c4.418,0,8-3.582,8-8V8c0-4.418-3.582-8-8-8s-8,3.582-8,8v48
		C168,60.418,171.582,64,176,64z"/>
	
		<linearGradient id="SVGID_7_" gradientUnits="userSpaceOnUse" x1="-40.875" y1="558.693" x2="-40.875" y2="620.615" gradientTransform="matrix(8 0 0 -8 455 4941)">
		<stop  offset="0" style="stop-color:#006DF0"/>
		<stop  offset="1" style="stop-color:#00E7F0"/>
	</linearGradient>
	<path style="fill:url(#SVGID_7_);" d="M128,80c4.418,0,8-3.582,8-8V24c0-4.418-3.582-8-8-8s-8,3.582-8,8v48
		C120,76.418,123.582,80,128,80z"/>
	
		<linearGradient id="SVGID_8_" gradientUnits="userSpaceOnUse" x1="-46.875" y1="558.693" x2="-46.875" y2="620.615" gradientTransform="matrix(8 0 0 -8 455 4941)">
		<stop  offset="0" style="stop-color:#006DF0"/>
		<stop  offset="1" style="stop-color:#00E7F0"/>
	</linearGradient>
	<path style="fill:url(#SVGID_8_);" d="M80,112c4.418,0,8-3.582,8-8V56c0-4.418-3.582-8-8-8s-8,3.582-8,8v48
		C72,108.418,75.582,112,80,112z"/>
	
		<linearGradient id="SVGID_9_" gradientUnits="userSpaceOnUse" x1="-51.875" y1="558.693" x2="-51.875" y2="620.615" gradientTransform="matrix(8 0 0 -8 455 4941)">
		<stop  offset="0" style="stop-color:#006DF0"/>
		<stop  offset="1" style="stop-color:#00E7F0"/>
	</linearGradient>
	<path style="fill:url(#SVGID_9_);" d="M40,160c4.418,0,8-3.582,8-8v-48c0-4.418-3.582-8-8-8s-8,3.582-8,8v48
		C32,156.418,35.582,160,40,160z"/>
</g>
<g>
</g>
<g>
</g>
<g>
</g>
<g>
</g>
<g>
</g>
<g>
</g>
<g>
</g>
<g>
</g>
<g>
</g>
<g>
</g>
<g>
</g>
<g>
</g>
<g>
</g>
<g>
</g>
<g>
</g>
</svg>
