<?xml version="1.0" encoding="iso-8859-1"?>
<!-- Generator: Adobe Illustrator 19.0.0, SVG Export Plug-In . SVG Version: 6.00 Build 0)  -->
<svg version="1.1" id="Capa_1" xmlns="http://www.w3.org/2000/svg" xmlns:xlink="http://www.w3.org/1999/xlink" x="0px" y="0px"
	 viewBox="0 0 480.024 480.024" style="enable-background:new 0 0 480.024 480.024;" xml:space="preserve">
<linearGradient id="SVGID_1_" gradientUnits="userSpaceOnUse" x1="-26.8743" y1="559.4186" x2="-26.8743" y2="621.0735" gradientTransform="matrix(8 0 0 -8 455.0064 4941.2124)">
	<stop  offset="0" style="stop-color:#006DF0"/>
	<stop  offset="1" style="stop-color:#00E7F0"/>
</linearGradient>
<path style="fill:url(#SVGID_1_);" d="M351.999,480.024h-192c-4.418,0-8-3.582-8-8v-64h-80c-4.418,0-8-3.582-8-8v-48h-40
	c-4.418,0.003-8.002-3.577-8.005-7.995c0-0.618,0.071-1.235,0.213-1.837l31.792-135.176l0.144-7.152
	C52.603,85.11,149.244-4.3,263.998,0.16c2.451,0.095,4.9,0.234,7.345,0.416c101.143,7.964,181.983,87.368,191.76,188.352
	c7.496,79.162-30.971,155.631-99,196.8c-2.52,1.439-4.097,4.098-4.152,7v79.296C359.951,476.423,356.399,479.997,351.999,480.024
	L351.999,480.024z M167.999,464.024h176v-71.336c0.034-8.49,4.527-16.337,11.832-20.664
	c62.785-38.016,98.285-108.601,91.368-181.672c-9.017-93.191-83.615-166.471-176.952-173.824
	C164.529,8.633,72.428,87.934,64.533,193.652c-0.166,2.226-0.294,4.454-0.382,6.684l-0.152,7.848
	c-0.009,0.563-0.079,1.124-0.208,1.672L34.103,336.024h37.896c4.418,0,8,3.582,8,8v48h80c4.418,0,8,3.582,8,8L167.999,464.024z"/>
<g>
	
		<linearGradient id="SVGID_2_" gradientUnits="userSpaceOnUse" x1="-24.8759" y1="559.4186" x2="-24.8759" y2="621.0735" gradientTransform="matrix(8 0 0 -8 455.0064 4941.2124)">
		<stop  offset="0" style="stop-color:#006DF0"/>
		<stop  offset="1" style="stop-color:#00E7F0"/>
	</linearGradient>
	<path style="fill:url(#SVGID_2_);" d="M255.999,56.024c-4.418,0-8-3.582-8-8v-16c0-4.418,3.582-8,8-8s8,3.582,8,8v16
		C263.999,52.442,260.417,56.024,255.999,56.024z"/>
	
		<linearGradient id="SVGID_3_" gradientUnits="userSpaceOnUse" x1="-19.4408" y1="559.4186" x2="-19.4408" y2="621.0735" gradientTransform="matrix(8 0 0 -8 455.0064 4941.2124)">
		<stop  offset="0" style="stop-color:#006DF0"/>
		<stop  offset="1" style="stop-color:#00E7F0"/>
	</linearGradient>
	<path style="fill:url(#SVGID_3_);" d="M297.415,61.48c-0.703,0.001-1.402-0.093-2.08-0.28c-4.264-1.144-6.796-5.526-5.656-9.792
		l4.144-15.456c1.144-4.268,5.532-6.8,9.8-5.656c4.268,1.144,6.8,5.532,5.656,9.8l-4.144,15.448
		C304.201,59.041,301.035,61.475,297.415,61.48z"/>
	
		<linearGradient id="SVGID_4_" gradientUnits="userSpaceOnUse" x1="-14.3765" y1="559.4186" x2="-14.3765" y2="621.0735" gradientTransform="matrix(8 0 0 -8 455.0064 4941.2124)">
		<stop  offset="0" style="stop-color:#006DF0"/>
		<stop  offset="1" style="stop-color:#00E7F0"/>
	</linearGradient>
	<path style="fill:url(#SVGID_4_);" d="M335.999,77.464c-4.418-0.005-7.996-3.59-7.992-8.008c0.001-1.402,0.371-2.778,1.072-3.992
		l8-13.864c2.235-3.811,7.136-5.089,10.948-2.854c3.775,2.214,5.071,7.05,2.908,10.854l-8,13.864
		C341.505,75.941,338.86,77.466,335.999,77.464L335.999,77.464z"/>
	
		<linearGradient id="SVGID_5_" gradientUnits="userSpaceOnUse" x1="-10.0329" y1="559.4186" x2="-10.0329" y2="621.0735" gradientTransform="matrix(8 0 0 -8 455.0064 4941.2124)">
		<stop  offset="0" style="stop-color:#006DF0"/>
		<stop  offset="1" style="stop-color:#00E7F0"/>
	</linearGradient>
	<path style="fill:url(#SVGID_5_);" d="M369.135,102.88c-4.418-0.001-7.999-3.583-7.998-8.002c0-2.121,0.843-4.154,2.342-5.654
		l11.312-11.312c3.178-3.069,8.242-2.982,11.312,0.196c2.994,3.1,2.994,8.015,0,11.116l-11.312,11.312
		C373.295,102.041,371.258,102.885,369.135,102.88z"/>
	
		<linearGradient id="SVGID_6_" gradientUnits="userSpaceOnUse" x1="-30.311" y1="559.4186" x2="-30.311" y2="621.0735" gradientTransform="matrix(8 0 0 -8 455.0064 4941.2124)">
		<stop  offset="0" style="stop-color:#006DF0"/>
		<stop  offset="1" style="stop-color:#00E7F0"/>
	</linearGradient>
	<path style="fill:url(#SVGID_6_);" d="M214.583,61.48c-3.62-0.004-6.786-2.439-7.72-5.936l-4.144-15.448
		c-1.144-4.268,1.388-8.656,5.656-9.8c4.268-1.144,8.656,1.388,9.8,5.656l4.144,15.456c1.14,4.266-1.392,8.648-5.656,9.792
		C215.986,61.386,215.286,61.48,214.583,61.48L214.583,61.48z"/>
	
		<linearGradient id="SVGID_7_" gradientUnits="userSpaceOnUse" x1="-35.3753" y1="559.4186" x2="-35.3753" y2="621.0735" gradientTransform="matrix(8 0 0 -8 455.0064 4941.2124)">
		<stop  offset="0" style="stop-color:#006DF0"/>
		<stop  offset="1" style="stop-color:#00E7F0"/>
	</linearGradient>
	<path style="fill:url(#SVGID_7_);" d="M175.999,77.464c-2.861,0.003-5.506-1.522-6.936-4l-8-13.864
		c-2.184-3.841-0.841-8.725,3-10.909c3.805-2.163,8.642-0.867,10.856,2.909l8,13.864c2.209,3.826,0.898,8.719-2.928,10.928
		C178.777,77.093,177.401,77.462,175.999,77.464z"/>
	
		<linearGradient id="SVGID_8_" gradientUnits="userSpaceOnUse" x1="-39.7189" y1="559.4186" x2="-39.7189" y2="621.0735" gradientTransform="matrix(8 0 0 -8 455.0064 4941.2124)">
		<stop  offset="0" style="stop-color:#006DF0"/>
		<stop  offset="1" style="stop-color:#00E7F0"/>
	</linearGradient>
	<path style="fill:url(#SVGID_8_);" d="M142.863,102.88c-2.123,0.006-4.16-0.838-5.656-2.344l-11.312-11.312
		c-3.069-3.178-2.981-8.243,0.197-11.312c3.1-2.994,8.015-2.994,11.115,0l11.312,11.312c3.124,3.125,3.123,8.19-0.002,11.314
		C147.018,102.037,144.984,102.879,142.863,102.88L142.863,102.88z"/>
	
		<linearGradient id="SVGID_9_" gradientUnits="userSpaceOnUse" x1="-24.8759" y1="559.4186" x2="-24.8759" y2="621.0735" gradientTransform="matrix(8 0 0 -8 455.0064 4941.2124)">
		<stop  offset="0" style="stop-color:#006DF0"/>
		<stop  offset="1" style="stop-color:#00E7F0"/>
	</linearGradient>
	<path style="fill:url(#SVGID_9_);" d="M271.999,320.024h-32c-4.418,0-8-3.582-8-8v-19.312c-6.582-1.861-12.92-4.498-18.88-7.856
		l-13.704,13.704c-1.5,1.5-3.534,2.344-5.656,2.344c-2.122,0-4.156-0.844-5.656-2.344l-22.64-22.64
		c-3.123-3.124-3.123-8.188,0-11.312l13.736-13.704c-3.369-5.958-6.017-12.296-7.888-18.88h-19.312c-4.418,0-8-3.582-8-8v-32
		c0-4.418,3.582-8,8-8h19.312c1.861-6.582,4.498-12.92,7.856-18.88l-13.704-13.704c-3.123-3.124-3.123-8.188,0-11.312l22.64-22.64
		c3.174-3.001,8.138-3.001,11.312,0l13.704,13.736c5.958-3.369,12.296-6.017,18.88-7.888v-19.312c0-4.418,3.582-8,8-8h32
		c4.418,0,8,3.582,8,8v19.312c6.582,1.861,12.92,4.498,18.88,7.856l13.704-13.704c1.5-1.5,3.534-2.344,5.656-2.344
		c2.122,0,4.156,0.844,5.656,2.344l22.64,22.64c3.123,3.124,3.123,8.188,0,11.312l-13.736,13.704
		c3.369,5.958,6.017,12.296,7.888,18.88h19.312c4.418,0,8,3.582,8,8v32c0,4.418-3.582,8-8,8h-19.312
		c-1.861,6.582-4.498,12.92-7.856,18.88l13.704,13.704c3.123,3.124,3.123,8.188,0,11.312l-22.64,22.64
		c-3.174,3.001-8.138,3.001-11.312,0l-13.704-13.736c-5.96,3.358-12.298,5.995-18.88,7.856v19.344
		C279.999,316.442,276.417,320.024,271.999,320.024L271.999,320.024z M247.999,304.024h16v-17.6c-0.005-3.805,2.672-7.087,6.4-7.848
		c9.014-1.818,17.585-5.381,25.232-10.488c3.173-2.116,7.399-1.697,10.096,1l12.512,12.536l11.36-11.36l-12.504-12.504
		c-2.697-2.697-3.116-6.923-1-10.096c5.099-7.651,8.654-16.225,10.464-25.24c0.76-3.725,4.038-6.401,7.84-6.4h17.6v-16h-17.6
		c-3.802,0.001-7.08-2.675-7.84-6.4c-1.821-9.014-5.387-17.586-10.496-25.232c-2.116-3.173-1.697-7.399,1-10.096l12.536-12.512
		l-11.36-11.36l-12.504,12.504c-2.697,2.697-6.923,3.116-10.096,1c-7.652-5.097-16.226-8.648-25.24-10.456
		c-3.728-0.761-6.405-4.043-6.4-7.848v-17.6h-16v17.6c0.005,3.805-2.672,7.087-6.4,7.848c-9.014,1.818-17.585,5.381-25.232,10.488
		c-3.173,2.116-7.399,1.697-10.096-1l-12.512-12.536l-11.36,11.36l12.504,12.504c2.697,2.697,3.116,6.923,1,10.096
		c-5.099,7.651-8.654,16.225-10.464,25.24c-0.76,3.725-4.038,6.401-7.84,6.4h-17.6v16h17.6c3.802-0.001,7.08,2.675,7.84,6.4
		c1.821,9.014,5.387,17.586,10.496,25.232c2.116,3.173,1.697,7.399-1,10.096l-12.536,12.512l11.36,11.36l12.504-12.504
		c2.697-2.697,6.923-3.116,10.096-1c7.652,5.097,16.226,8.648,25.24,10.456c3.728,0.761,6.405,4.043,6.4,7.848V304.024z"/>
	
		<linearGradient id="SVGID_10_" gradientUnits="userSpaceOnUse" x1="-24.8759" y1="559.4186" x2="-24.8759" y2="621.0735" gradientTransform="matrix(8 0 0 -8 455.0064 4941.2124)">
		<stop  offset="0" style="stop-color:#006DF0"/>
		<stop  offset="1" style="stop-color:#00E7F0"/>
	</linearGradient>
	<path style="fill:url(#SVGID_10_);" d="M255.999,256.024c-26.51,0-48-21.49-48-48s21.49-48,48-48s48,21.49,48,48
		C303.973,234.522,282.498,255.997,255.999,256.024z M255.999,176.024c-17.673,0-32,14.327-32,32s14.327,32,32,32s32-14.327,32-32
		S273.672,176.024,255.999,176.024z"/>
</g>
<g>
</g>
<g>
</g>
<g>
</g>
<g>
</g>
<g>
</g>
<g>
</g>
<g>
</g>
<g>
</g>
<g>
</g>
<g>
</g>
<g>
</g>
<g>
</g>
<g>
</g>
<g>
</g>
<g>
</g>
</svg>
