<?xml version="1.0" encoding="iso-8859-1"?>
<!-- Generator: Adobe Illustrator 19.0.0, SVG Export Plug-In . SVG Version: 6.00 Build 0)  -->
<svg version="1.1" id="Capa_1" xmlns="http://www.w3.org/2000/svg" xmlns:xlink="http://www.w3.org/1999/xlink" x="0px" y="0px"
	 viewBox="0 0 496 496" style="enable-background:new 0 0 496 496;" xml:space="preserve">
<linearGradient id="SVGID_1_" gradientUnits="userSpaceOnUse" x1="-18.875" y1="503.2153" x2="-18.875" y2="547.6373" gradientTransform="matrix(8 0 0 -8 399 4437.0029)">
	<stop  offset="0" style="stop-color:#006DF0"/>
	<stop  offset="1" style="stop-color:#00E7F0"/>
</linearGradient>
<path style="fill:url(#SVGID_1_);" d="M495.2,380.424l-40-80c-1.362-2.725-4.153-4.441-7.2-4.424h-32v-24
	c0.014-1.238-0.26-2.462-0.8-3.576l-40-80c-1.362-2.725-4.153-4.441-7.2-4.424h-32v-24c0.014-1.238-0.26-2.462-0.8-3.576l-40-80
	c-1.362-2.725-4.153-4.441-7.2-4.424h-80c-3.032-0.001-5.805,1.712-7.16,4.424l-40,80c-0.554,1.111-0.841,2.335-0.84,3.576v24h-32
	c-3.032-0.001-5.805,1.712-7.16,4.424l-40,80c-0.554,1.111-0.841,2.335-0.84,3.576v24H48c-3.032-0.001-5.805,1.712-7.16,4.424
	l-40,80C0.286,381.535-0.001,382.759,0,384v32c0,4.418,3.582,8,8,8h480c4.418,0,8-3.582,8-8v-32
	C496.014,382.762,495.74,381.538,495.2,380.424z M400,273.888V296H256v-22.112L292.944,200h70.112L400,273.888z M328,366.112
	L300.944,312h54.112L328,366.112z M248,254.112L220.944,200h54.112L248,254.112z M176,161.888L212.944,88h70.112L320,161.888V184
	H176V161.888z M96,273.888L132.944,200h70.112L240,273.888V296H96V273.888z M168,366.112L140.944,312h54.112L168,366.112z
	 M16,385.888L52.944,312h70.112L160,385.888V408H16V385.888z M176,385.888L212.944,312h70.112L320,385.888V408H176V385.888z
	 M480,408H336v-22.112L372.944,312h70.112L480,385.888V408z"/>
<g>
</g>
<g>
</g>
<g>
</g>
<g>
</g>
<g>
</g>
<g>
</g>
<g>
</g>
<g>
</g>
<g>
</g>
<g>
</g>
<g>
</g>
<g>
</g>
<g>
</g>
<g>
</g>
<g>
</g>
</svg>
