<?xml version="1.0" encoding="iso-8859-1"?>
<!-- Generator: Adobe Illustrator 19.0.0, SVG Export Plug-In . SVG Version: 6.00 Build 0)  -->
<svg version="1.1" id="Capa_1" xmlns="http://www.w3.org/2000/svg" xmlns:xlink="http://www.w3.org/1999/xlink" x="0px" y="0px"
	 viewBox="0 0 480.11 480.11" style="enable-background:new 0 0 480.11 480.11;" xml:space="preserve">
<linearGradient id="SVGID_1_" gradientUnits="userSpaceOnUse" x1="-26.8201" y1="558.1747" x2="-26.8201" y2="619.3877" gradientTransform="matrix(8 0 0 -8 454.6159 4941.9873)">
	<stop  offset="0" style="stop-color:#006DF0"/>
	<stop  offset="1" style="stop-color:#00E7F0"/>
</linearGradient>
<path style="fill:url(#SVGID_1_);" d="M456.055,88.11h-149.52c22.149-14.567,28.296-44.33,13.729-66.479
	s-44.33-28.296-66.479-13.729c-7.541,4.959-13.53,11.944-17.282,20.153c-15.434-15.738-40.704-15.984-56.441-0.55
	s-15.984,40.704-0.55,56.441c1.484,1.513,3.086,2.906,4.792,4.165H24.055c-4.418,0-8,3.582-8,8v96c0,4.418,3.582,8,8,8h16v272
	c0,4.418,3.582,8,8,8h384c4.418,0,8-3.582,8-8v-272h16c4.418,0,8-3.582,8-8v-96C464.055,91.691,460.473,88.11,456.055,88.11z
	 M280.055,16.11c17.673,0,32,14.327,32,32s-14.327,32-32,32s-32-14.327-32-32S262.382,16.11,280.055,16.11z M208.055,32.11
	c13.255,0,24,10.745,24,24s-10.745,24-24,24s-24-10.745-24-24S194.8,32.11,208.055,32.11z M241.927,77.15
	c3.249,4.273,7.185,7.977,11.648,10.96h-21.768C235.835,85.12,239.267,81.403,241.927,77.15z M32.055,104.11h200v80h-200V104.11z
	 M424.055,464.11h-368v-264h176v240c0,4.418,3.582,8,8,8s8-3.582,8-8v-240h176V464.11z M448.055,184.11h-200v-80h200V184.11z"/>
<g>
</g>
<g>
</g>
<g>
</g>
<g>
</g>
<g>
</g>
<g>
</g>
<g>
</g>
<g>
</g>
<g>
</g>
<g>
</g>
<g>
</g>
<g>
</g>
<g>
</g>
<g>
</g>
<g>
</g>
</svg>
