<?xml version="1.0" encoding="iso-8859-1"?>
<!-- Generator: Adobe Illustrator 19.0.0, SVG Export Plug-In . SVG Version: 6.00 Build 0)  -->
<svg version="1.1" id="Capa_1" xmlns="http://www.w3.org/2000/svg" xmlns:xlink="http://www.w3.org/1999/xlink" x="0px" y="0px"
	 viewBox="0 0 480 480" style="enable-background:new 0 0 480 480;" xml:space="preserve">
<linearGradient id="SVGID_1_" gradientUnits="userSpaceOnUse" x1="-26.875" y1="529.736" x2="-26.875" y2="588.665" gradientTransform="matrix(8 0 0 -8 455 4689)">
	<stop  offset="0" style="stop-color:#006DF0"/>
	<stop  offset="1" style="stop-color:#00E7F0"/>
</linearGradient>
<path style="fill:url(#SVGID_1_);" d="M439.024,397.696c0.12-0.544,0.168-1.136,0.264-1.696H472c4.418,0,8-3.582,8-8v-64
	c0-4.418-3.582-8-8-8h-8v-72c-0.003-1.58-0.47-3.124-1.344-4.44l-64-96c-1.484-2.225-3.982-3.56-6.656-3.56h-72V76h8
	c4.418,0,8-3.582,8-8V36c0-4.418-3.582-8-8-8H8c-4.418,0-8,3.582-8,8v32c0,4.418,3.582,8,8,8h8v240H8c-4.418,0-8,3.582-8,8v64
	c0,4.418,3.582,8,8,8h64.712c0.088,0.52,0.136,1.08,0.24,1.6c5.253,25.984,30.576,42.79,56.56,37.537
	c18.879-3.817,33.648-18.548,37.512-37.417c0.12-0.544,0.168-1.136,0.264-1.696h177.424c0.088,0.52,0.136,1.08,0.24,1.6
	c5.253,25.984,30.576,42.79,56.56,37.537c18.879-3.817,33.648-18.548,37.512-37.417L439.024,397.696z M387.72,156L448,246.4V260H344
	c-4.418,0-8,3.582-8,8s3.582,8,8,8h104v40H320V156L387.72,156z M16,44h304v16H16V44z M32,76h272v240H32V76z M16,332h448v48h-24.664
	c0-0.184-0.104-0.352-0.144-0.536c-0.436-2.409-1.057-4.782-1.856-7.096c-0.144-0.416-0.304-0.8-0.456-1.248
	c-0.852-2.273-1.873-4.48-3.056-6.6c-0.176-0.304-0.368-0.592-0.544-0.896c-1.274-2.176-2.715-4.249-4.312-6.2l-0.136-0.152
	c-1.619-1.923-3.387-3.715-5.288-5.36c-0.216-0.192-0.408-0.392-0.624-0.568c-1.87-1.567-3.858-2.99-5.944-4.256
	c-0.352-0.216-0.696-0.432-1.056-0.64c-2.09-1.21-4.27-2.258-6.52-3.136l-1.192-0.44c-2.345-0.849-4.752-1.515-7.2-1.992
	c-0.32-0.064-0.64-0.096-0.96-0.152c-5.327-0.971-10.785-0.971-16.112,0c-0.32,0.056-0.64,0.088-0.96,0.152
	c-2.448,0.477-4.855,1.143-7.2,1.992l-1.192,0.44c-2.25,0.878-4.43,1.926-6.52,3.136c-0.36,0.208-0.704,0.424-1.056,0.64
	c-2.086,1.266-4.074,2.689-5.944,4.256c-0.216,0.176-0.408,0.376-0.624,0.568c-1.901,1.645-3.669,3.437-5.288,5.36l-0.136,0.152
	c-1.599,1.952-3.041,4.028-4.312,6.208c-0.176,0.296-0.368,0.584-0.536,0.888c-1.19,2.118-2.214,4.324-3.064,6.6
	c-0.152,0.416-0.312,0.8-0.456,1.248c-0.799,2.314-1.42,4.687-1.856,7.096c-0.04,0.184-0.112,0.352-0.144,0.536H167.336
	c0-0.184-0.104-0.352-0.144-0.536c-0.436-2.409-1.057-4.782-1.856-7.096c-0.144-0.416-0.304-0.8-0.456-1.248
	c-0.852-2.273-1.873-4.48-3.056-6.6c-0.176-0.304-0.368-0.592-0.544-0.896c-1.274-2.176-2.715-4.249-4.312-6.2l-0.136-0.152
	c-1.619-1.923-3.387-3.715-5.288-5.36c-0.216-0.192-0.408-0.392-0.624-0.568c-1.87-1.567-3.858-2.99-5.944-4.256
	c-0.352-0.216-0.696-0.432-1.056-0.64c-2.09-1.21-4.27-2.258-6.52-3.136l-1.192-0.44c-2.345-0.849-4.752-1.515-7.2-1.992
	c-0.32-0.064-0.64-0.096-0.96-0.152c-5.327-0.971-10.785-0.971-16.112,0c-0.32,0.056-0.64,0.088-0.96,0.152
	c-2.448,0.477-4.855,1.143-7.2,1.992l-1.192,0.44c-2.25,0.878-4.43,1.926-6.52,3.136c-0.36,0.208-0.704,0.424-1.056,0.64
	c-2.086,1.266-4.074,2.689-5.944,4.256c-0.216,0.176-0.408,0.376-0.624,0.568c-1.901,1.645-3.669,3.437-5.288,5.36l-0.136,0.152
	c-1.599,1.952-3.041,4.028-4.312,6.208c-0.176,0.296-0.368,0.584-0.536,0.888c-1.19,2.118-2.214,4.324-3.064,6.6
	c-0.152,0.416-0.312,0.8-0.456,1.248c-0.799,2.314-1.42,4.687-1.856,7.096c-0.04,0.184-0.112,0.352-0.144,0.536H16L16,332z
	 M151.36,394.4c-3.517,17.32-20.409,28.509-37.728,24.992c-12.636-2.566-22.498-12.466-25.016-25.112
	c-0.426-2.066-0.632-4.171-0.616-6.28c0-17.673,14.327-32,32-32s32,14.327,32,32C152.014,390.15,151.8,392.295,151.36,394.4z
	 M423.36,394.4c-3.517,17.32-20.409,28.509-37.728,24.992c-12.636-2.566-22.498-12.466-25.016-25.112
	c-0.426-2.066-0.632-4.171-0.616-6.28c0-17.673,14.327-32,32-32s32,14.327,32,32C424.014,390.15,423.8,392.295,423.36,394.4z"/>
<g>
	
		<linearGradient id="SVGID_2_" gradientUnits="userSpaceOnUse" x1="-41.875" y1="529.736" x2="-41.875" y2="588.665" gradientTransform="matrix(8 0 0 -8 455 4689)">
		<stop  offset="0" style="stop-color:#006DF0"/>
		<stop  offset="1" style="stop-color:#00E7F0"/>
	</linearGradient>
	<path style="fill:url(#SVGID_2_);" d="M120,364c-13.255,0-24,10.745-24,24s10.745,24,24,24s24-10.745,24-24S133.255,364,120,364z
		 M120,396c-4.418,0-8-3.582-8-8s3.582-8,8-8s8,3.582,8,8S124.418,396,120,396z"/>
	
		<linearGradient id="SVGID_3_" gradientUnits="userSpaceOnUse" x1="-7.875" y1="529.736" x2="-7.875" y2="588.665" gradientTransform="matrix(8 0 0 -8 455 4689)">
		<stop  offset="0" style="stop-color:#006DF0"/>
		<stop  offset="1" style="stop-color:#00E7F0"/>
	</linearGradient>
	<path style="fill:url(#SVGID_3_);" d="M392,364c-13.255,0-24,10.745-24,24s10.745,24,24,24s24-10.745,24-24S405.255,364,392,364z
		 M392,396c-4.418,0-8-3.582-8-8s3.582-8,8-8s8,3.582,8,8S396.418,396,392,396z"/>
	
		<linearGradient id="SVGID_4_" gradientUnits="userSpaceOnUse" x1="-9.3755" y1="529.736" x2="-9.3755" y2="588.665" gradientTransform="matrix(8 0 0 -8 455 4689)">
		<stop  offset="0" style="stop-color:#006DF0"/>
		<stop  offset="1" style="stop-color:#00E7F0"/>
	</linearGradient>
	<path style="fill:url(#SVGID_4_);" d="M344,244h72c4.418-0.004,7.997-3.589,7.993-8.007c-0.001-1.664-0.522-3.286-1.489-4.641
		l-40-56c-1.5-2.101-3.922-3.35-6.504-3.352h-32c-4.418,0-8,3.582-8,8v56C336,240.418,339.582,244,344,244z M352,188h19.88
		l28.576,40H352V188z"/>
	
		<linearGradient id="SVGID_5_" gradientUnits="userSpaceOnUse" x1="-48.375" y1="529.736" x2="-48.375" y2="588.665" gradientTransform="matrix(8 0 0 -8 455 4689)">
		<stop  offset="0" style="stop-color:#006DF0"/>
		<stop  offset="1" style="stop-color:#00E7F0"/>
	</linearGradient>
	<path style="fill:url(#SVGID_5_);" d="M88,148H48c-4.418,0-8,3.582-8,8v80c0,4.418,3.582,8,8,8s8-3.582,8-8v-32h24
		c4.418,0,8-3.582,8-8s-3.582-8-8-8H56v-24h32c4.418,0,8-3.582,8-8S92.418,148,88,148z"/>
	
		<linearGradient id="SVGID_6_" gradientUnits="userSpaceOnUse" x1="-39.875" y1="529.736" x2="-39.875" y2="588.665" gradientTransform="matrix(8 0 0 -8 455 4689)">
		<stop  offset="0" style="stop-color:#006DF0"/>
		<stop  offset="1" style="stop-color:#00E7F0"/>
	</linearGradient>
	<path style="fill:url(#SVGID_6_);" d="M168,172c0-13.255-10.745-24-24-24h-32c-4.418,0-8,3.582-8,8v80c0,4.418,3.582,8,8,8
		c4.418,0,8-3.582,8-8v-28.688l34.344,34.344c3.178,3.069,8.243,2.982,11.312-0.196c2.994-3.1,2.994-8.015,0-11.116L131.312,196H144
		C157.255,196,168,185.255,168,172L168,172z M120,164h24c4.418,0,8,3.582,8,8s-3.582,8-8,8h-24V164z"/>
	
		<linearGradient id="SVGID_7_" gradientUnits="userSpaceOnUse" x1="-31.375" y1="529.736" x2="-31.375" y2="588.665" gradientTransform="matrix(8 0 0 -8 455 4689)">
		<stop  offset="0" style="stop-color:#006DF0"/>
		<stop  offset="1" style="stop-color:#00E7F0"/>
	</linearGradient>
	<path style="fill:url(#SVGID_7_);" d="M224,164c4.418,0,8-3.582,8-8s-3.582-8-8-8h-40c-4.418,0-8,3.582-8,8v80c0,4.418,3.582,8,8,8
		h40c4.418,0,8-3.582,8-8s-3.582-8-8-8h-32v-24h24c4.418,0,8-3.582,8-8s-3.582-8-8-8h-24v-24H224z"/>
	
		<linearGradient id="SVGID_8_" gradientUnits="userSpaceOnUse" x1="-23.375" y1="529.736" x2="-23.375" y2="588.665" gradientTransform="matrix(8 0 0 -8 455 4689)">
		<stop  offset="0" style="stop-color:#006DF0"/>
		<stop  offset="1" style="stop-color:#00E7F0"/>
	</linearGradient>
	<path style="fill:url(#SVGID_8_);" d="M288,164c4.418,0,8-3.582,8-8s-3.582-8-8-8h-40c-4.418,0-8,3.582-8,8v80c0,4.418,3.582,8,8,8
		h40c4.418,0,8-3.582,8-8s-3.582-8-8-8h-32v-24h24c4.418,0,8-3.582,8-8s-3.582-8-8-8h-24v-24H288z"/>
</g>
<linearGradient id="SVGID_9_" gradientUnits="userSpaceOnUse" x1="-26.875" y1="529.736" x2="-26.875" y2="588.665" gradientTransform="matrix(8 0 0 -8 455 4689)">
	<stop  offset="0" style="stop-color:#006DF0"/>
	<stop  offset="1" style="stop-color:#00E7F0"/>
</linearGradient>
<path style="fill:url(#SVGID_9_);" d="M8,436c-4.418,0-8,3.582-8,8s3.582,8,8,8h464c4.418,0,8-3.582,8-8s-3.582-8-8-8H8z"/>
<g>
</g>
<g>
</g>
<g>
</g>
<g>
</g>
<g>
</g>
<g>
</g>
<g>
</g>
<g>
</g>
<g>
</g>
<g>
</g>
<g>
</g>
<g>
</g>
<g>
</g>
<g>
</g>
<g>
</g>
</svg>
