<?xml version="1.0" encoding="iso-8859-1"?>
<!-- Generator: Adobe Illustrator 19.0.0, SVG Export Plug-In . SVG Version: 6.00 Build 0)  -->
<svg version="1.1" id="Capa_1" xmlns="http://www.w3.org/2000/svg" xmlns:xlink="http://www.w3.org/1999/xlink" x="0px" y="0px"
	 viewBox="0 0 480 480" style="enable-background:new 0 0 480 480;" xml:space="preserve">
<linearGradient id="SVGID_1_" gradientUnits="userSpaceOnUse" x1="-26.8653" y1="557.395" x2="-26.8653" y2="620.006" gradientTransform="matrix(8 0 0 -8 454.9221 4941)">
	<stop  offset="0" style="stop-color:#006DF0"/>
	<stop  offset="1" style="stop-color:#00E7F0"/>
</linearGradient>
<path style="fill:url(#SVGID_1_);" d="M343.579,444.728l-79.568-26.496V303.256c36.606-4.43,70.264-22.294,94.448-50.128
	c20.39-22.514,30.405-52.546,27.608-82.792l-26.16-163.6c-0.621-3.88-3.967-6.734-7.896-6.736h-224
	c-3.929,0.002-7.275,2.856-7.896,6.736l-26.216,164c-2.682,30.124,7.347,59.998,27.664,82.4
	c24.186,27.831,57.843,45.692,94.448,50.12v114.976l-79.624,26.52c-9.768,3.304-16.351,12.457-16.376,22.768V472
	c0,4.418,3.582,8,8,8h224c4.418,0,8-3.582,8-8v-4.48C359.981,457.187,353.373,448.021,343.579,444.728z M136.811,464
	c0.953-1.926,2.63-3.395,4.664-4.088l85.04-28.32c3.278-1.08,5.493-4.141,5.496-7.592V295.84c0.004-4.287-3.373-7.816-7.656-8
	c-35.036-2.311-67.684-18.568-90.64-45.136c-17.352-18.94-26.046-44.243-24-69.848L134.835,16h126.032l-42.352,42.344
	c-3.124,3.125-3.123,8.19,0.002,11.314c1.502,1.501,3.539,2.344,5.662,2.342h52.52l-62.288,62.264c-3.13,3.13-3.13,8.206,0,11.336
	c3.13,3.13,8.206,3.13,11.336,0l75.92-75.92c3.137-3.111,3.158-8.177,0.046-11.314c-1.508-1.52-3.562-2.372-5.702-2.366h-52.52
	l40-40h61.696l25.032,156.488c2.167,25.718-6.501,51.173-23.912,70.224c-22.956,26.568-55.604,42.825-90.64,45.136
	c-4.283,0.184-7.66,3.713-7.656,8V424c-0.001,3.445,2.204,6.503,5.472,7.592l84.984,28.296c2.063,0.689,3.769,2.168,4.744,4.112
	L136.811,464z"/>
<g>
</g>
<g>
</g>
<g>
</g>
<g>
</g>
<g>
</g>
<g>
</g>
<g>
</g>
<g>
</g>
<g>
</g>
<g>
</g>
<g>
</g>
<g>
</g>
<g>
</g>
<g>
</g>
<g>
</g>
</svg>
