<?xml version="1.0" encoding="iso-8859-1"?>
<!-- Generator: Adobe Illustrator 19.0.0, SVG Export Plug-In . SVG Version: 6.00 Build 0)  -->
<svg version="1.1" id="Capa_1" xmlns="http://www.w3.org/2000/svg" xmlns:xlink="http://www.w3.org/1999/xlink" x="0px" y="0px"
	 viewBox="0 0 480 480" style="enable-background:new 0 0 480 480;" xml:space="preserve">
<linearGradient id="SVGID_1_" gradientUnits="userSpaceOnUse" x1="-36.7554" y1="558.4453" x2="-36.7554" y2="621.4692" gradientTransform="matrix(8 0 0 -8 447.1527 4941.0024)">
	<stop  offset="0" style="stop-color:#006DF0"/>
	<stop  offset="1" style="stop-color:#00E7F0"/>
</linearGradient>
<path style="fill:url(#SVGID_1_);" d="M271.577,253.12c20.381-22.516,30.392-52.543,27.6-82.784l-26.16-163.6
	c-0.621-3.88-3.967-6.734-7.896-6.736h-224c-3.929,0.002-7.275,2.856-7.896,6.736L7.009,170.72
	c-2.679,30.122,7.347,59.993,27.656,82.4c24.185,27.839,57.846,45.706,94.456,50.136v114.976l-79.624,26.52
	c-9.768,3.304-16.351,12.457-16.376,22.768V472c0,4.418,3.582,8,8,8h224c4.418,0,8-3.582,8-8v-4.48
	c-0.032-10.332-6.64-19.496-16.432-22.792l-79.568-26.496V303.256C213.731,298.826,247.392,280.959,271.577,253.12z
	 M166.593,431.592l84.984,28.296c2.062,0.692,3.767,2.17,4.744,4.112h-206.4c0.951-1.927,2.629-3.398,4.664-4.088l85.032-28.32
	c3.281-1.077,5.5-4.139,5.504-7.592V295.84c0.004-4.284-3.368-7.811-7.648-8c-35.039-2.3-67.692-18.556-90.648-45.128
	c-17.337-18.947-26.016-44.249-23.96-69.848L37.713,80h155.408c4.418,0,8-3.582,8-8s-3.582-8-8-8H40.265l7.68-48h210.352l7.68,48
	h-40.856c-4.418,0-8,3.582-8,8s3.582,8,8,8h43.416l14.784,92.488c2.169,25.717-6.496,51.171-23.904,70.224
	c-22.954,26.575-55.608,42.834-90.648,45.136c-4.28,0.189-7.652,3.716-7.648,8V424C161.12,427.445,163.325,430.504,166.593,431.592
	L166.593,431.592z"/>
<linearGradient id="SVGID_2_" gradientUnits="userSpaceOnUse" x1="-5.7538" y1="558.4453" x2="-5.7538" y2="621.4692" gradientTransform="matrix(8 0 0 -8 447.1527 4941.0024)">
	<stop  offset="0" style="stop-color:#006DF0"/>
	<stop  offset="1" style="stop-color:#00E7F0"/>
</linearGradient>
<path style="fill:url(#SVGID_2_);" d="M425.121,191.464c30.633-4.258,52.015-32.544,47.756-63.177
	c-0.02-0.141-0.04-0.282-0.06-0.423L459.081,20.44C457.37,8.663,447.246-0.056,435.345,0h-68.448
	c-11.959-0.039-22.108,8.764-23.76,20.608l-13.688,107.096c-4.572,30.588,16.519,59.091,47.107,63.663
	c0.188,0.028,0.376,0.055,0.565,0.081v56.128L356.673,436c-2.209,21.981,13.819,41.59,35.799,43.799
	c1.332,0.134,2.67,0.201,4.008,0.201h9.28c22.091,0.003,40.002-17.903,40.005-39.995c0-1.354-0.068-2.707-0.205-4.053
	l-20.44-188.376L425.121,191.464z M354.553,162.112c-7.635-8.876-11.015-20.641-9.256-32.216l13.688-107.08
	c0.586-3.917,3.951-6.816,7.912-6.816h9.712l-7.488,119.504c-0.282,4.409,3.064,8.212,7.473,8.495c0.008,0,0.015,0.001,0.023,0.001
	h0.504c4.232,0.008,7.738-3.281,8-7.504L392.633,16h16.112l8.376,120.552c0.291,4.201,3.789,7.458,8,7.448h0.56
	c4.408-0.298,7.74-4.113,7.442-8.521c-0.001-0.01-0.001-0.02-0.002-0.031L424.793,16h10.552c3.907-0.036,7.257,2.784,7.888,6.64
	l13.728,107.424c3.278,21.847-11.774,42.215-33.621,45.493c-1.979,0.297-3.978,0.445-5.979,0.443h-0.24c-4.418,0-8,3.582-8,8v24h-16
	v-24c-0.113-4.464-3.774-8.019-8.24-8C373.232,176.008,362.158,170.937,354.553,162.112L354.553,162.112z M393.121,224h16v16h-16
	V224z M423.561,456.104c-4.532,5.055-11.011,7.929-17.8,7.896h-9.28c-13.255,0.001-24.001-10.744-24.001-23.999
	c0-0.778,0.038-1.555,0.113-2.329L392.321,256h17.6l19.696,181.6C430.338,444.351,428.134,451.087,423.561,456.104L423.561,456.104z
	"/>
<g>
</g>
<g>
</g>
<g>
</g>
<g>
</g>
<g>
</g>
<g>
</g>
<g>
</g>
<g>
</g>
<g>
</g>
<g>
</g>
<g>
</g>
<g>
</g>
<g>
</g>
<g>
</g>
<g>
</g>
</svg>
