<?xml version="1.0" encoding="iso-8859-1"?>
<!-- Generator: Adobe Illustrator 19.0.0, SVG Export Plug-In . SVG Version: 6.00 Build 0)  -->
<svg version="1.1" id="Capa_1" xmlns="http://www.w3.org/2000/svg" xmlns:xlink="http://www.w3.org/1999/xlink" x="0px" y="0px"
	 viewBox="0 0 480.096 480.096" style="enable-background:new 0 0 480.096 480.096;" xml:space="preserve">
<linearGradient id="SVGID_1_" gradientUnits="userSpaceOnUse" x1="-26.7831" y1="556.1033" x2="-26.7831" y2="617.8543" gradientTransform="matrix(8 0 0 -8 454.313 4940.9849)">
	<stop  offset="0" style="stop-color:#006DF0"/>
	<stop  offset="1" style="stop-color:#00E7F0"/>
</linearGradient>
<path style="fill:url(#SVGID_1_);" d="M477.754,2.342c-3.124-3.123-8.188-3.123-11.312,0L362.738,106.046L186.874,18.118
	c-0.485-0.19-0.989-0.327-1.504-0.408c-0.26-0.127-0.527-0.239-0.8-0.336c-0.12,0-0.224,0-0.344,0
	c-2.337-0.296-4.684,0.467-6.4,2.08c-0.064,0.064-0.16,0.072-0.232,0.136L7.93,189.326c-2.433,2.435-3.035,6.153-1.496,9.232
	l87.928,175.84l-91.92,91.944c-3.178,3.07-3.266,8.134-0.196,11.312s8.134,3.266,11.312,0.196c0.067-0.064,0.132-0.13,0.196-0.196
	l91.944-91.92l156.576,78.264h-70.176c-4.418,0-8,3.582-8,8s3.582,8,8,8h192c4.418,0,8-3.582,8-8s-3.582-8-8-8H298.93
	l161.544-161.544c0.088-0.088,0.144-0.2,0.232-0.288s0.264-0.344,0.4-0.52c0.512-0.642,0.92-1.36,1.208-2.128
	c0-0.088,0.08-0.16,0.112-0.248c0.257-0.844,0.371-1.726,0.336-2.608c0-0.219,0-0.435,0-0.648c0-0.168,0-0.328,0-0.496
	c-0.092-0.259-0.198-0.513-0.32-0.76c-0.084-0.525-0.224-1.04-0.416-1.536L374.05,117.358L477.754,13.654
	C480.877,10.53,480.877,5.466,477.754,2.342L477.754,2.342z M340.098,298.398l-30.16-15.104l37.4-37.408
	c0.08-0.072,0.096-0.176,0.168-0.248c0.27-0.319,0.511-0.662,0.72-1.024c0.228-0.252,0.439-0.52,0.632-0.8
	c0.056-0.112,0.04-0.232,0.088-0.344s0.144-0.32,0.2-0.48c0.118-0.39,0.204-0.788,0.256-1.192c0.119-0.448,0.199-0.906,0.24-1.368
	c0.008-0.147,0.008-0.293,0-0.44c-0.037-0.375-0.101-0.747-0.192-1.112c-0.057-0.488-0.158-0.97-0.304-1.44
	c-0.064-0.168-0.144-0.312-0.216-0.48s0-0.208-0.08-0.304l-31.36-62.728l10.688-10.728l49.032,98.056L340.098,298.398z
	 M245.21,65.174l52.8,105.6l-22.016,22.024l-74.808-149.6L245.21,65.174z M305.554,185.854l18.248,36.544l-36.504-18.272
	L305.554,185.854z M309.938,158.846l-40.872-81.744l21.432,10.704l30.168,60.336L309.938,158.846z M314.322,99.734l36.488,18.24
	l-18.248,18.248L314.322,99.734z M181.098,38.774l83,165.936L106.29,362.494L23.298,196.558L181.098,38.774z M283.554,456.742
	l-165.952-82.936l157.76-157.76l52.8,26.4l-37.408,37.408c-0.259,0.338-0.495,0.693-0.704,1.064c-0.295,0.315-0.563,0.655-0.8,1.016
	c-0.048,0.104,0,0.208-0.08,0.304c-0.208,0.515-0.355,1.052-0.44,1.6c-0.135,0.457-0.229,0.926-0.28,1.4
	c0.023,0.498,0.09,0.994,0.2,1.48c0.045,0.516,0.145,1.025,0.296,1.52c0.188,0.419,0.413,0.821,0.672,1.2
	c0.268,0.515,0.59,1,0.96,1.448c0.072,0.08,0.096,0.176,0.168,0.256c0.334,0.259,0.687,0.491,1.056,0.696
	c0.317,0.297,0.659,0.565,1.024,0.8l45.256,22.624c0.128,0.064,0.264,0.088,0.392,0.144s0.328,0.12,0.496,0.176
	c0.856,0.33,1.763,0.509,2.68,0.528c0.905-0.018,1.801-0.191,2.648-0.512c0.234-0.09,0.464-0.191,0.688-0.304
	c0.738-0.341,1.42-0.791,2.024-1.336c0.08-0.08,0.192-0.104,0.272-0.184l41.184-41.176l52.8,26.4L283.554,456.742z M436.898,278.91
	l-44-22.016l-52.8-105.6l22.016-22.016L436.898,278.91z"/>
<g>
</g>
<g>
</g>
<g>
</g>
<g>
</g>
<g>
</g>
<g>
</g>
<g>
</g>
<g>
</g>
<g>
</g>
<g>
</g>
<g>
</g>
<g>
</g>
<g>
</g>
<g>
</g>
<g>
</g>
</svg>
