<?xml version="1.0" encoding="iso-8859-1"?>
<!-- Generator: Adobe Illustrator 19.0.0, SVG Export Plug-In . SVG Version: 6.00 Build 0)  -->
<svg version="1.1" id="Capa_1" xmlns="http://www.w3.org/2000/svg" xmlns:xlink="http://www.w3.org/1999/xlink" x="0px" y="0px"
	 viewBox="0 0 480.196 480.196" style="enable-background:new 0 0 480.196 480.196;" xml:space="preserve">
<linearGradient id="SVGID_1_" gradientUnits="userSpaceOnUse" x1="-42.7769" y1="558.5231" x2="-42.7769" y2="616.2982" gradientTransform="matrix(8 0 0 -8 454.313 4941.8833)">
	<stop  offset="0" style="stop-color:#006DF0"/>
	<stop  offset="1" style="stop-color:#00E7F0"/>
</linearGradient>
<path style="fill:url(#SVGID_1_);" d="M104.098,440.098h16v16h-16V440.098z"/>
<g>
	
		<linearGradient id="SVGID_2_" gradientUnits="userSpaceOnUse" x1="-38.7769" y1="558.5231" x2="-38.7769" y2="616.2982" gradientTransform="matrix(8 0 0 -8 454.313 4941.8833)">
		<stop  offset="0" style="stop-color:#006DF0"/>
		<stop  offset="1" style="stop-color:#00E7F0"/>
	</linearGradient>
	<path style="fill:url(#SVGID_2_);" d="M136.098,440.098h16v16h-16V440.098z"/>
	
		<linearGradient id="SVGID_3_" gradientUnits="userSpaceOnUse" x1="-34.7769" y1="558.5231" x2="-34.7769" y2="616.2982" gradientTransform="matrix(8 0 0 -8 454.313 4941.8833)">
		<stop  offset="0" style="stop-color:#006DF0"/>
		<stop  offset="1" style="stop-color:#00E7F0"/>
	</linearGradient>
	<path style="fill:url(#SVGID_3_);" d="M168.098,440.098h16v16h-16V440.098z"/>
	
		<linearGradient id="SVGID_4_" gradientUnits="userSpaceOnUse" x1="-30.7769" y1="558.5231" x2="-30.7769" y2="616.2982" gradientTransform="matrix(8 0 0 -8 454.313 4941.8833)">
		<stop  offset="0" style="stop-color:#006DF0"/>
		<stop  offset="1" style="stop-color:#00E7F0"/>
	</linearGradient>
	<path style="fill:url(#SVGID_4_);" d="M200.098,440.098h16v16h-16V440.098z"/>
	
		<linearGradient id="SVGID_5_" gradientUnits="userSpaceOnUse" x1="-26.7769" y1="558.5231" x2="-26.7769" y2="616.2982" gradientTransform="matrix(8 0 0 -8 454.313 4941.8833)">
		<stop  offset="0" style="stop-color:#006DF0"/>
		<stop  offset="1" style="stop-color:#00E7F0"/>
	</linearGradient>
	<path style="fill:url(#SVGID_5_);" d="M232.098,440.098h16v16h-16V440.098z"/>
	
		<linearGradient id="SVGID_6_" gradientUnits="userSpaceOnUse" x1="-22.7769" y1="558.5231" x2="-22.7769" y2="616.2982" gradientTransform="matrix(8 0 0 -8 454.313 4941.8833)">
		<stop  offset="0" style="stop-color:#006DF0"/>
		<stop  offset="1" style="stop-color:#00E7F0"/>
	</linearGradient>
	<path style="fill:url(#SVGID_6_);" d="M264.098,440.098h16v16h-16V440.098z"/>
	
		<linearGradient id="SVGID_7_" gradientUnits="userSpaceOnUse" x1="-18.7769" y1="558.5231" x2="-18.7769" y2="616.2982" gradientTransform="matrix(8 0 0 -8 454.313 4941.8833)">
		<stop  offset="0" style="stop-color:#006DF0"/>
		<stop  offset="1" style="stop-color:#00E7F0"/>
	</linearGradient>
	<path style="fill:url(#SVGID_7_);" d="M296.098,440.098h16v16h-16V440.098z"/>
	
		<linearGradient id="SVGID_8_" gradientUnits="userSpaceOnUse" x1="-14.7769" y1="558.5231" x2="-14.7769" y2="616.2982" gradientTransform="matrix(8 0 0 -8 454.313 4941.8833)">
		<stop  offset="0" style="stop-color:#006DF0"/>
		<stop  offset="1" style="stop-color:#00E7F0"/>
	</linearGradient>
	<path style="fill:url(#SVGID_8_);" d="M328.098,440.098h16v16h-16V440.098z"/>
	
		<linearGradient id="SVGID_9_" gradientUnits="userSpaceOnUse" x1="-10.7769" y1="558.5231" x2="-10.7769" y2="616.2982" gradientTransform="matrix(8 0 0 -8 454.313 4941.8833)">
		<stop  offset="0" style="stop-color:#006DF0"/>
		<stop  offset="1" style="stop-color:#00E7F0"/>
	</linearGradient>
	<path style="fill:url(#SVGID_9_);" d="M360.098,440.098h16v16h-16V440.098z"/>
	
		<linearGradient id="SVGID_10_" gradientUnits="userSpaceOnUse" x1="-6.7769" y1="558.5231" x2="-6.7769" y2="616.2982" gradientTransform="matrix(8 0 0 -8 454.313 4941.8833)">
		<stop  offset="0" style="stop-color:#006DF0"/>
		<stop  offset="1" style="stop-color:#00E7F0"/>
	</linearGradient>
	<path style="fill:url(#SVGID_10_);" d="M392.098,440.098h16v16h-16V440.098z"/>
	
		<linearGradient id="SVGID_11_" gradientUnits="userSpaceOnUse" x1="-29.7769" y1="558.5231" x2="-29.7769" y2="616.2982" gradientTransform="matrix(8 0 0 -8 454.313 4941.8833)">
		<stop  offset="0" style="stop-color:#006DF0"/>
		<stop  offset="1" style="stop-color:#00E7F0"/>
	</linearGradient>
	<path style="fill:url(#SVGID_11_);" d="M184.098,120.098h64c13.255,0,24-10.745,24-24s-10.745-24-24-24h-64
		c-13.255,0-24,10.745-24,24S170.843,120.098,184.098,120.098z M184.098,88.098h64c4.418,0,8,3.582,8,8s-3.582,8-8,8h-64
		c-4.418,0-8-3.582-8-8S179.68,88.098,184.098,88.098z"/>
	
		<linearGradient id="SVGID_12_" gradientUnits="userSpaceOnUse" x1="-24.7769" y1="558.5231" x2="-24.7769" y2="616.2982" gradientTransform="matrix(8 0 0 -8 454.313 4941.8833)">
		<stop  offset="0" style="stop-color:#006DF0"/>
		<stop  offset="1" style="stop-color:#00E7F0"/>
	</linearGradient>
	<path style="fill:url(#SVGID_12_);" d="M200.098,320.098c0,13.255,10.745,24,24,24h64c13.255,0,24-10.745,24-24s-10.745-24-24-24
		h-64C210.843,296.098,200.098,306.843,200.098,320.098z M224.098,312.098h64c4.418,0,8,3.582,8,8s-3.582,8-8,8h-64
		c-4.418,0-8-3.582-8-8S219.68,312.098,224.098,312.098z"/>
	
		<linearGradient id="SVGID_13_" gradientUnits="userSpaceOnUse" x1="-26.7769" y1="558.5231" x2="-26.7769" y2="616.2982" gradientTransform="matrix(8 0 0 -8 454.313 4941.8833)">
		<stop  offset="0" style="stop-color:#006DF0"/>
		<stop  offset="1" style="stop-color:#00E7F0"/>
	</linearGradient>
	<path style="fill:url(#SVGID_13_);" d="M477.754,13.754c3.178-3.07,3.266-8.134,0.196-11.312s-8.134-3.266-11.312-0.196
		c-0.067,0.064-0.132,0.13-0.196,0.196l-74.344,74.344V64.098h8c4.418,0,8-3.582,8-8v-48c0-4.418-3.582-8-8-8h-368
		c-4.418,0-8,3.582-8,8v48c0,4.418,3.582,8,8,8h8v168c0,4.418,3.582,8,8,8h8v40c0,4.418,3.582,8,8,8h8v108.688L2.442,466.442
		c-3.178,3.07-3.266,8.134-0.196,11.312s8.134,3.266,11.312,0.196c0.067-0.064,0.132-0.13,0.196-0.196l58.344-58.344v52.688
		c0,4.418,3.582,8,8,8h352c4.418,0,8-3.582,8-8v-184h8c4.418,0,8-3.582,8-8v-48c0-4.418-3.582-8-8-8h-56V99.41L477.754,13.754z
		 M40.098,16.098h352v32h-352V16.098z M376.098,64.098v28.688L244.786,224.098H56.098v-160H376.098z M228.786,240.098l-32,32H72.098
		v-32H228.786z M88.098,288.098h92.688l-92.688,92.688V288.098z M424.098,464.098h-336V403.41L203.41,288.098h220.688V464.098z
		 M440.098,272.098H219.41l32-32h188.688V272.098z M376.098,224.098H267.41L376.098,115.41V224.098z"/>
</g>
<g>
</g>
<g>
</g>
<g>
</g>
<g>
</g>
<g>
</g>
<g>
</g>
<g>
</g>
<g>
</g>
<g>
</g>
<g>
</g>
<g>
</g>
<g>
</g>
<g>
</g>
<g>
</g>
<g>
</g>
</svg>
