<?xml version="1.0" encoding="iso-8859-1"?>
<!-- Generator: Adobe Illustrator 19.0.0, SVG Export Plug-In . SVG Version: 6.00 Build 0)  -->
<svg version="1.1" id="Capa_1" xmlns="http://www.w3.org/2000/svg" xmlns:xlink="http://www.w3.org/1999/xlink" x="0px" y="0px"
	 viewBox="0 0 480.302 480.302" style="enable-background:new 0 0 480.302 480.302;" xml:space="preserve">
<g>
	
		<linearGradient id="SVGID_1_" gradientUnits="userSpaceOnUse" x1="-49.5725" y1="560.0128" x2="-49.5725" y2="620.3038" gradientTransform="matrix(8 0 0 -8 452.8829 4941.6455)">
		<stop  offset="0" style="stop-color:#006DF0"/>
		<stop  offset="1" style="stop-color:#00E7F0"/>
	</linearGradient>
	<path style="fill:url(#SVGID_1_);" d="M78.926,401.448c-12.499-12.495-32.76-12.492-45.255,0.007s-12.492,32.76,0.007,45.255
		c12.499,12.495,32.76,12.492,45.255-0.007c6.001-6.003,9.371-14.143,9.369-22.631C88.323,415.581,84.947,407.435,78.926,401.448z
		 M67.614,435.384c-6.329,6.047-16.295,6.047-22.624,0c-6.249-6.247-6.251-16.378-0.003-22.627s16.378-6.251,22.627-0.003
		s6.251,16.378,0.003,22.627C67.617,435.381,67.616,435.383,67.614,435.384z"/>
	
		<linearGradient id="SVGID_2_" gradientUnits="userSpaceOnUse" x1="-49.5725" y1="560.0128" x2="-49.5725" y2="620.3038" gradientTransform="matrix(8 0 0 -8 452.8829 4941.6455)">
		<stop  offset="0" style="stop-color:#006DF0"/>
		<stop  offset="1" style="stop-color:#00E7F0"/>
	</linearGradient>
	<path style="fill:url(#SVGID_2_);" d="M78.926,273.448c-12.499-12.495-32.76-12.492-45.255,0.007s-12.492,32.76,0.007,45.255
		c12.499,12.495,32.76,12.492,45.255-0.007c6.001-6.003,9.371-14.143,9.369-22.631C88.323,287.581,84.947,279.435,78.926,273.448z
		 M67.614,307.384c-6.329,6.047-16.295,6.047-22.624,0c-6.249-6.247-6.251-16.378-0.003-22.627s16.378-6.251,22.627-0.003
		s6.251,16.378,0.003,22.627C67.617,307.381,67.616,307.383,67.614,307.384z"/>
</g>
<g>
	
		<linearGradient id="SVGID_3_" gradientUnits="userSpaceOnUse" x1="-40.22" y1="560.0128" x2="-40.22" y2="620.3038" gradientTransform="matrix(8 0 0 -8 452.8829 4941.6455)">
		<stop  offset="0" style="stop-color:#006DF0"/>
		<stop  offset="1" style="stop-color:#00E7F0"/>
	</linearGradient>
	<path style="fill:url(#SVGID_3_);" d="M262.246,251.992h-19.304c-31.108-0.087-60.951,12.305-82.848,34.4l-39.792,39.752
		l-11.28-11.304c10.444-29.196-4.756-61.33-33.952-71.774c-29.196-10.444-61.33,4.756-71.774,33.952
		c-10.444,29.196,4.756,61.33,33.952,71.774c12.228,4.374,25.594,4.374,37.822,0l11.288,11.28l-11.4,11.392
		c-29.134-10.38-61.167,4.822-71.547,33.956s4.822,61.167,33.956,71.547c29.134,10.38,61.167-4.822,71.547-33.956
		c4.333-12.16,4.331-25.444-0.004-37.603l11.392-11.392l39.776,39.704c21.902,22.099,51.751,34.49,82.864,34.4h19.304
		L154.238,360.072L262.246,251.992z M171.406,297.72c13.643-13.774,30.985-23.299,49.928-27.424L101.142,390.56
		c-3.227-4.276-7.04-8.076-11.328-11.288L171.406,297.72z M28.022,324.36c-15.623-15.619-15.626-40.946-0.007-56.569
		s40.946-15.626,56.569-0.007s15.626,40.946,0.007,56.569c-7.502,7.504-17.678,11.72-28.289,11.719
		C45.691,336.096,35.509,331.88,28.022,324.36z M89.79,340.872c4.338-3.157,8.155-6.974,11.312-11.312l7.888,7.888l-11.328,11.328
		L89.79,340.872z M84.582,452.304c-15.568,15.673-40.895,15.758-56.568,0.19s-15.758-40.895-0.19-56.568
		c12.012-12.093,30.368-15.245,45.726-7.854c8.251,3.914,14.893,10.562,18.8,18.816v0.088c7.286,15.233,4.173,33.405-7.768,45.344
		V452.304z M221.334,449.832c-18.949-4.131-36.296-13.661-49.944-27.44l-39.776-39.704l11.312-11.328L221.334,449.832z"/>
	
		<linearGradient id="SVGID_4_" gradientUnits="userSpaceOnUse" x1="-33.5726" y1="560.0128" x2="-33.5726" y2="620.3038" gradientTransform="matrix(8 0 0 -8 452.8829 4941.6455)">
		<stop  offset="0" style="stop-color:#006DF0"/>
		<stop  offset="1" style="stop-color:#00E7F0"/>
	</linearGradient>
	<path style="fill:url(#SVGID_4_);" d="M176.302,352.072h16v16h-16V352.072z"/>
	
		<linearGradient id="SVGID_5_" gradientUnits="userSpaceOnUse" x1="-29.5726" y1="560.0128" x2="-29.5726" y2="620.3038" gradientTransform="matrix(8 0 0 -8 452.8829 4941.6455)">
		<stop  offset="0" style="stop-color:#006DF0"/>
		<stop  offset="1" style="stop-color:#00E7F0"/>
	</linearGradient>
	<path style="fill:url(#SVGID_5_);" d="M208.302,352.072h16v16h-16V352.072z"/>
	
		<linearGradient id="SVGID_6_" gradientUnits="userSpaceOnUse" x1="-25.5726" y1="560.0128" x2="-25.5726" y2="620.3038" gradientTransform="matrix(8 0 0 -8 452.8829 4941.6455)">
		<stop  offset="0" style="stop-color:#006DF0"/>
		<stop  offset="1" style="stop-color:#00E7F0"/>
	</linearGradient>
	<path style="fill:url(#SVGID_6_);" d="M240.302,352.072h16v16h-16V352.072z"/>
	
		<linearGradient id="SVGID_7_" gradientUnits="userSpaceOnUse" x1="-21.5726" y1="560.0128" x2="-21.5726" y2="620.3038" gradientTransform="matrix(8 0 0 -8 452.8829 4941.6455)">
		<stop  offset="0" style="stop-color:#006DF0"/>
		<stop  offset="1" style="stop-color:#00E7F0"/>
	</linearGradient>
	<path style="fill:url(#SVGID_7_);" d="M272.302,352.072h16v16h-16V352.072z"/>
	
		<linearGradient id="SVGID_8_" gradientUnits="userSpaceOnUse" x1="-17.5726" y1="560.0128" x2="-17.5726" y2="620.3038" gradientTransform="matrix(8 0 0 -8 452.8829 4941.6455)">
		<stop  offset="0" style="stop-color:#006DF0"/>
		<stop  offset="1" style="stop-color:#00E7F0"/>
	</linearGradient>
	<path style="fill:url(#SVGID_8_);" d="M304.302,352.072h16v16h-16V352.072z"/>
	
		<linearGradient id="SVGID_9_" gradientUnits="userSpaceOnUse" x1="-13.5726" y1="560.0128" x2="-13.5726" y2="620.3038" gradientTransform="matrix(8 0 0 -8 452.8829 4941.6455)">
		<stop  offset="0" style="stop-color:#006DF0"/>
		<stop  offset="1" style="stop-color:#00E7F0"/>
	</linearGradient>
	<path style="fill:url(#SVGID_9_);" d="M336.302,352.072h16v16h-16V352.072z"/>
	
		<linearGradient id="SVGID_10_" gradientUnits="userSpaceOnUse" x1="-9.5726" y1="560.0128" x2="-9.5726" y2="620.3038" gradientTransform="matrix(8 0 0 -8 452.8829 4941.6455)">
		<stop  offset="0" style="stop-color:#006DF0"/>
		<stop  offset="1" style="stop-color:#00E7F0"/>
	</linearGradient>
	<path style="fill:url(#SVGID_10_);" d="M368.302,352.072h16v16h-16V352.072z"/>
	
		<linearGradient id="SVGID_11_" gradientUnits="userSpaceOnUse" x1="-5.5726" y1="560.0128" x2="-5.5726" y2="620.3038" gradientTransform="matrix(8 0 0 -8 452.8829 4941.6455)">
		<stop  offset="0" style="stop-color:#006DF0"/>
		<stop  offset="1" style="stop-color:#00E7F0"/>
	</linearGradient>
	<path style="fill:url(#SVGID_11_);" d="M400.302,352.072h16v16h-16V352.072z"/>
	
		<linearGradient id="SVGID_12_" gradientUnits="userSpaceOnUse" x1="-24.0726" y1="560.0128" x2="-24.0726" y2="620.3038" gradientTransform="matrix(8 0 0 -8 452.8829 4941.6455)">
		<stop  offset="0" style="stop-color:#006DF0"/>
		<stop  offset="1" style="stop-color:#00E7F0"/>
	</linearGradient>
	<path style="fill:url(#SVGID_12_);" d="M472.302,368.072h-32c-4.418,0-8-3.582-8-8s3.582-8,8-8h24v-336h-408v192h16
		c4.418,0,8,3.582,8,8s-3.582,8-8,8h-24c-4.418,0-8-3.582-8-8v-208c0-4.418,3.582-8,8-8h424c4.418,0,8,3.582,8,8v352
		C480.302,364.49,476.721,368.072,472.302,368.072z"/>
	
		<linearGradient id="SVGID_13_" gradientUnits="userSpaceOnUse" x1="-11.5786" y1="560.0128" x2="-11.5786" y2="620.3038" gradientTransform="matrix(8 0 0 -8 452.8829 4941.6455)">
		<stop  offset="0" style="stop-color:#006DF0"/>
		<stop  offset="1" style="stop-color:#00E7F0"/>
	</linearGradient>
	<path style="fill:url(#SVGID_13_);" d="M296.302,192.072c-4.418-0.001-7.999-3.583-7.998-8.002c0-2.121,0.843-4.155,2.342-5.654
		l128-128c3.178-3.069,8.242-2.982,11.312,0.196c2.994,3.1,2.994,8.015,0,11.116l-128,128
		C300.459,191.228,298.424,192.071,296.302,192.072L296.302,192.072z"/>
	
		<linearGradient id="SVGID_14_" gradientUnits="userSpaceOnUse" x1="-6.5726" y1="560.0128" x2="-6.5726" y2="620.3038" gradientTransform="matrix(8 0 0 -8 452.8829 4941.6455)">
		<stop  offset="0" style="stop-color:#006DF0"/>
		<stop  offset="1" style="stop-color:#00E7F0"/>
	</linearGradient>
	<path style="fill:url(#SVGID_14_);" d="M400.302,192.072c-17.673,0-32-14.327-32-32s14.327-32,32-32s32,14.327,32,32
		S417.976,192.072,400.302,192.072z M400.302,144.072c-8.837,0-16,7.163-16,16s7.163,16,16,16s16-7.163,16-16
		S409.139,144.072,400.302,144.072z"/>
	
		<linearGradient id="SVGID_15_" gradientUnits="userSpaceOnUse" x1="-16.5726" y1="560.0128" x2="-16.5726" y2="620.3038" gradientTransform="matrix(8 0 0 -8 452.8829 4941.6455)">
		<stop  offset="0" style="stop-color:#006DF0"/>
		<stop  offset="1" style="stop-color:#00E7F0"/>
	</linearGradient>
	<path style="fill:url(#SVGID_15_);" d="M320.302,112.072c-17.673,0-32-14.327-32-32s14.327-32,32-32s32,14.327,32,32
		S337.976,112.072,320.302,112.072z M320.302,64.072c-8.837,0-16,7.163-16,16s7.163,16,16,16s16-7.163,16-16
		S329.139,64.072,320.302,64.072z"/>
	
		<linearGradient id="SVGID_16_" gradientUnits="userSpaceOnUse" x1="-43.5726" y1="560.0128" x2="-43.5726" y2="620.3038" gradientTransform="matrix(8 0 0 -8 452.8829 4941.6455)">
		<stop  offset="0" style="stop-color:#006DF0"/>
		<stop  offset="1" style="stop-color:#00E7F0"/>
	</linearGradient>
	<path style="fill:url(#SVGID_16_);" d="M96.302,208.072h16v16h-16V208.072z"/>
	
		<linearGradient id="SVGID_17_" gradientUnits="userSpaceOnUse" x1="-39.5726" y1="560.0128" x2="-39.5726" y2="620.3038" gradientTransform="matrix(8 0 0 -8 452.8829 4941.6455)">
		<stop  offset="0" style="stop-color:#006DF0"/>
		<stop  offset="1" style="stop-color:#00E7F0"/>
	</linearGradient>
	<path style="fill:url(#SVGID_17_);" d="M128.302,208.072h16v16h-16V208.072z"/>
	
		<linearGradient id="SVGID_18_" gradientUnits="userSpaceOnUse" x1="-35.5726" y1="560.0128" x2="-35.5726" y2="620.3038" gradientTransform="matrix(8 0 0 -8 452.8829 4941.6455)">
		<stop  offset="0" style="stop-color:#006DF0"/>
		<stop  offset="1" style="stop-color:#00E7F0"/>
	</linearGradient>
	<path style="fill:url(#SVGID_18_);" d="M160.302,208.072h16v16h-16V208.072z"/>
	
		<linearGradient id="SVGID_19_" gradientUnits="userSpaceOnUse" x1="-31.5726" y1="560.0128" x2="-31.5726" y2="620.3038" gradientTransform="matrix(8 0 0 -8 452.8829 4941.6455)">
		<stop  offset="0" style="stop-color:#006DF0"/>
		<stop  offset="1" style="stop-color:#00E7F0"/>
	</linearGradient>
	<path style="fill:url(#SVGID_19_);" d="M192.302,208.072h16v16h-16V208.072z"/>
	
		<linearGradient id="SVGID_20_" gradientUnits="userSpaceOnUse" x1="-27.5726" y1="560.0128" x2="-27.5726" y2="620.3038" gradientTransform="matrix(8 0 0 -8 452.8829 4941.6455)">
		<stop  offset="0" style="stop-color:#006DF0"/>
		<stop  offset="1" style="stop-color:#00E7F0"/>
	</linearGradient>
	<path style="fill:url(#SVGID_20_);" d="M224.302,208.072h16v16h-16V208.072z"/>
	
		<linearGradient id="SVGID_21_" gradientUnits="userSpaceOnUse" x1="-23.5726" y1="560.0128" x2="-23.5726" y2="620.3038" gradientTransform="matrix(8 0 0 -8 452.8829 4941.6455)">
		<stop  offset="0" style="stop-color:#006DF0"/>
		<stop  offset="1" style="stop-color:#00E7F0"/>
	</linearGradient>
	<path style="fill:url(#SVGID_21_);" d="M256.302,208.072h16v16h-16V208.072z"/>
</g>
<g>
</g>
<g>
</g>
<g>
</g>
<g>
</g>
<g>
</g>
<g>
</g>
<g>
</g>
<g>
</g>
<g>
</g>
<g>
</g>
<g>
</g>
<g>
</g>
<g>
</g>
<g>
</g>
<g>
</g>
</svg>
