<?xml version="1.0" encoding="iso-8859-1"?>
<!-- Generator: Adobe Illustrator 19.0.0, SVG Export Plug-In . SVG Version: 6.00 Build 0)  -->
<svg version="1.1" id="Capa_1" xmlns="http://www.w3.org/2000/svg" xmlns:xlink="http://www.w3.org/1999/xlink" x="0px" y="0px"
	 viewBox="0 0 480.01 480.01" style="enable-background:new 0 0 480.01 480.01;" xml:space="preserve">
<linearGradient id="SVGID_1_" gradientUnits="userSpaceOnUse" x1="-33.2413" y1="556.3647" x2="-33.2413" y2="617.5488" gradientTransform="matrix(8 0 0 -8 454.9659 4941.0879)">
	<stop  offset="0" style="stop-color:#006DF0"/>
	<stop  offset="1" style="stop-color:#00E7F0"/>
</linearGradient>
<path style="fill:url(#SVGID_1_);" d="M176.005,200.01c-0.016-9.77,1.974-19.439,5.848-28.408c6.433-14.91,17.707-27.213,32-34.92
	c3.893-2.094,5.35-6.947,3.256-10.84c-2.094-3.893-6.947-5.35-10.84-3.256c-17.452,9.431-31.215,24.47-39.064,42.688
	c-4.758,10.962-7.209,22.786-7.2,34.736c0,4.418,3.582,8,8,8S176.005,204.428,176.005,200.01L176.005,200.01z"/>
<g>
	
		<linearGradient id="SVGID_2_" gradientUnits="userSpaceOnUse" x1="-34.9348" y1="556.3647" x2="-34.9348" y2="617.5488" gradientTransform="matrix(8 0 0 -8 454.9659 4941.0879)">
		<stop  offset="0" style="stop-color:#006DF0"/>
		<stop  offset="1" style="stop-color:#00E7F0"/>
	</linearGradient>
	<path style="fill:url(#SVGID_2_);" d="M179.325,221.61c-1.447-4.174-6.005-6.385-10.179-4.938
		c-4.005,1.389-6.231,5.659-5.077,9.738c2.011,6.348,4.743,12.444,8.144,18.168c2.143,3.864,7.012,5.259,10.876,3.116
		s5.259-7.012,3.116-10.876c-0.074-0.133-0.151-0.263-0.232-0.392C183.197,231.758,180.966,226.787,179.325,221.61L179.325,221.61z"
		/>
	
		<linearGradient id="SVGID_3_" gradientUnits="userSpaceOnUse" x1="-25.8679" y1="556.3647" x2="-25.8679" y2="617.5488" gradientTransform="matrix(8 0 0 -8 454.9659 4941.0879)">
		<stop  offset="0" style="stop-color:#006DF0"/>
		<stop  offset="1" style="stop-color:#00E7F0"/>
	</linearGradient>
	<path style="fill:url(#SVGID_3_);" d="M248.005,208.01c0.216,0,0.4-0.104,0.608-0.12s0.368,0.144,0.576,0.16
		c8.813,0.65,15.43,8.32,14.78,17.133c-0.313,4.241-2.3,8.183-5.524,10.955c-3.199,2.796-7.387,4.191-11.624,3.872
		c-8.813-0.652-15.428-8.324-14.777-17.136c0-0.003,0-0.005,0.001-0.008c0.422-4.398-2.802-8.305-7.2-8.727
		c-4.398-0.422-8.305,2.802-8.727,7.2c-0.011,0.112-0.019,0.223-0.025,0.335c-1.097,15.403,8.961,29.392,23.912,33.256v9.08
		c0,4.418,3.582,8,8,8s8-3.582,8-8v-9.12c17.088-4.371,27.397-21.766,23.026-38.854c-3.403-13.304-14.93-22.943-28.626-23.938
		c-0.419,0.012-0.837,0.06-1.248,0.144c-0.377-0.11-0.762-0.188-1.152-0.232c-8.837,0-16-7.163-16-16s7.163-16,16-16
		c8.837,0,16,7.163,16,16c0,4.418,3.582,8,8,8s8-3.582,8-8c-0.055-14.547-9.915-27.227-24-30.864v-9.136c0-4.418-3.582-8-8-8
		s-8,3.582-8,8v9.136c-17.081,4.396-27.364,21.807-22.968,38.888C220.673,198.16,233.418,208.028,248.005,208.01L248.005,208.01z"/>
	
		<linearGradient id="SVGID_4_" gradientUnits="userSpaceOnUse" x1="-37.8701" y1="556.3647" x2="-37.8701" y2="617.5488" gradientTransform="matrix(8 0 0 -8 454.9659 4941.0879)">
		<stop  offset="0" style="stop-color:#006DF0"/>
		<stop  offset="1" style="stop-color:#00E7F0"/>
	</linearGradient>
	<path style="fill:url(#SVGID_4_);" d="M128.005,96.01c0,4.418,3.582,8,8,8s8-3.582,8-8c0-13.255,10.745-24,24-24
		c4.418,0,8-3.582,8-8s-3.582-8-8-8C145.924,56.036,128.031,73.929,128.005,96.01z"/>
	
		<linearGradient id="SVGID_5_" gradientUnits="userSpaceOnUse" x1="-24.8701" y1="556.3647" x2="-24.8701" y2="617.5488" gradientTransform="matrix(8 0 0 -8 454.9659 4941.0879)">
		<stop  offset="0" style="stop-color:#006DF0"/>
		<stop  offset="1" style="stop-color:#00E7F0"/>
	</linearGradient>
	<path style="fill:url(#SVGID_5_);" d="M240.005,48.01c13.255,0,24,10.745,24,24c0,4.418,3.582,8,8,8s8-3.582,8-8
		c-0.026-22.08-17.92-39.974-40-40c-4.418,0-8,3.582-8,8S235.587,48.01,240.005,48.01z"/>
	
		<linearGradient id="SVGID_6_" gradientUnits="userSpaceOnUse" x1="-26.8701" y1="556.3647" x2="-26.8701" y2="617.5488" gradientTransform="matrix(8 0 0 -8 454.9659 4941.0879)">
		<stop  offset="0" style="stop-color:#006DF0"/>
		<stop  offset="1" style="stop-color:#00E7F0"/>
	</linearGradient>
	<path style="fill:url(#SVGID_6_);" d="M479.861,375.314c0.012-0.205,0.012-0.411,0-0.616l-56-336
		c-0.639-3.846-3.958-6.671-7.856-6.688H299.629C277.804-0.912,233.422-9.908,200.5,11.917c-5.932,3.932-11.243,8.728-15.759,14.229
		c-0.968-0.232-1.888-0.584-2.888-0.8c-15.845-3.007-32.24-0.663-46.608,6.664h-71.24c-3.911,0.002-7.247,2.83-7.888,6.688l-56,336
		c-0.012,0.205-0.012,0.411,0,0.616c-0.05,0.23-0.087,0.462-0.112,0.696v96c0,4.418,3.582,8,8,8l0,0h464c4.418,0,8-3.582,8-8v-96
		C479.969,375.775,479.921,375.543,479.861,375.314z M152.477,158.922c13.797-31.867,42.513-54.806,76.64-61.224l3.752-0.568
		c2.4-0.36,4.8-0.616,7.2-0.8c0.696-0.048,1.4-0.056,2.096-0.096c1.712-0.096,3.416-0.176,5.136-0.192h2.104
		c2.304,0,4.584,0.152,6.856,0.328c0.976,0.08,1.952,0.144,2.928,0.248c2.688,0.288,5.352,0.664,8,1.16
		c0.936,0.176,1.872,0.424,2.808,0.624c1.976,0.432,3.936,0.904,5.888,1.448c0.96,0.272,1.92,0.552,2.88,0.848
		c2.736,0.856,5.456,1.776,8.128,2.872c2.472,0.976,4.936,2.104,7.328,3.2c51.459,25.516,72.49,87.916,46.974,139.375
		s-87.916,72.49-139.375,46.974c-49.495-24.542-71.164-83.5-49.343-134.253L152.477,158.922z M240.005,16.01
		c20.011,0.022,38.489,10.721,48.472,28.064c7.89,13.602,9.671,29.903,4.904,44.888l-0.504-0.2
		c-14.242-5.819-29.487-8.793-44.872-8.752c-3.112,0-6.216,0.136-9.272,0.376h-0.392c0-0.112-0.064-0.224-0.096-0.336
		c-0.184-0.8-0.448-1.6-0.664-2.4c-0.488-1.856-1-3.712-1.6-5.512c-0.344-0.984-0.76-1.92-1.152-2.888
		c-0.632-1.6-1.28-3.128-2.016-4.648c-0.48-0.992-1.008-1.952-1.536-2.92c-0.8-1.424-1.6-2.832-2.464-4.2
		c-0.6-0.944-1.224-1.864-1.872-2.784c-0.928-1.32-1.912-2.6-2.928-3.856c-0.704-0.864-1.4-1.72-2.136-2.552
		c-1.112-1.24-2.28-2.4-3.48-3.584c-0.8-0.736-1.496-1.496-2.288-2.208c-1.36-1.208-2.808-2.336-4.264-3.448
		c-0.728-0.552-1.416-1.144-2.16-1.672c-2.257-1.593-4.602-3.056-7.024-4.384c-0.6-0.328-1.2-0.656-1.808-0.968
		C211.289,21.745,225.356,15.991,240.005,16.01L240.005,16.01z M178.781,41.082c2.197,0.402,4.359,0.98,6.464,1.728
		c5.377,1.798,10.464,4.366,15.104,7.624c0.56,0.392,1.072,0.8,1.6,1.232c1.152,0.872,2.288,1.768,3.368,2.72
		c0.592,0.528,1.152,1.088,1.72,1.6c0.944,0.92,1.872,1.864,2.752,2.84c0.552,0.608,1.08,1.232,1.6,1.872c0.8,1,1.6,2.04,2.4,3.096
		c0.464,0.656,0.936,1.312,1.368,1.992c0.736,1.144,1.408,2.32,2.064,3.512c0.352,0.648,0.728,1.28,1.056,1.936
		c0.744,1.504,1.4,3.048,2.008,4.616c0.144,0.384,0.336,0.752,0.472,1.144c0.674,1.876,1.243,3.788,1.704,5.728
		c-0.96,0.208-1.904,0.496-2.856,0.736c-1.184,0.288-2.4,0.584-3.544,0.912c-1.76,0.488-3.488,1.04-5.224,1.6
		c-1.112,0.368-2.24,0.712-3.344,1.112c-1.848,0.664-3.656,1.416-5.472,2.168c-0.952,0.4-1.912,0.752-2.856,1.176
		c-2.72,1.216-5.4,2.52-8,3.936c-2.824,1.52-5.6,3.2-8.256,4.904c-0.896,0.584-1.736,1.216-2.608,1.816
		c-1.768,1.216-3.52,2.4-5.216,3.736c-0.992,0.8-1.936,1.6-2.904,2.36c-1.504,1.232-3,2.472-4.448,3.784
		c-0.976,0.88-1.92,1.8-2.872,2.712c-1.352,1.304-2.68,2.632-4,4c-0.928,0.976-1.824,1.968-2.712,2.976
		c-1.232,1.4-2.4,2.832-3.608,4.28c-0.8,1.048-1.664,2.096-2.464,3.16c-1.136,1.512-2.216,3.064-3.28,4.624
		c-0.736,1.08-1.48,2.16-2.176,3.264c-1.064,1.672-2.048,3.4-3.024,5.128c-0.6,1.048-1.216,2.08-1.776,3.152
		c-0.168,0.304-0.352,0.6-0.512,0.904c-20.445-11.109-31.891-33.704-28.752-56.76c3.869-27.679,27.5-48.303,55.448-48.392
		C171.624,40,175.235,40.359,178.781,41.082L178.781,41.082z M70.781,48.01h43.552c-0.736,0.8-1.392,1.704-2.088,2.552
		c-0.424,0.52-0.864,1.024-1.272,1.56c-1.706,2.198-3.279,4.495-4.712,6.88c-0.272,0.448-0.496,0.904-0.752,1.352
		c-1.168,2.064-2.235,4.179-3.2,6.344c-0.296,0.656-0.592,1.312-0.872,1.976c-1.076,2.595-2,5.25-2.768,7.952
		c-0.088,0.328-0.144,0.664-0.232,0.992c-0.643,2.459-1.153,4.95-1.528,7.464c-0.12,0.752-0.224,1.496-0.32,2.248
		c-3.863,29.89,11.572,58.961,38.496,72.504c-22.167,62.41,10.456,130.974,72.866,153.141
		c62.41,22.167,130.974-10.456,153.141-72.866c19.388-54.585-3.013-115.227-53.231-144.099c2.762-7.699,4.165-15.82,4.144-24
		c-0.019-2.822-0.203-5.64-0.552-8.44c-0.08-0.672-0.16-1.328-0.256-1.992c-0.38-2.716-0.914-5.409-1.6-8.064
		c-0.096-0.36-0.232-0.712-0.328-1.08c-0.424-1.488-0.848-2.968-1.368-4.424h101.328l53.328,320H320.005
		c-3.047-0.017-5.838,1.699-7.2,4.424l-13.744,27.576H180.949l-13.744-27.576c-1.362-2.725-4.153-4.441-7.2-4.424H17.453
		L70.781,48.01z M464.005,464.01h-448v-80h139.056l13.784,27.576c1.355,2.712,4.128,4.425,7.16,4.424h128
		c3.047,0.017,5.838-1.699,7.2-4.424l13.744-27.576h139.056V464.01z"/>
	
		<linearGradient id="SVGID_7_" gradientUnits="userSpaceOnUse" x1="-52.8701" y1="556.3647" x2="-52.8701" y2="617.5488" gradientTransform="matrix(8 0 0 -8 454.9659 4941.0879)">
		<stop  offset="0" style="stop-color:#006DF0"/>
		<stop  offset="1" style="stop-color:#00E7F0"/>
	</linearGradient>
	<path style="fill:url(#SVGID_7_);" d="M24.005,440.01h16v16h-16V440.01z"/>
	
		<linearGradient id="SVGID_8_" gradientUnits="userSpaceOnUse" x1="-48.8701" y1="556.3647" x2="-48.8701" y2="617.5488" gradientTransform="matrix(8 0 0 -8 454.9659 4941.0879)">
		<stop  offset="0" style="stop-color:#006DF0"/>
		<stop  offset="1" style="stop-color:#00E7F0"/>
	</linearGradient>
	<path style="fill:url(#SVGID_8_);" d="M56.005,440.01h16v16h-16V440.01z"/>
	
		<linearGradient id="SVGID_9_" gradientUnits="userSpaceOnUse" x1="-44.8701" y1="556.3647" x2="-44.8701" y2="617.5488" gradientTransform="matrix(8 0 0 -8 454.9659 4941.0879)">
		<stop  offset="0" style="stop-color:#006DF0"/>
		<stop  offset="1" style="stop-color:#00E7F0"/>
	</linearGradient>
	<path style="fill:url(#SVGID_9_);" d="M88.005,440.01h16v16h-16V440.01z"/>
</g>
<linearGradient id="SVGCleanerId_0_2_" gradientUnits="userSpaceOnUse" x1="-40.8701" y1="556.3647" x2="-40.8701" y2="617.5488" gradientTransform="matrix(8 0 0 -8 454.9659 4941.0879)">
	<stop  offset="0" style="stop-color:#006DF0"/>
	<stop  offset="1" style="stop-color:#00E7F0"/>
</linearGradient>
<path id="SVGCleanerId_0" style="fill:url(#SVGCleanerId_0_2_);" d="M120.005,440.01h16v16h-16V440.01z"/>
<g>
	
		<linearGradient id="SVGCleanerId_0_3_" gradientUnits="userSpaceOnUse" x1="-40.8701" y1="556.3647" x2="-40.8701" y2="617.5488" gradientTransform="matrix(8 0 0 -8 454.9659 4941.0879)">
		<stop  offset="0" style="stop-color:#006DF0"/>
		<stop  offset="1" style="stop-color:#00E7F0"/>
	</linearGradient>
	<path id="SVGCleanerId_0_1_" style="fill:url(#SVGCleanerId_0_3_);" d="M120.005,440.01h16v16h-16V440.01z"/>
</g>
<g>
	
		<linearGradient id="SVGID_10_" gradientUnits="userSpaceOnUse" x1="-36.8701" y1="556.3647" x2="-36.8701" y2="617.5488" gradientTransform="matrix(8 0 0 -8 454.9659 4941.0879)">
		<stop  offset="0" style="stop-color:#006DF0"/>
		<stop  offset="1" style="stop-color:#00E7F0"/>
	</linearGradient>
	<path style="fill:url(#SVGID_10_);" d="M152.005,440.01h16v16h-16V440.01z"/>
	
		<linearGradient id="SVGID_11_" gradientUnits="userSpaceOnUse" x1="-32.8701" y1="556.3647" x2="-32.8701" y2="617.5488" gradientTransform="matrix(8 0 0 -8 454.9659 4941.0879)">
		<stop  offset="0" style="stop-color:#006DF0"/>
		<stop  offset="1" style="stop-color:#00E7F0"/>
	</linearGradient>
	<path style="fill:url(#SVGID_11_);" d="M184.005,440.01h16v16h-16V440.01z"/>
	
		<linearGradient id="SVGID_12_" gradientUnits="userSpaceOnUse" x1="-28.8701" y1="556.3647" x2="-28.8701" y2="617.5488" gradientTransform="matrix(8 0 0 -8 454.9659 4941.0879)">
		<stop  offset="0" style="stop-color:#006DF0"/>
		<stop  offset="1" style="stop-color:#00E7F0"/>
	</linearGradient>
	<path style="fill:url(#SVGID_12_);" d="M216.005,440.01h16v16h-16V440.01z"/>
	
		<linearGradient id="SVGID_13_" gradientUnits="userSpaceOnUse" x1="-24.8701" y1="556.3647" x2="-24.8701" y2="617.5488" gradientTransform="matrix(8 0 0 -8 454.9659 4941.0879)">
		<stop  offset="0" style="stop-color:#006DF0"/>
		<stop  offset="1" style="stop-color:#00E7F0"/>
	</linearGradient>
	<path style="fill:url(#SVGID_13_);" d="M248.005,440.01h16v16h-16V440.01z"/>
	
		<linearGradient id="SVGID_14_" gradientUnits="userSpaceOnUse" x1="-20.8701" y1="556.3647" x2="-20.8701" y2="617.5488" gradientTransform="matrix(8 0 0 -8 454.9659 4941.0879)">
		<stop  offset="0" style="stop-color:#006DF0"/>
		<stop  offset="1" style="stop-color:#00E7F0"/>
	</linearGradient>
	<path style="fill:url(#SVGID_14_);" d="M280.005,440.01h16v16h-16V440.01z"/>
	
		<linearGradient id="SVGID_15_" gradientUnits="userSpaceOnUse" x1="-16.8701" y1="556.3647" x2="-16.8701" y2="617.5488" gradientTransform="matrix(8 0 0 -8 454.9659 4941.0879)">
		<stop  offset="0" style="stop-color:#006DF0"/>
		<stop  offset="1" style="stop-color:#00E7F0"/>
	</linearGradient>
	<path style="fill:url(#SVGID_15_);" d="M312.005,440.01h16v16h-16V440.01z"/>
	
		<linearGradient id="SVGID_16_" gradientUnits="userSpaceOnUse" x1="-12.8701" y1="556.3647" x2="-12.8701" y2="617.5488" gradientTransform="matrix(8 0 0 -8 454.9659 4941.0879)">
		<stop  offset="0" style="stop-color:#006DF0"/>
		<stop  offset="1" style="stop-color:#00E7F0"/>
	</linearGradient>
	<path style="fill:url(#SVGID_16_);" d="M344.005,440.01h16v16h-16V440.01z"/>
	
		<linearGradient id="SVGID_17_" gradientUnits="userSpaceOnUse" x1="-8.8701" y1="556.3647" x2="-8.8701" y2="617.5488" gradientTransform="matrix(8 0 0 -8 454.9659 4941.0879)">
		<stop  offset="0" style="stop-color:#006DF0"/>
		<stop  offset="1" style="stop-color:#00E7F0"/>
	</linearGradient>
	<path style="fill:url(#SVGID_17_);" d="M376.005,440.01h16v16h-16V440.01z"/>
	
		<linearGradient id="SVGID_18_" gradientUnits="userSpaceOnUse" x1="-4.8701" y1="556.3647" x2="-4.8701" y2="617.5488" gradientTransform="matrix(8 0 0 -8 454.9659 4941.0879)">
		<stop  offset="0" style="stop-color:#006DF0"/>
		<stop  offset="1" style="stop-color:#00E7F0"/>
	</linearGradient>
	<path style="fill:url(#SVGID_18_);" d="M408.005,440.01h16v16h-16V440.01z"/>
	
		<linearGradient id="SVGID_19_" gradientUnits="userSpaceOnUse" x1="-0.8701" y1="556.3647" x2="-0.8701" y2="617.5488" gradientTransform="matrix(8 0 0 -8 454.9659 4941.0879)">
		<stop  offset="0" style="stop-color:#006DF0"/>
		<stop  offset="1" style="stop-color:#00E7F0"/>
	</linearGradient>
	<path style="fill:url(#SVGID_19_);" d="M440.005,440.01h16v16h-16V440.01z"/>
</g>
<g>
</g>
<g>
</g>
<g>
</g>
<g>
</g>
<g>
</g>
<g>
</g>
<g>
</g>
<g>
</g>
<g>
</g>
<g>
</g>
<g>
</g>
<g>
</g>
<g>
</g>
<g>
</g>
<g>
</g>
</svg>
