<?xml version="1.0" encoding="iso-8859-1"?>
<!-- Generator: Adobe Illustrator 19.0.0, SVG Export Plug-In . SVG Version: 6.00 Build 0)  -->
<svg version="1.1" id="Capa_1" xmlns="http://www.w3.org/2000/svg" xmlns:xlink="http://www.w3.org/1999/xlink" x="0px" y="0px"
	 viewBox="0 0 480 480" style="enable-background:new 0 0 480 480;" xml:space="preserve">
<g>
	
		<linearGradient id="SVGID_1_" gradientUnits="userSpaceOnUse" x1="-26.875" y1="566.395" x2="-26.875" y2="615.129" gradientTransform="matrix(8 0 0 -8 455 4941)">
		<stop  offset="0" style="stop-color:#006DF0"/>
		<stop  offset="1" style="stop-color:#00E7F0"/>
	</linearGradient>
	<path style="fill:url(#SVGID_1_);" d="M456,408H24c-13.255,0-24-10.745-24-24V96c0-13.255,10.745-24,24-24h432
		c13.255,0,24,10.745,24,24v288C480,397.255,469.255,408,456,408z M24,88c-4.418,0-8,3.582-8,8v288c0,4.418,3.582,8,8,8h432
		c4.418,0,8-3.582,8-8V96c0-4.418-3.582-8-8-8H24z"/>
	
		<linearGradient id="SVGID_2_" gradientUnits="userSpaceOnUse" x1="-26.875" y1="566.395" x2="-26.875" y2="615.129" gradientTransform="matrix(8 0 0 -8 455 4941)">
		<stop  offset="0" style="stop-color:#006DF0"/>
		<stop  offset="1" style="stop-color:#00E7F0"/>
	</linearGradient>
	<path style="fill:url(#SVGID_2_);" d="M216,168h48v16h-48V168z"/>
</g>
<g>
	
		<linearGradient id="SVGID_3_" gradientUnits="userSpaceOnUse" x1="-14.875" y1="566.395" x2="-14.875" y2="615.129" gradientTransform="matrix(8 0 0 -8 455 4941)">
		<stop  offset="0" style="stop-color:#006DF0"/>
		<stop  offset="1" style="stop-color:#00E7F0"/>
	</linearGradient>
	<path style="fill:url(#SVGID_3_);" d="M280,168h112v16H280V168z"/>
	
		<linearGradient id="SVGID_4_" gradientUnits="userSpaceOnUse" x1="-23.875" y1="566.395" x2="-23.875" y2="615.129" gradientTransform="matrix(8 0 0 -8 455 4941)">
		<stop  offset="0" style="stop-color:#006DF0"/>
		<stop  offset="1" style="stop-color:#00E7F0"/>
	</linearGradient>
	<path style="fill:url(#SVGID_4_);" d="M216,136h96v16h-96V136z"/>
	
		<linearGradient id="SVGID_5_" gradientUnits="userSpaceOnUse" x1="-8.875" y1="566.395" x2="-8.875" y2="615.129" gradientTransform="matrix(8 0 0 -8 455 4941)">
		<stop  offset="0" style="stop-color:#006DF0"/>
		<stop  offset="1" style="stop-color:#00E7F0"/>
	</linearGradient>
	<path style="fill:url(#SVGID_5_);" d="M336,136h96v16h-96V136z"/>
	
		<linearGradient id="SVGID_6_" gradientUnits="userSpaceOnUse" x1="-4.375" y1="566.395" x2="-4.375" y2="615.129" gradientTransform="matrix(8 0 0 -8 455 4941)">
		<stop  offset="0" style="stop-color:#006DF0"/>
		<stop  offset="1" style="stop-color:#00E7F0"/>
	</linearGradient>
	<path style="fill:url(#SVGID_6_);" d="M408,168h24v16h-24V168z"/>
	
		<linearGradient id="SVGID_7_" gradientUnits="userSpaceOnUse" x1="-39.875" y1="566.395" x2="-39.875" y2="615.129" gradientTransform="matrix(8 0 0 -8 455 4941)">
		<stop  offset="0" style="stop-color:#006DF0"/>
		<stop  offset="1" style="stop-color:#00E7F0"/>
	</linearGradient>
	<path style="fill:url(#SVGID_7_);" d="M168,200h-64c-4.418,0-8-3.582-8-8v-64c0-4.418,3.582-8,8-8h64c4.418,0,8,3.582,8,8v64
		C176,196.418,172.418,200,168,200z M112,184h48v-48h-48V184z"/>
	
		<linearGradient id="SVGID_8_" gradientUnits="userSpaceOnUse" x1="-49.875" y1="566.395" x2="-49.875" y2="615.129" gradientTransform="matrix(8 0 0 -8 455 4941)">
		<stop  offset="0" style="stop-color:#006DF0"/>
		<stop  offset="1" style="stop-color:#00E7F0"/>
	</linearGradient>
	<path style="fill:url(#SVGID_8_);" d="M72,200c-2.122,0-4.156-0.844-5.656-2.344l-32-32c-3.123-3.124-3.123-8.188,0-11.312l32-32
		c3.178-3.069,8.243-2.981,11.312,0.197c2.994,3.1,2.994,8.015,0,11.115L51.312,160l26.344,26.344
		c3.124,3.125,3.123,8.19-0.002,11.314C76.155,199.157,74.121,200,72,200z"/>
	
		<linearGradient id="SVGID_9_" gradientUnits="userSpaceOnUse" x1="-45.875" y1="566.395" x2="-45.875" y2="615.129" gradientTransform="matrix(8 0 0 -8 455 4941)">
		<stop  offset="0" style="stop-color:#006DF0"/>
		<stop  offset="1" style="stop-color:#00E7F0"/>
	</linearGradient>
	<path style="fill:url(#SVGID_9_);" d="M120,360H56c-4.418,0-8-3.582-8-8v-32c0-4.418,3.582-8,8-8h64c4.418,0,8,3.582,8,8v32
		C128,356.418,124.418,360,120,360z M64,344h48v-16H64V344z"/>
	
		<linearGradient id="SVGID_10_" gradientUnits="userSpaceOnUse" x1="-33.875" y1="566.395" x2="-33.875" y2="615.129" gradientTransform="matrix(8 0 0 -8 455 4941)">
		<stop  offset="0" style="stop-color:#006DF0"/>
		<stop  offset="1" style="stop-color:#00E7F0"/>
	</linearGradient>
	<path style="fill:url(#SVGID_10_);" d="M216,360h-64c-4.418,0-8-3.582-8-8v-32c0-4.418,3.582-8,8-8h64c4.418,0,8,3.582,8,8v32
		C224,356.418,220.418,360,216,360z M160,344h48v-16h-48V344z"/>
	
		<linearGradient id="SVGID_11_" gradientUnits="userSpaceOnUse" x1="-21.875" y1="566.395" x2="-21.875" y2="615.129" gradientTransform="matrix(8 0 0 -8 455 4941)">
		<stop  offset="0" style="stop-color:#006DF0"/>
		<stop  offset="1" style="stop-color:#00E7F0"/>
	</linearGradient>
	<path style="fill:url(#SVGID_11_);" d="M312,360h-64c-4.418,0-8-3.582-8-8v-32c0-4.418,3.582-8,8-8h64c4.418,0,8,3.582,8,8v32
		C320,356.418,316.418,360,312,360z M256,344h48v-16h-48V344z"/>
	
		<linearGradient id="SVGID_12_" gradientUnits="userSpaceOnUse" x1="-9.875" y1="566.395" x2="-9.875" y2="615.129" gradientTransform="matrix(8 0 0 -8 455 4941)">
		<stop  offset="0" style="stop-color:#006DF0"/>
		<stop  offset="1" style="stop-color:#00E7F0"/>
	</linearGradient>
	<path style="fill:url(#SVGID_12_);" d="M408,360h-64c-4.418,0-8-3.582-8-8v-32c0-4.418,3.582-8,8-8h64c4.418,0,8,3.582,8,8v32
		C416,356.418,412.418,360,408,360z M352,344h48v-16h-48V344z"/>
</g>
<g>
</g>
<g>
</g>
<g>
</g>
<g>
</g>
<g>
</g>
<g>
</g>
<g>
</g>
<g>
</g>
<g>
</g>
<g>
</g>
<g>
</g>
<g>
</g>
<g>
</g>
<g>
</g>
<g>
</g>
</svg>
