<?xml version="1.0" encoding="iso-8859-1"?>
<!-- Generator: Adobe Illustrator 19.0.0, SVG Export Plug-In . SVG Version: 6.00 Build 0)  -->
<svg version="1.1" id="Capa_1" xmlns="http://www.w3.org/2000/svg" xmlns:xlink="http://www.w3.org/1999/xlink" x="0px" y="0px"
	 viewBox="0 0 480.302 480.302" style="enable-background:new 0 0 480.302 480.302;" xml:space="preserve">
<g>
	
		<linearGradient id="SVGID_1_" gradientUnits="userSpaceOnUse" x1="-49.5726" y1="567.7762" x2="-49.5726" y2="621.9392" gradientTransform="matrix(8 0 0 -8 452.8829 4978.3608)">
		<stop  offset="0" style="stop-color:#006DF0"/>
		<stop  offset="1" style="stop-color:#00E7F0"/>
	</linearGradient>
	<path style="fill:url(#SVGID_1_);" d="M33.678,309.527c-12.499,12.495-12.502,32.756-0.007,45.255
		c12.495,12.499,32.756,12.502,45.255,0.007c12.499-12.495,12.502-32.756,0.007-45.255c-0.002-0.002-0.005-0.005-0.007-0.007
		C66.269,297.43,46.335,297.43,33.678,309.527z M67.614,343.463c-6.329,6.047-16.295,6.047-22.624,0
		c-6.249-6.247-6.251-16.378-0.003-22.627s16.378-6.251,22.627-0.003s6.251,16.378,0.003,22.627
		C67.617,343.461,67.616,343.462,67.614,343.463z"/>
	
		<linearGradient id="SVGID_2_" gradientUnits="userSpaceOnUse" x1="-49.5726" y1="567.7762" x2="-49.5726" y2="621.9392" gradientTransform="matrix(8 0 0 -8 452.8829 4978.3608)">
		<stop  offset="0" style="stop-color:#006DF0"/>
		<stop  offset="1" style="stop-color:#00E7F0"/>
	</linearGradient>
	<path style="fill:url(#SVGID_2_);" d="M78.926,181.527c-12.657-12.097-32.591-12.097-45.248,0
		c-12.499,12.495-12.502,32.756-0.007,45.255c12.495,12.499,32.756,12.502,45.255,0.007c12.499-12.495,12.502-32.756,0.007-45.255
		C78.931,181.532,78.929,181.53,78.926,181.527z M67.614,215.463c-6.329,6.047-16.295,6.047-22.624,0
		c-6.249-6.247-6.251-16.378-0.003-22.627c6.247-6.249,16.378-6.251,22.627-0.003c6.249,6.247,6.251,16.378,0.003,22.627
		C67.617,215.461,67.616,215.462,67.614,215.463z"/>
</g>
<g>
	
		<linearGradient id="SVGID_3_" gradientUnits="userSpaceOnUse" x1="-40.22" y1="567.7762" x2="-40.22" y2="621.9392" gradientTransform="matrix(8 0 0 -8 452.8829 4978.3608)">
		<stop  offset="0" style="stop-color:#006DF0"/>
		<stop  offset="1" style="stop-color:#00E7F0"/>
	</linearGradient>
	<path style="fill:url(#SVGID_3_);" d="M262.246,160.071h-19.304c-31.108-0.089-60.952,12.303-82.848,34.4l-39.792,39.752
		l-11.28-11.304c10.444-29.196-4.756-61.33-33.952-71.774c-29.196-10.444-61.33,4.756-71.774,33.952s4.756,61.33,33.952,71.774
		c12.228,4.374,25.594,4.374,37.822,0l11.288,11.28L74.95,279.543c-29.134-10.38-61.167,4.822-71.547,33.956
		s4.822,61.167,33.956,71.547c29.134,10.38,61.167-4.822,71.547-33.956c4.333-12.16,4.331-25.444-0.004-37.603l11.4-11.392
		l39.776,39.704c21.901,22.099,51.751,34.491,82.864,34.4h19.304L154.238,268.151L262.246,160.071z M171.414,205.799
		c13.639-13.776,30.979-23.301,49.92-27.424L101.142,298.639c-3.227-4.276-7.04-8.076-11.328-11.288L171.414,205.799z
		 M28.014,232.431c-15.619-15.623-15.615-40.95,0.009-56.569s40.95-15.615,56.569,0.009s15.615,40.95-0.009,56.569
		c-7.501,7.499-17.674,11.712-28.281,11.711C45.686,244.18,35.5,239.96,28.014,232.431z M89.79,248.951
		c4.338-3.157,8.155-6.974,11.312-11.312l7.888,7.888l-11.328,11.328L89.79,248.951z M84.582,360.383
		c-15.57,15.672-40.896,15.755-56.568,0.185S12.26,319.671,27.83,304c12.014-12.092,30.371-15.243,45.729-7.848
		c8.26,3.923,14.906,10.586,18.808,18.856c7.304,15.249,4.184,33.448-7.784,45.392V360.383z M221.334,357.911
		c-18.948-4.127-36.293-13.658-49.936-27.44l-39.784-39.712l11.312-11.32L221.334,357.911z"/>
	
		<linearGradient id="SVGID_4_" gradientUnits="userSpaceOnUse" x1="-33.5726" y1="567.7762" x2="-33.5726" y2="621.9392" gradientTransform="matrix(8 0 0 -8 452.8829 4978.3608)">
		<stop  offset="0" style="stop-color:#006DF0"/>
		<stop  offset="1" style="stop-color:#00E7F0"/>
	</linearGradient>
	<path style="fill:url(#SVGID_4_);" d="M176.302,260.151h16v16h-16V260.151z"/>
	
		<linearGradient id="SVGID_5_" gradientUnits="userSpaceOnUse" x1="-29.5726" y1="567.7762" x2="-29.5726" y2="621.9392" gradientTransform="matrix(8 0 0 -8 452.8829 4978.3608)">
		<stop  offset="0" style="stop-color:#006DF0"/>
		<stop  offset="1" style="stop-color:#00E7F0"/>
	</linearGradient>
	<path style="fill:url(#SVGID_5_);" d="M208.302,260.151h16v16h-16V260.151z"/>
	
		<linearGradient id="SVGID_6_" gradientUnits="userSpaceOnUse" x1="-25.5726" y1="567.7762" x2="-25.5726" y2="621.9392" gradientTransform="matrix(8 0 0 -8 452.8829 4978.3608)">
		<stop  offset="0" style="stop-color:#006DF0"/>
		<stop  offset="1" style="stop-color:#00E7F0"/>
	</linearGradient>
	<path style="fill:url(#SVGID_6_);" d="M240.302,260.151h16v16h-16V260.151z"/>
	
		<linearGradient id="SVGID_7_" gradientUnits="userSpaceOnUse" x1="-21.5726" y1="567.7762" x2="-21.5726" y2="621.9392" gradientTransform="matrix(8 0 0 -8 452.8829 4978.3608)">
		<stop  offset="0" style="stop-color:#006DF0"/>
		<stop  offset="1" style="stop-color:#00E7F0"/>
	</linearGradient>
	<path style="fill:url(#SVGID_7_);" d="M272.302,260.151h16v16h-16V260.151z"/>
	
		<linearGradient id="SVGID_8_" gradientUnits="userSpaceOnUse" x1="-17.5726" y1="567.7762" x2="-17.5726" y2="621.9392" gradientTransform="matrix(8 0 0 -8 452.8829 4978.3608)">
		<stop  offset="0" style="stop-color:#006DF0"/>
		<stop  offset="1" style="stop-color:#00E7F0"/>
	</linearGradient>
	<path style="fill:url(#SVGID_8_);" d="M304.302,260.151h16v16h-16V260.151z"/>
	
		<linearGradient id="SVGID_9_" gradientUnits="userSpaceOnUse" x1="-13.5726" y1="567.7762" x2="-13.5726" y2="621.9392" gradientTransform="matrix(8 0 0 -8 452.8829 4978.3608)">
		<stop  offset="0" style="stop-color:#006DF0"/>
		<stop  offset="1" style="stop-color:#00E7F0"/>
	</linearGradient>
	<path style="fill:url(#SVGID_9_);" d="M336.302,260.151h16v16h-16V260.151z"/>
	
		<linearGradient id="SVGID_10_" gradientUnits="userSpaceOnUse" x1="-9.5726" y1="567.7762" x2="-9.5726" y2="621.9392" gradientTransform="matrix(8 0 0 -8 452.8829 4978.3608)">
		<stop  offset="0" style="stop-color:#006DF0"/>
		<stop  offset="1" style="stop-color:#00E7F0"/>
	</linearGradient>
	<path style="fill:url(#SVGID_10_);" d="M368.302,260.151h16v16h-16V260.151z"/>
	
		<linearGradient id="SVGID_11_" gradientUnits="userSpaceOnUse" x1="-5.5726" y1="567.7762" x2="-5.5726" y2="621.9392" gradientTransform="matrix(8 0 0 -8 452.8829 4978.3608)">
		<stop  offset="0" style="stop-color:#006DF0"/>
		<stop  offset="1" style="stop-color:#00E7F0"/>
	</linearGradient>
	<path style="fill:url(#SVGID_11_);" d="M400.302,260.151h16v16h-16V260.151z"/>
	
		<linearGradient id="SVGID_12_" gradientUnits="userSpaceOnUse" x1="-1.5726" y1="567.7762" x2="-1.5726" y2="621.9392" gradientTransform="matrix(8 0 0 -8 452.8829 4978.3608)">
		<stop  offset="0" style="stop-color:#006DF0"/>
		<stop  offset="1" style="stop-color:#00E7F0"/>
	</linearGradient>
	<path style="fill:url(#SVGID_12_);" d="M432.302,260.151h16v16h-16V260.151z"/>
</g>
<linearGradient id="SVGID_13_" gradientUnits="userSpaceOnUse" x1="-24.0726" y1="567.7762" x2="-24.0726" y2="621.9432" gradientTransform="matrix(8 0 0 -8 452.8829 4978.3608)">
	<stop  offset="0" style="stop-color:#006DF0"/>
	<stop  offset="1" style="stop-color:#00E7F0"/>
</linearGradient>
<path style="fill:url(#SVGID_13_);" d="M472.302,436.151h-424c-4.418,0-8-3.582-8-8v-24c0-4.418,3.582-8,8-8s8,3.582,8,8v16h408
	v-360h-408v72c0,4.418-3.582,8-8,8s-8-3.582-8-8v-80c0-4.418,3.582-8,8-8h424c4.418,0,8,3.582,8,8v376
	C480.302,432.569,476.721,436.151,472.302,436.151z"/>
<linearGradient id="SVGID_14_" gradientUnits="userSpaceOnUse" x1="-10.0786" y1="567.7762" x2="-10.0786" y2="621.9392" gradientTransform="matrix(8 0 0 -8 452.8829 4978.3608)">
	<stop  offset="0" style="stop-color:#006DF0"/>
	<stop  offset="1" style="stop-color:#00E7F0"/>
</linearGradient>
<path style="fill:url(#SVGID_14_);" d="M328.302,204.151c-4.418-0.001-7.999-3.583-7.998-8.002c0-2.121,0.843-4.155,2.342-5.654
	l88-88c3.178-3.069,8.242-2.982,11.312,0.196c2.994,3.1,2.994,8.015,0,11.116l-88,88
	C332.459,203.308,330.424,204.151,328.302,204.151L328.302,204.151z"/>
<linearGradient id="SVGID_15_" gradientUnits="userSpaceOnUse" x1="-13.5726" y1="567.7762" x2="-13.5726" y2="621.9432" gradientTransform="matrix(8 0 0 -8 452.8829 4978.3608)">
	<stop  offset="0" style="stop-color:#006DF0"/>
	<stop  offset="1" style="stop-color:#00E7F0"/>
</linearGradient>
<path style="fill:url(#SVGID_15_);" d="M344.302,148.151c-13.255,0-24-10.745-24-24s10.745-24,24-24s24,10.745,24,24
	S357.557,148.151,344.302,148.151z M344.302,116.151c-4.418,0-8,3.582-8,8c0,4.418,3.582,8,8,8s8-3.582,8-8
	C352.302,119.733,348.721,116.151,344.302,116.151z"/>
<linearGradient id="SVGID_16_" gradientUnits="userSpaceOnUse" x1="-6.5726" y1="567.7762" x2="-6.5726" y2="621.9392" gradientTransform="matrix(8 0 0 -8 452.8829 4978.3608)">
	<stop  offset="0" style="stop-color:#006DF0"/>
	<stop  offset="1" style="stop-color:#00E7F0"/>
</linearGradient>
<path style="fill:url(#SVGID_16_);" d="M400.302,204.151c-13.255,0-24-10.745-24-24s10.745-24,24-24s24,10.745,24,24
	S413.557,204.151,400.302,204.151z M400.302,172.151c-4.418,0-8,3.582-8,8s3.582,8,8,8s8-3.582,8-8S404.721,172.151,400.302,172.151
	z"/>
<g>
</g>
<g>
</g>
<g>
</g>
<g>
</g>
<g>
</g>
<g>
</g>
<g>
</g>
<g>
</g>
<g>
</g>
<g>
</g>
<g>
</g>
<g>
</g>
<g>
</g>
<g>
</g>
<g>
</g>
</svg>
