<?xml version="1.0" encoding="iso-8859-1"?>
<!-- Generator: Adobe Illustrator 19.0.0, SVG Export Plug-In . SVG Version: 6.00 Build 0)  -->
<svg version="1.1" id="Capa_1" xmlns="http://www.w3.org/2000/svg" xmlns:xlink="http://www.w3.org/1999/xlink" x="0px" y="0px"
	 viewBox="0 0 483.304 483.304" style="enable-background:new 0 0 483.304 483.304;" xml:space="preserve">
<linearGradient id="SVGID_1_" gradientUnits="userSpaceOnUse" x1="-48.1989" y1="557.662" x2="-48.1989" y2="620.721" gradientTransform="matrix(8 0 0 -8 450.2675 4941)">
	<stop  offset="0" style="stop-color:#006DF0"/>
	<stop  offset="1" style="stop-color:#00E7F0"/>
</linearGradient>
<path style="fill:url(#SVGID_1_);" d="M56.676,200h16v16h-16V200z"/>
<g>
	
		<linearGradient id="SVGID_2_" gradientUnits="userSpaceOnUse" x1="-44.1989" y1="557.662" x2="-44.1989" y2="620.721" gradientTransform="matrix(8 0 0 -8 450.2675 4941)">
		<stop  offset="0" style="stop-color:#006DF0"/>
		<stop  offset="1" style="stop-color:#00E7F0"/>
	</linearGradient>
	<path style="fill:url(#SVGID_2_);" d="M88.676,200h16v16h-16V200z"/>
	
		<linearGradient id="SVGID_3_" gradientUnits="userSpaceOnUse" x1="-40.1989" y1="557.662" x2="-40.1989" y2="620.721" gradientTransform="matrix(8 0 0 -8 450.2675 4941)">
		<stop  offset="0" style="stop-color:#006DF0"/>
		<stop  offset="1" style="stop-color:#00E7F0"/>
	</linearGradient>
	<path style="fill:url(#SVGID_3_);" d="M120.676,200h16v16h-16V200z"/>
	
		<linearGradient id="SVGID_4_" gradientUnits="userSpaceOnUse" x1="-36.1989" y1="557.662" x2="-36.1989" y2="620.721" gradientTransform="matrix(8 0 0 -8 450.2675 4941)">
		<stop  offset="0" style="stop-color:#006DF0"/>
		<stop  offset="1" style="stop-color:#00E7F0"/>
	</linearGradient>
	<path style="fill:url(#SVGID_4_);" d="M152.676,200h16v16h-16V200z"/>
	
		<linearGradient id="SVGID_5_" gradientUnits="userSpaceOnUse" x1="-32.1989" y1="557.662" x2="-32.1989" y2="620.721" gradientTransform="matrix(8 0 0 -8 450.2675 4941)">
		<stop  offset="0" style="stop-color:#006DF0"/>
		<stop  offset="1" style="stop-color:#00E7F0"/>
	</linearGradient>
	<path style="fill:url(#SVGID_5_);" d="M184.676,200h16v16h-16V200z"/>
	
		<linearGradient id="SVGID_6_" gradientUnits="userSpaceOnUse" x1="-28.1989" y1="557.662" x2="-28.1989" y2="620.721" gradientTransform="matrix(8 0 0 -8 450.2675 4941)">
		<stop  offset="0" style="stop-color:#006DF0"/>
		<stop  offset="1" style="stop-color:#00E7F0"/>
	</linearGradient>
	<path style="fill:url(#SVGID_6_);" d="M216.676,200h16v16h-16V200z"/>
	
		<linearGradient id="SVGID_7_" gradientUnits="userSpaceOnUse" x1="-24.1989" y1="557.662" x2="-24.1989" y2="620.721" gradientTransform="matrix(8 0 0 -8 450.2675 4941)">
		<stop  offset="0" style="stop-color:#006DF0"/>
		<stop  offset="1" style="stop-color:#00E7F0"/>
	</linearGradient>
	<path style="fill:url(#SVGID_7_);" d="M248.676,200h16v16h-16V200z"/>
	
		<linearGradient id="SVGID_8_" gradientUnits="userSpaceOnUse" x1="-20.1989" y1="557.662" x2="-20.1989" y2="620.721" gradientTransform="matrix(8 0 0 -8 450.2675 4941)">
		<stop  offset="0" style="stop-color:#006DF0"/>
		<stop  offset="1" style="stop-color:#00E7F0"/>
	</linearGradient>
	<path style="fill:url(#SVGID_8_);" d="M280.676,200h16v16h-16V200z"/>
	
		<linearGradient id="SVGID_9_" gradientUnits="userSpaceOnUse" x1="-16.1989" y1="557.662" x2="-16.1989" y2="620.721" gradientTransform="matrix(8 0 0 -8 450.2675 4941)">
		<stop  offset="0" style="stop-color:#006DF0"/>
		<stop  offset="1" style="stop-color:#00E7F0"/>
	</linearGradient>
	<path style="fill:url(#SVGID_9_);" d="M312.676,200h16v16h-16V200z"/>
	
		<linearGradient id="SVGID_10_" gradientUnits="userSpaceOnUse" x1="-12.1989" y1="557.662" x2="-12.1989" y2="620.721" gradientTransform="matrix(8 0 0 -8 450.2675 4941)">
		<stop  offset="0" style="stop-color:#006DF0"/>
		<stop  offset="1" style="stop-color:#00E7F0"/>
	</linearGradient>
	<path style="fill:url(#SVGID_10_);" d="M344.676,200h16v16h-16V200z"/>
	
		<linearGradient id="SVGID_11_" gradientUnits="userSpaceOnUse" x1="-8.1989" y1="557.662" x2="-8.1989" y2="620.721" gradientTransform="matrix(8 0 0 -8 450.2675 4941)">
		<stop  offset="0" style="stop-color:#006DF0"/>
		<stop  offset="1" style="stop-color:#00E7F0"/>
	</linearGradient>
	<path style="fill:url(#SVGID_11_);" d="M376.676,200h16v16h-16V200z"/>
	
		<linearGradient id="SVGID_12_" gradientUnits="userSpaceOnUse" x1="-4.1989" y1="557.662" x2="-4.1989" y2="620.721" gradientTransform="matrix(8 0 0 -8 450.2675 4941)">
		<stop  offset="0" style="stop-color:#006DF0"/>
		<stop  offset="1" style="stop-color:#00E7F0"/>
	</linearGradient>
	<path style="fill:url(#SVGID_12_);" d="M408.676,200h16v16h-16V200z"/>
	
		<linearGradient id="SVGID_13_" gradientUnits="userSpaceOnUse" x1="-26.0769" y1="557.662" x2="-26.0769" y2="620.721" gradientTransform="matrix(8 0 0 -8 450.2675 4941)">
		<stop  offset="0" style="stop-color:#006DF0"/>
		<stop  offset="1" style="stop-color:#00E7F0"/>
	</linearGradient>
	<path style="fill:url(#SVGID_13_);" d="M405.028,371.752L468.62,333.6l-40.496-11.576L462.82,192h9.856c4.418,0,8-3.582,8-8v-64
		c0-4.418-3.582-8-8-8h-92.688l-77.712-77.72c1.566-3.202,2.386-6.716,2.4-10.28c0-13.255-10.745-24-24-24s-24,10.745-24,24
		s10.745,24,24,24c3.564-0.014,7.078-0.834,10.28-2.4l66.4,66.4H123.988l66.4-66.4c3.204,1.567,6.721,2.387,10.288,2.4
		c13.255,0,24-10.745,24-24s-10.745-24-24-24s-24,10.745-24,24c0.014,3.564,0.834,7.078,2.4,10.28L101.364,112H8.676
		c-4.418,0-8,3.582-8,8v64c0,4.418,3.582,8,8,8h9.856l62.4,234.064c0.936,3.506,4.115,5.943,7.744,5.936h233.6l10.656,37.272
		l38.144-63.568l77.6,77.6l33.952-33.952L405.028,371.752z M272.676,24c0-4.418,3.582-8,8-8s8,3.582,8,8s-3.582,8-8,8
		S272.676,28.418,272.676,24z M200.676,16c4.418,0,8,3.582,8,8s-3.582,8-8,8s-8-3.582-8-8S196.258,16,200.676,16z M16.676,128h448
		v48h-448V128z M317.676,416H94.82L35.076,192h411.2l-33.52,125.6l-134.128-38.296L317.676,416z M367.876,379.888l-29.728,49.6
		l-36.24-126.832l126.808,36.256l-49.512,29.648l80.8,80.8l-11.328,11.328L367.876,379.888z"/>
</g>
<g>
</g>
<g>
</g>
<g>
</g>
<g>
</g>
<g>
</g>
<g>
</g>
<g>
</g>
<g>
</g>
<g>
</g>
<g>
</g>
<g>
</g>
<g>
</g>
<g>
</g>
<g>
</g>
<g>
</g>
</svg>
