<?xml version="1.0" encoding="iso-8859-1"?>
<!-- Generator: Adobe Illustrator 19.0.0, SVG Export Plug-In . SVG Version: 6.00 Build 0)  -->
<svg version="1.1" id="Capa_1" xmlns="http://www.w3.org/2000/svg" xmlns:xlink="http://www.w3.org/1999/xlink" x="0px" y="0px"
	 viewBox="0 0 480.146 480.146" style="enable-background:new 0 0 480.146 480.146;" xml:space="preserve">
<linearGradient id="SVGID_1_" gradientUnits="userSpaceOnUse" x1="-26.8002" y1="557.7706" x2="-26.8002" y2="619.0096" gradientTransform="matrix(8 0 0 -8 454.4743 4942.3105)">
	<stop  offset="0" style="stop-color:#006DF0"/>
	<stop  offset="1" style="stop-color:#00E7F0"/>
</linearGradient>
<path style="fill:url(#SVGID_1_);" d="M392.075,192.146v-96c-0.035-30.913-25.087-55.965-56-56h-24
	c-30.913,0.035-55.965,25.087-56,56v272c-0.035,30.913-25.087,55.965-56,56h-16c-30.913-0.035-55.965-25.087-56-56V239.738
	c66.127-4.418,116.151-61.606,111.733-127.733S178.202-4.147,112.075,0.272S-4.076,61.878,0.342,128.005
	c4.007,59.97,51.763,107.726,111.733,111.733v128.408c0.044,39.746,32.254,71.956,72,72h16c39.746-0.044,71.956-32.254,72-72v-272
	c0.026-22.08,17.92-39.974,40-40h24c22.08,0.026,39.974,17.92,40,40v96c-48.577,0.057-87.943,39.423-88,88v112
	c0.057,48.577,39.423,87.943,88,88h16c48.577-0.057,87.943-39.423,88-88v-112C480.018,231.568,440.652,192.203,392.075,192.146z
	 M16.075,120.146c0-57.438,46.562-104,104-104s104,46.562,104,104s-46.562,104-104,104
	C62.665,224.079,16.141,177.556,16.075,120.146z M376.075,208.146h16c33.569,0.056,62.655,23.277,70.144,56h-54.144v-8
	c0-13.255-10.745-24-24-24s-24,10.745-24,24v8h-54.144C313.42,231.423,342.506,208.201,376.075,208.146L376.075,208.146z
	 M392.075,256.146v32c0,4.418-3.582,8-8,8s-8-3.582-8-8v-32c0-4.418,3.582-8,8-8S392.075,251.727,392.075,256.146z M464.075,392.146
	c-0.044,39.746-32.254,71.956-72,72h-16c-39.746-0.044-71.956-32.254-72-72v-112h56v8c0,13.255,10.745,24,24,24s24-10.745,24-24v-8
	h56V392.146z"/>
<linearGradient id="SVGID_2_" gradientUnits="userSpaceOnUse" x1="-41.7999" y1="557.7506" x2="-41.7999" y2="618.9936" gradientTransform="matrix(8 0 0 -8 454.4743 4942.3105)">
	<stop  offset="0" style="stop-color:#006DF0"/>
	<stop  offset="1" style="stop-color:#00E7F0"/>
</linearGradient>
<path style="fill:url(#SVGID_2_);" d="M216.075,120.146c0-53.019-42.981-96-96-96s-96,42.981-96,96s42.981,96,96,96
	C173.071,216.088,216.018,173.141,216.075,120.146z M40.075,120.146c0-44.183,35.817-80,80-80s80,35.817,80,80s-35.817,80-80,80
	C75.912,200.097,40.124,164.308,40.075,120.146z"/>
<linearGradient id="SVGID_3_" gradientUnits="userSpaceOnUse" x1="-41.7999" y1="557.7706" x2="-41.7999" y2="619.0096" gradientTransform="matrix(8 0 0 -8 454.4743 4942.3105)">
	<stop  offset="0" style="stop-color:#006DF0"/>
	<stop  offset="1" style="stop-color:#00E7F0"/>
</linearGradient>
<path style="fill:url(#SVGID_3_);" d="M128.075,184.146v-9.136c17.081-4.396,27.364-21.807,22.968-38.888
	c-3.636-14.126-16.381-23.994-30.968-23.976c-8.837,0-16-7.163-16-16s7.163-16,16-16c8.837,0,16,7.163,16,16c0,4.418,3.582,8,8,8
	s8-3.582,8-8c-0.055-14.547-9.915-27.227-24-30.864v-9.136c0-4.418-3.582-8-8-8s-8,3.582-8,8v9.136
	c-17.081,4.396-27.364,21.807-22.968,38.888c3.636,14.126,16.381,23.994,30.968,23.976c8.837,0,16,7.163,16,16s-7.163,16-16,16
	c-8.837,0-16-7.163-16-16c0-4.418-3.582-8-8-8s-8,3.582-8,8c0.055,14.547,9.915,27.227,24,30.864v9.136c0,4.418,3.582,8,8,8
	S128.075,188.564,128.075,184.146z"/>
<g>
</g>
<g>
</g>
<g>
</g>
<g>
</g>
<g>
</g>
<g>
</g>
<g>
</g>
<g>
</g>
<g>
</g>
<g>
</g>
<g>
</g>
<g>
</g>
<g>
</g>
<g>
</g>
<g>
</g>
</svg>
