<?xml version="1.0" encoding="iso-8859-1"?>
<!-- Generator: Adobe Illustrator 19.0.0, SVG Export Plug-In . SVG Version: 6.00 Build 0)  -->
<svg version="1.1" id="Capa_1" xmlns="http://www.w3.org/2000/svg" xmlns:xlink="http://www.w3.org/1999/xlink" x="0px" y="0px"
	 viewBox="0 0 485.54 485.54" style="enable-background:new 0 0 485.54 485.54;" xml:space="preserve">
<linearGradient id="SVGID_1_" gradientUnits="userSpaceOnUse" x1="-83.8073" y1="570.6747" x2="-40.3973" y2="614.0967" gradientTransform="matrix(5.6569 -5.6569 -5.6569 -5.6569 3737.9771 3244.157)">
	<stop  offset="0" style="stop-color:#006DF0"/>
	<stop  offset="1" style="stop-color:#00E7F0"/>
</linearGradient>
<path style="fill:url(#SVGID_1_);" d="M24.31,291.817l11.314-11.314l11.314,11.314l-11.314,11.314L24.31,291.817z"/>
<linearGradient id="SVGID_2_" gradientUnits="userSpaceOnUse" x1="-78.9797" y1="569.8512" x2="-35.5637" y2="613.2642" gradientTransform="matrix(5.6569 -5.6569 -5.6569 -5.6569 3728.6331 3266.7808)">
	<stop  offset="0" style="stop-color:#006DF0"/>
	<stop  offset="1" style="stop-color:#00E7F0"/>
</linearGradient>
<path style="fill:url(#SVGID_2_);" d="M46.967,314.447l11.314-11.314l11.314,11.314L58.28,325.76L46.967,314.447z"/>
<linearGradient id="SVGID_3_" gradientUnits="userSpaceOnUse" x1="-50.0088" y1="564.8803" x2="-6.5928" y2="608.2933" gradientTransform="matrix(5.6569 -5.6569 -5.6569 -5.6569 3672.3931 3402.5408)">
	<stop  offset="0" style="stop-color:#006DF0"/>
	<stop  offset="1" style="stop-color:#00E7F0"/>
</linearGradient>
<path style="fill:url(#SVGID_3_);" d="M182.727,450.201l11.314-11.314l11.314,11.314l-11.314,11.314L182.727,450.201z"/>
<linearGradient id="SVGID_4_" gradientUnits="userSpaceOnUse" x1="-17.4275" y1="553.2187" x2="-6.3375" y2="614.6187" gradientTransform="matrix(8 0 0 -8 453.3219 4991.3066)">
	<stop  offset="0" style="stop-color:#006DF0"/>
	<stop  offset="1" style="stop-color:#00E7F0"/>
</linearGradient>
<path style="fill:url(#SVGID_4_);" d="M315.96,357.99c-3.178-3.07-8.242-2.982-11.312,0.196c-2.995,3.1-2.995,8.016,0,11.116
	l28.28,28.288l-28.28,28.288c-3.178,3.07-3.266,8.134-0.196,11.312c3.07,3.178,8.134,3.266,11.312,0.196
	c0.066-0.064,0.132-0.129,0.196-0.196l28.28-28.288l28.28,28.288c3.178,3.07,8.242,2.982,11.312-0.196
	c2.995-3.1,2.995-8.016,0-11.116l-28.28-28.288l28.28-28.288c3.07-3.178,2.982-8.242-0.196-11.312c-3.1-2.995-8.016-2.995-11.116,0
	l-28.28,28.288L315.96,357.99z"/>
<linearGradient id="SVGID_5_" gradientUnits="userSpaceOnUse" x1="-74.1532" y1="569.0197" x2="-30.7352" y2="612.4377" gradientTransform="matrix(5.6569 -5.6569 -5.6569 -5.6569 3719.1931 3289.4128)">
	<stop  offset="0" style="stop-color:#006DF0"/>
	<stop  offset="1" style="stop-color:#00E7F0"/>
</linearGradient>
<path style="fill:url(#SVGID_5_);" d="M69.528,337.073l11.314-11.314l11.314,11.314l-11.314,11.314L69.528,337.073z"/>
<linearGradient id="SVGID_6_" gradientUnits="userSpaceOnUse" x1="-69.3247" y1="568.1922" x2="-25.9077" y2="611.6092" gradientTransform="matrix(5.6569 -5.6569 -5.6569 -5.6569 3709.8572 3312.021)">
	<stop  offset="0" style="stop-color:#006DF0"/>
	<stop  offset="1" style="stop-color:#00E7F0"/>
</linearGradient>
<path style="fill:url(#SVGID_6_);" d="M92.187,359.681l11.314-11.314l11.314,11.314l-11.314,11.314L92.187,359.681z"/>
<linearGradient id="SVGID_7_" gradientUnits="userSpaceOnUse" x1="-64.4971" y1="567.3625" x2="-21.0791" y2="610.7816" gradientTransform="matrix(5.6569 -5.6569 -5.6569 -5.6569 3700.489 3334.6609)">
	<stop  offset="0" style="stop-color:#006DF0"/>
	<stop  offset="1" style="stop-color:#00E7F0"/>
</linearGradient>
<path style="fill:url(#SVGID_7_);" d="M114.82,382.327l11.314-11.314l11.314,11.314l-11.314,11.314L114.82,382.327z"/>
<linearGradient id="SVGID_8_" gradientUnits="userSpaceOnUse" x1="-59.6811" y1="566.5354" x2="-16.2411" y2="609.9454" gradientTransform="matrix(5.6549 -5.6588 -5.6588 -5.6549 3692.1536 3356.0195)">
	<stop  offset="0" style="stop-color:#006DF0"/>
	<stop  offset="1" style="stop-color:#00E7F0"/>
</linearGradient>
<path style="fill:url(#SVGID_8_);" d="M137.44,404.95l11.31-11.318l11.318,11.31l-11.31,11.318L137.44,404.95z"/>
<linearGradient id="SVGID_9_" gradientUnits="userSpaceOnUse" x1="-54.8358" y1="565.7026" x2="-11.4238" y2="609.1307" gradientTransform="matrix(5.6578 -5.6558 -5.6558 -5.6578 3681.1631 3380.5291)">
	<stop  offset="0" style="stop-color:#006DF0"/>
	<stop  offset="1" style="stop-color:#00E7F0"/>
</linearGradient>
<path style="fill:url(#SVGID_9_);" d="M160.073,427.58l11.316-11.312l11.312,11.316l-11.316,11.312L160.073,427.58z"/>
<linearGradient id="SVGID_10_" gradientUnits="userSpaceOnUse" x1="-33.7814" y1="556.1725" x2="-22.6914" y2="617.5724" gradientTransform="matrix(8 0 0 -8 453.3219 4991.3066)">
	<stop  offset="0" style="stop-color:#006DF0"/>
	<stop  offset="1" style="stop-color:#00E7F0"/>
</linearGradient>
<path style="fill:url(#SVGID_10_);" d="M482.912,126.798c-3.124-3.123-8.188-3.123-11.312,0
	c-9.898,9.846-22.224,16.898-35.728,20.44l-11.424-66.256c-1.689-10.029-9.541-17.891-19.568-19.592l-66.984-11.552
	c3.503-13.679,10.605-26.17,20.568-36.176c3.126-3.124,3.128-8.19,0.004-11.316s-8.19-3.128-11.316-0.004l0,0
	C334.8,14.66,326.077,30.14,321.936,47.086l-61.864-10.664c-7.677-1.303-15.509,1.199-21.008,6.712L7.264,274.846
	c-9.293,9.397-9.293,24.523,0,33.92L177.04,478.534c4.494,4.484,10.588,6.994,16.936,6.976c6.371,0.005,12.486-2.505,17.016-6.984
	l50.752-50.752c16.658,45.601,67.128,69.064,112.729,52.406c45.601-16.658,69.064-67.128,52.406-112.729
	c-8.896-24.353-28.089-43.537-52.447-52.421l68.264-68.264c5.508-5.505,8.01-13.337,6.712-21.016l-10.768-62.56
	c16.771-4.189,32.083-12.871,44.288-25.112C486.025,134.953,486.018,129.914,482.912,126.798L482.912,126.798z M416.24,397.59
	c0.037,39.72-32.133,71.95-71.853,71.987c-33.819,0.031-63.09-23.503-70.323-56.539c-0.073-0.359-0.175-0.713-0.304-1.056
	c-0.139-0.488-0.24-0.985-0.304-1.488c-0.808-4.254-1.215-8.574-1.216-12.904c0.044-39.746,32.254-71.956,72-72
	c4.392,0.006,8.774,0.424,13.088,1.248c0.79,0.123,1.572,0.289,2.344,0.496C392.636,334.644,416.132,363.825,416.24,397.59
	L416.24,397.59z M431.384,235.454l-75.088,75.096c-3.991-0.605-8.02-0.926-12.056-0.96c-48.577,0.057-87.943,39.423-88,88
	c0.03,4.058,0.35,8.108,0.96,12.12l-57.464,57.48c-3.1,3.148-8.165,3.187-11.313,0.086c-0.016-0.015-0.031-0.031-0.047-0.046
	L18.64,297.446c-3.126-3.122-3.129-8.188-0.006-11.314c0.002-0.002,0.004-0.004,0.006-0.006L250.4,54.446
	c1.83-1.83,4.429-2.67,6.984-2.256l144.8,24.968c3.318,0.587,5.913,3.191,6.488,6.512l11.44,66.4
	c-10.149,0.69-20.335-0.612-29.984-3.832c7.177-20.73-3.81-43.352-24.54-50.529c-10.516-3.641-22.077-2.703-31.868,2.585
	c-0.776,0.058-1.539,0.23-2.264,0.512c-1.433,0.678-2.625,1.778-3.416,3.152c-17.453,13.464-20.687,38.527-7.223,55.98
	s38.527,20.687,55.98,7.223c1.37-1.057,2.67-2.202,3.891-3.427c0.464-0.472,0.8-1.016,1.224-1.504
	c10.498,3.973,21.624,6.029,32.848,6.072c2.688,0,5.384-0.176,8.08-0.408l10.792,62.584
	C434.054,231.03,433.217,233.628,431.384,235.454L431.384,235.454z M332.832,119.622c8.131,13.776,19.672,25.227,33.512,33.248
	c-10.702,7.745-25.656,5.348-33.402-5.354C326.926,139.204,326.882,127.981,332.832,119.622z M358.432,126.822
	c-4.874-4.881-9.086-10.382-12.528-16.36c2.102-0.623,4.28-0.956,6.472-0.992c13.171-0.05,23.889,10.586,23.939,23.757
	c0.008,2.194-0.286,4.378-0.875,6.491c-6.217-3.522-11.928-7.871-16.976-12.928L358.432,126.822z"/>
<g>
</g>
<g>
</g>
<g>
</g>
<g>
</g>
<g>
</g>
<g>
</g>
<g>
</g>
<g>
</g>
<g>
</g>
<g>
</g>
<g>
</g>
<g>
</g>
<g>
</g>
<g>
</g>
<g>
</g>
</svg>
