<?xml version="1.0" encoding="iso-8859-1"?>
<!-- Generator: Adobe Illustrator 19.0.0, SVG Export Plug-In . SVG Version: 6.00 Build 0)  -->
<svg version="1.1" id="Capa_1" xmlns="http://www.w3.org/2000/svg" xmlns:xlink="http://www.w3.org/1999/xlink" x="0px" y="0px"
	 viewBox="0 0 480.003 480.003" style="enable-background:new 0 0 480.003 480.003;" xml:space="preserve">
<g>
	
		<linearGradient id="SVGID_1_" gradientUnits="userSpaceOnUse" x1="-26.8735" y1="556.538" x2="-26.8735" y2="618.14" gradientTransform="matrix(8 0 0 -8 454.9897 4941.0269)">
		<stop  offset="0" style="stop-color:#006DF0"/>
		<stop  offset="1" style="stop-color:#00E7F0"/>
	</linearGradient>
	<path style="fill:url(#SVGID_1_);" d="M456.001,400.003h-8v-392c0-0.224-0.112-0.416-0.128-0.64c-0.05-0.543-0.157-1.08-0.32-1.6
		c-0.137-0.516-0.33-1.015-0.576-1.488c-0.104-0.2-0.112-0.416-0.232-0.608s-0.4-0.376-0.576-0.6
		c-0.339-0.428-0.72-0.822-1.136-1.176c-0.385-0.304-0.797-0.572-1.232-0.8c-0.443-0.245-0.909-0.446-1.392-0.6
		c-0.52-0.164-1.057-0.271-1.6-0.32c-0.266-0.071-0.536-0.127-0.808-0.168c-0.232,0-0.416,0.112-0.64,0.128
		c-0.543,0.048-1.08,0.155-1.6,0.32c-0.518,0.137-1.02,0.33-1.496,0.576c-0.2,0.104-0.416,0.112-0.608,0.232l-20.712,13.248
		L394.193,1.259c-2.627-1.679-5.989-1.679-8.616,0l-20.712,13.248l-20.696-13.24c-2.629-1.682-5.995-1.682-8.624,0l-20.688,13.232
		L294.185,1.267c-2.629-1.682-5.995-1.682-8.624,0l-20.696,13.24l-20.696-13.24c-2.629-1.682-5.995-1.682-8.624,0l-20.688,13.232
		L194.186,1.267c-2.629-1.682-5.995-1.682-8.624,0l-20.68,13.232L144.217,1.267c-2.631-1.685-6.001-1.685-8.632,0l-20.672,13.232
		L94.265,1.267c-2.629-1.682-5.995-1.682-8.624,0L64.969,14.499L44.321,1.267c-0.2-0.12-0.416-0.136-0.616-0.24
		c-0.473-0.241-0.969-0.434-1.48-0.576c-0.52-0.165-1.057-0.272-1.6-0.32c-0.205-0.055-0.414-0.098-0.624-0.128
		c-0.27,0.036-0.537,0.09-0.8,0.16c-0.557,0.048-1.107,0.158-1.64,0.328c-0.465,0.152-0.915,0.347-1.344,0.584
		C35.77,1.316,35.347,1.6,34.953,1.923c-0.416,0.349-0.794,0.74-1.128,1.168C33.65,3.315,33.41,3.443,33.25,3.683
		s-0.128,0.416-0.232,0.616c-0.249,0.476-0.445,0.978-0.584,1.496c-0.158,0.508-0.265,1.031-0.32,1.56
		c0,0.224-0.112,0.416-0.112,0.648v392h-8c-13.255,0-24,10.745-24,24v32c0,13.255,10.745,24,24,24h432c13.255,0,24-10.745,24-24v-32
		C480.001,410.748,469.256,400.003,456.001,400.003L456.001,400.003z M16.001,456.003v-32c0-4.418,3.582-8,8-8h8v48h-8
		C19.583,464.003,16.001,460.421,16.001,456.003z M48.001,22.635l12.648,8.104c2.629,1.682,5.995,1.682,8.624,0l20.672-13.232
		l20.648,13.232c2.631,1.685,6.001,1.685,8.632,0l20.672-13.232l20.664,13.232c2.629,1.682,5.995,1.682,8.624,0l20.688-13.232
		l20.672,13.232c2.629,1.682,5.995,1.682,8.624,0l20.688-13.24l20.696,13.24c2.629,1.682,5.995,1.682,8.624,0l20.688-13.232
		l20.672,13.232c2.63,1.685,6.001,1.685,8.632,0l20.688-13.24l20.696,13.24c2.629,1.682,5.995,1.682,8.624,0l20.712-13.24
		l20.752,13.248c2.625,1.675,5.983,1.675,8.608,0l12.752-8.144v441.4h-384L48.001,22.635z M464.001,456.003c0,4.418-3.582,8-8,8h-8
		v-48h8c4.418,0,8,3.582,8,8V456.003z"/>
	
		<linearGradient id="SVGID_2_" gradientUnits="userSpaceOnUse" x1="-26.8735" y1="556.538" x2="-26.8735" y2="618.14" gradientTransform="matrix(8 0 0 -8 454.9897 4941.0269)">
		<stop  offset="0" style="stop-color:#006DF0"/>
		<stop  offset="1" style="stop-color:#00E7F0"/>
	</linearGradient>
	<path style="fill:url(#SVGID_2_);" d="M192.001,72.003h96c4.418,0,8-3.582,8-8s-3.582-8-8-8h-96c-4.418,0-8,3.582-8,8
		S187.583,72.003,192.001,72.003z"/>
	
		<linearGradient id="SVGID_3_" gradientUnits="userSpaceOnUse" x1="-26.8735" y1="556.538" x2="-26.8735" y2="618.14" gradientTransform="matrix(8 0 0 -8 454.9897 4941.0269)">
		<stop  offset="0" style="stop-color:#006DF0"/>
		<stop  offset="1" style="stop-color:#00E7F0"/>
	</linearGradient>
	<path style="fill:url(#SVGID_3_);" d="M160.001,104.003h160c4.418,0,8-3.582,8-8s-3.582-8-8-8h-160c-4.418,0-8,3.582-8,8
		S155.583,104.003,160.001,104.003z"/>
</g>
<g>
	
		<linearGradient id="SVGID_4_" gradientUnits="userSpaceOnUse" x1="-17.8735" y1="556.538" x2="-17.8735" y2="618.14" gradientTransform="matrix(8 0 0 -8 454.9897 4941.0269)">
		<stop  offset="0" style="stop-color:#006DF0"/>
		<stop  offset="1" style="stop-color:#00E7F0"/>
	</linearGradient>
	<path style="fill:url(#SVGID_4_);" d="M392.001,184.003h-160c-4.418,0-8,3.582-8,8s3.582,8,8,8h160c4.418,0,8-3.582,8-8
		S396.42,184.003,392.001,184.003z"/>
	
		<linearGradient id="SVGID_5_" gradientUnits="userSpaceOnUse" x1="-17.8735" y1="556.538" x2="-17.8735" y2="618.14" gradientTransform="matrix(8 0 0 -8 454.9897 4941.0269)">
		<stop  offset="0" style="stop-color:#006DF0"/>
		<stop  offset="1" style="stop-color:#00E7F0"/>
	</linearGradient>
	<path style="fill:url(#SVGID_5_);" d="M392.001,216.003h-160c-4.418,0-8,3.582-8,8s3.582,8,8,8h160c4.418,0,8-3.582,8-8
		S396.42,216.003,392.001,216.003z"/>
	
		<linearGradient id="SVGID_6_" gradientUnits="userSpaceOnUse" x1="-17.8735" y1="556.538" x2="-17.8735" y2="618.14" gradientTransform="matrix(8 0 0 -8 454.9897 4941.0269)">
		<stop  offset="0" style="stop-color:#006DF0"/>
		<stop  offset="1" style="stop-color:#00E7F0"/>
	</linearGradient>
	<path style="fill:url(#SVGID_6_);" d="M392.001,248.003h-160c-4.418,0-8,3.582-8,8c0,4.418,3.582,8,8,8h160c4.418,0,8-3.582,8-8
		C400.001,251.585,396.42,248.003,392.001,248.003z"/>
	
		<linearGradient id="SVGID_7_" gradientUnits="userSpaceOnUse" x1="-39.8735" y1="556.538" x2="-39.8735" y2="618.14" gradientTransform="matrix(8 0 0 -8 454.9897 4941.0269)">
		<stop  offset="0" style="stop-color:#006DF0"/>
		<stop  offset="1" style="stop-color:#00E7F0"/>
	</linearGradient>
	<path style="fill:url(#SVGID_7_);" d="M136.001,168.003c13.255,0,24,10.745,24,24c0,4.418,3.582,8,8,8s8-3.582,8-8
		c-0.024-19.001-13.389-35.373-32-39.2v-8.8c0-4.418-3.582-8-8-8s-8,3.582-8,8v8.8c-21.65,4.396-35.636,25.51-31.24,47.16
		c3.789,18.657,20.202,32.059,39.24,32.04c13.255,0,24,10.745,24,24c0,13.255-10.745,24-24,24s-24-10.745-24-24c0-4.418-3.582-8-8-8
		s-8,3.582-8,8c0.024,19.001,13.389,35.373,32,39.2v8.8c0,4.418,3.582,8,8,8s8-3.582,8-8v-8.8c21.65-4.396,35.636-25.51,31.24-47.16
		c-3.789-18.657-20.202-32.059-39.24-32.04c-13.255,0-24-10.745-24-24S122.747,168.003,136.001,168.003L136.001,168.003z"/>
	
		<linearGradient id="SVGID_8_" gradientUnits="userSpaceOnUse" x1="-48.8735" y1="556.538" x2="-48.8735" y2="618.14" gradientTransform="matrix(8 0 0 -8 454.9897 4941.0269)">
		<stop  offset="0" style="stop-color:#006DF0"/>
		<stop  offset="1" style="stop-color:#00E7F0"/>
	</linearGradient>
	<path style="fill:url(#SVGID_8_);" d="M56.001,432.003h16v16h-16V432.003z"/>
	
		<linearGradient id="SVGID_9_" gradientUnits="userSpaceOnUse" x1="-44.8735" y1="556.538" x2="-44.8735" y2="618.14" gradientTransform="matrix(8 0 0 -8 454.9897 4941.0269)">
		<stop  offset="0" style="stop-color:#006DF0"/>
		<stop  offset="1" style="stop-color:#00E7F0"/>
	</linearGradient>
	<path style="fill:url(#SVGID_9_);" d="M88.001,432.003h16v16h-16V432.003z"/>
	
		<linearGradient id="SVGID_10_" gradientUnits="userSpaceOnUse" x1="-40.8735" y1="556.538" x2="-40.8735" y2="618.14" gradientTransform="matrix(8 0 0 -8 454.9897 4941.0269)">
		<stop  offset="0" style="stop-color:#006DF0"/>
		<stop  offset="1" style="stop-color:#00E7F0"/>
	</linearGradient>
	<path style="fill:url(#SVGID_10_);" d="M120.001,432.003h16v16h-16V432.003z"/>
	
		<linearGradient id="SVGID_11_" gradientUnits="userSpaceOnUse" x1="-36.8735" y1="556.538" x2="-36.8735" y2="618.14" gradientTransform="matrix(8 0 0 -8 454.9897 4941.0269)">
		<stop  offset="0" style="stop-color:#006DF0"/>
		<stop  offset="1" style="stop-color:#00E7F0"/>
	</linearGradient>
	<path style="fill:url(#SVGID_11_);" d="M152.001,432.003h16v16h-16V432.003z"/>
	
		<linearGradient id="SVGID_12_" gradientUnits="userSpaceOnUse" x1="-32.8735" y1="556.538" x2="-32.8735" y2="618.14" gradientTransform="matrix(8 0 0 -8 454.9897 4941.0269)">
		<stop  offset="0" style="stop-color:#006DF0"/>
		<stop  offset="1" style="stop-color:#00E7F0"/>
	</linearGradient>
	<path style="fill:url(#SVGID_12_);" d="M184.001,432.003h16v16h-16V432.003z"/>
	
		<linearGradient id="SVGID_13_" gradientUnits="userSpaceOnUse" x1="-28.8735" y1="556.538" x2="-28.8735" y2="618.14" gradientTransform="matrix(8 0 0 -8 454.9897 4941.0269)">
		<stop  offset="0" style="stop-color:#006DF0"/>
		<stop  offset="1" style="stop-color:#00E7F0"/>
	</linearGradient>
	<path style="fill:url(#SVGID_13_);" d="M216.001,432.003h16v16h-16V432.003z"/>
	
		<linearGradient id="SVGID_14_" gradientUnits="userSpaceOnUse" x1="-24.8735" y1="556.538" x2="-24.8735" y2="618.14" gradientTransform="matrix(8 0 0 -8 454.9897 4941.0269)">
		<stop  offset="0" style="stop-color:#006DF0"/>
		<stop  offset="1" style="stop-color:#00E7F0"/>
	</linearGradient>
	<path style="fill:url(#SVGID_14_);" d="M248.001,432.003h16v16h-16V432.003z"/>
	
		<linearGradient id="SVGID_15_" gradientUnits="userSpaceOnUse" x1="-20.8735" y1="556.538" x2="-20.8735" y2="618.14" gradientTransform="matrix(8 0 0 -8 454.9897 4941.0269)">
		<stop  offset="0" style="stop-color:#006DF0"/>
		<stop  offset="1" style="stop-color:#00E7F0"/>
	</linearGradient>
	<path style="fill:url(#SVGID_15_);" d="M280.001,432.003h16v16h-16V432.003z"/>
	
		<linearGradient id="SVGID_16_" gradientUnits="userSpaceOnUse" x1="-16.8735" y1="556.538" x2="-16.8735" y2="618.14" gradientTransform="matrix(8 0 0 -8 454.9897 4941.0269)">
		<stop  offset="0" style="stop-color:#006DF0"/>
		<stop  offset="1" style="stop-color:#00E7F0"/>
	</linearGradient>
	<path style="fill:url(#SVGID_16_);" d="M312.001,432.003h16v16h-16V432.003z"/>
	
		<linearGradient id="SVGID_17_" gradientUnits="userSpaceOnUse" x1="-12.8735" y1="556.538" x2="-12.8735" y2="618.14" gradientTransform="matrix(8 0 0 -8 454.9897 4941.0269)">
		<stop  offset="0" style="stop-color:#006DF0"/>
		<stop  offset="1" style="stop-color:#00E7F0"/>
	</linearGradient>
	<path style="fill:url(#SVGID_17_);" d="M344.001,432.003h16v16h-16V432.003z"/>
	
		<linearGradient id="SVGID_18_" gradientUnits="userSpaceOnUse" x1="-8.8735" y1="556.538" x2="-8.8735" y2="618.14" gradientTransform="matrix(8 0 0 -8 454.9897 4941.0269)">
		<stop  offset="0" style="stop-color:#006DF0"/>
		<stop  offset="1" style="stop-color:#00E7F0"/>
	</linearGradient>
	<path style="fill:url(#SVGID_18_);" d="M376.001,432.003h16v16h-16V432.003z"/>
	
		<linearGradient id="SVGID_19_" gradientUnits="userSpaceOnUse" x1="-4.8735" y1="556.538" x2="-4.8735" y2="618.14" gradientTransform="matrix(8 0 0 -8 454.9897 4941.0269)">
		<stop  offset="0" style="stop-color:#006DF0"/>
		<stop  offset="1" style="stop-color:#00E7F0"/>
	</linearGradient>
	<path style="fill:url(#SVGID_19_);" d="M408.001,432.003h16v16h-16V432.003z"/>
	
		<linearGradient id="SVGID_20_" gradientUnits="userSpaceOnUse" x1="-21.8735" y1="556.538" x2="-21.8735" y2="618.14" gradientTransform="matrix(8 0 0 -8 454.9897 4941.0269)">
		<stop  offset="0" style="stop-color:#006DF0"/>
		<stop  offset="1" style="stop-color:#00E7F0"/>
	</linearGradient>
	<path style="fill:url(#SVGID_20_);" d="M328.001,376.003h-96c-4.418,0-8,3.582-8,8s3.582,8,8,8h96c4.418,0,8-3.582,8-8
		S332.42,376.003,328.001,376.003z"/>
	
		<linearGradient id="SVGID_21_" gradientUnits="userSpaceOnUse" x1="-17.8735" y1="556.538" x2="-17.8735" y2="618.14" gradientTransform="matrix(8 0 0 -8 454.9897 4941.0269)">
		<stop  offset="0" style="stop-color:#006DF0"/>
		<stop  offset="1" style="stop-color:#00E7F0"/>
	</linearGradient>
	<path style="fill:url(#SVGID_21_);" d="M392.001,344.003h-160c-4.418,0-8,3.582-8,8s3.582,8,8,8h160c4.418,0,8-3.582,8-8
		S396.42,344.003,392.001,344.003z"/>
</g>
<g>
</g>
<g>
</g>
<g>
</g>
<g>
</g>
<g>
</g>
<g>
</g>
<g>
</g>
<g>
</g>
<g>
</g>
<g>
</g>
<g>
</g>
<g>
</g>
<g>
</g>
<g>
</g>
<g>
</g>
</svg>
