<?xml version="1.0" encoding="iso-8859-1"?>
<!-- Generator: Adobe Illustrator 19.0.0, SVG Export Plug-In . SVG Version: 6.00 Build 0)  -->
<svg version="1.1" id="Capa_1" xmlns="http://www.w3.org/2000/svg" xmlns:xlink="http://www.w3.org/1999/xlink" x="0px" y="0px"
	 viewBox="0 0 480.059 480.059" style="enable-background:new 0 0 480.059 480.059;" xml:space="preserve">
<linearGradient id="SVGID_1_" gradientUnits="userSpaceOnUse" x1="-34.825" y1="555.8604" x2="-34.825" y2="618.8124" gradientTransform="matrix(8 0 0 -8 454.6374 4941.3726)">
	<stop  offset="0" style="stop-color:#006DF0"/>
	<stop  offset="1" style="stop-color:#00E7F0"/>
</linearGradient>
<path style="fill:url(#SVGID_1_);" d="M106.26,301.921c11.269,6.306,23.353,11.028,35.912,14.032h0.064
	c11.064,2.733,22.42,4.106,33.816,4.088c15.427,0.028,30.756-2.458,45.384-7.36h0.048c12.275-4.054,23.931-9.783,34.64-17.024
	c66.095-44.231,83.819-133.667,39.588-199.762S162.045,12.077,95.95,56.307S12.131,189.974,56.362,256.069
	c12.738,19.035,29.833,34.757,49.866,45.86L106.26,301.921z M48.052,176.041C48.007,105.349,105.277,48.005,175.97,47.959
	c70.692-0.045,128.037,57.226,128.082,127.918c0.027,42.762-21.301,82.714-56.848,106.484c-9.503,6.43-19.849,11.515-30.744,15.112
	h-0.056c-22.701,7.539-47.061,8.559-70.312,2.944h-0.088c-11.17-2.662-21.918-6.859-31.936-12.472
	C73.407,265.366,48.148,222.551,48.052,176.041L48.052,176.041z"/>
<g>
	
		<linearGradient id="SVGID_2_" gradientUnits="userSpaceOnUse" x1="-26.826" y1="555.8604" x2="-26.826" y2="618.8124" gradientTransform="matrix(8 0 0 -8 454.6374 4941.3726)">
		<stop  offset="0" style="stop-color:#006DF0"/>
		<stop  offset="1" style="stop-color:#00E7F0"/>
	</linearGradient>
	<path style="fill:url(#SVGID_2_);" d="M345.564,129.249C319.754,35.582,222.899-19.427,129.232,6.382
		S-19.444,129.046,6.365,222.714c11.548,41.911,38.205,78.061,74.831,101.48c-24.433,56.59,1.634,122.272,58.224,146.706
		c14.09,6.084,29.284,9.196,44.632,9.142c39.915,0.142,76.85-21.1,96.8-55.672c15.223,5.062,31.158,7.652,47.2,7.672
		c83.89,0.062,151.946-67.895,152.007-151.785C480.116,203.057,422.256,138.093,345.564,129.249L345.564,129.249z M16.052,176.041
		C16.078,87.676,87.734,16.063,176.1,16.089c73.827,0.022,138.054,50.555,155.448,122.304c3.017,12.321,4.53,24.963,4.504,37.648
		c-0.03,52.147-25.471,101.009-68.176,130.936c-8.29,5.908-17.15,10.974-26.448,15.12c-10.549,4.737-21.586,8.302-32.912,10.632
		c-3.707,0.757-7.427,1.376-11.16,1.856l-0.304,0.04c-6.959,0.96-13.976,1.433-21,1.416
		C87.686,336.041,16.052,264.407,16.052,176.041L16.052,176.041z M184.052,464.041c-52.856,0.163-95.835-42.553-95.998-95.409
		c-0.039-12.513,2.377-24.912,7.11-36.495c24.874,13.295,52.685,20.139,80.888,19.904c5.933-0.022,11.862-0.356,17.76-1
		c11.865,22.449,29.147,41.58,50.28,55.656c3.088,2.064,6.256,3.952,9.448,5.76l2.52,1.392c2.816,1.52,5.664,2.96,8.536,4.28
		c0.352,0.16,0.696,0.368,1.048,0.528C248.214,446.971,217.3,464.166,184.052,464.041L184.052,464.041z M328.052,416.041
		c-16.488,0.043-32.842-2.959-48.24-8.856c-9.454-3.554-18.465-8.187-26.856-13.808c-3.895-2.614-7.65-5.431-11.248-8.44
		c-0.624-0.512-1.256-1.008-1.872-1.528c-3.4-2.912-6.64-5.992-9.736-9.208c-0.608-0.632-1.2-1.28-1.792-1.928
		c-3.107-3.335-6.044-6.825-8.8-10.456c-0.264-0.344-0.496-0.712-0.752-1.056c-2.64-3.584-5.101-7.293-7.384-11.128
		c-0.208-0.344-0.432-0.68-0.632-1.024l0.56-0.128c0.8-0.152,1.528-0.36,2.296-0.52c2.96-0.648,5.92-1.36,8.856-2.16
		c1.2-0.328,2.4-0.688,3.592-1.04c2.624-0.773,5.235-1.616,7.832-2.528c1.112-0.392,2.232-0.76,3.352-1.176
		c3.608-1.344,7.2-2.768,10.736-4.352c10.251-4.568,20.02-10.151,29.16-16.664h0.04c55.824-39.119,83.985-106.996,72.248-174.144
		c74.117,11.986,124.484,81.786,112.498,155.903C451.281,367.52,394.624,415.873,328.052,416.041L328.052,416.041z"/>
	
		<linearGradient id="SVGID_3_" gradientUnits="userSpaceOnUse" x1="-36.5992" y1="555.8604" x2="-36.5992" y2="618.8124" gradientTransform="matrix(8 0 0 -8 454.6374 4941.3726)">
		<stop  offset="0" style="stop-color:#006DF0"/>
		<stop  offset="1" style="stop-color:#00E7F0"/>
	</linearGradient>
	<path style="fill:url(#SVGID_3_);" d="M184.052,432.041c-35.33-0.04-63.96-28.67-64-64h-16c0.049,44.163,35.837,79.952,80,80
		c12.351,0.034,24.538-2.826,35.584-8.352l-7.136-14.32C203.667,429.782,193.925,432.067,184.052,432.041z"/>
	
		<linearGradient id="SVGID_4_" gradientUnits="userSpaceOnUse" x1="-15.8232" y1="555.8604" x2="-15.8232" y2="618.8124" gradientTransform="matrix(8 0 0 -8 454.6374 4941.3726)">
		<stop  offset="0" style="stop-color:#006DF0"/>
		<stop  offset="1" style="stop-color:#00E7F0"/>
	</linearGradient>
	<path style="fill:url(#SVGID_4_);" d="M320.052,368.041h16v32h-16V368.041z"/>
</g>
<linearGradient id="SVGID_5_" gradientUnits="userSpaceOnUse" x1="-53.9033" y1="567.019" x2="0.6267" y2="598.4901" gradientTransform="matrix(3.9994 -6.9286 -6.9286 -3.9994 4420.2461 2388.7617)">
	<stop  offset="0" style="stop-color:#006DF0"/>
	<stop  offset="1" style="stop-color:#00E7F0"/>
</linearGradient>
<path style="fill:url(#SVGID_5_);" d="M261.124,379.968l15.997-27.714l13.857,7.999l-15.997,27.714L261.124,379.968z"/>
<linearGradient id="SVGID_6_" gradientUnits="userSpaceOnUse" x1="-26.6061" y1="557.2084" x2="4.8689" y2="611.7253" gradientTransform="matrix(6.9281 -4.0002 -4.0002 -6.9281 2793.3523 4248.4668)">
	<stop  offset="0" style="stop-color:#006DF0"/>
	<stop  offset="1" style="stop-color:#00E7F0"/>
</linearGradient>
<path style="fill:url(#SVGID_6_);" d="M365.123,360.269l13.856-8l16.001,27.712l-13.856,8L365.123,360.269z"/>
<linearGradient id="SVGID_7_" gradientUnits="userSpaceOnUse" x1="-40.2602" y1="569.3964" x2="14.2568" y2="600.8704" gradientTransform="matrix(4.0002 -6.9281 -6.9281 -4.0002 4523.9819 2493.3135)">
	<stop  offset="0" style="stop-color:#006DF0"/>
	<stop  offset="1" style="stop-color:#00E7F0"/>
</linearGradient>
<path style="fill:url(#SVGID_7_);" d="M400.26,330.996l8-13.856l27.712,16.001l-8,13.856L400.26,330.996z"/>
<linearGradient id="SVGID_8_" gradientUnits="userSpaceOnUse" x1="-2.8232" y1="555.8604" x2="-2.8232" y2="618.8124" gradientTransform="matrix(8 0 0 -8 454.6374 4941.3726)">
	<stop  offset="0" style="stop-color:#006DF0"/>
	<stop  offset="1" style="stop-color:#00E7F0"/>
</linearGradient>
<path style="fill:url(#SVGID_8_);" d="M416.052,272.041h32v16h-32V272.041z"/>
<linearGradient id="SVGID_9_" gradientUnits="userSpaceOnUse" x1="-30.724" y1="559.5822" x2="0.749" y2="614.1071" gradientTransform="matrix(6.9286 -3.9994 -3.9994 -6.9286 2868.959 4248.7495)">
	<stop  offset="0" style="stop-color:#006DF0"/>
	<stop  offset="1" style="stop-color:#00E7F0"/>
</linearGradient>
<path style="fill:url(#SVGID_9_);" d="M400.258,229.115l27.714-15.997l7.999,13.857l-27.714,15.997L400.258,229.115z"/>
<linearGradient id="SVGID_10_" gradientUnits="userSpaceOnUse" x1="-60.3992" y1="578.2779" x2="-5.8832" y2="609.7499" gradientTransform="matrix(3.9994 -6.9286 -6.9286 -3.9994 4628.2622 2388.7458)">
	<stop  offset="0" style="stop-color:#006DF0"/>
	<stop  offset="1" style="stop-color:#00E7F0"/>
</linearGradient>
<path style="fill:url(#SVGID_10_);" d="M365.128,199.831l15.997-27.714l13.857,7.999l-15.997,27.714L365.128,199.831z"/>
<linearGradient id="SVGID_11_" gradientUnits="userSpaceOnUse" x1="-35.067" y1="555.8604" x2="-35.067" y2="618.8124" gradientTransform="matrix(8 0 0 -8 454.6374 4941.3726)">
	<stop  offset="0" style="stop-color:#006DF0"/>
	<stop  offset="1" style="stop-color:#00E7F0"/>
</linearGradient>
<path style="fill:url(#SVGID_11_);" d="M145.708,137.697l22.344-22.344v132.688h-24c-4.418,0-8,3.582-8,8s3.582,8,8,8h64
	c4.418,0,8-3.582,8-8s-3.582-8-8-8h-24v-152c-0.001-4.418-3.583-7.999-8.002-7.998c-2.121,0-4.154,0.843-5.654,2.342l-36,36
	c-3.069,3.178-2.981,8.243,0.197,11.312C137.693,140.691,142.608,140.691,145.708,137.697L145.708,137.697z"/>
<g>
</g>
<g>
</g>
<g>
</g>
<g>
</g>
<g>
</g>
<g>
</g>
<g>
</g>
<g>
</g>
<g>
</g>
<g>
</g>
<g>
</g>
<g>
</g>
<g>
</g>
<g>
</g>
<g>
</g>
</svg>
