<?xml version="1.0" encoding="iso-8859-1"?>
<!-- Generator: Adobe Illustrator 19.0.0, SVG Export Plug-In . SVG Version: 6.00 Build 0)  -->
<svg version="1.1" id="Capa_1" xmlns="http://www.w3.org/2000/svg" xmlns:xlink="http://www.w3.org/1999/xlink" x="0px" y="0px"
	 viewBox="0 0 480 480" style="enable-background:new 0 0 480 480;" xml:space="preserve">
<linearGradient id="SVGID_1_" gradientUnits="userSpaceOnUse" x1="-26.875" y1="541.3953" x2="-26.875" y2="600.6823" gradientTransform="matrix(8 0 0 -8 454.9999 4797.0024)">
	<stop  offset="0" style="stop-color:#006DF0"/>
	<stop  offset="1" style="stop-color:#00E7F0"/>
</linearGradient>
<path style="fill:url(#SVGID_1_);" d="M479.76,374.056L416,119.024V72c0-13.255-10.745-24-24-24H264c-13.255,0-24,10.745-24,24v40
	h-16V24c-0.046-0.373-0.121-0.742-0.224-1.104c-0.05-0.56-0.16-1.112-0.328-1.648c-0.215-0.517-0.483-1.01-0.8-1.472
	c-0.158-0.338-0.34-0.664-0.544-0.976c-0.072-0.08-0.168-0.112-0.24-0.192c-0.418-0.401-0.877-0.757-1.368-1.064
	c-0.358-0.299-0.741-0.566-1.144-0.8c-0.989-0.313-1.999-0.551-3.024-0.712C216.2,16.056,216.112,16,216,16
	c-0.382,0.045-0.759,0.123-1.128,0.232c-0.543,0.047-1.08,0.155-1.6,0.32c-0.524,0.212-1.023,0.48-1.488,0.8
	c-0.335,0.155-0.659,0.334-0.968,0.536l-13.512,11.584L183.816,17.92c-2.994-2.561-7.406-2.561-10.4,0l-13.464,11.544
	l-13.456-11.536c-2.994-2.561-7.406-2.561-10.4,0l-13.464,11.528l-13.424-11.528c-0.312-0.207-0.638-0.392-0.976-0.552
	c-0.46-0.319-0.954-0.587-1.472-0.8c-0.533-0.172-1.083-0.284-1.64-0.336c-0.367-0.108-0.741-0.188-1.12-0.24
	c-0.104,0-0.192,0.056-0.296,0.056c-0.544,0.054-1.08,0.167-1.6,0.336c-0.481,0.082-0.952,0.21-1.408,0.384
	c-0.389,0.215-0.758,0.464-1.104,0.744c-0.508,0.306-0.978,0.671-1.4,1.088c-0.072,0.072-0.168,0.104-0.24,0.184
	c-0.204,0.309-0.386,0.633-0.544,0.968c-0.317,0.467-0.585,0.966-0.8,1.488c-0.163,0.521-0.273,1.057-0.328,1.6
	C96.156,23.224,96.063,23.609,96,24v88H84.496c-11.014-0.002-20.615,7.492-23.288,18.176L0.24,374.056
	C0.121,374.699,0.041,375.348,0,376v64c0,13.255,10.745,24,24,24h432c13.255,0,24-10.745,24-24l0,0v-64
	C479.959,375.348,479.879,374.699,479.76,374.056L479.76,374.056z M122.632,48c1.911,0,3.758-0.684,5.208-1.928l13.448-11.536
	l13.464,11.536c2.994,2.561,7.406,2.561,10.4,0L178.6,34.536l13.504,11.544c2.994,2.561,7.406,2.561,10.4,0L208,41.376V184h-96
	V41.416l5.424,4.656C118.874,47.316,120.722,48,122.632,48L122.632,48z M76.728,134.064c0.889-3.566,4.093-6.067,7.768-6.064H96v56
	H80v16h160v-16h-16v-56h24c4.418,0,8-3.582,8-8V72c0-4.418,3.582-8,8-8h128c4.418,0,8,3.582,8,8v48c0.043,0.33,0.11,0.656,0.2,0.976
	c-0.007,0.323,0.007,0.646,0.04,0.968L461.752,368H18.248L76.728,134.064z M464,440c0,4.418-3.582,8-8,8H24c-4.418,0-8-3.582-8-8
	v-56h448V440z"/>
<g>
	
		<linearGradient id="SVGID_2_" gradientUnits="userSpaceOnUse" x1="-15.875" y1="541.3953" x2="-15.875" y2="600.6823" gradientTransform="matrix(8 0 0 -8 454.9999 4797.0024)">
		<stop  offset="0" style="stop-color:#006DF0"/>
		<stop  offset="1" style="stop-color:#00E7F0"/>
	</linearGradient>
	<path style="fill:url(#SVGID_2_);" d="M280,112h96c4.418,0,8-3.582,8-8s-3.582-8-8-8h-96c-4.418,0-8,3.582-8,8S275.582,112,280,112
		z"/>
	
		<linearGradient id="SVGID_3_" gradientUnits="userSpaceOnUse" x1="-39.875" y1="541.3953" x2="-39.875" y2="600.6823" gradientTransform="matrix(8 0 0 -8 454.9999 4797.0024)">
		<stop  offset="0" style="stop-color:#006DF0"/>
		<stop  offset="1" style="stop-color:#00E7F0"/>
	</linearGradient>
	<path style="fill:url(#SVGID_3_);" d="M128,56h16v16h-16V56z"/>
	
		<linearGradient id="SVGID_4_" gradientUnits="userSpaceOnUse" x1="-34.875" y1="541.3953" x2="-34.875" y2="600.6823" gradientTransform="matrix(8 0 0 -8 454.9999 4797.0024)">
		<stop  offset="0" style="stop-color:#006DF0"/>
		<stop  offset="1" style="stop-color:#00E7F0"/>
	</linearGradient>
	<path style="fill:url(#SVGID_4_);" d="M160,56h32v16h-32V56z"/>
	
		<linearGradient id="SVGID_5_" gradientUnits="userSpaceOnUse" x1="-38.875" y1="541.3953" x2="-38.875" y2="600.6823" gradientTransform="matrix(8 0 0 -8 454.9999 4797.0024)">
		<stop  offset="0" style="stop-color:#006DF0"/>
		<stop  offset="1" style="stop-color:#00E7F0"/>
	</linearGradient>
	<path style="fill:url(#SVGID_5_);" d="M128,152h32v16h-32V152z"/>
	
		<linearGradient id="SVGID_6_" gradientUnits="userSpaceOnUse" x1="-34.875" y1="541.3953" x2="-34.875" y2="600.6823" gradientTransform="matrix(8 0 0 -8 454.9999 4797.0024)">
		<stop  offset="0" style="stop-color:#006DF0"/>
		<stop  offset="1" style="stop-color:#00E7F0"/>
	</linearGradient>
	<path style="fill:url(#SVGID_6_);" d="M168,152h16v16h-16V152z"/>
	
		<linearGradient id="SVGID_7_" gradientUnits="userSpaceOnUse" x1="-36.875" y1="541.3953" x2="-36.875" y2="600.6823" gradientTransform="matrix(8 0 0 -8 454.9999 4797.0024)">
		<stop  offset="0" style="stop-color:#006DF0"/>
		<stop  offset="1" style="stop-color:#00E7F0"/>
	</linearGradient>
	<path style="fill:url(#SVGID_7_);" d="M128,88h64v16h-64V88z"/>
	
		<linearGradient id="SVGID_8_" gradientUnits="userSpaceOnUse" x1="-37.375" y1="541.3953" x2="-37.375" y2="600.6823" gradientTransform="matrix(8 0 0 -8 454.9999 4797.0024)">
		<stop  offset="0" style="stop-color:#006DF0"/>
		<stop  offset="1" style="stop-color:#00E7F0"/>
	</linearGradient>
	<path style="fill:url(#SVGID_8_);" d="M128,120h56v16h-56V120z"/>
	
		<linearGradient id="SVGID_9_" gradientUnits="userSpaceOnUse" x1="-48.875" y1="541.3953" x2="-48.875" y2="600.6823" gradientTransform="matrix(8 0 0 -8 454.9999 4797.0024)">
		<stop  offset="0" style="stop-color:#006DF0"/>
		<stop  offset="1" style="stop-color:#00E7F0"/>
	</linearGradient>
	<path style="fill:url(#SVGID_9_);" d="M56,408h16v16H56V408z"/>
	
		<linearGradient id="SVGID_10_" gradientUnits="userSpaceOnUse" x1="-52.875" y1="541.3953" x2="-52.875" y2="600.6823" gradientTransform="matrix(8 0 0 -8 454.9999 4797.0024)">
		<stop  offset="0" style="stop-color:#006DF0"/>
		<stop  offset="1" style="stop-color:#00E7F0"/>
	</linearGradient>
	<path style="fill:url(#SVGID_10_);" d="M24,408h16v16H24V408z"/>
	
		<linearGradient id="SVGID_11_" gradientUnits="userSpaceOnUse" x1="-44.875" y1="541.3953" x2="-44.875" y2="600.6823" gradientTransform="matrix(8 0 0 -8 454.9999 4797.0024)">
		<stop  offset="0" style="stop-color:#006DF0"/>
		<stop  offset="1" style="stop-color:#00E7F0"/>
	</linearGradient>
	<path style="fill:url(#SVGID_11_);" d="M88,408h16v16H88V408z"/>
	
		<linearGradient id="SVGID_12_" gradientUnits="userSpaceOnUse" x1="-40.875" y1="541.3953" x2="-40.875" y2="600.6823" gradientTransform="matrix(8 0 0 -8 454.9999 4797.0024)">
		<stop  offset="0" style="stop-color:#006DF0"/>
		<stop  offset="1" style="stop-color:#00E7F0"/>
	</linearGradient>
	<path style="fill:url(#SVGID_12_);" d="M120,408h16v16h-16V408z"/>
	
		<linearGradient id="SVGID_13_" gradientUnits="userSpaceOnUse" x1="-36.875" y1="541.3953" x2="-36.875" y2="600.6823" gradientTransform="matrix(8 0 0 -8 454.9999 4797.0024)">
		<stop  offset="0" style="stop-color:#006DF0"/>
		<stop  offset="1" style="stop-color:#00E7F0"/>
	</linearGradient>
	<path style="fill:url(#SVGID_13_);" d="M152,408h16v16h-16V408z"/>
	
		<linearGradient id="SVGID_14_" gradientUnits="userSpaceOnUse" x1="-32.875" y1="541.3953" x2="-32.875" y2="600.6823" gradientTransform="matrix(8 0 0 -8 454.9999 4797.0024)">
		<stop  offset="0" style="stop-color:#006DF0"/>
		<stop  offset="1" style="stop-color:#00E7F0"/>
	</linearGradient>
	<path style="fill:url(#SVGID_14_);" d="M184,408h16v16h-16V408z"/>
	
		<linearGradient id="SVGID_15_" gradientUnits="userSpaceOnUse" x1="-28.875" y1="541.3953" x2="-28.875" y2="600.6823" gradientTransform="matrix(8 0 0 -8 454.9999 4797.0024)">
		<stop  offset="0" style="stop-color:#006DF0"/>
		<stop  offset="1" style="stop-color:#00E7F0"/>
	</linearGradient>
	<path style="fill:url(#SVGID_15_);" d="M216,408h16v16h-16V408z"/>
	
		<linearGradient id="SVGID_16_" gradientUnits="userSpaceOnUse" x1="-24.875" y1="541.3953" x2="-24.875" y2="600.6823" gradientTransform="matrix(8 0 0 -8 454.9999 4797.0024)">
		<stop  offset="0" style="stop-color:#006DF0"/>
		<stop  offset="1" style="stop-color:#00E7F0"/>
	</linearGradient>
	<path style="fill:url(#SVGID_16_);" d="M248,408h16v16h-16V408z"/>
	
		<linearGradient id="SVGID_17_" gradientUnits="userSpaceOnUse" x1="-20.875" y1="541.3953" x2="-20.875" y2="600.6823" gradientTransform="matrix(8 0 0 -8 454.9999 4797.0024)">
		<stop  offset="0" style="stop-color:#006DF0"/>
		<stop  offset="1" style="stop-color:#00E7F0"/>
	</linearGradient>
	<path style="fill:url(#SVGID_17_);" d="M280,408h16v16h-16V408z"/>
	
		<linearGradient id="SVGID_18_" gradientUnits="userSpaceOnUse" x1="-16.875" y1="541.3953" x2="-16.875" y2="600.6823" gradientTransform="matrix(8 0 0 -8 454.9999 4797.0024)">
		<stop  offset="0" style="stop-color:#006DF0"/>
		<stop  offset="1" style="stop-color:#00E7F0"/>
	</linearGradient>
	<path style="fill:url(#SVGID_18_);" d="M312,408h16v16h-16V408z"/>
	
		<linearGradient id="SVGID_19_" gradientUnits="userSpaceOnUse" x1="-12.875" y1="541.3953" x2="-12.875" y2="600.6823" gradientTransform="matrix(8 0 0 -8 454.9999 4797.0024)">
		<stop  offset="0" style="stop-color:#006DF0"/>
		<stop  offset="1" style="stop-color:#00E7F0"/>
	</linearGradient>
	<path style="fill:url(#SVGID_19_);" d="M344,408h16v16h-16V408z"/>
	
		<linearGradient id="SVGID_20_" gradientUnits="userSpaceOnUse" x1="-8.875" y1="541.3953" x2="-8.875" y2="600.6823" gradientTransform="matrix(8 0 0 -8 454.9999 4797.0024)">
		<stop  offset="0" style="stop-color:#006DF0"/>
		<stop  offset="1" style="stop-color:#00E7F0"/>
	</linearGradient>
	<path style="fill:url(#SVGID_20_);" d="M376,408h16v16h-16V408z"/>
	
		<linearGradient id="SVGID_21_" gradientUnits="userSpaceOnUse" x1="-4.875" y1="541.3953" x2="-4.875" y2="600.6823" gradientTransform="matrix(8 0 0 -8 454.9999 4797.0024)">
		<stop  offset="0" style="stop-color:#006DF0"/>
		<stop  offset="1" style="stop-color:#00E7F0"/>
	</linearGradient>
	<path style="fill:url(#SVGID_21_);" d="M408,408h16v16h-16V408z"/>
	
		<linearGradient id="SVGID_22_" gradientUnits="userSpaceOnUse" x1="-0.875" y1="541.3953" x2="-0.875" y2="600.6823" gradientTransform="matrix(8 0 0 -8 454.9999 4797.0024)">
		<stop  offset="0" style="stop-color:#006DF0"/>
		<stop  offset="1" style="stop-color:#00E7F0"/>
	</linearGradient>
	<path style="fill:url(#SVGID_22_);" d="M440,408h16v16h-16V408z"/>
	
		<linearGradient id="SVGID_23_" gradientUnits="userSpaceOnUse" x1="-23.875" y1="541.3953" x2="-23.875" y2="600.6823" gradientTransform="matrix(8 0 0 -8 454.9999 4797.0024)">
		<stop  offset="0" style="stop-color:#006DF0"/>
		<stop  offset="1" style="stop-color:#00E7F0"/>
	</linearGradient>
	<path style="fill:url(#SVGID_23_);" d="M280,224h-32c-4.418,0-8,3.582-8,8v32c0,4.418,3.582,8,8,8h32c4.418,0,8-3.582,8-8v-32
		C288,227.582,284.418,224,280,224z M272,256h-16v-16h16V256z"/>
	
		<linearGradient id="SVGID_24_" gradientUnits="userSpaceOnUse" x1="-45.875" y1="541.3953" x2="-45.875" y2="600.6823" gradientTransform="matrix(8 0 0 -8 454.9999 4797.0024)">
		<stop  offset="0" style="stop-color:#006DF0"/>
		<stop  offset="1" style="stop-color:#00E7F0"/>
	</linearGradient>
	<path style="fill:url(#SVGID_24_);" d="M104,256H72c-4.418,0-8,3.582-8,8v32c0,4.418,3.582,8,8,8h32c4.418,0,8-3.582,8-8v-32
		C112,259.582,108.418,256,104,256z M96,288H80v-16h16V288z"/>
	
		<linearGradient id="SVGID_25_" gradientUnits="userSpaceOnUse" x1="-15.875" y1="541.3953" x2="-15.875" y2="600.6823" gradientTransform="matrix(8 0 0 -8 454.9999 4797.0024)">
		<stop  offset="0" style="stop-color:#006DF0"/>
		<stop  offset="1" style="stop-color:#00E7F0"/>
	</linearGradient>
	<path style="fill:url(#SVGID_25_);" d="M344,224h-32c-4.418,0-8,3.582-8,8v32c0,4.418,3.582,8,8,8h32c4.418,0,8-3.582,8-8v-32
		C352,227.582,348.418,224,344,224z M336,256h-16v-16h16V256z"/>
	
		<linearGradient id="SVGID_26_" gradientUnits="userSpaceOnUse" x1="-7.875" y1="541.3953" x2="-7.875" y2="600.6823" gradientTransform="matrix(8 0 0 -8 454.9999 4797.0024)">
		<stop  offset="0" style="stop-color:#006DF0"/>
		<stop  offset="1" style="stop-color:#00E7F0"/>
	</linearGradient>
	<path style="fill:url(#SVGID_26_);" d="M408,224h-32c-4.418,0-8,3.582-8,8v32c0,4.418,3.582,8,8,8h32c4.418,0,8-3.582,8-8v-32
		C416,227.582,412.418,224,408,224z M400,256h-16v-16h16V256z"/>
	
		<linearGradient id="SVGID_27_" gradientUnits="userSpaceOnUse" x1="-23.875" y1="541.3953" x2="-23.875" y2="600.6823" gradientTransform="matrix(8 0 0 -8 454.9999 4797.0024)">
		<stop  offset="0" style="stop-color:#006DF0"/>
		<stop  offset="1" style="stop-color:#00E7F0"/>
	</linearGradient>
	<path style="fill:url(#SVGID_27_);" d="M280,288h-32c-4.418,0-8,3.582-8,8v32c0,4.418,3.582,8,8,8h32c4.418,0,8-3.582,8-8v-32
		C288,291.582,284.418,288,280,288z M272,320h-16v-16h16V320z"/>
	
		<linearGradient id="SVGID_28_" gradientUnits="userSpaceOnUse" x1="-15.875" y1="541.3953" x2="-15.875" y2="600.6823" gradientTransform="matrix(8 0 0 -8 454.9999 4797.0024)">
		<stop  offset="0" style="stop-color:#006DF0"/>
		<stop  offset="1" style="stop-color:#00E7F0"/>
	</linearGradient>
	<path style="fill:url(#SVGID_28_);" d="M344,288h-32c-4.418,0-8,3.582-8,8v32c0,4.418,3.582,8,8,8h32c4.418,0,8-3.582,8-8v-32
		C352,291.582,348.418,288,344,288z M336,320h-16v-16h16V320z"/>
	
		<linearGradient id="SVGID_29_" gradientUnits="userSpaceOnUse" x1="-7.875" y1="541.3953" x2="-7.875" y2="600.6823" gradientTransform="matrix(8 0 0 -8 454.9999 4797.0024)">
		<stop  offset="0" style="stop-color:#006DF0"/>
		<stop  offset="1" style="stop-color:#00E7F0"/>
	</linearGradient>
	<path style="fill:url(#SVGID_29_);" d="M408,288h-32c-4.418,0-8,3.582-8,8v32c0,4.418,3.582,8,8,8h32c4.418,0,8-3.582,8-8v-32
		C416,291.582,412.418,288,408,288z M400,320h-16v-16h16V320z"/>
	
		<linearGradient id="SVGID_30_" gradientUnits="userSpaceOnUse" x1="-34.875" y1="541.3953" x2="-34.875" y2="600.6823" gradientTransform="matrix(8 0 0 -8 454.9999 4797.0024)">
		<stop  offset="0" style="stop-color:#006DF0"/>
		<stop  offset="1" style="stop-color:#00E7F0"/>
	</linearGradient>
	<path style="fill:url(#SVGID_30_);" d="M216,272h-80c-4.418,0-8,3.582-8,8s3.582,8,8,8h80c4.418,0,8-3.582,8-8S220.418,272,216,272
		z"/>
</g>
<g>
</g>
<g>
</g>
<g>
</g>
<g>
</g>
<g>
</g>
<g>
</g>
<g>
</g>
<g>
</g>
<g>
</g>
<g>
</g>
<g>
</g>
<g>
</g>
<g>
</g>
<g>
</g>
<g>
</g>
</svg>
