<?xml version="1.0" encoding="iso-8859-1"?>
<!-- Generator: Adobe Illustrator 19.0.0, SVG Export Plug-In . SVG Version: 6.00 Build 0)  -->
<svg version="1.1" id="Capa_1" xmlns="http://www.w3.org/2000/svg" xmlns:xlink="http://www.w3.org/1999/xlink" x="0px" y="0px"
	 viewBox="0 0 480 480" style="enable-background:new 0 0 480 480;" xml:space="preserve">
<g>
	
		<linearGradient id="SVGID_1_" gradientUnits="userSpaceOnUse" x1="-26.875" y1="556.8732" x2="-26.875" y2="618.0192" gradientTransform="matrix(8 0 0 -8 455.0001 4940.9922)">
		<stop  offset="0" style="stop-color:#006DF0"/>
		<stop  offset="1" style="stop-color:#00E7F0"/>
	</linearGradient>
	<path style="fill:url(#SVGID_1_);" d="M472,95.999H371.312L277.656,2.343c-3.124-3.123-8.188-3.123-11.312,0L208,60.687
		l-26.344-26.344c-3.124-3.123-8.188-3.123-11.312,0l-61.656,61.656H8c-4.418,0-8,3.582-8,8v368c0,4.418,3.582,8,8,8h464
		c4.418,0,8-3.582,8-8v-368C480,99.581,476.418,95.999,472,95.999z M272,19.311l76.688,76.688H243.312l-24-24L272,19.311z
		 M176,51.311l44.688,44.688h-89.376L176,51.311z M464,463.999H16v-352h448V463.999z"/>
	
		<linearGradient id="SVGID_2_" gradientUnits="userSpaceOnUse" x1="-26.875" y1="556.8732" x2="-26.875" y2="618.0192" gradientTransform="matrix(8 0 0 -8 455.0001 4940.9922)">
		<stop  offset="0" style="stop-color:#006DF0"/>
		<stop  offset="1" style="stop-color:#00E7F0"/>
	</linearGradient>
	<path style="fill:url(#SVGID_2_);" d="M304,375.999V275.311l20.288,20.288c3.178,3.07,8.242,2.982,11.312-0.196
		c2.995-3.1,2.995-8.016,0-11.116l-33.944-33.944c-3.124-3.123-8.188-3.123-11.312,0L256.4,284.287
		c-3.07,3.178-2.982,8.242,0.196,11.312c3.1,2.995,8.016,2.995,11.116,0L288,275.311v100.688h-96V275.311l20.288,20.288
		c3.069,3.178,8.134,3.266,11.312,0.196c3.178-3.07,3.266-8.134,0.196-11.312c-0.064-0.067-0.13-0.132-0.196-0.196l-33.944-33.944
		c-3.124-3.123-8.188-3.123-11.312,0L144.4,284.287c-3.178,3.069-3.266,8.134-0.196,11.312c3.069,3.178,8.134,3.266,11.312,0.196
		c0.067-0.064,0.132-0.13,0.196-0.196L176,275.311v100.688h-64c-4.418,0-8,3.582-8,8s3.582,8,8,8h256c4.418,0,8-3.582,8-8
		s-3.582-8-8-8H304z"/>
	
		<linearGradient id="SVGID_3_" gradientUnits="userSpaceOnUse" x1="-26.875" y1="556.8732" x2="-26.875" y2="618.0192" gradientTransform="matrix(8 0 0 -8 455.0001 4940.9922)">
		<stop  offset="0" style="stop-color:#006DF0"/>
		<stop  offset="1" style="stop-color:#00E7F0"/>
	</linearGradient>
	<path style="fill:url(#SVGID_3_);" d="M192,175.999h96c13.255,0,24-10.745,24-24s-10.745-24-24-24h-96c-13.255,0-24,10.745-24,24
		S178.745,175.999,192,175.999z M192,143.999h96c4.418,0,8,3.582,8,8s-3.582,8-8,8h-96c-4.418,0-8-3.582-8-8
		S187.582,143.999,192,143.999z"/>
</g>
<g>
	
		<linearGradient id="SVGID_4_" gradientUnits="userSpaceOnUse" x1="-52.875" y1="556.8732" x2="-52.875" y2="618.0192" gradientTransform="matrix(8 0 0 -8 455.0001 4940.9922)">
		<stop  offset="0" style="stop-color:#006DF0"/>
		<stop  offset="1" style="stop-color:#00E7F0"/>
	</linearGradient>
	<path style="fill:url(#SVGID_4_);" d="M24,439.999h16v16H24V439.999z"/>
	
		<linearGradient id="SVGID_5_" gradientUnits="userSpaceOnUse" x1="-48.875" y1="556.8732" x2="-48.875" y2="618.0192" gradientTransform="matrix(8 0 0 -8 455.0001 4940.9922)">
		<stop  offset="0" style="stop-color:#006DF0"/>
		<stop  offset="1" style="stop-color:#00E7F0"/>
	</linearGradient>
	<path style="fill:url(#SVGID_5_);" d="M56,439.999h16v16H56V439.999z"/>
	
		<linearGradient id="SVGID_6_" gradientUnits="userSpaceOnUse" x1="-44.875" y1="556.8732" x2="-44.875" y2="618.0192" gradientTransform="matrix(8 0 0 -8 455.0001 4940.9922)">
		<stop  offset="0" style="stop-color:#006DF0"/>
		<stop  offset="1" style="stop-color:#00E7F0"/>
	</linearGradient>
	<path style="fill:url(#SVGID_6_);" d="M88,439.999h16v16H88V439.999z"/>
</g>
<linearGradient id="SVGCleanerId_0_2_" gradientUnits="userSpaceOnUse" x1="-40.875" y1="556.8732" x2="-40.875" y2="618.0192" gradientTransform="matrix(8 0 0 -8 455.0001 4940.9922)">
	<stop  offset="0" style="stop-color:#006DF0"/>
	<stop  offset="1" style="stop-color:#00E7F0"/>
</linearGradient>
<path id="SVGCleanerId_0" style="fill:url(#SVGCleanerId_0_2_);" d="M120,439.999h16v16h-16V439.999z"/>
<g>
	
		<linearGradient id="SVGCleanerId_0_3_" gradientUnits="userSpaceOnUse" x1="-40.875" y1="556.8732" x2="-40.875" y2="618.0192" gradientTransform="matrix(8 0 0 -8 455.0001 4940.9922)">
		<stop  offset="0" style="stop-color:#006DF0"/>
		<stop  offset="1" style="stop-color:#00E7F0"/>
	</linearGradient>
	<path id="SVGCleanerId_0_1_" style="fill:url(#SVGCleanerId_0_3_);" d="M120,439.999h16v16h-16V439.999z"/>
</g>
<g>
	
		<linearGradient id="SVGID_7_" gradientUnits="userSpaceOnUse" x1="-36.875" y1="556.8732" x2="-36.875" y2="618.0192" gradientTransform="matrix(8 0 0 -8 455.0001 4940.9922)">
		<stop  offset="0" style="stop-color:#006DF0"/>
		<stop  offset="1" style="stop-color:#00E7F0"/>
	</linearGradient>
	<path style="fill:url(#SVGID_7_);" d="M152,439.999h16v16h-16V439.999z"/>
	
		<linearGradient id="SVGID_8_" gradientUnits="userSpaceOnUse" x1="-32.875" y1="556.8732" x2="-32.875" y2="618.0192" gradientTransform="matrix(8 0 0 -8 455.0001 4940.9922)">
		<stop  offset="0" style="stop-color:#006DF0"/>
		<stop  offset="1" style="stop-color:#00E7F0"/>
	</linearGradient>
	<path style="fill:url(#SVGID_8_);" d="M184,439.999h16v16h-16V439.999z"/>
	
		<linearGradient id="SVGID_9_" gradientUnits="userSpaceOnUse" x1="-28.875" y1="556.8732" x2="-28.875" y2="618.0192" gradientTransform="matrix(8 0 0 -8 455.0001 4940.9922)">
		<stop  offset="0" style="stop-color:#006DF0"/>
		<stop  offset="1" style="stop-color:#00E7F0"/>
	</linearGradient>
	<path style="fill:url(#SVGID_9_);" d="M216,439.999h16v16h-16V439.999z"/>
	
		<linearGradient id="SVGID_10_" gradientUnits="userSpaceOnUse" x1="-24.875" y1="556.8732" x2="-24.875" y2="618.0192" gradientTransform="matrix(8 0 0 -8 455.0001 4940.9922)">
		<stop  offset="0" style="stop-color:#006DF0"/>
		<stop  offset="1" style="stop-color:#00E7F0"/>
	</linearGradient>
	<path style="fill:url(#SVGID_10_);" d="M248,439.999h16v16h-16V439.999z"/>
	
		<linearGradient id="SVGID_11_" gradientUnits="userSpaceOnUse" x1="-20.875" y1="556.8732" x2="-20.875" y2="618.0192" gradientTransform="matrix(8 0 0 -8 455.0001 4940.9922)">
		<stop  offset="0" style="stop-color:#006DF0"/>
		<stop  offset="1" style="stop-color:#00E7F0"/>
	</linearGradient>
	<path style="fill:url(#SVGID_11_);" d="M280,439.999h16v16h-16V439.999z"/>
	
		<linearGradient id="SVGID_12_" gradientUnits="userSpaceOnUse" x1="-16.875" y1="556.8732" x2="-16.875" y2="618.0192" gradientTransform="matrix(8 0 0 -8 455.0001 4940.9922)">
		<stop  offset="0" style="stop-color:#006DF0"/>
		<stop  offset="1" style="stop-color:#00E7F0"/>
	</linearGradient>
	<path style="fill:url(#SVGID_12_);" d="M312,439.999h16v16h-16V439.999z"/>
	
		<linearGradient id="SVGID_13_" gradientUnits="userSpaceOnUse" x1="-12.875" y1="556.8732" x2="-12.875" y2="618.0192" gradientTransform="matrix(8 0 0 -8 455.0001 4940.9922)">
		<stop  offset="0" style="stop-color:#006DF0"/>
		<stop  offset="1" style="stop-color:#00E7F0"/>
	</linearGradient>
	<path style="fill:url(#SVGID_13_);" d="M344,439.999h16v16h-16V439.999z"/>
	
		<linearGradient id="SVGID_14_" gradientUnits="userSpaceOnUse" x1="-8.875" y1="556.8732" x2="-8.875" y2="618.0192" gradientTransform="matrix(8 0 0 -8 455.0001 4940.9922)">
		<stop  offset="0" style="stop-color:#006DF0"/>
		<stop  offset="1" style="stop-color:#00E7F0"/>
	</linearGradient>
	<path style="fill:url(#SVGID_14_);" d="M376,439.999h16v16h-16V439.999z"/>
	
		<linearGradient id="SVGID_15_" gradientUnits="userSpaceOnUse" x1="-4.875" y1="556.8732" x2="-4.875" y2="618.0192" gradientTransform="matrix(8 0 0 -8 455.0001 4940.9922)">
		<stop  offset="0" style="stop-color:#006DF0"/>
		<stop  offset="1" style="stop-color:#00E7F0"/>
	</linearGradient>
	<path style="fill:url(#SVGID_15_);" d="M408,439.999h16v16h-16V439.999z"/>
	
		<linearGradient id="SVGID_16_" gradientUnits="userSpaceOnUse" x1="-0.875" y1="556.8732" x2="-0.875" y2="618.0192" gradientTransform="matrix(8 0 0 -8 455.0001 4940.9922)">
		<stop  offset="0" style="stop-color:#006DF0"/>
		<stop  offset="1" style="stop-color:#00E7F0"/>
	</linearGradient>
	<path style="fill:url(#SVGID_16_);" d="M440,439.999h16v16h-16V439.999z"/>
</g>
<g>
</g>
<g>
</g>
<g>
</g>
<g>
</g>
<g>
</g>
<g>
</g>
<g>
</g>
<g>
</g>
<g>
</g>
<g>
</g>
<g>
</g>
<g>
</g>
<g>
</g>
<g>
</g>
<g>
</g>
</svg>
