<?xml version="1.0" encoding="iso-8859-1"?>
<!-- Generator: Adobe Illustrator 19.0.0, SVG Export Plug-In . SVG Version: 6.00 Build 0)  -->
<svg version="1.1" id="Capa_1" xmlns="http://www.w3.org/2000/svg" xmlns:xlink="http://www.w3.org/1999/xlink" x="0px" y="0px"
	 viewBox="0 0 480 480" style="enable-background:new 0 0 480 480;" xml:space="preserve">
<linearGradient id="SVGID_1_" gradientUnits="userSpaceOnUse" x1="-26.875" y1="521.064" x2="-26.875" y2="579.986" gradientTransform="matrix(8 0 0 -8 455 4616.9009)">
	<stop  offset="0" style="stop-color:#006DF0"/>
	<stop  offset="1" style="stop-color:#00E7F0"/>
</linearGradient>
<path style="fill:url(#SVGID_1_);" d="M456,35.989H24c-13.255,0-24,10.745-24,24v288c0,13.255,10.745,24,24,24h226.088
	c26.492,60.725,97.196,88.476,157.92,61.984c43.736-19.08,72.004-62.267,71.992-109.984v-264C480,46.734,469.255,35.989,456,35.989z
	 M16,115.989h448v32H16V115.989z M24,51.989h432c4.418,0,8,3.582,8,8v40H16v-40C16,55.571,19.582,51.989,24,51.989z M360,427.989
	c-43.875-0.075-82.99-27.658-97.792-68.96c-0.712-1.944-1.384-3.896-1.968-5.872c-0.432-1.472-0.8-2.976-1.152-4.48
	s-0.8-3.2-1.136-4.8c-0.392-2.008-0.664-4.056-0.936-6.104c-0.16-1.216-0.384-2.4-0.504-3.656c-0.32-3.36-0.512-6.72-0.512-10.128
	c0-57.438,46.562-104,104-104s104,46.562,104,104S417.438,427.989,360,427.989L360,427.989z M458.88,256.141
	c-1.728-2.501-3.549-4.933-5.464-7.296c-0.528-0.664-1.064-1.328-1.6-1.976c-2.184-2.592-4.448-5.12-6.84-7.52
	c-0.248-0.256-0.52-0.488-0.8-0.736c-2.2-2.176-4.504-4.248-6.872-6.248c-0.648-0.552-1.296-1.096-1.96-1.6
	c-2.64-2.144-5.344-4.2-8.168-6.112c-0.24-0.168-0.504-0.312-0.744-0.48c-2.632-1.752-5.344-3.376-8.104-4.92
	c-0.76-0.424-1.512-0.848-2.28-1.256c-3.032-1.6-6.112-3.128-9.288-4.48c-0.192-0.08-0.4-0.144-0.6-0.232
	c-3.008-1.256-6.096-2.4-9.224-3.384c-0.8-0.272-1.688-0.536-2.536-0.8c-3.352-1.008-6.736-1.92-10.2-2.632l-0.352-0.056
	c-3.352-0.68-6.776-1.176-10.232-1.6c-0.904-0.104-1.808-0.2-2.72-0.28c-3.584-0.32-7.216-0.544-10.896-0.544
	c-66.243,0.075-119.925,53.757-120,120c0,3.648,0.224,7.272,0.552,10.872c0.08,0.92,0.176,1.832,0.28,2.752
	c0.376,3.312,0.856,6.608,1.512,9.872c0.096,0.48,0.2,0.952,0.296,1.432c0.512,2.4,1.064,4.736,1.72,7.072H24c-4.418,0-8-3.582-8-8
	v-184h448v100.176c-1.376-2.4-2.84-4.696-4.368-6.968C459.392,256.837,459.128,256.501,458.88,256.141L458.88,256.141z"/>
<g>
	
		<linearGradient id="SVGID_2_" gradientUnits="userSpaceOnUse" x1="-52.875" y1="521.064" x2="-52.875" y2="579.986" gradientTransform="matrix(8 0 0 -8 455 4616.9009)">
		<stop  offset="0" style="stop-color:#006DF0"/>
		<stop  offset="1" style="stop-color:#00E7F0"/>
	</linearGradient>
	<path style="fill:url(#SVGID_2_);" d="M24,123.989h16v16H24V123.989z"/>
	
		<linearGradient id="SVGID_3_" gradientUnits="userSpaceOnUse" x1="-48.875" y1="521.064" x2="-48.875" y2="579.986" gradientTransform="matrix(8 0 0 -8 455 4616.9009)">
		<stop  offset="0" style="stop-color:#006DF0"/>
		<stop  offset="1" style="stop-color:#00E7F0"/>
	</linearGradient>
	<path style="fill:url(#SVGID_3_);" d="M56,123.989h16v16H56V123.989z"/>
	
		<linearGradient id="SVGID_4_" gradientUnits="userSpaceOnUse" x1="-44.875" y1="521.064" x2="-44.875" y2="579.986" gradientTransform="matrix(8 0 0 -8 455 4616.9009)">
		<stop  offset="0" style="stop-color:#006DF0"/>
		<stop  offset="1" style="stop-color:#00E7F0"/>
	</linearGradient>
	<path style="fill:url(#SVGID_4_);" d="M88,123.989h16v16H88V123.989z"/>
	
		<linearGradient id="SVGID_5_" gradientUnits="userSpaceOnUse" x1="-40.875" y1="521.064" x2="-40.875" y2="579.986" gradientTransform="matrix(8 0 0 -8 455 4616.9009)">
		<stop  offset="0" style="stop-color:#006DF0"/>
		<stop  offset="1" style="stop-color:#00E7F0"/>
	</linearGradient>
	<path style="fill:url(#SVGID_5_);" d="M120,123.989h16v16h-16V123.989z"/>
	
		<linearGradient id="SVGID_6_" gradientUnits="userSpaceOnUse" x1="-36.875" y1="521.064" x2="-36.875" y2="579.986" gradientTransform="matrix(8 0 0 -8 455 4616.9009)">
		<stop  offset="0" style="stop-color:#006DF0"/>
		<stop  offset="1" style="stop-color:#00E7F0"/>
	</linearGradient>
	<path style="fill:url(#SVGID_6_);" d="M152,123.989h16v16h-16V123.989z"/>
	
		<linearGradient id="SVGID_7_" gradientUnits="userSpaceOnUse" x1="-32.875" y1="521.064" x2="-32.875" y2="579.986" gradientTransform="matrix(8 0 0 -8 455 4616.9009)">
		<stop  offset="0" style="stop-color:#006DF0"/>
		<stop  offset="1" style="stop-color:#00E7F0"/>
	</linearGradient>
	<path style="fill:url(#SVGID_7_);" d="M184,123.989h16v16h-16V123.989z"/>
	
		<linearGradient id="SVGID_8_" gradientUnits="userSpaceOnUse" x1="-28.875" y1="521.064" x2="-28.875" y2="579.986" gradientTransform="matrix(8 0 0 -8 455 4616.9009)">
		<stop  offset="0" style="stop-color:#006DF0"/>
		<stop  offset="1" style="stop-color:#00E7F0"/>
	</linearGradient>
	<path style="fill:url(#SVGID_8_);" d="M216,123.989h16v16h-16V123.989z"/>
	
		<linearGradient id="SVGID_9_" gradientUnits="userSpaceOnUse" x1="-24.875" y1="521.064" x2="-24.875" y2="579.986" gradientTransform="matrix(8 0 0 -8 455 4616.9009)">
		<stop  offset="0" style="stop-color:#006DF0"/>
		<stop  offset="1" style="stop-color:#00E7F0"/>
	</linearGradient>
	<path style="fill:url(#SVGID_9_);" d="M248,123.989h16v16h-16V123.989z"/>
	
		<linearGradient id="SVGID_10_" gradientUnits="userSpaceOnUse" x1="-20.875" y1="521.064" x2="-20.875" y2="579.986" gradientTransform="matrix(8 0 0 -8 455 4616.9009)">
		<stop  offset="0" style="stop-color:#006DF0"/>
		<stop  offset="1" style="stop-color:#00E7F0"/>
	</linearGradient>
	<path style="fill:url(#SVGID_10_);" d="M280,123.989h16v16h-16V123.989z"/>
	
		<linearGradient id="SVGID_11_" gradientUnits="userSpaceOnUse" x1="-16.875" y1="521.064" x2="-16.875" y2="579.986" gradientTransform="matrix(8 0 0 -8 455 4616.9009)">
		<stop  offset="0" style="stop-color:#006DF0"/>
		<stop  offset="1" style="stop-color:#00E7F0"/>
	</linearGradient>
	<path style="fill:url(#SVGID_11_);" d="M312,123.989h16v16h-16V123.989z"/>
	
		<linearGradient id="SVGID_12_" gradientUnits="userSpaceOnUse" x1="-12.875" y1="521.064" x2="-12.875" y2="579.986" gradientTransform="matrix(8 0 0 -8 455 4616.9009)">
		<stop  offset="0" style="stop-color:#006DF0"/>
		<stop  offset="1" style="stop-color:#00E7F0"/>
	</linearGradient>
	<path style="fill:url(#SVGID_12_);" d="M344,123.989h16v16h-16V123.989z"/>
	
		<linearGradient id="SVGID_13_" gradientUnits="userSpaceOnUse" x1="-8.875" y1="521.064" x2="-8.875" y2="579.986" gradientTransform="matrix(8 0 0 -8 455 4616.9009)">
		<stop  offset="0" style="stop-color:#006DF0"/>
		<stop  offset="1" style="stop-color:#00E7F0"/>
	</linearGradient>
	<path style="fill:url(#SVGID_13_);" d="M376,123.989h16v16h-16V123.989z"/>
	
		<linearGradient id="SVGID_14_" gradientUnits="userSpaceOnUse" x1="-4.875" y1="521.064" x2="-4.875" y2="579.986" gradientTransform="matrix(8 0 0 -8 455 4616.9009)">
		<stop  offset="0" style="stop-color:#006DF0"/>
		<stop  offset="1" style="stop-color:#00E7F0"/>
	</linearGradient>
	<path style="fill:url(#SVGID_14_);" d="M408,123.989h16v16h-16V123.989z"/>
	
		<linearGradient id="SVGID_15_" gradientUnits="userSpaceOnUse" x1="-0.875" y1="521.064" x2="-0.875" y2="579.986" gradientTransform="matrix(8 0 0 -8 455 4616.9009)">
		<stop  offset="0" style="stop-color:#006DF0"/>
		<stop  offset="1" style="stop-color:#00E7F0"/>
	</linearGradient>
	<path style="fill:url(#SVGID_15_);" d="M440,123.989h16v16h-16V123.989z"/>
	
		<linearGradient id="SVGID_16_" gradientUnits="userSpaceOnUse" x1="-49.375" y1="521.064" x2="-49.375" y2="579.986" gradientTransform="matrix(8 0 0 -8 455 4616.9009)">
		<stop  offset="0" style="stop-color:#006DF0"/>
		<stop  offset="1" style="stop-color:#00E7F0"/>
	</linearGradient>
	<path style="fill:url(#SVGID_16_);" d="M32,323.989h56v16H32V323.989z"/>
	
		<linearGradient id="SVGID_17_" gradientUnits="userSpaceOnUse" x1="-36.375" y1="521.064" x2="-36.375" y2="579.986" gradientTransform="matrix(8 0 0 -8 455 4616.9009)">
		<stop  offset="0" style="stop-color:#006DF0"/>
		<stop  offset="1" style="stop-color:#00E7F0"/>
	</linearGradient>
	<path style="fill:url(#SVGID_17_);" d="M104,323.989h120v16H104V323.989z"/>
	
		<linearGradient id="SVGID_18_" gradientUnits="userSpaceOnUse" x1="-46.375" y1="521.064" x2="-46.375" y2="579.986" gradientTransform="matrix(8 0 0 -8 455 4616.9009)">
		<stop  offset="0" style="stop-color:#006DF0"/>
		<stop  offset="1" style="stop-color:#00E7F0"/>
	</linearGradient>
	<path style="fill:url(#SVGID_18_);" d="M32,291.989h104v16H32V291.989z"/>
	
		<linearGradient id="SVGID_19_" gradientUnits="userSpaceOnUse" x1="-32.875" y1="521.064" x2="-32.875" y2="579.986" gradientTransform="matrix(8 0 0 -8 455 4616.9009)">
		<stop  offset="0" style="stop-color:#006DF0"/>
		<stop  offset="1" style="stop-color:#00E7F0"/>
	</linearGradient>
	<path style="fill:url(#SVGID_19_);" d="M160,291.989h64v16h-64V291.989z"/>
	
		<linearGradient id="SVGID_20_" gradientUnits="userSpaceOnUse" x1="-19.875" y1="521.064" x2="-19.875" y2="579.986" gradientTransform="matrix(8 0 0 -8 455 4616.9009)">
		<stop  offset="0" style="stop-color:#006DF0"/>
		<stop  offset="1" style="stop-color:#00E7F0"/>
	</linearGradient>
	<path style="fill:url(#SVGID_20_);" d="M304,275.989h-16c-8.837,0-16,7.163-16,16v64c0,8.837,7.163,16,16,16h16
		c8.837,0,16-7.163,16-16v-8c0-4.418-3.582-8-8-8s-8,3.582-8,8v8h-16v-64h16v8c0,4.418,3.582,8,8,8s8-3.582,8-8v-8
		C320,283.152,312.837,275.989,304,275.989z"/>
	
		<linearGradient id="SVGID_21_" gradientUnits="userSpaceOnUse" x1="-3.875" y1="521.064" x2="-3.875" y2="579.986" gradientTransform="matrix(8 0 0 -8 455 4616.9009)">
		<stop  offset="0" style="stop-color:#006DF0"/>
		<stop  offset="1" style="stop-color:#00E7F0"/>
	</linearGradient>
	<path style="fill:url(#SVGID_21_);" d="M416,275.989c-8.837,0-16,7.163-16,16v64c0,8.837,7.163,16,16,16h16c8.837,0,16-7.163,16-16
		v-8c0-4.418-3.582-8-8-8s-8,3.582-8,8v8h-16v-64h16v8c0,4.418,3.582,8,8,8s8-3.582,8-8v-8c0-8.837-7.163-16-16-16H416z"/>
	
		<linearGradient id="SVGID_22_" gradientUnits="userSpaceOnUse" x1="-11.875" y1="521.064" x2="-11.875" y2="579.986" gradientTransform="matrix(8 0 0 -8 455 4616.9009)">
		<stop  offset="0" style="stop-color:#006DF0"/>
		<stop  offset="1" style="stop-color:#00E7F0"/>
	</linearGradient>
	<path style="fill:url(#SVGID_22_);" d="M368,291.989v8c0,4.418,3.582,8,8,8s8-3.582,8-8v-8c0-8.837-7.163-16-16-16h-16
		c-8.837,0-16,7.163-16,16v24c0,8.837,7.163,16,16,16h16v24h-16v-8c0-4.418-3.582-8-8-8s-8,3.582-8,8v8c0,8.837,7.163,16,16,16h16
		c8.837,0,16-7.163,16-16v-24c0-8.837-7.163-16-16-16h-16v-24H368z"/>
</g>
<g>
</g>
<g>
</g>
<g>
</g>
<g>
</g>
<g>
</g>
<g>
</g>
<g>
</g>
<g>
</g>
<g>
</g>
<g>
</g>
<g>
</g>
<g>
</g>
<g>
</g>
<g>
</g>
<g>
</g>
</svg>
