<?xml version="1.0" encoding="iso-8859-1"?>
<!-- Generator: Adobe Illustrator 19.0.0, SVG Export Plug-In . SVG Version: 6.00 Build 0)  -->
<svg version="1.1" id="Capa_1" xmlns="http://www.w3.org/2000/svg" xmlns:xlink="http://www.w3.org/1999/xlink" x="0px" y="0px"
	 viewBox="0 0 480.008 480.008" style="enable-background:new 0 0 480.008 480.008;" xml:space="preserve">
<linearGradient id="SVGID_1_" gradientUnits="userSpaceOnUse" x1="-26.8711" y1="559.4951" x2="-26.8711" y2="620.9421" gradientTransform="matrix(8 0 0 -8 454.9728 4941.001)">
	<stop  offset="0" style="stop-color:#006DF0"/>
	<stop  offset="1" style="stop-color:#00E7F0"/>
</linearGradient>
<path style="fill:url(#SVGID_1_);" d="M480.004,120c0-13.255-10.745-24-24-24H303.676c-4.418,0-8,3.582-8,8s3.582,8,8,8h152.328
	c4.418,0,8,3.582,8,8s-3.582,8-8,8H304.1c-4.418,0-8,3.582-8,8s3.582,8,8,8h141.296L387.58,346.248
	c-0.98,3.413-4.105,5.761-7.656,5.752h-276.92l-23.56-208H207.9c4.418,0,8-3.582,8-8s-3.582-8-8-8H77.604l-1.8-16H207.9
	c4.418,0,8-3.582,8-8s-3.582-8-8-8H74.012l-8.456-74.624C64.242,9.192,53.939-0.034,41.684,0H8.004c-4.418,0-8,3.582-8,8
	s3.582,8,8,8h33.68c4.104-0.024,7.561,3.063,8,7.144l44.8,395.48c1.313,12.172,11.597,21.393,23.84,21.376h10.4
	c4.392,26.112,29.12,43.72,55.232,39.328c20.151-3.389,35.939-19.177,39.328-39.328h49.44c4.418,26.139,29.19,43.747,55.329,39.329
	s43.747-29.19,39.329-55.329s-29.19-43.747-55.329-39.329c-20.143,3.405-35.924,19.186-39.329,39.329h-49.44
	c-4.392-26.112-29.12-43.72-55.232-39.328c-20.151,3.389-35.939,19.177-39.328,39.328h-10.4c-4.104,0.024-7.561-3.063-8-7.144
	L104.804,368h275.12c10.706-0.008,20.112-7.107,23.056-17.4l59.328-207.544C472.718,140.222,479.958,130.789,480.004,120
	L480.004,120z M320.004,400c17.673,0,32,14.327,32,32s-14.327,32-32,32s-32-14.327-32-32S302.331,400,320.004,400z M176.004,400
	c17.673,0,32,14.327,32,32s-14.327,32-32,32s-32-14.327-32-32S158.331,400,176.004,400z"/>
<g>
	
		<linearGradient id="SVGID_2_" gradientUnits="userSpaceOnUse" x1="-29.3711" y1="559.4951" x2="-29.3711" y2="620.9421" gradientTransform="matrix(8 0 0 -8 454.9728 4941.001)">
		<stop  offset="0" style="stop-color:#006DF0"/>
		<stop  offset="1" style="stop-color:#00E7F0"/>
	</linearGradient>
	<path style="fill:url(#SVGID_2_);" d="M120.004,320c-4.418,0-8,3.582-8,8s3.582,8,8,8h200c4.418,0,8-3.582,8-8s-3.582-8-8-8
		H120.004z"/>
	
		<linearGradient id="SVGID_3_" gradientUnits="userSpaceOnUse" x1="-11.8711" y1="559.4951" x2="-11.8711" y2="620.9421" gradientTransform="matrix(8 0 0 -8 454.9728 4941.001)">
		<stop  offset="0" style="stop-color:#006DF0"/>
		<stop  offset="1" style="stop-color:#00E7F0"/>
	</linearGradient>
	<path style="fill:url(#SVGID_3_);" d="M352.004,336h16c4.418,0,8-3.582,8-8s-3.582-8-8-8h-16c-4.418,0-8,3.582-8,8
		S347.586,336,352.004,336z"/>
	
		<linearGradient id="SVGID_4_" gradientUnits="userSpaceOnUse" x1="-24.8711" y1="559.4951" x2="-24.8711" y2="620.9421" gradientTransform="matrix(8 0 0 -8 454.9728 4941.001)">
		<stop  offset="0" style="stop-color:#006DF0"/>
		<stop  offset="1" style="stop-color:#00E7F0"/>
	</linearGradient>
	<path style="fill:url(#SVGID_4_);" d="M189.076,167.848L166.404,190.4c-3.128,3.12-3.135,8.186-0.014,11.314
		c0.005,0.005,0.01,0.01,0.014,0.014l83.92,83.92c3.124,3.123,8.188,3.123,11.312,0l83.968-83.912
		c3.128-3.12,3.135-8.186,0.014-11.314c-0.005-0.005-0.01-0.01-0.014-0.014l-22.64-22.56c-3.122-3.112-8.174-3.112-11.296,0
		l-31.664,31.584V8c0-4.418-3.582-8-8-8h-32c-4.418,0-8,3.582-8,8v191.432l-31.632-31.576
		C197.252,164.741,192.2,164.738,189.076,167.848L189.076,167.848z M234.348,224.376c3.125,3.124,8.19,3.123,11.314-0.002
		c1.499-1.5,2.342-3.534,2.342-5.654V16h16v202.72c0.001,4.418,3.583,7.999,8.002,7.998c2.121,0,4.154-0.843,5.654-2.342
		l39.632-39.576l11.312,11.272l-72.6,72.616l-72.6-72.6l11.312-11.288L234.348,224.376z"/>
</g>
<g>
</g>
<g>
</g>
<g>
</g>
<g>
</g>
<g>
</g>
<g>
</g>
<g>
</g>
<g>
</g>
<g>
</g>
<g>
</g>
<g>
</g>
<g>
</g>
<g>
</g>
<g>
</g>
<g>
</g>
</svg>
