<?xml version="1.0" encoding="iso-8859-1"?>
<!-- Generator: Adobe Illustrator 19.0.0, SVG Export Plug-In . SVG Version: 6.00 Build 0)  -->
<svg version="1.1" id="Capa_1" xmlns="http://www.w3.org/2000/svg" xmlns:xlink="http://www.w3.org/1999/xlink" x="0px" y="0px"
	 viewBox="0 0 480 480" style="enable-background:new 0 0 480 480;" xml:space="preserve">
<linearGradient id="SVGID_1_" gradientUnits="userSpaceOnUse" x1="-26.875" y1="557.625" x2="-26.875" y2="617.505" gradientTransform="matrix(8 0 0 -8 455.0001 4941)">
	<stop  offset="0" style="stop-color:#006DF0"/>
	<stop  offset="1" style="stop-color:#00E7F0"/>
</linearGradient>
<path style="fill:url(#SVGID_1_);" d="M440,408V168c-0.011-0.757-0.13-1.508-0.352-2.232c-0.064-0.224-0.16-0.424-0.24-0.64
	c-0.191-0.502-0.435-0.982-0.728-1.432c-0.12-0.192-0.24-0.384-0.376-0.568c-0.395-0.508-0.849-0.967-1.352-1.368
	c-0.088-0.064-0.144-0.152-0.232-0.208h-0.04c-0.04,0-0.096,0-0.144-0.056c-0.616-0.443-1.292-0.796-2.008-1.048l-192-64
	c-1.641-0.547-3.415-0.547-5.056,0l-192,64c-0.715,0.254-1.391,0.607-2.008,1.048c0,0-0.104,0-0.144,0.056
	c-0.078,0.065-0.153,0.135-0.224,0.208c-0.508,0.398-0.965,0.858-1.36,1.368c-0.136,0.184-0.256,0.376-0.376,0.568
	c-0.293,0.45-0.537,0.93-0.728,1.432c-0.08,0.216-0.176,0.416-0.24,0.632c-0.235,0.725-0.367,1.479-0.392,2.24v240
	c-0.001,3.445,2.204,6.503,5.472,7.592L190.696,464H48c-4.418,0-8,3.582-8,8s3.582,8,8,8h384c4.418,0,8-3.582,8-8s-3.582-8-8-8
	H289.304l145.224-48.408C437.796,414.503,440.001,411.445,440,408z M120,152.432L286.696,208L240,223.568L73.296,168L120,152.432z
	 M319.936,207.688c-0.04-0.441-0.12-0.878-0.24-1.304c-0.018-0.306-0.055-0.611-0.112-0.912c0-0.104-0.112-0.168-0.144-0.264
	s-0.136-0.368-0.224-0.552c-0.205-0.376-0.44-0.735-0.704-1.072c-0.212-0.361-0.45-0.706-0.712-1.032
	c-0.114-0.123-0.234-0.241-0.36-0.352c-0.302-0.249-0.623-0.474-0.96-0.672c-0.365-0.285-0.753-0.54-1.16-0.76
	c-0.168-0.08-0.344-0.136-0.52-0.2s-0.168-0.12-0.272-0.16L145.296,144L168,136.432l184,61.336v55.104l-32,10.672V208
	C320,207.888,319.944,207.8,319.936,207.688L319.936,207.688z M240,112.432L406.704,168L360,183.568L193.304,128L240,112.432z
	 M56,179.104l176,58.664v223.136L56,402.232V179.104z M248,460.904V237.768l56-18.664v55.536c0.047,0.439,0.135,0.873,0.264,1.296
	c0.015,0.414,0.065,0.827,0.152,1.232c0,0.112,0.112,0.2,0.152,0.304c0.137,0.302,0.292,0.596,0.464,0.88
	c0.282,0.575,0.634,1.112,1.048,1.6c0.223,0.241,0.458,0.471,0.704,0.688c0.488,0.421,1.025,0.781,1.6,1.072
	c0.272,0.136,0.52,0.288,0.8,0.4c0.898,0.363,1.855,0.559,2.824,0.576c0.86-0.002,1.713-0.142,2.528-0.416l48-16
	c0.104,0,0.176-0.12,0.272-0.16c0.529-0.224,1.029-0.511,1.488-0.856c0.409-0.229,0.795-0.497,1.152-0.8
	c0.647-0.778,1.24-1.598,1.776-2.456c0.313-0.992,0.553-2.005,0.72-3.032c0-0.112,0.064-0.2,0.064-0.312v-60.888l56-18.664v223.128
	L248,460.904z"/>
<g>
	
		<linearGradient id="SVGID_2_" gradientUnits="userSpaceOnUse" x1="-26.875" y1="557.654" x2="-26.875" y2="617.534" gradientTransform="matrix(8 0 0 -8 455.0001 4941)">
		<stop  offset="0" style="stop-color:#006DF0"/>
		<stop  offset="1" style="stop-color:#00E7F0"/>
	</linearGradient>
	<path style="fill:url(#SVGID_2_);" d="M240,80c4.418,0,8-3.582,8-8V8c0-4.418-3.582-8-8-8s-8,3.582-8,8v64
		C232,76.418,235.582,80,240,80z"/>
	
		<linearGradient id="SVGID_3_" gradientUnits="userSpaceOnUse" x1="-16.875" y1="557.654" x2="-16.875" y2="617.534" gradientTransform="matrix(8 0 0 -8 455.0001 4941)">
		<stop  offset="0" style="stop-color:#006DF0"/>
		<stop  offset="1" style="stop-color:#00E7F0"/>
	</linearGradient>
	<path style="fill:url(#SVGID_3_);" d="M320,104c4.418,0,8-3.582,8-8V32c0-4.418-3.582-8-8-8s-8,3.582-8,8v64
		C312,100.418,315.582,104,320,104z"/>
	
		<linearGradient id="SVGID_4_" gradientUnits="userSpaceOnUse" x1="-6.875" y1="557.654" x2="-6.875" y2="617.534" gradientTransform="matrix(8 0 0 -8 455.0001 4941)">
		<stop  offset="0" style="stop-color:#006DF0"/>
		<stop  offset="1" style="stop-color:#00E7F0"/>
	</linearGradient>
	<path style="fill:url(#SVGID_4_);" d="M400,128c4.418,0,8-3.582,8-8V56c0-4.418-3.582-8-8-8s-8,3.582-8,8v64
		C392,124.418,395.582,128,400,128z"/>
	
		<linearGradient id="SVGID_5_" gradientUnits="userSpaceOnUse" x1="-37.875" y1="557.654" x2="-37.875" y2="617.534" gradientTransform="matrix(8 0 0 -8 455.0001 4941)">
		<stop  offset="0" style="stop-color:#006DF0"/>
		<stop  offset="1" style="stop-color:#00E7F0"/>
	</linearGradient>
	<path style="fill:url(#SVGID_5_);" d="M152,104c4.418,0,8-3.582,8-8V32c0-4.418-3.582-8-8-8s-8,3.582-8,8v64
		C144,100.418,147.582,104,152,104z"/>
	
		<linearGradient id="SVGID_6_" gradientUnits="userSpaceOnUse" x1="-47.875" y1="557.654" x2="-47.875" y2="617.534" gradientTransform="matrix(8 0 0 -8 455.0001 4941)">
		<stop  offset="0" style="stop-color:#006DF0"/>
		<stop  offset="1" style="stop-color:#00E7F0"/>
	</linearGradient>
	<path style="fill:url(#SVGID_6_);" d="M72,128c4.418,0,8-3.582,8-8V56c0-4.418-3.582-8-8-8s-8,3.582-8,8v64
		C64,124.418,67.582,128,72,128z"/>
</g>
<g>
</g>
<g>
</g>
<g>
</g>
<g>
</g>
<g>
</g>
<g>
</g>
<g>
</g>
<g>
</g>
<g>
</g>
<g>
</g>
<g>
</g>
<g>
</g>
<g>
</g>
<g>
</g>
<g>
</g>
</svg>
