<?xml version="1.0" encoding="iso-8859-1"?>
<!-- Generator: Adobe Illustrator 19.0.0, SVG Export Plug-In . SVG Version: 6.00 Build 0)  -->
<svg version="1.1" id="Capa_1" xmlns="http://www.w3.org/2000/svg" xmlns:xlink="http://www.w3.org/1999/xlink" x="0px" y="0px"
	 viewBox="0 0 480 480" style="enable-background:new 0 0 480 480;" xml:space="preserve">
<g>
	
		<linearGradient id="SVGID_1_" gradientUnits="userSpaceOnUse" x1="-26.875" y1="559.936" x2="-26.875" y2="625.295" gradientTransform="matrix(8 0 0 -8 455 4941)">
		<stop  offset="0" style="stop-color:#006DF0"/>
		<stop  offset="1" style="stop-color:#00E7F0"/>
	</linearGradient>
	<path style="fill:url(#SVGID_1_);" d="M472,384h-8V24c0-13.255-10.745-24-24-24H40C26.745,0,16,10.745,16,24v360H8
		c-4.418,0-8,3.582-8,8v32c0,4.418,3.582,8,8,8h144v40c0,4.418,3.582,8,8,8h160c4.418,0,8-3.582,8-8v-40h144c4.418,0,8-3.582,8-8
		v-32C480,387.582,476.418,384,472,384z M32,24c0-4.418,3.582-8,8-8h400c4.418,0,8,3.582,8,8v360H328v-72h32c4.418,0,8-3.582,8-8
		v-48c0-4.418-3.582-8-8-8H120c-4.418,0-8,3.582-8,8v48c0,4.418,3.582,8,8,8h32v72H32V24z M160,272c-4.418,0-8,3.582-8,8v16h-24v-32
		h224v32h-24v-16c0-4.418-3.582-8-8-8H160z M16,416v-16h136v16H16z M312,464H168V288h144V464z M464,416H328v-16h136V416z"/>
	
		<linearGradient id="SVGID_2_" gradientUnits="userSpaceOnUse" x1="-26.875" y1="559.936" x2="-26.875" y2="625.295" gradientTransform="matrix(8 0 0 -8 455 4941)">
		<stop  offset="0" style="stop-color:#006DF0"/>
		<stop  offset="1" style="stop-color:#00E7F0"/>
	</linearGradient>
	<path style="fill:url(#SVGID_2_);" d="M120,224h240c4.418,0,8-3.582,8-8V56c0-4.418-3.582-8-8-8H120c-4.418,0-8,3.582-8,8v160
		C112,220.418,115.582,224,120,224z M128,64h224v144H128V64z"/>
</g>
<g>
	
		<linearGradient id="SVGID_3_" gradientUnits="userSpaceOnUse" x1="-47.875" y1="559.936" x2="-47.875" y2="625.295" gradientTransform="matrix(8 0 0 -8 455 4941)">
		<stop  offset="0" style="stop-color:#006DF0"/>
		<stop  offset="1" style="stop-color:#00E7F0"/>
	</linearGradient>
	<path style="fill:url(#SVGID_3_);" d="M88,48H56c-4.418,0-8,3.582-8,8v32c0,4.418,3.582,8,8,8h32c4.418,0,8-3.582,8-8V56
		C96,51.582,92.418,48,88,48z M80,80H64V64h16V80z"/>
	
		<linearGradient id="SVGID_4_" gradientUnits="userSpaceOnUse" x1="-47.875" y1="559.936" x2="-47.875" y2="625.295" gradientTransform="matrix(8 0 0 -8 455 4941)">
		<stop  offset="0" style="stop-color:#006DF0"/>
		<stop  offset="1" style="stop-color:#00E7F0"/>
	</linearGradient>
	<path style="fill:url(#SVGID_4_);" d="M88,112H56c-4.418,0-8,3.582-8,8v32c0,4.418,3.582,8,8,8h32c4.418,0,8-3.582,8-8v-32
		C96,115.582,92.418,112,88,112z M80,144H64v-16h16V144z"/>
	
		<linearGradient id="SVGID_5_" gradientUnits="userSpaceOnUse" x1="-47.875" y1="559.936" x2="-47.875" y2="625.295" gradientTransform="matrix(8 0 0 -8 455 4941)">
		<stop  offset="0" style="stop-color:#006DF0"/>
		<stop  offset="1" style="stop-color:#00E7F0"/>
	</linearGradient>
	<path style="fill:url(#SVGID_5_);" d="M88,176H56c-4.418,0-8,3.582-8,8v32c0,4.418,3.582,8,8,8h32c4.418,0,8-3.582,8-8v-32
		C96,179.582,92.418,176,88,176z M80,208H64v-16h16V208z"/>
</g>
<g>
	
		<linearGradient id="SVGID_6_" gradientUnits="userSpaceOnUse" x1="-5.875" y1="559.936" x2="-5.875" y2="625.295" gradientTransform="matrix(8 0 0 -8 455 4941)">
		<stop  offset="0" style="stop-color:#006DF0"/>
		<stop  offset="1" style="stop-color:#00E7F0"/>
	</linearGradient>
	<path style="fill:url(#SVGID_6_);" d="M392,96h32c4.418,0,8-3.582,8-8V56c0-4.418-3.582-8-8-8h-32c-4.418,0-8,3.582-8,8v32
		C384,92.418,387.582,96,392,96z M400,64h16v16h-16V64z"/>
	
		<linearGradient id="SVGID_7_" gradientUnits="userSpaceOnUse" x1="-5.875" y1="559.936" x2="-5.875" y2="625.295" gradientTransform="matrix(8 0 0 -8 455 4941)">
		<stop  offset="0" style="stop-color:#006DF0"/>
		<stop  offset="1" style="stop-color:#00E7F0"/>
	</linearGradient>
	<path style="fill:url(#SVGID_7_);" d="M392,160h32c4.418,0,8-3.582,8-8v-32c0-4.418-3.582-8-8-8h-32c-4.418,0-8,3.582-8,8v32
		C384,156.418,387.582,160,392,160z M400,128h16v16h-16V128z"/>
	
		<linearGradient id="SVGID_8_" gradientUnits="userSpaceOnUse" x1="-5.875" y1="559.936" x2="-5.875" y2="625.295" gradientTransform="matrix(8 0 0 -8 455 4941)">
		<stop  offset="0" style="stop-color:#006DF0"/>
		<stop  offset="1" style="stop-color:#00E7F0"/>
	</linearGradient>
	<path style="fill:url(#SVGID_8_);" d="M392,224h32c4.418,0,8-3.582,8-8v-32c0-4.418-3.582-8-8-8h-32c-4.418,0-8,3.582-8,8v32
		C384,220.418,387.582,224,392,224z M400,192h16v16h-16V192z"/>
</g>
<linearGradient id="SVGID_9_" gradientUnits="userSpaceOnUse" x1="-26.875" y1="559.936" x2="-26.875" y2="625.295" gradientTransform="matrix(8 0 0 -8 455 4941)">
	<stop  offset="0" style="stop-color:#006DF0"/>
	<stop  offset="1" style="stop-color:#00E7F0"/>
</linearGradient>
<path style="fill:url(#SVGID_9_);" d="M240,336c8.837,0,16,7.163,16,16c0,4.418,3.582,8,8,8s8-3.582,8-8
	c-0.055-14.547-9.915-27.227-24-30.864V312c0-4.418-3.582-8-8-8s-8,3.582-8,8v9.136c-17.081,4.396-27.364,21.807-22.968,38.888
	C212.668,374.151,225.413,384.018,240,384c8.837,0,16,7.163,16,16s-7.163,16-16,16c-8.837,0-16-7.163-16-16c0-4.418-3.582-8-8-8
	s-8,3.582-8,8c0.055,14.547,9.915,27.227,24,30.864V440c0,4.418,3.582,8,8,8s8-3.582,8-8v-9.136
	c17.081-4.396,27.364-21.807,22.968-38.888C267.332,377.849,254.587,367.982,240,368c-8.837,0-16-7.163-16-16S231.163,336,240,336z"
	/>
<g>
</g>
<g>
</g>
<g>
</g>
<g>
</g>
<g>
</g>
<g>
</g>
<g>
</g>
<g>
</g>
<g>
</g>
<g>
</g>
<g>
</g>
<g>
</g>
<g>
</g>
<g>
</g>
<g>
</g>
</svg>
