<?xml version="1.0" encoding="iso-8859-1"?>
<!-- Generator: Adobe Illustrator 19.0.0, SVG Export Plug-In . SVG Version: 6.00 Build 0)  -->
<svg version="1.1" id="Capa_1" xmlns="http://www.w3.org/2000/svg" xmlns:xlink="http://www.w3.org/1999/xlink" x="0px" y="0px"
	 viewBox="0 0 480 480" style="enable-background:new 0 0 480 480;" xml:space="preserve">
<g>
	
		<linearGradient id="SVGID_1_" gradientUnits="userSpaceOnUse" x1="-26.875" y1="557.405" x2="-26.875" y2="620.399" gradientTransform="matrix(8 0 0 -8 455 4941)">
		<stop  offset="0" style="stop-color:#006DF0"/>
		<stop  offset="1" style="stop-color:#00E7F0"/>
	</linearGradient>
	<path style="fill:url(#SVGID_1_);" d="M240,480C107.452,480,0,372.548,0,240S107.452,0,240,0s240,107.452,240,240
		C479.85,372.486,372.486,479.85,240,480z M240,16C116.288,16,16,116.288,16,240s100.288,224,224,224s224-100.288,224-224
		C463.859,116.347,363.653,16.141,240,16z"/>
	
		<linearGradient id="SVGID_2_" gradientUnits="userSpaceOnUse" x1="-26.878" y1="557.405" x2="-26.878" y2="620.399" gradientTransform="matrix(8 0 0 -8 455 4941)">
		<stop  offset="0" style="stop-color:#006DF0"/>
		<stop  offset="1" style="stop-color:#00E7F0"/>
	</linearGradient>
	<path style="fill:url(#SVGID_2_);" d="M73.224,304.392c-3.431-0.001-6.478-2.19-7.576-5.44
		C33.175,202.66,84.911,98.275,181.204,65.802s200.677,19.263,233.15,115.556c12.817,38.006,12.864,79.159,0.134,117.194
		c-1.405,4.197-5.947,6.461-10.144,5.056s-6.461-5.947-5.056-10.144c29.448-87.987-18.006-183.186-105.993-212.635
		S110.109,98.836,80.66,186.822c-11.624,34.73-11.58,72.307,0.124,107.01c1.414,4.186-0.833,8.725-5.019,10.139
		c-0.826,0.279-1.693,0.421-2.565,0.421H73.224z"/>
	
		<linearGradient id="SVGID_3_" gradientUnits="userSpaceOnUse" x1="-26.875" y1="557.405" x2="-26.875" y2="620.399" gradientTransform="matrix(8 0 0 -8 455 4941)">
		<stop  offset="0" style="stop-color:#006DF0"/>
		<stop  offset="1" style="stop-color:#00E7F0"/>
	</linearGradient>
	<path style="fill:url(#SVGID_3_);" d="M240,440c-4.418,0-8-3.582-8-8v-32c0-4.418,3.582-8,8-8s8,3.582,8,8v32
		C248,436.418,244.418,440,240,440z"/>
</g>
<g>
	
		<linearGradient id="SVGID_4_" gradientUnits="userSpaceOnUse" x1="-21.1799" y1="557.405" x2="-21.1799" y2="620.399" gradientTransform="matrix(8 0 0 -8 455 4941)">
		<stop  offset="0" style="stop-color:#006DF0"/>
		<stop  offset="1" style="stop-color:#00E7F0"/>
	</linearGradient>
	<path style="fill:url(#SVGID_4_);" d="M289.688,433.464c-3.62-0.004-6.786-2.439-7.72-5.936l-8.28-30.912
		c-1.122-4.274,1.433-8.647,5.707-9.769c4.245-1.114,8.594,1.399,9.749,5.633l8.28,30.912c1.14,4.266-1.392,8.648-5.656,9.792
		C291.09,433.371,290.391,433.465,289.688,433.464z"/>
	
		<linearGradient id="SVGID_5_" gradientUnits="userSpaceOnUse" x1="-15.8777" y1="557.405" x2="-15.8777" y2="620.399" gradientTransform="matrix(8 0 0 -8 455 4941)">
		<stop  offset="0" style="stop-color:#006DF0"/>
		<stop  offset="1" style="stop-color:#00E7F0"/>
	</linearGradient>
	<path style="fill:url(#SVGID_5_);" d="M336,414.272c-2.861,0.003-5.506-1.522-6.936-4l-16-27.712
		c-2.235-3.811-0.957-8.713,2.854-10.948c3.811-2.235,8.713-0.957,10.948,2.854c0.018,0.031,0.036,0.062,0.054,0.093l16,27.712
		c2.209,3.826,0.898,8.719-2.928,10.928C338.778,413.901,337.401,414.271,336,414.272L336,414.272z"/>
	
		<linearGradient id="SVGID_6_" gradientUnits="userSpaceOnUse" x1="-11.312" y1="557.405" x2="-11.312" y2="620.399" gradientTransform="matrix(8 0 0 -8 455 4941)">
		<stop  offset="0" style="stop-color:#006DF0"/>
		<stop  offset="1" style="stop-color:#00E7F0"/>
	</linearGradient>
	<path style="fill:url(#SVGID_6_);" d="M375.768,383.768c-2.122,0-4.156-0.844-5.656-2.344L347.488,358.8
		c-3.07-3.178-2.982-8.242,0.196-11.312c3.1-2.995,8.016-2.995,11.116,0l22.624,22.624c3.124,3.125,3.123,8.19-0.002,11.314
		C379.923,382.925,377.889,383.768,375.768,383.768z"/>
	
		<linearGradient id="SVGID_7_" gradientUnits="userSpaceOnUse" x1="-7.8269" y1="557.405" x2="-7.8269" y2="620.399" gradientTransform="matrix(8 0 0 -8 455 4941)">
		<stop  offset="0" style="stop-color:#006DF0"/>
		<stop  offset="1" style="stop-color:#00E7F0"/>
	</linearGradient>
	<path style="fill:url(#SVGID_7_);" d="M406.264,344c-1.405,0.003-2.785-0.367-4-1.072l-27.712-16
		c-3.841-2.183-5.185-7.067-3.002-10.908c2.183-3.841,7.067-5.185,10.908-3.002c0.031,0.018,0.062,0.036,0.093,0.054l27.712,16
		c3.826,2.209,5.137,7.102,2.928,10.928C411.763,342.475,409.122,344,406.264,344L406.264,344z"/>
	
		<linearGradient id="SVGID_8_" gradientUnits="userSpaceOnUse" x1="-32.5701" y1="557.405" x2="-32.5701" y2="620.399" gradientTransform="matrix(8 0 0 -8 455 4941)">
		<stop  offset="0" style="stop-color:#006DF0"/>
		<stop  offset="1" style="stop-color:#00E7F0"/>
	</linearGradient>
	<path style="fill:url(#SVGID_8_);" d="M190.312,433.464c-0.703,0.001-1.402-0.093-2.08-0.28c-4.264-1.144-6.796-5.526-5.656-9.792
		l8.28-30.912c1.163-4.263,5.561-6.776,9.823-5.613c4.234,1.155,6.747,5.504,5.633,9.749l-8.28,30.912
		C197.098,431.025,193.932,433.46,190.312,433.464L190.312,433.464z"/>
	
		<linearGradient id="SVGID_9_" gradientUnits="userSpaceOnUse" x1="-37.8756" y1="557.405" x2="-37.8756" y2="620.399" gradientTransform="matrix(8 0 0 -8 455 4941)">
		<stop  offset="0" style="stop-color:#006DF0"/>
		<stop  offset="1" style="stop-color:#00E7F0"/>
	</linearGradient>
	<path style="fill:url(#SVGID_9_);" d="M144,414.272c-4.418-0.005-7.996-3.59-7.992-8.008c0.001-1.401,0.371-2.778,1.072-3.992
		l16-27.712c2.234-3.812,7.136-5.09,10.947-2.856c3.776,2.214,5.072,7.051,2.909,10.856l-16,27.712
		C149.506,412.75,146.861,414.275,144,414.272z"/>
	
		<linearGradient id="SVGID_10_" gradientUnits="userSpaceOnUse" x1="-42.438" y1="557.405" x2="-42.438" y2="620.399" gradientTransform="matrix(8 0 0 -8 455 4941)">
		<stop  offset="0" style="stop-color:#006DF0"/>
		<stop  offset="1" style="stop-color:#00E7F0"/>
	</linearGradient>
	<path style="fill:url(#SVGID_10_);" d="M104.232,383.768c-4.418-0.001-7.999-3.583-7.998-8.002c0-2.121,0.843-4.154,2.342-5.654
		l22.624-22.624c3.178-3.069,8.243-2.982,11.312,0.196c2.994,3.1,2.994,8.015,0,11.116l-22.624,22.624
		C108.388,382.924,106.354,383.768,104.232,383.768z"/>
	
		<linearGradient id="SVGID_11_" gradientUnits="userSpaceOnUse" x1="-45.923" y1="557.405" x2="-45.923" y2="620.399" gradientTransform="matrix(8 0 0 -8 455 4941)">
		<stop  offset="0" style="stop-color:#006DF0"/>
		<stop  offset="1" style="stop-color:#00E7F0"/>
	</linearGradient>
	<path style="fill:url(#SVGID_11_);" d="M73.736,344c-4.418,0-8-3.582-8-8c0-2.858,1.525-5.499,4-6.928l27.712-16
		c3.811-2.235,8.713-0.957,10.948,2.854c2.235,3.811,0.957,8.713-2.854,10.948c-0.031,0.018-0.062,0.036-0.093,0.054l-27.712,16
		C76.521,343.633,75.141,344.003,73.736,344L73.736,344z"/>
</g>
<linearGradient id="SVGID_12_" gradientUnits="userSpaceOnUse" x1="-26.8688" y1="557.405" x2="-26.8688" y2="620.399" gradientTransform="matrix(8 0 0 -8 455 4941)">
	<stop  offset="0" style="stop-color:#006DF0"/>
	<stop  offset="1" style="stop-color:#00E7F0"/>
</linearGradient>
<path style="fill:url(#SVGID_12_);" d="M327.528,325.312l-80-224c-1.495-4.158-6.078-6.316-10.235-4.821
	c-2.245,0.808-4.013,2.575-4.821,4.821l-80,224c-1.317,4.217,1.034,8.704,5.252,10.021c3.979,1.242,8.245-0.779,9.804-4.645
	L188.496,272h103.008l20.968,58.688c1.135,3.183,4.149,5.309,7.528,5.312c4.418-0.004,7.997-3.589,7.993-8.007
	C327.992,327.079,327.835,326.173,327.528,325.312L327.528,325.312z M194.208,256L240,127.792L285.792,256H194.208z"/>
<g>
</g>
<g>
</g>
<g>
</g>
<g>
</g>
<g>
</g>
<g>
</g>
<g>
</g>
<g>
</g>
<g>
</g>
<g>
</g>
<g>
</g>
<g>
</g>
<g>
</g>
<g>
</g>
<g>
</g>
</svg>
