<?xml version="1.0" encoding="iso-8859-1"?>
<!-- Generator: Adobe Illustrator 19.0.0, SVG Export Plug-In . SVG Version: 6.00 Build 0)  -->
<svg version="1.1" id="Capa_1" xmlns="http://www.w3.org/2000/svg" xmlns:xlink="http://www.w3.org/1999/xlink" x="0px" y="0px"
	 viewBox="0 0 485.146 485.146" style="enable-background:new 0 0 485.146 485.146;" xml:space="preserve">
<linearGradient id="SVGID_1_" gradientUnits="userSpaceOnUse" x1="-84.6874" y1="569.6248" x2="-39.6464" y2="614.6638" gradientTransform="matrix(5.6569 -5.6569 -5.6569 -5.6569 3736.7834 3240.5156)">
	<stop  offset="0" style="stop-color:#006DF0"/>
	<stop  offset="1" style="stop-color:#00E7F0"/>
</linearGradient>
<path style="fill:url(#SVGID_1_);" d="M24.109,291.441l11.314-11.314l11.314,11.314l-11.314,11.314L24.109,291.441z"/>
<linearGradient id="SVGID_2_" gradientUnits="userSpaceOnUse" x1="-79.865" y1="568.7997" x2="-34.819" y2="613.8317" gradientTransform="matrix(5.6558 -5.6578 -5.6578 -5.6558 3727.9084 3262.4575)">
	<stop  offset="0" style="stop-color:#006DF0"/>
	<stop  offset="1" style="stop-color:#00E7F0"/>
</linearGradient>
<path style="fill:url(#SVGID_2_);" d="M46.71,314.064l11.312-11.316l11.316,11.312l-11.312,11.316L46.71,314.064z"/>
<linearGradient id="SVGID_3_" gradientUnits="userSpaceOnUse" x1="-75.0204" y1="567.9596" x2="-29.9964" y2="613.0146" gradientTransform="matrix(5.6588 -5.6549 -5.6549 -5.6588 3716.9199 3287.0229)">
	<stop  offset="0" style="stop-color:#006DF0"/>
	<stop  offset="1" style="stop-color:#00E7F0"/>
</linearGradient>
<path style="fill:url(#SVGID_3_);" d="M69.338,336.694l11.318-11.31l11.31,11.318l-11.318,11.31L69.338,336.694z"/>
<linearGradient id="SVGCleanerId_0_2_" gradientUnits="userSpaceOnUse" x1="-70.2027" y1="567.1371" x2="-25.1627" y2="612.1791" gradientTransform="matrix(5.6569 -5.6569 -5.6569 -5.6569 3708.6636 3308.3796)">
	<stop  offset="0" style="stop-color:#006DF0"/>
	<stop  offset="1" style="stop-color:#00E7F0"/>
</linearGradient>
<path id="SVGCleanerId_0" style="fill:url(#SVGCleanerId_0_2_);" d="M91.992,359.31l11.314-11.314l11.314,11.314l-11.314,11.314
	L91.992,359.31z"/>
<g>
	
		<linearGradient id="SVGCleanerId_0_3_" gradientUnits="userSpaceOnUse" x1="-70.2027" y1="567.1371" x2="-25.1627" y2="612.1791" gradientTransform="matrix(5.6569 -5.6569 -5.6569 -5.6569 3708.6636 3308.3796)">
		<stop  offset="0" style="stop-color:#006DF0"/>
		<stop  offset="1" style="stop-color:#00E7F0"/>
	</linearGradient>
	<path id="SVGCleanerId_0_1_" style="fill:url(#SVGCleanerId_0_3_);" d="M91.992,359.31l11.314-11.314l11.314,11.314l-11.314,11.314
		L91.992,359.31z"/>
</g>
<linearGradient id="SVGID_4_" gradientUnits="userSpaceOnUse" x1="-65.3769" y1="566.3156" x2="-20.3289" y2="611.3425" gradientTransform="matrix(5.6558 -5.6578 -5.6578 -5.6558 3699.8125 3330.3535)">
	<stop  offset="0" style="stop-color:#006DF0"/>
	<stop  offset="1" style="stop-color:#00E7F0"/>
</linearGradient>
<path style="fill:url(#SVGID_4_);" d="M114.622,381.943l11.312-11.316l11.316,11.312l-11.312,11.316L114.622,381.943z"/>
<linearGradient id="SVGID_5_" gradientUnits="userSpaceOnUse" x1="-60.5435" y1="565.4839" x2="-15.5035" y2="610.5239" gradientTransform="matrix(5.6569 -5.6569 -5.6569 -5.6569 3689.9197 3353.6519)">
	<stop  offset="0" style="stop-color:#006DF0"/>
	<stop  offset="1" style="stop-color:#00E7F0"/>
</linearGradient>
<path style="fill:url(#SVGID_5_);" d="M137.244,404.577l11.314-11.314l11.314,11.314l-11.314,11.314L137.244,404.577z"/>
<linearGradient id="SVGID_6_" gradientUnits="userSpaceOnUse" x1="-55.7171" y1="564.6525" x2="-10.6761" y2="609.6924" gradientTransform="matrix(5.6569 -5.6569 -5.6569 -5.6569 3680.5435 3376.2756)">
	<stop  offset="0" style="stop-color:#006DF0"/>
	<stop  offset="1" style="stop-color:#00E7F0"/>
</linearGradient>
<path style="fill:url(#SVGID_6_);" d="M159.875,427.201l11.314-11.314l11.314,11.314l-11.314,11.314L159.875,427.201z"/>
<linearGradient id="SVGID_7_" gradientUnits="userSpaceOnUse" x1="-50.8871" y1="563.8264" x2="-5.8471" y2="608.8654" gradientTransform="matrix(5.6569 -5.6569 -5.6569 -5.6569 3671.1995 3398.8997)">
	<stop  offset="0" style="stop-color:#006DF0"/>
	<stop  offset="1" style="stop-color:#00E7F0"/>
</linearGradient>
<path style="fill:url(#SVGID_7_);" d="M182.526,449.825l11.314-11.314l11.314,11.314l-11.314,11.314L182.526,449.825z"/>
<g>
	
		<linearGradient id="SVGID_8_" gradientUnits="userSpaceOnUse" x1="-17.9463" y1="551.5967" x2="-6.1753" y2="615.2938" gradientTransform="matrix(8 0 0 -8 454.7277 4987.9199)">
		<stop  offset="0" style="stop-color:#006DF0"/>
		<stop  offset="1" style="stop-color:#00E7F0"/>
	</linearGradient>
	<path style="fill:url(#SVGID_8_);" d="M352.039,349.213c0-4.418-3.582-8-8-8s-8,3.582-8,8v40h-40c-4.418,0-8,3.582-8,8s3.582,8,8,8
		h40v40c0,4.418,3.582,8,8,8s8-3.582,8-8v-40h40c4.418,0,8-3.582,8-8s-3.582-8-8-8h-40V349.213z"/>
	
		<linearGradient id="SVGID_9_" gradientUnits="userSpaceOnUse" x1="-34.37" y1="554.6318" x2="-22.599" y2="618.3288" gradientTransform="matrix(8 0 0 -8 454.7277 4987.9199)">
		<stop  offset="0" style="stop-color:#006DF0"/>
		<stop  offset="1" style="stop-color:#00E7F0"/>
	</linearGradient>
	<path style="fill:url(#SVGID_9_);" d="M482.711,126.413c-3.124-3.123-8.188-3.123-11.312,0
		c-9.896,9.849-22.223,16.904-35.728,20.448l-11.424-66.256c-1.689-10.029-9.541-17.891-19.568-19.592l-66.976-11.552
		c3.5-13.678,10.6-26.169,20.56-36.176c2.919-3.317,2.597-8.372-0.72-11.291c-3.03-2.667-7.571-2.658-10.592,0.019
		c-12.353,12.318-21.077,27.798-25.216,44.744l-61.864-10.712c-7.677-1.303-15.509,1.199-21.008,6.712l-231.8,231.72
		c-9.283,9.398-9.283,24.514,0,33.912l169.776,169.76c4.491,4.489,10.586,7.003,16.936,6.984c6.371,0.007,12.487-2.503,17.016-6.984
		l50.76-50.752c16.663,45.594,67.133,69.047,112.727,52.384c45.594-16.663,69.047-67.133,52.384-112.727
		c-8.897-24.343-28.083-43.518-52.431-52.401l68.264-68.264c5.513-5.499,8.015-13.331,6.712-21.008l-10.768-62.568
		c16.773-4.188,32.086-12.874,44.288-25.12C485.824,134.569,485.817,129.529,482.711,126.413L482.711,126.413z M416.039,397.213
		c0.037,39.72-32.133,71.95-71.853,71.987c-33.819,0.031-63.09-23.503-70.323-56.539c-0.08-0.367-0.184-0.727-0.312-1.08
		c-0.138-0.479-0.237-0.969-0.296-1.464c-0.806-4.254-1.213-8.574-1.216-12.904c0.044-39.746,32.254-71.956,72-72
		c4.379,0.004,8.747,0.419,13.048,1.24c0.688,0.12,1.32,0.224,2.4,0.504C392.445,334.274,415.932,363.453,416.039,397.213z
		 M431.183,235.077l-75.096,75.088c-3.989-0.6-8.015-0.918-12.048-0.952c-48.577,0.057-87.943,39.423-88,88
		c0.03,4.06,0.351,8.113,0.96,12.128l-57.464,57.472c-3.1,3.148-8.165,3.187-11.313,0.086c-0.016-0.015-0.031-0.031-0.047-0.046
		L18.439,297.077c-3.128-3.12-3.135-8.186-0.014-11.314c0.005-0.005,0.01-0.01,0.014-0.014l231.76-231.68
		c1.836-1.821,4.43-2.659,6.984-2.256l144.8,24.968c3.318,0.587,5.913,3.191,6.488,6.512l11.44,66.4
		c-10.148,0.696-20.334-0.6-29.984-3.816c7.177-20.729-3.809-43.352-24.539-50.529c-10.522-3.643-22.09-2.702-31.885,2.593
		c-0.772,0.055-1.532,0.222-2.256,0.496c-1.439,0.692-2.631,1.809-3.416,3.2c-17.422,13.496-20.605,38.561-7.109,55.983
		s38.561,20.605,55.983,7.109c1.326-1.028,2.587-2.138,3.774-3.324c0.464-0.472,0.8-1.016,1.224-1.504
		c10.501,3.973,21.629,6.029,32.856,6.072c2.688,0,5.384-0.176,8.08-0.408l10.792,62.592
		C433.835,230.691,432.998,233.265,431.183,235.077L431.183,235.077z M358.263,126.413c-4.871-4.885-9.082-10.384-12.528-16.36
		c12.604-3.666,25.794,3.58,29.46,16.184c1.243,4.274,1.261,8.812,0.052,13.096C369.027,135.815,363.314,131.469,358.263,126.413
		L358.263,126.413z M366.119,152.485c-9.591,6.553-22.454,5.523-30.88-2.472c-8.221-8.262-9.317-21.235-2.6-30.76
		c8.141,13.754,19.67,25.193,33.488,33.224L366.119,152.485z"/>
</g>
<g>
</g>
<g>
</g>
<g>
</g>
<g>
</g>
<g>
</g>
<g>
</g>
<g>
</g>
<g>
</g>
<g>
</g>
<g>
</g>
<g>
</g>
<g>
</g>
<g>
</g>
<g>
</g>
<g>
</g>
</svg>
