<?xml version="1.0" encoding="iso-8859-1"?>
<!-- Generator: Adobe Illustrator 19.0.0, SVG Export Plug-In . SVG Version: 6.00 Build 0)  -->
<svg version="1.1" id="Capa_1" xmlns="http://www.w3.org/2000/svg" xmlns:xlink="http://www.w3.org/1999/xlink" x="0px" y="0px"
	 viewBox="0 0 480 480" style="enable-background:new 0 0 480 480;" xml:space="preserve">
<linearGradient id="SVGID_1_" gradientUnits="userSpaceOnUse" x1="-26.8718" y1="559.4951" x2="-26.8718" y2="615.6971" gradientTransform="matrix(8 0 0 -8 454.9742 4941.0005)">
	<stop  offset="0" style="stop-color:#006DF0"/>
	<stop  offset="1" style="stop-color:#00E7F0"/>
</linearGradient>
<path style="fill:url(#SVGID_1_);" d="M422.3,282.872l40-139.816c12.764-3.456,20.311-16.605,16.855-29.369
	c-2.83-10.452-12.322-17.705-23.151-17.687H74.012l-8.456-74.624C64.238,9.193,53.937-0.03,41.684,0H8.004c-4.418,0-8,3.582-8,8
	s3.582,8,8,8h33.68c4.104-0.024,7.561,3.063,8,7.144l44.8,395.48c1.317,12.171,11.598,21.39,23.84,21.376h10.4
	c4.392,26.112,29.12,43.72,55.232,39.328c20.151-3.389,35.939-19.177,39.328-39.328h70.936
	c35.375,45.201,100.694,53.167,145.895,17.793s53.167-100.694,17.793-145.895C448.352,299.687,436.186,289.77,422.3,282.872
	L422.3,282.872z M407.396,276.8c-0.224-0.072-0.448-0.112-0.672-0.184c-0.688-0.216-1.384-0.376-2.08-0.576
	c-2.288-0.656-4.592-1.24-6.928-1.736c-0.976-0.208-1.952-0.392-2.936-0.568c-2.184-0.4-4.392-0.72-6.608-0.976
	c-0.928-0.104-1.848-0.232-2.784-0.312c-3.104-0.272-6.184-0.448-9.384-0.448c-35.469,0.077-68.475,18.154-87.64,48h-120.36
	c-4.418,0-8,3.582-8,8s3.582,8,8,8h112c-0.464,1.12-0.904,2.248-1.328,3.384c-0.368,0.992-0.712,1.984-1.056,2.984
	c-0.592,1.744-1.128,3.512-1.6,5.296c-0.28,0.992-0.568,1.984-0.8,2.992c-0.112,0.448-0.256,0.888-0.36,1.344H103.004l-23.56-208
	h365.952L407.396,276.8z M75.836,112h380.168c4.418,0,8,3.582,8,8s-3.582,8-8,8h-378.4L75.836,112z M110.348,416.856L104.804,368
	H272.34c-0.208,2.672-0.336,5.344-0.336,8c-0.027,16.714,4,33.185,11.736,48h-60.456c-4.392-26.112-29.12-43.72-55.232-39.328
	c-20.151,3.389-35.939,19.177-39.328,39.328h-10.4C114.228,424.011,110.786,420.928,110.348,416.856z M176.004,464
	c-17.673,0-32-14.327-32-32s14.327-32,32-32s32,14.327,32,32S193.677,464,176.004,464z M376.004,464
	c-28.338-0.044-54.934-13.684-71.504-36.672c-10.783-14.937-16.557-32.906-16.496-51.328c0.008-4.919,0.425-9.83,1.248-14.68
	c1.701-10.323,5.248-20.255,10.472-29.32c15.791-27.19,44.837-43.944,76.28-44c3.129,0.009,6.256,0.18,9.368,0.512
	c8.356,0.854,16.542,2.93,24.296,6.16c44.916,18.563,66.28,70.024,47.716,114.94C443.772,442.547,411.641,464.021,376.004,464
	L376.004,464z"/>
<g>
	
		<linearGradient id="SVGID_2_" gradientUnits="userSpaceOnUse" x1="-9.8713" y1="559.4951" x2="-9.8713" y2="615.6971" gradientTransform="matrix(8 0 0 -8 454.9742 4941.0005)">
		<stop  offset="0" style="stop-color:#006DF0"/>
		<stop  offset="1" style="stop-color:#00E7F0"/>
	</linearGradient>
	<path style="fill:url(#SVGID_2_);" d="M384.004,312c0-4.418-3.582-8-8-8s-8,3.582-8,8v56h-56c-4.418,0-8,3.582-8,8s3.582,8,8,8h56
		v56c0,4.418,3.582,8,8,8s8-3.582,8-8v-56h56c4.418,0,8-3.582,8-8s-3.582-8-8-8h-56V312z"/>
	
		<linearGradient id="SVGID_3_" gradientUnits="userSpaceOnUse" x1="-40.8713" y1="559.4951" x2="-40.8713" y2="615.6971" gradientTransform="matrix(8 0 0 -8 454.9742 4941.0005)">
		<stop  offset="0" style="stop-color:#006DF0"/>
		<stop  offset="1" style="stop-color:#00E7F0"/>
	</linearGradient>
	<path style="fill:url(#SVGID_3_);" d="M120.004,336h16c4.418,0,8-3.582,8-8s-3.582-8-8-8h-16c-4.418,0-8,3.582-8,8
		S115.585,336,120.004,336z"/>
</g>
<g>
</g>
<g>
</g>
<g>
</g>
<g>
</g>
<g>
</g>
<g>
</g>
<g>
</g>
<g>
</g>
<g>
</g>
<g>
</g>
<g>
</g>
<g>
</g>
<g>
</g>
<g>
</g>
<g>
</g>
</svg>
